<?xml version="1.0" encoding="utf-8" standalone="no"?>
<!DOCTYPE svg PUBLIC "-//W3C//DTD SVG 1.1//EN"
  "http://www.w3.org/Graphics/SVG/1.1/DTD/svg11.dtd">
<!-- Created with matplotlib (http://matplotlib.org/) -->
<svg height="432pt" version="1.1" viewBox="0 0 576 432" width="576pt" xmlns="http://www.w3.org/2000/svg" xmlns:xlink="http://www.w3.org/1999/xlink">
 <defs>
  <style type="text/css">
*{stroke-linecap:butt;stroke-linejoin:round;stroke-miterlimit:100000;}
  </style>
 </defs>
 <g id="figure_1">
  <g id="patch_1">
   <path d="M 0 432 
L 576 432 
L 576 0 
L 0 0 
z
" style="fill:#ffffff;"/>
  </g>
  <g id="axes_1">
   <g id="patch_2">
    <path d="M 72 388.8 
L 518.4 388.8 
L 518.4 43.2 
L 72 43.2 
z
" style="fill:#ffffff;"/>
   </g>
   <g id="line2d_1">
    <path clip-path="url(#pdb64d3d453)" d="M 69.112439 181.928529 
L 90.117299 211.941652 
L 111.134974 241.873669 
L 118.124642 251.789051 
L 121.618119 255.344259 
L 125.126206 250.809003 
L 128.636422 249.203752 
L 132.130484 244.37955 
L 135.502452 239.394823 
L 146.144215 225.190887 
L 170.632827 194.032121 
L 177.651338 184.578038 
L 181.159968 181.424987 
L 188.155355 180.69671 
L 191.649583 180.791335 
L 195.156585 181.185044 
L 205.66152 183.062343 
L 212.671391 184.944711 
L 230.175677 190.10855 
L 237.180414 192.367729 
L 244.169456 194.407243 
L 251.188844 196.529553 
L 258.189574 198.508236 
L 265.196815 200.970185 
L 279.194684 206.296238 
L 303.718025 216.169377 
L 307.214466 217.82363 
L 310.707109 219.753311 
L 314.211606 224.471059 
L 317.717272 228.169895 
L 321.218013 230.177303 
L 324.720339 233.048168 
L 328.221497 236.216426 
L 331.724951 240.168723 
L 335.233747 243.252495 
L 338.729395 245.548849 
L 342.234894 249.283169 
L 349.230197 257.091448 
L 352.742709 259.479048 
L 356.238315 262.954838 
L 359.60398 266.734782 
L 363.231698 270.16326 
L 366.736196 272.084492 
L 370.243823 274.169629 
L 373.752036 275.883023 
L 377.24593 276.986422 
L 384.241025 277.740045 
L 387.740471 277.740045 
L 391.256573 277.609935 
L 394.754892 277.131739 
L 398.246575 276.427118 
L 401.782587 275.565352 
L 405.254776 274.583614 
L 408.759232 273.410936 
L 412.27024 272.09632 
L 419.263373 269.095346 
L 426.266899 265.622934 
L 433.260157 261.954514 
L 447.260448 253.8556 
L 461.278645 244.739464 
L 482.281209 229.754869 
L 489.290746 224.256462 
L 496.296109 218.447143 
L 499.79205 214.996698 
L 510.293019 200.569717 
L 513.799561 196.206813 
L 520.801627 186.901427 
L 520.801627 186.901427 
" style="fill:none;stroke:#b4656f;stroke-linecap:square;"/>
   </g>
   <g id="line2d_2">
    <path clip-path="url(#pdb64d3d453)" d="M 69.112439 266.962897 
L 83.111059 252.49874 
L 93.613949 242.054471 
L 100.620188 235.310727 
L 111.134974 225.594734 
L 121.618119 216.480288 
L 132.130484 207.470606 
L 135.502452 204.48315 
L 142.648776 198.498098 
L 149.651592 192.437008 
L 160.153146 183.020099 
L 163.663946 182.143125 
L 174.157569 178.714647 
L 177.651338 178.146895 
L 184.654865 176.727515 
L 188.155355 176.379429 
L 195.156585 176.468986 
L 202.160153 177.584213 
L 205.66152 178.300661 
L 209.168563 179.208051 
L 226.670679 184.809532 
L 233.673872 187.257962 
L 240.676647 189.687805 
L 261.679336 197.021267 
L 275.701791 202.894796 
L 296.71141 212.433366 
L 307.214466 217.568479 
L 310.707109 219.668824 
L 314.211606 224.457541 
L 317.717272 228.119203 
L 321.218013 230.224616 
L 324.720339 233.261075 
L 328.221497 236.90077 
L 331.724951 241.130184 
L 335.233747 244.301822 
L 338.729395 246.89388 
L 342.234894 250.743103 
L 345.737179 254.992794 
L 349.230197 259.031267 
L 352.742709 261.535459 
L 356.238315 265.185292 
L 359.60398 269.13421 
L 363.231698 272.80939 
L 366.736196 274.860731 
L 370.243823 277.209467 
L 373.752036 279.233773 
L 377.24593 280.570356 
L 380.752807 281.18542 
L 384.241025 281.680513 
L 387.740471 282.02522 
L 391.256573 281.89511 
L 394.754892 281.430432 
L 398.246575 280.823816 
L 401.782587 280.02795 
L 405.254776 279.076627 
L 408.759232 277.947882 
L 412.27024 276.626507 
L 419.263373 273.617084 
L 426.266899 270.110878 
L 433.260157 266.36135 
L 440.274828 261.97479 
L 447.260448 257.767343 
L 457.782413 250.362912 
L 461.278645 248.036143 
L 478.780803 234.942364 
L 485.788462 229.259776 
L 496.296109 220.294027 
L 510.293019 207.299943 
L 520.801627 198.087492 
L 520.801627 198.087492 
" style="fill:none;stroke:#f3d34a;stroke-linecap:square;"/>
   </g>
   <g id="line2d_3">
    <path clip-path="url(#pdb64d3d453)" d="M 69.112439 256.11309 
L 79.617582 241.718213 
L 104.12744 207.38274 
L 114.620103 192.752989 
L 125.126206 178.167172 
L 128.636422 174.402436 
L 132.130484 175.385864 
L 135.502452 175.774503 
L 139.150498 180.576738 
L 142.648776 181.092108 
L 146.144215 181.453712 
L 149.651592 185.480358 
L 153.144694 185.84872 
L 156.639591 185.835203 
L 160.153146 184.713217 
L 163.663946 184.909226 
L 170.632827 182.825779 
L 174.157569 181.974152 
L 177.651338 181.605789 
L 184.654865 180.539564 
L 188.155355 180.335106 
L 191.649583 180.399316 
L 195.156585 180.706848 
L 205.66152 182.577388 
L 212.671391 184.43441 
L 223.171275 187.442143 
L 226.670679 188.582716 
L 230.175677 189.584731 
L 237.180414 191.865877 
L 244.169456 193.942565 
L 251.188844 196.080083 
L 258.189574 198.090871 
L 268.700728 201.853917 
L 279.194684 205.96167 
L 300.212568 214.47119 
L 307.214466 217.605654 
L 310.707109 219.631649 
L 314.211606 224.351087 
L 317.717272 227.989093 
L 321.218013 230.082678 
L 324.720339 232.965371 
L 328.221497 236.155596 
L 331.724951 240.209277 
L 335.233747 243.326843 
L 338.729395 245.650233 
L 342.234894 249.330482 
L 349.230197 257.33308 
L 352.742709 259.740957 
L 356.238315 263.237025 
L 359.60398 267.052453 
L 363.231698 270.584005 
L 366.736196 272.535652 
L 370.243823 274.666411 
L 373.752036 276.447395 
L 377.24593 277.587968 
L 380.752807 278.120236 
L 384.241025 278.500427 
L 387.740471 278.694746 
L 391.256573 278.466632 
L 398.246575 277.275367 
L 405.254776 275.469037 
L 412.27024 273.035814 
L 419.263373 270.082153 
L 426.266899 266.638467 
L 433.260157 262.971736 
L 447.260448 254.732574 
L 457.782413 247.748887 
L 461.278645 245.501536 
L 468.281503 240.523568 
L 471.651718 237.914613 
L 475.284696 235.454355 
L 485.788462 227.384167 
L 492.796746 221.554571 
L 496.296109 218.612737 
L 499.79205 215.11836 
L 520.801627 186.539823 
L 520.801627 186.539823 
" style="fill:none;stroke:#a11692;stroke-linecap:square;"/>
   </g>
   <g id="line2d_4">
    <path clip-path="url(#pdb64d3d453)" d="M 69.112439 182.376309 
L 83.111059 202.267903 
L 90.117299 212.034588 
L 104.12744 231.652445 
L 125.126206 260.971086 
L 128.636422 264.49419 
L 132.130484 259.838962 
L 135.502452 257.285768 
L 139.150498 252.802893 
L 146.144215 252.18107 
L 149.651592 248.30988 
L 153.144694 247.889136 
L 156.639591 247.970243 
L 160.153146 249.114196 
L 163.663946 249.01957 
L 170.632827 251.135122 
L 174.157569 251.998578 
L 177.651338 252.415943 
L 184.654865 253.585242 
L 188.155355 253.833633 
L 191.649583 253.801528 
L 195.156585 253.510893 
L 198.654821 252.855275 
L 202.160153 252.326387 
L 209.168563 250.656926 
L 223.171275 246.422443 
L 237.180414 241.621898 
L 244.169456 239.437067 
L 247.562629 238.217076 
L 261.679336 233.668302 
L 279.194684 226.569713 
L 293.211797 220.686046 
L 300.212568 217.674933 
L 307.214466 214.477949 
L 310.707109 212.428297 
L 314.211606 207.884592 
L 317.717272 204.141822 
L 321.218013 202.051617 
L 324.720339 199.097955 
L 328.221497 195.813105 
L 331.724951 191.854049 
L 335.233747 188.675652 
L 338.729395 186.335365 
L 342.234894 182.678772 
L 349.230197 174.76742 
L 352.742709 172.153395 
L 356.238315 168.753643 
L 359.60398 165.061565 
L 363.231698 161.482701 
L 366.736196 159.514156 
L 370.243823 157.325945 
L 373.752036 155.472303 
L 377.24593 154.257381 
L 384.241025 153.360131 
L 387.740471 153.260436 
L 391.256573 153.349992 
L 394.754892 153.81467 
L 398.246575 154.478737 
L 401.782587 155.281363 
L 405.254776 156.252962 
L 408.759232 157.413812 
L 412.27024 158.725048 
L 415.754076 160.169774 
L 422.765867 163.456314 
L 433.260157 168.990206 
L 436.762567 171.158139 
L 440.274828 173.101338 
L 447.260448 177.283439 
L 468.281503 191.558345 
L 471.651718 194.234889 
L 475.284696 196.630938 
L 485.788462 204.712954 
L 496.296109 213.553662 
L 499.79205 217.059868 
L 510.293019 231.500368 
L 513.799561 236.047453 
L 520.801627 245.836104 
L 520.801627 245.836104 
" style="fill:none;stroke:#f75c03;stroke-linecap:square;"/>
   </g>
   <g id="line2d_5">
    <path clip-path="url(#pdb64d3d453)" d="M 69.112439 245.107827 
L 72.611927 240.143377 
L 76.106531 235.364799 
L 90.117299 216.607019 
L 104.12744 198.199014 
L 118.124642 179.833254 
L 121.618119 176.563611 
L 125.126206 181.310085 
L 128.636422 182.969407 
L 132.130484 187.84768 
L 135.502452 192.981104 
L 139.150498 198.092561 
L 163.663946 233.958937 
L 174.157569 249.262892 
L 177.651338 250.30715 
L 181.159968 251.173986 
L 184.654865 251.6657 
L 188.155355 252.018855 
L 191.649583 251.949576 
L 195.156585 251.569385 
L 202.160153 250.50147 
L 205.66152 249.779952 
L 209.168563 248.89453 
L 216.171672 246.792496 
L 226.670679 243.522853 
L 247.562629 236.944703 
L 258.189574 233.931901 
L 265.196815 231.447986 
L 272.195541 228.881274 
L 279.194684 226.172625 
L 286.207561 223.359211 
L 296.71141 219.215974 
L 300.212568 217.678312 
L 303.718025 216.289348 
L 307.214466 214.6672 
L 310.707109 212.767934 
L 314.211606 208.462482 
L 317.717272 204.402042 
L 321.218013 202.365908 
L 324.720339 199.432523 
L 328.221497 196.264265 
L 331.724951 192.420111 
L 335.233747 189.248473 
L 338.729395 186.916635 
L 342.234894 183.378324 
L 349.230197 175.662981 
L 352.742709 173.124994 
L 356.238315 169.762416 
L 359.60398 166.132859 
L 363.231698 162.628343 
L 366.736196 160.794977 
L 370.243823 158.681115 
L 373.752036 156.915339 
L 377.24593 155.768007 
L 384.241025 154.989038 
L 387.740471 154.90962 
L 391.256573 154.985658 
L 394.754892 155.516236 
L 398.246575 156.19889 
L 401.782587 157.026862 
L 408.759232 159.16607 
L 412.27024 160.470548 
L 419.263373 163.452935 
L 429.767556 168.713089 
L 433.260157 170.605595 
L 450.778385 180.931583 
L 464.782099 190.133896 
L 468.281503 192.55698 
L 471.651718 195.120312 
L 475.284696 197.51974 
L 482.281209 202.700476 
L 492.796746 211.037643 
L 496.296109 214.023409 
L 499.79205 217.43499 
L 506.792737 227.564969 
L 513.799561 236.218116 
L 517.304852 241.082872 
L 520.801627 246.18419 
L 520.801627 246.18419 
" style="fill:none;stroke:#2274a5;stroke-linecap:square;"/>
   </g>
   <g id="line2d_6">
    <path clip-path="url(#pdb64d3d453)" d="M 69.112439 237.730432 
L 79.617582 222.390991 
L 86.620733 212.429987 
L 100.620188 192.580636 
L 111.134974 177.905263 
L 118.124642 168.016917 
L 121.618119 164.634062 
L 125.126206 169.858731 
L 128.636422 173.633605 
L 132.130484 178.937693 
L 135.502452 184.429341 
L 139.150498 189.78243 
L 149.651592 206.206682 
L 153.144694 210.821356 
L 156.639591 213.95413 
L 160.153146 214.412049 
L 163.663946 215.672594 
L 170.632827 215.593176 
L 174.157569 215.652317 
L 181.159968 216.248794 
L 191.649583 216.355248 
L 363.231698 216.328212 
L 520.801627 216.34342 
L 520.801627 216.34342 
" style="fill:none;stroke:#4e937a;stroke-linecap:square;"/>
   </g>
   <g id="patch_3">
    <path d="M 72 43.2 
L 518.4 43.2 
" style="fill:none;stroke:#000000;stroke-linecap:square;stroke-linejoin:miter;"/>
   </g>
   <g id="patch_4">
    <path d="M 518.4 388.8 
L 518.4 43.2 
" style="fill:none;stroke:#000000;stroke-linecap:square;stroke-linejoin:miter;"/>
   </g>
   <g id="patch_5">
    <path d="M 72 388.8 
L 518.4 388.8 
" style="fill:none;stroke:#000000;stroke-linecap:square;stroke-linejoin:miter;"/>
   </g>
   <g id="patch_6">
    <path d="M 72 388.8 
L 72 43.2 
" style="fill:none;stroke:#000000;stroke-linecap:square;stroke-linejoin:miter;"/>
   </g>
   <g id="matplotlib.axis_1">
    <g id="xtick_1">
     <g id="line2d_7">
      <defs>
       <path d="M 0 0 
L 0 -4 
" id="m78f423a9dc" style="stroke:#000000;stroke-width:0.5;"/>
      </defs>
      <g>
       <use style="stroke:#000000;stroke-width:0.5;" x="146.142253221" xlink:href="#m78f423a9dc" y="388.8"/>
      </g>
     </g>
     <g id="line2d_8">
      <defs>
       <path d="M 0 0 
L 0 4 
" id="m0f1470e505" style="stroke:#000000;stroke-width:0.5;"/>
      </defs>
      <g>
       <use style="stroke:#000000;stroke-width:0.5;" x="146.142253221" xlink:href="#m0f1470e505" y="43.2"/>
      </g>
     </g>
     <g id="text_1">
      <!-- 9.0 -->
      <defs>
       <path d="M 31.78125 66.40625 
Q 24.171875 66.40625 20.328125 58.90625 
Q 16.5 51.421875 16.5 36.375 
Q 16.5 21.390625 20.328125 13.890625 
Q 24.171875 6.390625 31.78125 6.390625 
Q 39.453125 6.390625 43.28125 13.890625 
Q 47.125 21.390625 47.125 36.375 
Q 47.125 51.421875 43.28125 58.90625 
Q 39.453125 66.40625 31.78125 66.40625 
M 31.78125 74.21875 
Q 44.046875 74.21875 50.515625 64.515625 
Q 56.984375 54.828125 56.984375 36.375 
Q 56.984375 17.96875 50.515625 8.265625 
Q 44.046875 -1.421875 31.78125 -1.421875 
Q 19.53125 -1.421875 13.0625 8.265625 
Q 6.59375 17.96875 6.59375 36.375 
Q 6.59375 54.828125 13.0625 64.515625 
Q 19.53125 74.21875 31.78125 74.21875 
" id="BitstreamVeraSans-Roman-30"/>
       <path d="M 10.984375 1.515625 
L 10.984375 10.5 
Q 14.703125 8.734375 18.5 7.8125 
Q 22.3125 6.890625 25.984375 6.890625 
Q 35.75 6.890625 40.890625 13.453125 
Q 46.046875 20.015625 46.78125 33.40625 
Q 43.953125 29.203125 39.59375 26.953125 
Q 35.25 24.703125 29.984375 24.703125 
Q 19.046875 24.703125 12.671875 31.3125 
Q 6.296875 37.9375 6.296875 49.421875 
Q 6.296875 60.640625 12.9375 67.421875 
Q 19.578125 74.21875 30.609375 74.21875 
Q 43.265625 74.21875 49.921875 64.515625 
Q 56.59375 54.828125 56.59375 36.375 
Q 56.59375 19.140625 48.40625 8.859375 
Q 40.234375 -1.421875 26.421875 -1.421875 
Q 22.703125 -1.421875 18.890625 -0.6875 
Q 15.09375 0.046875 10.984375 1.515625 
M 30.609375 32.421875 
Q 37.25 32.421875 41.125 36.953125 
Q 45.015625 41.5 45.015625 49.421875 
Q 45.015625 57.28125 41.125 61.84375 
Q 37.25 66.40625 30.609375 66.40625 
Q 23.96875 66.40625 20.09375 61.84375 
Q 16.21875 57.28125 16.21875 49.421875 
Q 16.21875 41.5 20.09375 36.953125 
Q 23.96875 32.421875 30.609375 32.421875 
" id="BitstreamVeraSans-Roman-39"/>
       <path d="M 10.6875 12.40625 
L 21 12.40625 
L 21 0 
L 10.6875 0 
z
" id="BitstreamVeraSans-Roman-2e"/>
      </defs>
      <g transform="translate(136.600378221 401.918125)scale(0.12 -0.12)">
       <use xlink:href="#BitstreamVeraSans-Roman-39"/>
       <use x="63.623046875" xlink:href="#BitstreamVeraSans-Roman-2e"/>
       <use x="95.41015625" xlink:href="#BitstreamVeraSans-Roman-30"/>
      </g>
     </g>
    </g>
    <g id="xtick_2">
     <g id="line2d_9">
      <g>
       <use style="stroke:#000000;stroke-width:0.5;" x="233.680675517" xlink:href="#m78f423a9dc" y="388.8"/>
      </g>
     </g>
     <g id="line2d_10">
      <g>
       <use style="stroke:#000000;stroke-width:0.5;" x="233.680675517" xlink:href="#m0f1470e505" y="43.2"/>
      </g>
     </g>
     <g id="text_2">
      <!-- 9.5 -->
      <defs>
       <path d="M 10.796875 72.90625 
L 49.515625 72.90625 
L 49.515625 64.59375 
L 19.828125 64.59375 
L 19.828125 46.734375 
Q 21.96875 47.46875 24.109375 47.828125 
Q 26.265625 48.1875 28.421875 48.1875 
Q 40.625 48.1875 47.75 41.5 
Q 54.890625 34.8125 54.890625 23.390625 
Q 54.890625 11.625 47.5625 5.09375 
Q 40.234375 -1.421875 26.90625 -1.421875 
Q 22.3125 -1.421875 17.546875 -0.640625 
Q 12.796875 0.140625 7.71875 1.703125 
L 7.71875 11.625 
Q 12.109375 9.234375 16.796875 8.0625 
Q 21.484375 6.890625 26.703125 6.890625 
Q 35.15625 6.890625 40.078125 11.328125 
Q 45.015625 15.765625 45.015625 23.390625 
Q 45.015625 31 40.078125 35.4375 
Q 35.15625 39.890625 26.703125 39.890625 
Q 22.75 39.890625 18.8125 39.015625 
Q 14.890625 38.140625 10.796875 36.28125 
z
" id="BitstreamVeraSans-Roman-35"/>
      </defs>
      <g transform="translate(224.138800517 401.918125)scale(0.12 -0.12)">
       <use xlink:href="#BitstreamVeraSans-Roman-39"/>
       <use x="63.623046875" xlink:href="#BitstreamVeraSans-Roman-2e"/>
       <use x="95.41015625" xlink:href="#BitstreamVeraSans-Roman-35"/>
      </g>
     </g>
    </g>
    <g id="xtick_3">
     <g id="line2d_11">
      <g>
       <use style="stroke:#000000;stroke-width:0.5;" x="321.219097814" xlink:href="#m78f423a9dc" y="388.8"/>
      </g>
     </g>
     <g id="line2d_12">
      <g>
       <use style="stroke:#000000;stroke-width:0.5;" x="321.219097814" xlink:href="#m0f1470e505" y="43.2"/>
      </g>
     </g>
     <g id="text_3">
      <!-- 10.0 -->
      <defs>
       <path d="M 12.40625 8.296875 
L 28.515625 8.296875 
L 28.515625 63.921875 
L 10.984375 60.40625 
L 10.984375 69.390625 
L 28.421875 72.90625 
L 38.28125 72.90625 
L 38.28125 8.296875 
L 54.390625 8.296875 
L 54.390625 0 
L 12.40625 0 
z
" id="BitstreamVeraSans-Roman-31"/>
      </defs>
      <g transform="translate(307.859722814 401.918125)scale(0.12 -0.12)">
       <use xlink:href="#BitstreamVeraSans-Roman-31"/>
       <use x="63.623046875" xlink:href="#BitstreamVeraSans-Roman-30"/>
       <use x="127.24609375" xlink:href="#BitstreamVeraSans-Roman-2e"/>
       <use x="159.033203125" xlink:href="#BitstreamVeraSans-Roman-30"/>
      </g>
     </g>
    </g>
    <g id="xtick_4">
     <g id="line2d_13">
      <g>
       <use style="stroke:#000000;stroke-width:0.5;" x="408.757520111" xlink:href="#m78f423a9dc" y="388.8"/>
      </g>
     </g>
     <g id="line2d_14">
      <g>
       <use style="stroke:#000000;stroke-width:0.5;" x="408.757520111" xlink:href="#m0f1470e505" y="43.2"/>
      </g>
     </g>
     <g id="text_4">
      <!-- 10.5 -->
      <g transform="translate(395.398145111 401.918125)scale(0.12 -0.12)">
       <use xlink:href="#BitstreamVeraSans-Roman-31"/>
       <use x="63.623046875" xlink:href="#BitstreamVeraSans-Roman-30"/>
       <use x="127.24609375" xlink:href="#BitstreamVeraSans-Roman-2e"/>
       <use x="159.033203125" xlink:href="#BitstreamVeraSans-Roman-35"/>
      </g>
     </g>
    </g>
    <g id="xtick_5">
     <g id="line2d_15">
      <g>
       <use style="stroke:#000000;stroke-width:0.5;" x="496.295942408" xlink:href="#m78f423a9dc" y="388.8"/>
      </g>
     </g>
     <g id="line2d_16">
      <g>
       <use style="stroke:#000000;stroke-width:0.5;" x="496.295942408" xlink:href="#m0f1470e505" y="43.2"/>
      </g>
     </g>
     <g id="text_5">
      <!-- 11.0 -->
      <g transform="translate(482.936567408 401.918125)scale(0.12 -0.12)">
       <use xlink:href="#BitstreamVeraSans-Roman-31"/>
       <use x="63.623046875" xlink:href="#BitstreamVeraSans-Roman-31"/>
       <use x="127.24609375" xlink:href="#BitstreamVeraSans-Roman-2e"/>
       <use x="159.033203125" xlink:href="#BitstreamVeraSans-Roman-30"/>
      </g>
     </g>
    </g>
    <g id="text_6">
     <!-- Time (s) -->
     <defs>
      <path id="BitstreamVeraSans-Roman-20"/>
      <path d="M 8.015625 75.875 
L 15.828125 75.875 
Q 23.140625 64.359375 26.78125 53.3125 
Q 30.421875 42.28125 30.421875 31.390625 
Q 30.421875 20.453125 26.78125 9.375 
Q 23.140625 -1.703125 15.828125 -13.1875 
L 8.015625 -13.1875 
Q 14.5 -2 17.703125 9.0625 
Q 20.90625 20.125 20.90625 31.390625 
Q 20.90625 42.671875 17.703125 53.65625 
Q 14.5 64.65625 8.015625 75.875 
" id="BitstreamVeraSans-Roman-29"/>
      <path d="M 31 75.875 
Q 24.46875 64.65625 21.28125 53.65625 
Q 18.109375 42.671875 18.109375 31.390625 
Q 18.109375 20.125 21.3125 9.0625 
Q 24.515625 -2 31 -13.1875 
L 23.1875 -13.1875 
Q 15.875 -1.703125 12.234375 9.375 
Q 8.59375 20.453125 8.59375 31.390625 
Q 8.59375 42.28125 12.203125 53.3125 
Q 15.828125 64.359375 23.1875 75.875 
z
" id="BitstreamVeraSans-Roman-28"/>
      <path d="M 9.421875 54.6875 
L 18.40625 54.6875 
L 18.40625 0 
L 9.421875 0 
z
M 9.421875 75.984375 
L 18.40625 75.984375 
L 18.40625 64.59375 
L 9.421875 64.59375 
z
" id="BitstreamVeraSans-Roman-69"/>
      <path d="M 52 44.1875 
Q 55.375 50.25 60.0625 53.125 
Q 64.75 56 71.09375 56 
Q 79.640625 56 84.28125 50.015625 
Q 88.921875 44.046875 88.921875 33.015625 
L 88.921875 0 
L 79.890625 0 
L 79.890625 32.71875 
Q 79.890625 40.578125 77.09375 44.375 
Q 74.3125 48.1875 68.609375 48.1875 
Q 61.625 48.1875 57.5625 43.546875 
Q 53.515625 38.921875 53.515625 30.90625 
L 53.515625 0 
L 44.484375 0 
L 44.484375 32.71875 
Q 44.484375 40.625 41.703125 44.40625 
Q 38.921875 48.1875 33.109375 48.1875 
Q 26.21875 48.1875 22.15625 43.53125 
Q 18.109375 38.875 18.109375 30.90625 
L 18.109375 0 
L 9.078125 0 
L 9.078125 54.6875 
L 18.109375 54.6875 
L 18.109375 46.1875 
Q 21.1875 51.21875 25.484375 53.609375 
Q 29.78125 56 35.6875 56 
Q 41.65625 56 45.828125 52.96875 
Q 50 49.953125 52 44.1875 
" id="BitstreamVeraSans-Roman-6d"/>
      <path d="M 56.203125 29.59375 
L 56.203125 25.203125 
L 14.890625 25.203125 
Q 15.484375 15.921875 20.484375 11.0625 
Q 25.484375 6.203125 34.421875 6.203125 
Q 39.59375 6.203125 44.453125 7.46875 
Q 49.3125 8.734375 54.109375 11.28125 
L 54.109375 2.78125 
Q 49.265625 0.734375 44.1875 -0.34375 
Q 39.109375 -1.421875 33.890625 -1.421875 
Q 20.796875 -1.421875 13.15625 6.1875 
Q 5.515625 13.8125 5.515625 26.8125 
Q 5.515625 40.234375 12.765625 48.109375 
Q 20.015625 56 32.328125 56 
Q 43.359375 56 49.78125 48.890625 
Q 56.203125 41.796875 56.203125 29.59375 
M 47.21875 32.234375 
Q 47.125 39.59375 43.09375 43.984375 
Q 39.0625 48.390625 32.421875 48.390625 
Q 24.90625 48.390625 20.390625 44.140625 
Q 15.875 39.890625 15.1875 32.171875 
z
" id="BitstreamVeraSans-Roman-65"/>
      <path d="M -0.296875 72.90625 
L 61.375 72.90625 
L 61.375 64.59375 
L 35.5 64.59375 
L 35.5 0 
L 25.59375 0 
L 25.59375 64.59375 
L -0.296875 64.59375 
z
" id="BitstreamVeraSans-Roman-54"/>
      <path d="M 44.28125 53.078125 
L 44.28125 44.578125 
Q 40.484375 46.53125 36.375 47.5 
Q 32.28125 48.484375 27.875 48.484375 
Q 21.1875 48.484375 17.84375 46.4375 
Q 14.5 44.390625 14.5 40.28125 
Q 14.5 37.15625 16.890625 35.375 
Q 19.28125 33.59375 26.515625 31.984375 
L 29.59375 31.296875 
Q 39.15625 29.25 43.1875 25.515625 
Q 47.21875 21.78125 47.21875 15.09375 
Q 47.21875 7.46875 41.1875 3.015625 
Q 35.15625 -1.421875 24.609375 -1.421875 
Q 20.21875 -1.421875 15.453125 -0.5625 
Q 10.6875 0.296875 5.421875 2 
L 5.421875 11.28125 
Q 10.40625 8.6875 15.234375 7.390625 
Q 20.0625 6.109375 24.8125 6.109375 
Q 31.15625 6.109375 34.5625 8.28125 
Q 37.984375 10.453125 37.984375 14.40625 
Q 37.984375 18.0625 35.515625 20.015625 
Q 33.0625 21.96875 24.703125 23.78125 
L 21.578125 24.515625 
Q 13.234375 26.265625 9.515625 29.90625 
Q 5.8125 33.546875 5.8125 39.890625 
Q 5.8125 47.609375 11.28125 51.796875 
Q 16.75 56 26.8125 56 
Q 31.78125 56 36.171875 55.265625 
Q 40.578125 54.546875 44.28125 53.078125 
" id="BitstreamVeraSans-Roman-73"/>
     </defs>
     <g transform="translate(270.620625 418.531875)scale(0.12 -0.12)">
      <use xlink:href="#BitstreamVeraSans-Roman-54"/>
      <use x="61.037109375" xlink:href="#BitstreamVeraSans-Roman-69"/>
      <use x="88.8203125" xlink:href="#BitstreamVeraSans-Roman-6d"/>
      <use x="186.232421875" xlink:href="#BitstreamVeraSans-Roman-65"/>
      <use x="247.755859375" xlink:href="#BitstreamVeraSans-Roman-20"/>
      <use x="279.54296875" xlink:href="#BitstreamVeraSans-Roman-28"/>
      <use x="318.556640625" xlink:href="#BitstreamVeraSans-Roman-73"/>
      <use x="370.65625" xlink:href="#BitstreamVeraSans-Roman-29"/>
     </g>
    </g>
   </g>
   <g id="matplotlib.axis_2">
    <g id="ytick_1">
     <g id="line2d_17">
      <defs>
       <path d="M 0 0 
L 4 0 
" id="m7f8451051b" style="stroke:#000000;stroke-width:0.5;"/>
      </defs>
      <g>
       <use style="stroke:#000000;stroke-width:0.5;" x="72.0" xlink:href="#m7f8451051b" y="387.200636665"/>
      </g>
     </g>
     <g id="line2d_18">
      <defs>
       <path d="M 0 0 
L -4 0 
" id="m9e407db068" style="stroke:#000000;stroke-width:0.5;"/>
      </defs>
      <g>
       <use style="stroke:#000000;stroke-width:0.5;" x="518.4" xlink:href="#m9e407db068" y="387.200636665"/>
      </g>
     </g>
     <g id="text_7">
      <!-- −6 -->
      <defs>
       <path d="M 10.59375 35.5 
L 73.1875 35.5 
L 73.1875 27.203125 
L 10.59375 27.203125 
z
" id="BitstreamVeraSans-Roman-2212"/>
       <path d="M 33.015625 40.375 
Q 26.375 40.375 22.484375 35.828125 
Q 18.609375 31.296875 18.609375 23.390625 
Q 18.609375 15.53125 22.484375 10.953125 
Q 26.375 6.390625 33.015625 6.390625 
Q 39.65625 6.390625 43.53125 10.953125 
Q 47.40625 15.53125 47.40625 23.390625 
Q 47.40625 31.296875 43.53125 35.828125 
Q 39.65625 40.375 33.015625 40.375 
M 52.59375 71.296875 
L 52.59375 62.3125 
Q 48.875 64.0625 45.09375 64.984375 
Q 41.3125 65.921875 37.59375 65.921875 
Q 27.828125 65.921875 22.671875 59.328125 
Q 17.53125 52.734375 16.796875 39.40625 
Q 19.671875 43.65625 24.015625 45.921875 
Q 28.375 48.1875 33.59375 48.1875 
Q 44.578125 48.1875 50.953125 41.515625 
Q 57.328125 34.859375 57.328125 23.390625 
Q 57.328125 12.15625 50.6875 5.359375 
Q 44.046875 -1.421875 33.015625 -1.421875 
Q 20.359375 -1.421875 13.671875 8.265625 
Q 6.984375 17.96875 6.984375 36.375 
Q 6.984375 53.65625 15.1875 63.9375 
Q 23.390625 74.21875 37.203125 74.21875 
Q 40.921875 74.21875 44.703125 73.484375 
Q 48.484375 72.75 52.59375 71.296875 
" id="BitstreamVeraSans-Roman-36"/>
      </defs>
      <g transform="translate(50.309375 390.511886665)scale(0.12 -0.12)">
       <use xlink:href="#BitstreamVeraSans-Roman-2212"/>
       <use x="83.7890625" xlink:href="#BitstreamVeraSans-Roman-36"/>
      </g>
     </g>
    </g>
    <g id="ytick_2">
     <g id="line2d_19">
      <g>
       <use style="stroke:#000000;stroke-width:0.5;" x="72.0" xlink:href="#m7f8451051b" y="330.187400392"/>
      </g>
     </g>
     <g id="line2d_20">
      <g>
       <use style="stroke:#000000;stroke-width:0.5;" x="518.4" xlink:href="#m9e407db068" y="330.187400392"/>
      </g>
     </g>
     <g id="text_8">
      <!-- −4 -->
      <defs>
       <path d="M 37.796875 64.3125 
L 12.890625 25.390625 
L 37.796875 25.390625 
z
M 35.203125 72.90625 
L 47.609375 72.90625 
L 47.609375 25.390625 
L 58.015625 25.390625 
L 58.015625 17.1875 
L 47.609375 17.1875 
L 47.609375 0 
L 37.796875 0 
L 37.796875 17.1875 
L 4.890625 17.1875 
L 4.890625 26.703125 
z
" id="BitstreamVeraSans-Roman-34"/>
      </defs>
      <g transform="translate(50.309375 333.498650392)scale(0.12 -0.12)">
       <use xlink:href="#BitstreamVeraSans-Roman-2212"/>
       <use x="83.7890625" xlink:href="#BitstreamVeraSans-Roman-34"/>
      </g>
     </g>
    </g>
    <g id="ytick_3">
     <g id="line2d_21">
      <g>
       <use style="stroke:#000000;stroke-width:0.5;" x="72.0" xlink:href="#m7f8451051b" y="273.174164119"/>
      </g>
     </g>
     <g id="line2d_22">
      <g>
       <use style="stroke:#000000;stroke-width:0.5;" x="518.4" xlink:href="#m9e407db068" y="273.174164119"/>
      </g>
     </g>
     <g id="text_9">
      <!-- −2 -->
      <defs>
       <path d="M 19.1875 8.296875 
L 53.609375 8.296875 
L 53.609375 0 
L 7.328125 0 
L 7.328125 8.296875 
Q 12.9375 14.109375 22.625 23.890625 
Q 32.328125 33.6875 34.8125 36.53125 
Q 39.546875 41.84375 41.421875 45.53125 
Q 43.3125 49.21875 43.3125 52.78125 
Q 43.3125 58.59375 39.234375 62.25 
Q 35.15625 65.921875 28.609375 65.921875 
Q 23.96875 65.921875 18.8125 64.3125 
Q 13.671875 62.703125 7.8125 59.421875 
L 7.8125 69.390625 
Q 13.765625 71.78125 18.9375 73 
Q 24.125 74.21875 28.421875 74.21875 
Q 39.75 74.21875 46.484375 68.546875 
Q 53.21875 62.890625 53.21875 53.421875 
Q 53.21875 48.921875 51.53125 44.890625 
Q 49.859375 40.875 45.40625 35.40625 
Q 44.1875 33.984375 37.640625 27.21875 
Q 31.109375 20.453125 19.1875 8.296875 
" id="BitstreamVeraSans-Roman-32"/>
      </defs>
      <g transform="translate(50.309375 276.485414119)scale(0.12 -0.12)">
       <use xlink:href="#BitstreamVeraSans-Roman-2212"/>
       <use x="83.7890625" xlink:href="#BitstreamVeraSans-Roman-32"/>
      </g>
     </g>
    </g>
    <g id="ytick_4">
     <g id="line2d_23">
      <g>
       <use style="stroke:#000000;stroke-width:0.5;" x="72.0" xlink:href="#m7f8451051b" y="216.160927847"/>
      </g>
     </g>
     <g id="line2d_24">
      <g>
       <use style="stroke:#000000;stroke-width:0.5;" x="518.4" xlink:href="#m9e407db068" y="216.160927847"/>
      </g>
     </g>
     <g id="text_10">
      <!-- 0 -->
      <g transform="translate(60.365 219.472177847)scale(0.12 -0.12)">
       <use xlink:href="#BitstreamVeraSans-Roman-30"/>
      </g>
     </g>
    </g>
    <g id="ytick_5">
     <g id="line2d_25">
      <g>
       <use style="stroke:#000000;stroke-width:0.5;" x="72.0" xlink:href="#m7f8451051b" y="159.147691574"/>
      </g>
     </g>
     <g id="line2d_26">
      <g>
       <use style="stroke:#000000;stroke-width:0.5;" x="518.4" xlink:href="#m9e407db068" y="159.147691574"/>
      </g>
     </g>
     <g id="text_11">
      <!-- 2 -->
      <g transform="translate(60.365 162.458941574)scale(0.12 -0.12)">
       <use xlink:href="#BitstreamVeraSans-Roman-32"/>
      </g>
     </g>
    </g>
    <g id="ytick_6">
     <g id="line2d_27">
      <g>
       <use style="stroke:#000000;stroke-width:0.5;" x="72.0" xlink:href="#m7f8451051b" y="102.134455301"/>
      </g>
     </g>
     <g id="line2d_28">
      <g>
       <use style="stroke:#000000;stroke-width:0.5;" x="518.4" xlink:href="#m9e407db068" y="102.134455301"/>
      </g>
     </g>
     <g id="text_12">
      <!-- 4 -->
      <g transform="translate(60.365 105.445705301)scale(0.12 -0.12)">
       <use xlink:href="#BitstreamVeraSans-Roman-34"/>
      </g>
     </g>
    </g>
    <g id="ytick_7">
     <g id="line2d_29">
      <g>
       <use style="stroke:#000000;stroke-width:0.5;" x="72.0" xlink:href="#m7f8451051b" y="45.1212190287"/>
      </g>
     </g>
     <g id="line2d_30">
      <g>
       <use style="stroke:#000000;stroke-width:0.5;" x="518.4" xlink:href="#m9e407db068" y="45.1212190287"/>
      </g>
     </g>
     <g id="text_13">
      <!-- 6 -->
      <g transform="translate(60.365 48.4324690287)scale(0.12 -0.12)">
       <use xlink:href="#BitstreamVeraSans-Roman-36"/>
      </g>
     </g>
    </g>
    <g id="text_14">
     <!-- Motor position (rad) -->
     <defs>
      <path d="M 9.8125 72.90625 
L 24.515625 72.90625 
L 43.109375 23.296875 
L 61.8125 72.90625 
L 76.515625 72.90625 
L 76.515625 0 
L 66.890625 0 
L 66.890625 64.015625 
L 48.09375 14.015625 
L 38.1875 14.015625 
L 19.390625 64.015625 
L 19.390625 0 
L 9.8125 0 
z
" id="BitstreamVeraSans-Roman-4d"/>
      <path d="M 54.890625 33.015625 
L 54.890625 0 
L 45.90625 0 
L 45.90625 32.71875 
Q 45.90625 40.484375 42.875 44.328125 
Q 39.84375 48.1875 33.796875 48.1875 
Q 26.515625 48.1875 22.3125 43.546875 
Q 18.109375 38.921875 18.109375 30.90625 
L 18.109375 0 
L 9.078125 0 
L 9.078125 54.6875 
L 18.109375 54.6875 
L 18.109375 46.1875 
Q 21.34375 51.125 25.703125 53.5625 
Q 30.078125 56 35.796875 56 
Q 45.21875 56 50.046875 50.171875 
Q 54.890625 44.34375 54.890625 33.015625 
" id="BitstreamVeraSans-Roman-6e"/>
      <path d="M 34.28125 27.484375 
Q 23.390625 27.484375 19.1875 25 
Q 14.984375 22.515625 14.984375 16.5 
Q 14.984375 11.71875 18.140625 8.90625 
Q 21.296875 6.109375 26.703125 6.109375 
Q 34.1875 6.109375 38.703125 11.40625 
Q 43.21875 16.703125 43.21875 25.484375 
L 43.21875 27.484375 
z
M 52.203125 31.203125 
L 52.203125 0 
L 43.21875 0 
L 43.21875 8.296875 
Q 40.140625 3.328125 35.546875 0.953125 
Q 30.953125 -1.421875 24.3125 -1.421875 
Q 15.921875 -1.421875 10.953125 3.296875 
Q 6 8.015625 6 15.921875 
Q 6 25.140625 12.171875 29.828125 
Q 18.359375 34.515625 30.609375 34.515625 
L 43.21875 34.515625 
L 43.21875 35.40625 
Q 43.21875 41.609375 39.140625 45 
Q 35.0625 48.390625 27.6875 48.390625 
Q 23 48.390625 18.546875 47.265625 
Q 14.109375 46.140625 10.015625 43.890625 
L 10.015625 52.203125 
Q 14.9375 54.109375 19.578125 55.046875 
Q 24.21875 56 28.609375 56 
Q 40.484375 56 46.34375 49.84375 
Q 52.203125 43.703125 52.203125 31.203125 
" id="BitstreamVeraSans-Roman-61"/>
      <path d="M 30.609375 48.390625 
Q 23.390625 48.390625 19.1875 42.75 
Q 14.984375 37.109375 14.984375 27.296875 
Q 14.984375 17.484375 19.15625 11.84375 
Q 23.34375 6.203125 30.609375 6.203125 
Q 37.796875 6.203125 41.984375 11.859375 
Q 46.1875 17.53125 46.1875 27.296875 
Q 46.1875 37.015625 41.984375 42.703125 
Q 37.796875 48.390625 30.609375 48.390625 
M 30.609375 56 
Q 42.328125 56 49.015625 48.375 
Q 55.71875 40.765625 55.71875 27.296875 
Q 55.71875 13.875 49.015625 6.21875 
Q 42.328125 -1.421875 30.609375 -1.421875 
Q 18.84375 -1.421875 12.171875 6.21875 
Q 5.515625 13.875 5.515625 27.296875 
Q 5.515625 40.765625 12.171875 48.375 
Q 18.84375 56 30.609375 56 
" id="BitstreamVeraSans-Roman-6f"/>
      <path d="M 45.40625 46.390625 
L 45.40625 75.984375 
L 54.390625 75.984375 
L 54.390625 0 
L 45.40625 0 
L 45.40625 8.203125 
Q 42.578125 3.328125 38.25 0.953125 
Q 33.9375 -1.421875 27.875 -1.421875 
Q 17.96875 -1.421875 11.734375 6.484375 
Q 5.515625 14.40625 5.515625 27.296875 
Q 5.515625 40.1875 11.734375 48.09375 
Q 17.96875 56 27.875 56 
Q 33.9375 56 38.25 53.625 
Q 42.578125 51.265625 45.40625 46.390625 
M 14.796875 27.296875 
Q 14.796875 17.390625 18.875 11.75 
Q 22.953125 6.109375 30.078125 6.109375 
Q 37.203125 6.109375 41.296875 11.75 
Q 45.40625 17.390625 45.40625 27.296875 
Q 45.40625 37.203125 41.296875 42.84375 
Q 37.203125 48.484375 30.078125 48.484375 
Q 22.953125 48.484375 18.875 42.84375 
Q 14.796875 37.203125 14.796875 27.296875 
" id="BitstreamVeraSans-Roman-64"/>
      <path d="M 18.3125 70.21875 
L 18.3125 54.6875 
L 36.8125 54.6875 
L 36.8125 47.703125 
L 18.3125 47.703125 
L 18.3125 18.015625 
Q 18.3125 11.328125 20.140625 9.421875 
Q 21.96875 7.515625 27.59375 7.515625 
L 36.8125 7.515625 
L 36.8125 0 
L 27.59375 0 
Q 17.1875 0 13.234375 3.875 
Q 9.28125 7.765625 9.28125 18.015625 
L 9.28125 47.703125 
L 2.6875 47.703125 
L 2.6875 54.6875 
L 9.28125 54.6875 
L 9.28125 70.21875 
z
" id="BitstreamVeraSans-Roman-74"/>
      <path d="M 41.109375 46.296875 
Q 39.59375 47.171875 37.8125 47.578125 
Q 36.03125 48 33.890625 48 
Q 26.265625 48 22.1875 43.046875 
Q 18.109375 38.09375 18.109375 28.8125 
L 18.109375 0 
L 9.078125 0 
L 9.078125 54.6875 
L 18.109375 54.6875 
L 18.109375 46.1875 
Q 20.953125 51.171875 25.484375 53.578125 
Q 30.03125 56 36.53125 56 
Q 37.453125 56 38.578125 55.875 
Q 39.703125 55.765625 41.0625 55.515625 
z
" id="BitstreamVeraSans-Roman-72"/>
      <path d="M 18.109375 8.203125 
L 18.109375 -20.796875 
L 9.078125 -20.796875 
L 9.078125 54.6875 
L 18.109375 54.6875 
L 18.109375 46.390625 
Q 20.953125 51.265625 25.265625 53.625 
Q 29.59375 56 35.59375 56 
Q 45.5625 56 51.78125 48.09375 
Q 58.015625 40.1875 58.015625 27.296875 
Q 58.015625 14.40625 51.78125 6.484375 
Q 45.5625 -1.421875 35.59375 -1.421875 
Q 29.59375 -1.421875 25.265625 0.953125 
Q 20.953125 3.328125 18.109375 8.203125 
M 48.6875 27.296875 
Q 48.6875 37.203125 44.609375 42.84375 
Q 40.53125 48.484375 33.40625 48.484375 
Q 26.265625 48.484375 22.1875 42.84375 
Q 18.109375 37.203125 18.109375 27.296875 
Q 18.109375 17.390625 22.1875 11.75 
Q 26.265625 6.109375 33.40625 6.109375 
Q 40.53125 6.109375 44.609375 11.75 
Q 48.6875 17.390625 48.6875 27.296875 
" id="BitstreamVeraSans-Roman-70"/>
     </defs>
     <g transform="translate(42.81375 275.551875)rotate(-90.0)scale(0.12 -0.12)">
      <use xlink:href="#BitstreamVeraSans-Roman-4d"/>
      <use x="86.279296875" xlink:href="#BitstreamVeraSans-Roman-6f"/>
      <use x="147.4609375" xlink:href="#BitstreamVeraSans-Roman-74"/>
      <use x="186.669921875" xlink:href="#BitstreamVeraSans-Roman-6f"/>
      <use x="247.8515625" xlink:href="#BitstreamVeraSans-Roman-72"/>
      <use x="288.96484375" xlink:href="#BitstreamVeraSans-Roman-20"/>
      <use x="320.751953125" xlink:href="#BitstreamVeraSans-Roman-70"/>
      <use x="384.228515625" xlink:href="#BitstreamVeraSans-Roman-6f"/>
      <use x="445.41015625" xlink:href="#BitstreamVeraSans-Roman-73"/>
      <use x="497.509765625" xlink:href="#BitstreamVeraSans-Roman-69"/>
      <use x="525.29296875" xlink:href="#BitstreamVeraSans-Roman-74"/>
      <use x="564.501953125" xlink:href="#BitstreamVeraSans-Roman-69"/>
      <use x="592.28515625" xlink:href="#BitstreamVeraSans-Roman-6f"/>
      <use x="653.466796875" xlink:href="#BitstreamVeraSans-Roman-6e"/>
      <use x="716.845703125" xlink:href="#BitstreamVeraSans-Roman-20"/>
      <use x="748.6328125" xlink:href="#BitstreamVeraSans-Roman-28"/>
      <use x="787.646484375" xlink:href="#BitstreamVeraSans-Roman-72"/>
      <use x="828.759765625" xlink:href="#BitstreamVeraSans-Roman-61"/>
      <use x="890.0390625" xlink:href="#BitstreamVeraSans-Roman-64"/>
      <use x="953.515625" xlink:href="#BitstreamVeraSans-Roman-29"/>
     </g>
    </g>
   </g>
   <g id="legend_1">
    <g id="patch_7">
     <path d="M 76.998 383.802 
L 513.402 383.802 
L 513.402 366.131677 
L 76.998 366.131677 
z
" style="fill:#ffffff;stroke:#000000;stroke-linejoin:miter;"/>
    </g>
    <g id="line2d_31">
     <path d="M 83.9952 374.226875 
L 97.9896 374.226875 
" style="fill:none;stroke:#b4656f;stroke-linecap:square;"/>
    </g>
    <g id="line2d_32"/>
    <g id="text_15">
     <!-- Muscle 1 -->
     <defs>
      <path d="M 8.5 21.578125 
L 8.5 54.6875 
L 17.484375 54.6875 
L 17.484375 21.921875 
Q 17.484375 14.15625 20.5 10.265625 
Q 23.53125 6.390625 29.59375 6.390625 
Q 36.859375 6.390625 41.078125 11.03125 
Q 45.3125 15.671875 45.3125 23.6875 
L 45.3125 54.6875 
L 54.296875 54.6875 
L 54.296875 0 
L 45.3125 0 
L 45.3125 8.40625 
Q 42.046875 3.421875 37.71875 1 
Q 33.40625 -1.421875 27.6875 -1.421875 
Q 18.265625 -1.421875 13.375 4.4375 
Q 8.5 10.296875 8.5 21.578125 
" id="BitstreamVeraSans-Roman-75"/>
      <path d="M 9.421875 75.984375 
L 18.40625 75.984375 
L 18.40625 0 
L 9.421875 0 
z
" id="BitstreamVeraSans-Roman-6c"/>
      <path d="M 48.78125 52.59375 
L 48.78125 44.1875 
Q 44.96875 46.296875 41.140625 47.34375 
Q 37.3125 48.390625 33.40625 48.390625 
Q 24.65625 48.390625 19.8125 42.84375 
Q 14.984375 37.3125 14.984375 27.296875 
Q 14.984375 17.28125 19.8125 11.734375 
Q 24.65625 6.203125 33.40625 6.203125 
Q 37.3125 6.203125 41.140625 7.25 
Q 44.96875 8.296875 48.78125 10.40625 
L 48.78125 2.09375 
Q 45.015625 0.34375 40.984375 -0.53125 
Q 36.96875 -1.421875 32.421875 -1.421875 
Q 20.0625 -1.421875 12.78125 6.34375 
Q 5.515625 14.109375 5.515625 27.296875 
Q 5.515625 40.671875 12.859375 48.328125 
Q 20.21875 56 33.015625 56 
Q 37.15625 56 41.109375 55.140625 
Q 45.0625 54.296875 48.78125 52.59375 
" id="BitstreamVeraSans-Roman-63"/>
     </defs>
     <g transform="translate(108.9852 377.725475)scale(0.09996 -0.09996)">
      <use xlink:href="#BitstreamVeraSans-Roman-4d"/>
      <use x="86.279296875" xlink:href="#BitstreamVeraSans-Roman-75"/>
      <use x="149.658203125" xlink:href="#BitstreamVeraSans-Roman-73"/>
      <use x="201.7578125" xlink:href="#BitstreamVeraSans-Roman-63"/>
      <use x="256.73828125" xlink:href="#BitstreamVeraSans-Roman-6c"/>
      <use x="284.521484375" xlink:href="#BitstreamVeraSans-Roman-65"/>
      <use x="346.044921875" xlink:href="#BitstreamVeraSans-Roman-20"/>
      <use x="377.83203125" xlink:href="#BitstreamVeraSans-Roman-31"/>
     </g>
    </g>
    <g id="line2d_33">
     <path d="M 155.244505 374.226875 
L 169.238905 374.226875 
" style="fill:none;stroke:#f3d34a;stroke-linecap:square;"/>
    </g>
    <g id="line2d_34"/>
    <g id="text_16">
     <!-- Muscle 2 -->
     <g transform="translate(180.234505 377.725475)scale(0.09996 -0.09996)">
      <use xlink:href="#BitstreamVeraSans-Roman-4d"/>
      <use x="86.279296875" xlink:href="#BitstreamVeraSans-Roman-75"/>
      <use x="149.658203125" xlink:href="#BitstreamVeraSans-Roman-73"/>
      <use x="201.7578125" xlink:href="#BitstreamVeraSans-Roman-63"/>
      <use x="256.73828125" xlink:href="#BitstreamVeraSans-Roman-6c"/>
      <use x="284.521484375" xlink:href="#BitstreamVeraSans-Roman-65"/>
      <use x="346.044921875" xlink:href="#BitstreamVeraSans-Roman-20"/>
      <use x="377.83203125" xlink:href="#BitstreamVeraSans-Roman-32"/>
     </g>
    </g>
    <g id="line2d_35">
     <path d="M 226.49381 374.226875 
L 240.48821 374.226875 
" style="fill:none;stroke:#a11692;stroke-linecap:square;"/>
    </g>
    <g id="line2d_36"/>
    <g id="text_17">
     <!-- Muscle 6 -->
     <g transform="translate(251.48381 377.725475)scale(0.09996 -0.09996)">
      <use xlink:href="#BitstreamVeraSans-Roman-4d"/>
      <use x="86.279296875" xlink:href="#BitstreamVeraSans-Roman-75"/>
      <use x="149.658203125" xlink:href="#BitstreamVeraSans-Roman-73"/>
      <use x="201.7578125" xlink:href="#BitstreamVeraSans-Roman-63"/>
      <use x="256.73828125" xlink:href="#BitstreamVeraSans-Roman-6c"/>
      <use x="284.521484375" xlink:href="#BitstreamVeraSans-Roman-65"/>
      <use x="346.044921875" xlink:href="#BitstreamVeraSans-Roman-20"/>
      <use x="377.83203125" xlink:href="#BitstreamVeraSans-Roman-36"/>
     </g>
    </g>
    <g id="line2d_37">
     <path d="M 297.743115 374.226875 
L 311.737515 374.226875 
" style="fill:none;stroke:#f75c03;stroke-linecap:square;"/>
    </g>
    <g id="line2d_38"/>
    <g id="text_18">
     <!-- Muscle 5 -->
     <g transform="translate(322.733115 377.725475)scale(0.09996 -0.09996)">
      <use xlink:href="#BitstreamVeraSans-Roman-4d"/>
      <use x="86.279296875" xlink:href="#BitstreamVeraSans-Roman-75"/>
      <use x="149.658203125" xlink:href="#BitstreamVeraSans-Roman-73"/>
      <use x="201.7578125" xlink:href="#BitstreamVeraSans-Roman-63"/>
      <use x="256.73828125" xlink:href="#BitstreamVeraSans-Roman-6c"/>
      <use x="284.521484375" xlink:href="#BitstreamVeraSans-Roman-65"/>
      <use x="346.044921875" xlink:href="#BitstreamVeraSans-Roman-20"/>
      <use x="377.83203125" xlink:href="#BitstreamVeraSans-Roman-35"/>
     </g>
    </g>
    <g id="line2d_39">
     <path d="M 368.99242 374.226875 
L 382.98682 374.226875 
" style="fill:none;stroke:#2274a5;stroke-linecap:square;"/>
    </g>
    <g id="line2d_40"/>
    <g id="text_19">
     <!-- Muscle 4 -->
     <g transform="translate(393.98242 377.725475)scale(0.09996 -0.09996)">
      <use xlink:href="#BitstreamVeraSans-Roman-4d"/>
      <use x="86.279296875" xlink:href="#BitstreamVeraSans-Roman-75"/>
      <use x="149.658203125" xlink:href="#BitstreamVeraSans-Roman-73"/>
      <use x="201.7578125" xlink:href="#BitstreamVeraSans-Roman-63"/>
      <use x="256.73828125" xlink:href="#BitstreamVeraSans-Roman-6c"/>
      <use x="284.521484375" xlink:href="#BitstreamVeraSans-Roman-65"/>
      <use x="346.044921875" xlink:href="#BitstreamVeraSans-Roman-20"/>
      <use x="377.83203125" xlink:href="#BitstreamVeraSans-Roman-34"/>
     </g>
    </g>
    <g id="line2d_41">
     <path d="M 440.241725 374.226875 
L 454.236125 374.226875 
" style="fill:none;stroke:#4e937a;stroke-linecap:square;"/>
    </g>
    <g id="line2d_42"/>
    <g id="text_20">
     <!-- Muscle 3 -->
     <defs>
      <path d="M 40.578125 39.3125 
Q 47.65625 37.796875 51.625 33 
Q 55.609375 28.21875 55.609375 21.1875 
Q 55.609375 10.40625 48.1875 4.484375 
Q 40.765625 -1.421875 27.09375 -1.421875 
Q 22.515625 -1.421875 17.65625 -0.515625 
Q 12.796875 0.390625 7.625 2.203125 
L 7.625 11.71875 
Q 11.71875 9.328125 16.59375 8.109375 
Q 21.484375 6.890625 26.8125 6.890625 
Q 36.078125 6.890625 40.9375 10.546875 
Q 45.796875 14.203125 45.796875 21.1875 
Q 45.796875 27.640625 41.28125 31.265625 
Q 36.765625 34.90625 28.71875 34.90625 
L 20.21875 34.90625 
L 20.21875 43.015625 
L 29.109375 43.015625 
Q 36.375 43.015625 40.234375 45.921875 
Q 44.09375 48.828125 44.09375 54.296875 
Q 44.09375 59.90625 40.109375 62.90625 
Q 36.140625 65.921875 28.71875 65.921875 
Q 24.65625 65.921875 20.015625 65.03125 
Q 15.375 64.15625 9.8125 62.3125 
L 9.8125 71.09375 
Q 15.4375 72.65625 20.34375 73.4375 
Q 25.25 74.21875 29.59375 74.21875 
Q 40.828125 74.21875 47.359375 69.109375 
Q 53.90625 64.015625 53.90625 55.328125 
Q 53.90625 49.265625 50.4375 45.09375 
Q 46.96875 40.921875 40.578125 39.3125 
" id="BitstreamVeraSans-Roman-33"/>
     </defs>
     <g transform="translate(465.231725 377.725475)scale(0.09996 -0.09996)">
      <use xlink:href="#BitstreamVeraSans-Roman-4d"/>
      <use x="86.279296875" xlink:href="#BitstreamVeraSans-Roman-75"/>
      <use x="149.658203125" xlink:href="#BitstreamVeraSans-Roman-73"/>
      <use x="201.7578125" xlink:href="#BitstreamVeraSans-Roman-63"/>
      <use x="256.73828125" xlink:href="#BitstreamVeraSans-Roman-6c"/>
      <use x="284.521484375" xlink:href="#BitstreamVeraSans-Roman-65"/>
      <use x="346.044921875" xlink:href="#BitstreamVeraSans-Roman-20"/>
      <use x="377.83203125" xlink:href="#BitstreamVeraSans-Roman-33"/>
     </g>
    </g>
   </g>
  </g>
 </g>
 <defs>
  <clipPath id="pdb64d3d453">
   <rect height="345.6" width="446.4" x="72.0" y="43.2"/>
  </clipPath>
 </defs>
</svg>
