<?xml version="1.0" encoding="utf-8" standalone="no"?>
<!DOCTYPE svg PUBLIC "-//W3C//DTD SVG 1.1//EN"
  "http://www.w3.org/Graphics/SVG/1.1/DTD/svg11.dtd">
<!-- Created with matplotlib (http://matplotlib.org/) -->
<svg height="432pt" version="1.1" viewBox="0 0 576 432" width="576pt" xmlns="http://www.w3.org/2000/svg" xmlns:xlink="http://www.w3.org/1999/xlink">
 <defs>
  <style type="text/css">
*{stroke-linecap:butt;stroke-linejoin:round;stroke-miterlimit:100000;}
  </style>
 </defs>
 <g id="figure_1">
  <g id="patch_1">
   <path d="M 0 432 
L 576.9 432 
L 576.9 0 
L 0 0 
z
" style="fill:#ffffff;"/>
  </g>
  <g id="axes_1">
   <g id="patch_2">
    <path d="M 72.1125 388.8 
L 519.21 388.8 
L 519.21 43.2 
L 72.1125 43.2 
z
" style="fill:#ffffff;"/>
   </g>
   <g id="line2d_1">
    <path clip-path="url(#p72fc9b339b)" d="M 70.640788 247.711848 
L 98.789674 309.429841 
L 102.804385 318.203661 
L 104.813144 318.584349 
L 106.826097 316.746853 
L 108.842382 316.84877 
L 110.848958 316.599973 
L 112.860162 315.778645 
L 114.871724 312.114144 
L 116.876407 311.181907 
L 118.895042 309.897458 
L 120.898478 305.700892 
L 122.90937 302.541478 
L 124.920213 298.242996 
L 126.937194 294.588986 
L 132.966704 281.477715 
L 147.041675 250.294234 
L 159.114072 223.581594 
L 161.116909 219.600852 
L 163.122239 216.651266 
L 167.149632 213.565291 
L 169.164191 212.67502 
L 171.172517 211.925633 
L 177.202076 210.091134 
L 179.213854 209.911282 
L 181.229468 210.253002 
L 183.231634 210.253002 
L 185.246841 210.782069 
L 187.256294 210.921455 
L 189.279051 211.729294 
L 191.278029 212.05153 
L 193.296759 212.946298 
L 195.307004 213.304505 
L 197.312861 214.475047 
L 199.329865 214.924679 
L 201.332415 216.075737 
L 203.342276 215.906375 
L 207.36624 215.927358 
L 209.378498 216.555344 
L 211.38601 218.781023 
L 213.400018 219.891614 
L 215.4187 223.025549 
L 217.427794 224.106165 
L 219.431374 226.72752 
L 221.443704 228.038947 
L 223.453828 231.627011 
L 225.472223 232.838019 
L 227.476498 235.529817 
L 229.488037 237.379303 
L 231.508829 240.835475 
L 233.507088 242.436165 
L 235.519681 244.60489 
L 237.657428 246.478357 
L 239.542567 248.997795 
L 241.556311 250.646446 
L 243.563487 251.145538 
L 245.579556 251.470771 
L 247.587284 251.662614 
L 249.604983 251.319395 
L 251.607317 250.528043 
L 253.616914 249.88357 
L 255.629939 248.912365 
L 261.663093 244.508969 
L 263.650949 242.819851 
L 267.696319 238.746185 
L 269.630407 236.671882 
L 271.715394 234.662027 
L 275.738663 230.114748 
L 277.747325 227.905556 
L 279.757306 226.038084 
L 285.792905 219.317584 
L 293.82077 211.480497 
L 295.830224 209.704451 
L 301.865727 204.936852 
L 305.887678 202.0682 
L 313.926977 196.949888 
L 317.957821 194.665758 
L 321.971191 191.509341 
L 323.999725 189.363097 
L 325.994196 188.146093 
L 328.016834 185.975869 
L 330.028828 184.342206 
L 332.025313 181.335666 
L 333.973903 180.003257 
L 336.04585 177.381902 
L 338.06923 175.211678 
L 340.079834 171.918872 
L 342.099331 169.973464 
L 344.101138 167.268178 
L 346.10002 164.963065 
L 348.110935 161.890579 
L 350.141411 160.442764 
L 352.132838 159.528512 
L 354.146582 158.798609 
L 356.15594 158.215586 
L 358.169996 158.539322 
L 360.182949 159.200281 
L 362.218315 160.027604 
L 364.217484 161.270087 
L 368.231645 165.321272 
L 370.243423 167.142281 
L 372.246596 169.228574 
L 380.297977 180.718172 
L 390.355455 198.665984 
L 394.381289 206.640958 
L 398.397967 214.332663 
L 402.422315 222.45002 
L 408.455565 233.809225 
L 410.459672 237.389795 
L 414.48124 243.882481 
L 416.501432 246.977449 
L 422.534538 255.267165 
L 428.558847 262.474766 
L 430.580214 264.976219 
L 432.578425 267.711481 
L 434.595597 269.560967 
L 436.604787 272.318711 
L 438.751858 274.652301 
L 440.552571 278.023042 
L 442.64482 279.805084 
L 444.649935 282.834105 
L 446.660131 285.425485 
L 448.66841 288.965588 
L 450.681219 290.993428 
L 452.691128 293.820115 
L 454.701085 296.152207 
L 456.719575 299.029852 
L 458.72131 300.518134 
L 460.736468 301.832558 
L 462.743764 302.895188 
L 464.754704 303.6146 
L 466.773242 303.610103 
L 468.775576 303.466221 
L 470.786371 302.995606 
L 472.796879 302.070863 
L 478.82989 297.685452 
L 480.840446 295.843459 
L 486.875685 288.238683 
L 488.881543 285.290595 
L 492.908935 277.738276 
L 496.934098 269.872712 
L 521.060698 216.895566 
L 521.060698 216.895566 
" style="fill:none;stroke:#b4656f;stroke-linecap:square;"/>
   </g>
   <g id="line2d_2">
    <path clip-path="url(#p72fc9b339b)" d="M 70.640788 221.249503 
L 82.70012 205.280071 
L 98.789674 184.241788 
L 104.813144 176.272809 
L 114.871724 163.780532 
L 118.895042 159.168806 
L 124.920213 152.412336 
L 130.960391 145.982597 
L 132.966704 145.189746 
L 134.97273 147.171125 
L 136.993353 152.160542 
L 139.002711 155.702143 
L 140.935912 160.547678 
L 147.041675 172.196146 
L 151.064896 181.635421 
L 153.072576 185.772036 
L 157.090499 194.7362 
L 159.114072 199.252004 
L 163.122239 206.991671 
L 167.149632 213.635734 
L 169.164191 216.564337 
L 171.172517 219.020827 
L 175.199646 224.248549 
L 177.202076 226.73951 
L 179.213854 228.752363 
L 181.229468 230.141726 
L 183.231634 231.962736 
L 185.246841 233.049347 
L 187.256294 234.338292 
L 189.279051 235.087678 
L 191.278029 236.085862 
L 193.296759 236.520506 
L 195.307004 237.304364 
L 197.312861 237.613112 
L 199.329865 238.283064 
L 201.332415 238.443432 
L 207.36624 241.485942 
L 209.378498 241.86813 
L 211.38601 242.095943 
L 213.400018 243.124102 
L 219.431374 244.470001 
L 221.443704 245.495162 
L 223.453828 246.394426 
L 225.472223 247.154304 
L 227.476498 248.035583 
L 231.508829 251.192 
L 233.507088 252.554385 
L 235.519681 254.4908 
L 237.657428 256.101982 
L 239.542567 257.993434 
L 241.556311 258.60943 
L 243.563487 258.793779 
L 245.579556 258.49852 
L 247.587284 258.37712 
L 249.604983 257.44788 
L 255.629939 254.131094 
L 259.651698 250.204308 
L 261.663093 248.606615 
L 263.650949 246.715163 
L 269.630407 239.601984 
L 271.715394 237.400286 
L 273.708163 234.807408 
L 277.747325 229.900423 
L 279.757306 227.787153 
L 285.792905 220.423679 
L 291.827593 213.653719 
L 295.830224 209.698456 
L 297.86034 207.898429 
L 299.850041 205.848107 
L 305.887678 201.105987 
L 307.909788 199.413872 
L 311.918003 196.680109 
L 313.926977 195.160353 
L 315.935256 193.791973 
L 317.957821 192.666394 
L 321.971191 189.406561 
L 323.999725 187.20936 
L 325.994196 185.981864 
L 328.016834 183.79965 
L 330.028828 182.031097 
L 332.025313 179.396253 
L 333.973903 177.729617 
L 340.079834 170.578969 
L 344.101138 165.642009 
L 352.132838 156.213225 
L 356.15594 154.422191 
L 358.169996 154.50912 
L 360.182949 154.709955 
L 362.218315 155.369416 
L 364.217484 156.503987 
L 372.246596 164.209182 
L 376.204568 170.213268 
L 378.272055 172.914058 
L 380.297977 176.027011 
L 386.319505 187.144912 
L 388.340153 190.689512 
L 392.365532 199.204044 
L 410.459672 237.145494 
L 412.481639 240.955377 
L 416.501432 247.87971 
L 422.534538 256.975766 
L 424.544135 259.679554 
L 426.553828 262.12855 
L 432.578425 270.26689 
L 434.595597 272.228784 
L 436.604787 275.107928 
L 438.751858 277.516457 
L 440.552571 280.89769 
L 442.64482 282.720199 
L 444.649935 285.813667 
L 446.660131 288.41254 
L 448.66841 292.011095 
L 450.681219 293.966995 
L 452.691128 296.826655 
L 454.701085 299.136265 
L 456.719575 302.031895 
L 458.72131 303.548654 
L 460.736468 304.915535 
L 462.743764 305.987158 
L 464.754704 306.814481 
L 466.773242 306.971852 
L 468.775576 306.937381 
L 470.786371 306.642122 
L 472.796879 305.843276 
L 476.822977 303.272879 
L 478.82989 301.916489 
L 480.840446 300.158428 
L 486.875685 292.983799 
L 488.881543 290.14812 
L 500.957464 269.444063 
L 511.007439 253.506106 
L 519.053906 241.157711 
L 521.060698 238.056749 
L 521.060698 238.056749 
" style="fill:none;stroke:#f3d34a;stroke-linecap:square;"/>
   </g>
   <g id="line2d_3">
    <path clip-path="url(#p72fc9b339b)" d="M 70.640788 195.166348 
L 106.826097 116.927375 
L 108.842382 116.061083 
L 110.848958 116.527202 
L 112.860162 117.29907 
L 114.871724 120.034332 
L 116.876407 120.899124 
L 118.895042 122.218045 
L 120.898478 126.09837 
L 122.90937 128.061763 
L 124.920213 132.222358 
L 126.937194 134.543958 
L 128.947174 138.861924 
L 130.960391 142.469472 
L 132.966704 146.857881 
L 134.97273 150.84312 
L 139.002711 159.504532 
L 140.935912 163.985864 
L 145.03644 172.355016 
L 147.041675 176.016519 
L 151.064896 184.932723 
L 153.072576 188.955431 
L 157.090499 197.457973 
L 159.114072 201.753457 
L 163.122239 208.991035 
L 167.149632 215.062566 
L 169.164191 217.859277 
L 171.172517 220.096946 
L 175.199646 224.997935 
L 177.202076 227.406464 
L 179.213854 229.314403 
L 181.229468 230.583864 
L 183.231634 232.259493 
L 185.246841 233.164752 
L 187.256294 234.374262 
L 189.279051 234.979767 
L 191.278029 235.879031 
L 193.296759 236.24623 
L 195.307004 236.886207 
L 197.312861 237.111023 
L 199.329865 237.665569 
L 201.332415 237.727019 
L 207.36624 240.702084 
L 209.378498 240.949382 
L 211.38601 240.964369 
L 213.400018 241.946066 
L 219.431374 242.82135 
L 221.443704 243.719115 
L 223.453828 244.489485 
L 225.472223 245.124965 
L 227.476498 245.904327 
L 233.507088 250.195315 
L 235.519681 251.969863 
L 237.657428 253.443157 
L 239.542567 255.228197 
L 241.556311 255.758762 
L 243.563487 255.78574 
L 245.579556 255.352595 
L 247.587284 255.13827 
L 251.607317 253.116425 
L 255.629939 250.955193 
L 259.651698 247.359636 
L 261.663093 245.853368 
L 263.650949 244.146265 
L 275.738663 230.570375 
L 277.747325 228.259266 
L 279.757306 226.322851 
L 285.792905 219.425496 
L 293.82077 211.422045 
L 299.850041 206.119385 
L 307.909788 200.289156 
L 311.918003 197.777211 
L 315.935256 195.227798 
L 317.957821 194.02728 
L 321.971191 190.753959 
L 323.999725 188.717126 
L 325.994196 187.408696 
L 328.016834 185.21749 
L 330.028828 183.4939 
L 332.025313 180.572791 
L 333.973903 179.111486 
L 338.06923 174.349883 
L 340.079834 170.974645 
L 342.099331 169.096682 
L 344.101138 166.334442 
L 346.10002 164.060803 
L 348.110935 160.866917 
L 350.141411 159.435588 
L 352.132838 158.489862 
L 356.15594 157.076519 
L 358.169996 157.451212 
L 362.218315 158.972467 
L 364.217484 160.16699 
L 366.209151 162.112398 
L 368.231645 164.300607 
L 370.243423 166.00771 
L 372.246596 168.14646 
L 380.297977 179.75446 
L 384.315877 186.992037 
L 388.340153 193.938852 
L 392.365532 201.952794 
L 396.390167 209.792878 
L 398.397967 213.745144 
L 402.422315 222.031863 
L 408.455565 233.696817 
L 412.481639 240.724566 
L 416.501432 247.062879 
L 422.534538 255.462005 
L 424.544135 257.984441 
L 426.553828 260.208621 
L 428.558847 262.883932 
L 430.580214 265.338922 
L 432.578425 268.06669 
L 434.595597 269.977626 
L 436.604787 272.778834 
L 438.751858 275.08095 
L 440.552571 278.49066 
L 442.64482 280.277198 
L 444.649935 283.295728 
L 446.660131 285.915584 
L 448.66841 289.487161 
L 450.681219 291.456549 
L 452.691128 294.353678 
L 454.701085 296.654296 
L 456.719575 299.531941 
L 458.72131 301.039707 
L 460.736468 302.352632 
L 462.743764 303.41826 
L 464.754704 304.17664 
L 466.773242 304.235092 
L 468.775576 304.082217 
L 470.786371 303.665558 
L 472.796879 302.764795 
L 478.82989 298.515772 
L 480.840446 296.742723 
L 486.875685 289.379249 
L 488.881543 286.474626 
L 490.896054 282.964499 
L 498.939117 267.705486 
L 500.957464 263.879117 
L 511.007439 243.314446 
L 517.035847 230.366542 
L 521.060698 221.654172 
L 521.060698 221.654172 
" style="fill:none;stroke:#a11692;stroke-linecap:square;"/>
   </g>
   <g id="line2d_4">
    <path clip-path="url(#p72fc9b339b)" d="M 70.640788 247.271208 
L 102.804385 316.926706 
L 104.813144 320.558234 
L 106.826097 320.225506 
L 108.842382 320.105604 
L 110.848958 319.858307 
L 112.860162 319.027986 
L 114.871724 316.301717 
L 116.876407 315.489382 
L 118.895042 314.228914 
L 120.898478 310.377066 
L 122.90937 308.386695 
L 124.920213 304.322021 
L 126.937194 302.024401 
L 128.947174 297.775378 
L 130.960391 294.13186 
L 132.966704 289.828881 
L 134.97273 285.849638 
L 143.022001 268.447379 
L 145.03644 264.328749 
L 147.041675 260.565329 
L 159.114072 234.726474 
L 163.122239 227.249093 
L 165.139627 224.041718 
L 169.164191 218.199499 
L 171.172517 215.982813 
L 175.199646 210.973912 
L 177.202076 208.548896 
L 179.213854 206.604987 
L 181.229468 205.419457 
L 183.231634 203.61943 
L 185.246841 202.811592 
L 187.256294 201.512155 
L 189.279051 200.933628 
L 191.278029 199.868 
L 193.296759 199.529278 
L 195.307004 198.800874 
L 197.312861 198.54908 
L 199.329865 197.939079 
L 201.332415 197.84016 
L 207.36624 194.848608 
L 209.378498 194.536863 
L 211.38601 194.392981 
L 213.400018 193.561162 
L 219.431374 192.419096 
L 221.443704 191.438898 
L 227.476498 189.096315 
L 231.508829 186.031324 
L 233.507088 184.739381 
L 235.519681 182.781983 
L 237.657428 181.293701 
L 239.542567 179.334804 
L 241.556311 178.817727 
L 243.563487 178.80124 
L 245.579556 179.25387 
L 247.587284 179.565615 
L 249.604983 180.529326 
L 255.629939 184.127881 
L 261.663093 189.535456 
L 263.650949 191.323493 
L 267.696319 195.992172 
L 273.708163 202.838569 
L 277.747325 207.565701 
L 279.757306 209.496121 
L 283.782685 214.229248 
L 285.792905 216.525369 
L 293.82077 224.657714 
L 295.830224 226.571648 
L 297.86034 228.251773 
L 299.850041 230.069785 
L 307.909788 235.929989 
L 317.957821 242.33275 
L 321.971191 245.586587 
L 323.999725 247.600938 
L 325.994196 248.939343 
L 328.016834 251.102073 
L 330.028828 252.827161 
L 332.025313 255.727288 
L 333.973903 257.181098 
L 338.06923 261.944201 
L 340.079834 265.334426 
L 342.099331 267.192905 
L 344.101138 269.991115 
L 346.10002 272.240774 
L 348.110935 275.443653 
L 350.141411 276.90196 
L 352.132838 277.853681 
L 356.15594 279.331472 
L 358.169996 278.988253 
L 362.218315 277.493975 
L 364.217484 276.336922 
L 370.243423 270.451239 
L 372.246596 268.304995 
L 380.297977 256.620557 
L 386.319505 245.902828 
L 388.340153 242.404691 
L 398.397967 222.361593 
L 402.422315 214.022417 
L 408.455565 202.420412 
L 410.459672 198.730431 
L 414.48124 191.960471 
L 416.501432 188.775578 
L 420.520267 183.003801 
L 422.534538 180.262544 
L 424.544135 177.729617 
L 426.553828 175.431998 
L 432.578425 167.582921 
L 434.595597 165.674982 
L 436.604787 162.878271 
L 438.751858 160.463747 
L 440.552571 157.290843 
L 442.64482 155.384403 
L 444.649935 152.391353 
L 446.660131 149.71904 
L 448.66841 146.409748 
L 450.681219 144.161588 
L 452.691128 141.355884 
L 454.701085 139.022293 
L 456.719575 136.168629 
L 458.72131 134.617398 
L 460.736468 133.22204 
L 462.743764 132.192382 
L 464.754704 131.426509 
L 468.775576 131.481964 
L 470.786371 131.795208 
L 472.796879 132.668992 
L 476.822977 135.368284 
L 478.82989 136.840079 
L 480.840446 138.704553 
L 486.875685 146.114489 
L 488.881543 149.032601 
L 492.908935 156.595412 
L 496.934098 164.493949 
L 502.963345 177.89748 
L 504.893334 182.402793 
L 511.007439 195.755366 
L 521.060698 217.773847 
L 521.060698 217.773847 
" style="fill:none;stroke:#f75c03;stroke-linecap:square;"/>
   </g>
   <g id="line2d_5">
    <path clip-path="url(#p72fc9b339b)" d="M 70.640788 187.25732 
L 80.686112 166.966925 
L 88.728144 151.129385 
L 94.765326 139.536373 
L 102.804385 124.82741 
L 104.813144 121.266324 
L 106.826097 120.313104 
L 108.842382 120.427011 
L 110.848958 120.882638 
L 112.860162 121.82087 
L 114.871724 125.540826 
L 116.876407 126.44009 
L 118.895042 127.86992 
L 120.898478 132.484643 
L 122.90937 135.44622 
L 124.920213 140.044457 
L 126.937194 143.625027 
L 130.960391 152.851476 
L 140.935912 175.97905 
L 145.03644 185.175524 
L 155.086967 208.145726 
L 159.114072 215.552665 
L 161.116909 217.363183 
L 163.122239 219.975545 
L 167.149632 222.863682 
L 169.164191 223.704494 
L 173.179046 225.0414 
L 177.202076 226.207446 
L 179.213854 226.372311 
L 181.229468 225.958649 
L 183.231634 225.955652 
L 185.246841 225.380123 
L 187.256294 225.305184 
L 189.279051 224.444888 
L 191.278029 224.199089 
L 193.296759 223.248867 
L 195.307004 222.961102 
L 197.312861 221.744098 
L 199.329865 221.31395 
L 201.332415 220.171885 
L 203.342276 220.438666 
L 207.36624 220.390706 
L 209.378498 219.714759 
L 211.38601 217.459105 
L 213.400018 216.588317 
L 215.4187 213.189099 
L 217.427794 212.199909 
L 219.431374 209.353738 
L 221.443704 208.255137 
L 223.453828 204.550169 
L 225.472223 203.333165 
L 227.476498 200.504979 
L 229.488037 198.625517 
L 231.508829 195.239788 
L 233.507088 193.574651 
L 235.519681 191.329488 
L 237.657428 189.502483 
L 239.542567 186.845158 
L 241.556311 185.130561 
L 243.563487 184.661445 
L 245.579556 184.336211 
L 247.587284 184.217808 
L 249.604983 184.538545 
L 253.616914 185.980365 
L 255.629939 186.986042 
L 263.650949 193.222439 
L 267.696319 197.324582 
L 269.630407 199.476821 
L 271.715394 201.417732 
L 273.708163 203.776802 
L 277.747325 208.195186 
L 279.757306 210.14509 
L 287.801112 218.743554 
L 293.82077 224.593267 
L 297.86034 227.980495 
L 299.850041 229.64863 
L 307.909788 235.305001 
L 311.918003 237.816945 
L 313.926977 239.164342 
L 317.957821 241.485942 
L 321.971191 244.742777 
L 323.999725 246.757129 
L 325.994196 248.064059 
L 328.016834 250.17733 
L 330.028828 251.882934 
L 332.025313 254.745592 
L 333.973903 256.17692 
L 336.04585 258.739823 
L 338.06923 260.904052 
L 340.079834 264.336243 
L 342.099331 266.095803 
L 344.101138 268.855045 
L 346.10002 271.155662 
L 348.110935 274.163701 
L 350.141411 275.611516 
L 352.132838 276.468814 
L 356.15594 277.80572 
L 358.169996 277.372575 
L 362.218315 275.732917 
L 364.217484 274.574365 
L 368.231645 270.419765 
L 370.243423 268.597256 
L 372.246596 266.47799 
L 380.297977 254.871488 
L 386.319505 244.38457 
L 388.340153 241.048301 
L 400.410464 217.755862 
L 404.434381 209.95025 
L 410.459672 198.776893 
L 414.48124 192.252732 
L 416.501432 189.186242 
L 422.534538 181.011931 
L 424.544135 178.582419 
L 426.553828 176.350746 
L 432.578425 168.630563 
L 434.595597 166.815549 
L 436.604787 164.009845 
L 438.751858 161.736205 
L 440.552571 158.441901 
L 442.64482 156.674847 
L 444.649935 153.647325 
L 446.660131 151.02597 
L 448.66841 147.737661 
L 450.681219 145.474513 
L 452.691128 142.736254 
L 454.701085 140.387676 
L 456.719575 137.528016 
L 458.72131 135.990274 
L 460.736468 134.584425 
L 462.743764 133.623711 
L 464.754704 132.862334 
L 468.775576 132.949263 
L 470.786371 133.33145 
L 472.796879 134.227717 
L 476.822977 137.022929 
L 478.82989 138.583153 
L 480.840446 140.539052 
L 486.875685 148.029922 
L 488.881543 151.003488 
L 492.908935 158.608265 
L 496.934098 166.517293 
L 521.060698 221.379896 
L 521.060698 221.379896 
" style="fill:none;stroke:#2274a5;stroke-linecap:square;"/>
   </g>
   <g id="line2d_6">
    <path clip-path="url(#p72fc9b339b)" d="M 70.640788 176.744923 
L 80.686112 155.014206 
L 92.757502 129.500585 
L 98.789674 116.975335 
L 100.795364 116.889905 
L 102.804385 117.937548 
L 104.813144 118.454625 
L 106.826097 119.950401 
L 108.842382 120.139246 
L 110.848958 120.704284 
L 112.860162 121.729445 
L 114.871724 125.148147 
L 116.876407 126.107362 
L 118.895042 127.555177 
L 120.898478 132.12194 
L 122.90937 134.476513 
L 124.920213 139.154185 
L 126.937194 142.171216 
L 136.993353 165.576063 
L 143.022001 180.132151 
L 145.03644 183.955522 
L 147.041675 187.225846 
L 149.054915 191.979956 
L 151.064896 196.013155 
L 153.072576 199.012201 
L 155.086967 203.400609 
L 157.090499 206.47909 
L 159.114072 210.275483 
L 161.116909 212.730474 
L 163.122239 215.692051 
L 165.139627 217.923725 
L 167.149632 219.930582 
L 169.164191 221.588226 
L 173.179046 224.528819 
L 177.202076 227.43644 
L 179.213854 228.371675 
L 181.229468 228.857277 
L 183.231634 229.560202 
L 185.246841 229.704084 
L 187.256294 230.224159 
L 189.279051 230.044306 
L 191.278029 230.438483 
L 193.296759 230.054797 
L 195.307004 230.282611 
L 197.312861 229.789514 
L 199.329865 229.907917 
L 201.332415 229.308408 
L 203.342276 230.000841 
L 207.36624 230.993029 
L 209.378498 230.55239 
L 211.38601 229.600669 
L 213.400018 229.338383 
L 215.4187 227.98649 
L 217.427794 227.461919 
L 219.431374 226.388797 
L 221.443704 225.838747 
L 223.453828 224.749139 
L 225.472223 224.360957 
L 227.476498 223.518646 
L 229.488037 223.084002 
L 231.508829 222.256679 
L 233.507088 222.222207 
L 237.657428 221.805548 
L 239.542567 221.345424 
L 241.556311 220.688962 
L 243.563487 220.425177 
L 245.579556 219.891614 
L 247.587284 219.695275 
L 249.604983 219.280115 
L 251.607317 219.154218 
L 253.616914 218.88294 
L 259.651698 218.538222 
L 261.663093 218.386846 
L 265.690318 218.317902 
L 269.630407 218.205494 
L 287.801112 218.129057 
L 521.060698 218.138049 
L 521.060698 218.138049 
" style="fill:none;stroke:#4e937a;stroke-linecap:square;"/>
   </g>
   <g id="patch_3">
    <path d="M 72.1125 43.2 
L 519.21 43.2 
" style="fill:none;stroke:#000000;stroke-linecap:square;stroke-linejoin:miter;"/>
   </g>
   <g id="patch_4">
    <path d="M 519.21 388.8 
L 519.21 43.2 
" style="fill:none;stroke:#000000;stroke-linecap:square;stroke-linejoin:miter;"/>
   </g>
   <g id="patch_5">
    <path d="M 72.1125 388.8 
L 519.21 388.8 
" style="fill:none;stroke:#000000;stroke-linecap:square;stroke-linejoin:miter;"/>
   </g>
   <g id="patch_6">
    <path d="M 72.1125 388.8 
L 72.1125 43.2 
" style="fill:none;stroke:#000000;stroke-linecap:square;stroke-linejoin:miter;"/>
   </g>
   <g id="matplotlib.axis_1">
    <g id="xtick_1">
     <g id="line2d_7">
      <defs>
       <path d="M 0 0 
L 0 -4 
" id="m88bc15137d" style="stroke:#000000;stroke-width:0.5;"/>
      </defs>
      <g>
       <use style="stroke:#000000;stroke-width:0.5;" x="118.890774864" xlink:href="#m88bc15137d" y="388.8"/>
      </g>
     </g>
     <g id="line2d_8">
      <defs>
       <path d="M 0 0 
L 0 4 
" id="m1989787d27" style="stroke:#000000;stroke-width:0.5;"/>
      </defs>
      <g>
       <use style="stroke:#000000;stroke-width:0.5;" x="118.890774864" xlink:href="#m1989787d27" y="43.2"/>
      </g>
     </g>
     <g id="text_1">
      <!-- 161.0 -->
      <defs>
       <path d="M 10.6875 12.40625 
L 21 12.40625 
L 21 0 
L 10.6875 0 
z
" id="BitstreamVeraSans-Roman-2e"/>
       <path d="M 31.78125 66.40625 
Q 24.171875 66.40625 20.328125 58.90625 
Q 16.5 51.421875 16.5 36.375 
Q 16.5 21.390625 20.328125 13.890625 
Q 24.171875 6.390625 31.78125 6.390625 
Q 39.453125 6.390625 43.28125 13.890625 
Q 47.125 21.390625 47.125 36.375 
Q 47.125 51.421875 43.28125 58.90625 
Q 39.453125 66.40625 31.78125 66.40625 
M 31.78125 74.21875 
Q 44.046875 74.21875 50.515625 64.515625 
Q 56.984375 54.828125 56.984375 36.375 
Q 56.984375 17.96875 50.515625 8.265625 
Q 44.046875 -1.421875 31.78125 -1.421875 
Q 19.53125 -1.421875 13.0625 8.265625 
Q 6.59375 17.96875 6.59375 36.375 
Q 6.59375 54.828125 13.0625 64.515625 
Q 19.53125 74.21875 31.78125 74.21875 
" id="BitstreamVeraSans-Roman-30"/>
       <path d="M 12.40625 8.296875 
L 28.515625 8.296875 
L 28.515625 63.921875 
L 10.984375 60.40625 
L 10.984375 69.390625 
L 28.421875 72.90625 
L 38.28125 72.90625 
L 38.28125 8.296875 
L 54.390625 8.296875 
L 54.390625 0 
L 12.40625 0 
z
" id="BitstreamVeraSans-Roman-31"/>
       <path d="M 33.015625 40.375 
Q 26.375 40.375 22.484375 35.828125 
Q 18.609375 31.296875 18.609375 23.390625 
Q 18.609375 15.53125 22.484375 10.953125 
Q 26.375 6.390625 33.015625 6.390625 
Q 39.65625 6.390625 43.53125 10.953125 
Q 47.40625 15.53125 47.40625 23.390625 
Q 47.40625 31.296875 43.53125 35.828125 
Q 39.65625 40.375 33.015625 40.375 
M 52.59375 71.296875 
L 52.59375 62.3125 
Q 48.875 64.0625 45.09375 64.984375 
Q 41.3125 65.921875 37.59375 65.921875 
Q 27.828125 65.921875 22.671875 59.328125 
Q 17.53125 52.734375 16.796875 39.40625 
Q 19.671875 43.65625 24.015625 45.921875 
Q 28.375 48.1875 33.59375 48.1875 
Q 44.578125 48.1875 50.953125 41.515625 
Q 57.328125 34.859375 57.328125 23.390625 
Q 57.328125 12.15625 50.6875 5.359375 
Q 44.046875 -1.421875 33.015625 -1.421875 
Q 20.359375 -1.421875 13.671875 8.265625 
Q 6.984375 17.96875 6.984375 36.375 
Q 6.984375 53.65625 15.1875 63.9375 
Q 23.390625 74.21875 37.203125 74.21875 
Q 40.921875 74.21875 44.703125 73.484375 
Q 48.484375 72.75 52.59375 71.296875 
" id="BitstreamVeraSans-Roman-36"/>
      </defs>
      <g transform="translate(101.713899864 401.918125)scale(0.12 -0.12)">
       <use xlink:href="#BitstreamVeraSans-Roman-31"/>
       <use x="63.623046875" xlink:href="#BitstreamVeraSans-Roman-36"/>
       <use x="127.24609375" xlink:href="#BitstreamVeraSans-Roman-31"/>
       <use x="190.869140625" xlink:href="#BitstreamVeraSans-Roman-2e"/>
       <use x="222.65625" xlink:href="#BitstreamVeraSans-Roman-30"/>
      </g>
     </g>
    </g>
    <g id="xtick_2">
     <g id="line2d_9">
      <g>
       <use style="stroke:#000000;stroke-width:0.5;" x="169.161913398" xlink:href="#m88bc15137d" y="388.8"/>
      </g>
     </g>
     <g id="line2d_10">
      <g>
       <use style="stroke:#000000;stroke-width:0.5;" x="169.161913398" xlink:href="#m1989787d27" y="43.2"/>
      </g>
     </g>
     <g id="text_2">
      <!-- 161.5 -->
      <defs>
       <path d="M 10.796875 72.90625 
L 49.515625 72.90625 
L 49.515625 64.59375 
L 19.828125 64.59375 
L 19.828125 46.734375 
Q 21.96875 47.46875 24.109375 47.828125 
Q 26.265625 48.1875 28.421875 48.1875 
Q 40.625 48.1875 47.75 41.5 
Q 54.890625 34.8125 54.890625 23.390625 
Q 54.890625 11.625 47.5625 5.09375 
Q 40.234375 -1.421875 26.90625 -1.421875 
Q 22.3125 -1.421875 17.546875 -0.640625 
Q 12.796875 0.140625 7.71875 1.703125 
L 7.71875 11.625 
Q 12.109375 9.234375 16.796875 8.0625 
Q 21.484375 6.890625 26.703125 6.890625 
Q 35.15625 6.890625 40.078125 11.328125 
Q 45.015625 15.765625 45.015625 23.390625 
Q 45.015625 31 40.078125 35.4375 
Q 35.15625 39.890625 26.703125 39.890625 
Q 22.75 39.890625 18.8125 39.015625 
Q 14.890625 38.140625 10.796875 36.28125 
z
" id="BitstreamVeraSans-Roman-35"/>
      </defs>
      <g transform="translate(151.985038398 401.918125)scale(0.12 -0.12)">
       <use xlink:href="#BitstreamVeraSans-Roman-31"/>
       <use x="63.623046875" xlink:href="#BitstreamVeraSans-Roman-36"/>
       <use x="127.24609375" xlink:href="#BitstreamVeraSans-Roman-31"/>
       <use x="190.869140625" xlink:href="#BitstreamVeraSans-Roman-2e"/>
       <use x="222.65625" xlink:href="#BitstreamVeraSans-Roman-35"/>
      </g>
     </g>
    </g>
    <g id="xtick_3">
     <g id="line2d_11">
      <g>
       <use style="stroke:#000000;stroke-width:0.5;" x="219.433051932" xlink:href="#m88bc15137d" y="388.8"/>
      </g>
     </g>
     <g id="line2d_12">
      <g>
       <use style="stroke:#000000;stroke-width:0.5;" x="219.433051932" xlink:href="#m1989787d27" y="43.2"/>
      </g>
     </g>
     <g id="text_3">
      <!-- 162.0 -->
      <defs>
       <path d="M 19.1875 8.296875 
L 53.609375 8.296875 
L 53.609375 0 
L 7.328125 0 
L 7.328125 8.296875 
Q 12.9375 14.109375 22.625 23.890625 
Q 32.328125 33.6875 34.8125 36.53125 
Q 39.546875 41.84375 41.421875 45.53125 
Q 43.3125 49.21875 43.3125 52.78125 
Q 43.3125 58.59375 39.234375 62.25 
Q 35.15625 65.921875 28.609375 65.921875 
Q 23.96875 65.921875 18.8125 64.3125 
Q 13.671875 62.703125 7.8125 59.421875 
L 7.8125 69.390625 
Q 13.765625 71.78125 18.9375 73 
Q 24.125 74.21875 28.421875 74.21875 
Q 39.75 74.21875 46.484375 68.546875 
Q 53.21875 62.890625 53.21875 53.421875 
Q 53.21875 48.921875 51.53125 44.890625 
Q 49.859375 40.875 45.40625 35.40625 
Q 44.1875 33.984375 37.640625 27.21875 
Q 31.109375 20.453125 19.1875 8.296875 
" id="BitstreamVeraSans-Roman-32"/>
      </defs>
      <g transform="translate(202.256176932 401.918125)scale(0.12 -0.12)">
       <use xlink:href="#BitstreamVeraSans-Roman-31"/>
       <use x="63.623046875" xlink:href="#BitstreamVeraSans-Roman-36"/>
       <use x="127.24609375" xlink:href="#BitstreamVeraSans-Roman-32"/>
       <use x="190.869140625" xlink:href="#BitstreamVeraSans-Roman-2e"/>
       <use x="222.65625" xlink:href="#BitstreamVeraSans-Roman-30"/>
      </g>
     </g>
    </g>
    <g id="xtick_4">
     <g id="line2d_13">
      <g>
       <use style="stroke:#000000;stroke-width:0.5;" x="269.704190466" xlink:href="#m88bc15137d" y="388.8"/>
      </g>
     </g>
     <g id="line2d_14">
      <g>
       <use style="stroke:#000000;stroke-width:0.5;" x="269.704190466" xlink:href="#m1989787d27" y="43.2"/>
      </g>
     </g>
     <g id="text_4">
      <!-- 162.5 -->
      <g transform="translate(252.527315466 401.918125)scale(0.12 -0.12)">
       <use xlink:href="#BitstreamVeraSans-Roman-31"/>
       <use x="63.623046875" xlink:href="#BitstreamVeraSans-Roman-36"/>
       <use x="127.24609375" xlink:href="#BitstreamVeraSans-Roman-32"/>
       <use x="190.869140625" xlink:href="#BitstreamVeraSans-Roman-2e"/>
       <use x="222.65625" xlink:href="#BitstreamVeraSans-Roman-35"/>
      </g>
     </g>
    </g>
    <g id="xtick_5">
     <g id="line2d_15">
      <g>
       <use style="stroke:#000000;stroke-width:0.5;" x="319.975329" xlink:href="#m88bc15137d" y="388.8"/>
      </g>
     </g>
     <g id="line2d_16">
      <g>
       <use style="stroke:#000000;stroke-width:0.5;" x="319.975329" xlink:href="#m1989787d27" y="43.2"/>
      </g>
     </g>
     <g id="text_5">
      <!-- 163.0 -->
      <defs>
       <path d="M 40.578125 39.3125 
Q 47.65625 37.796875 51.625 33 
Q 55.609375 28.21875 55.609375 21.1875 
Q 55.609375 10.40625 48.1875 4.484375 
Q 40.765625 -1.421875 27.09375 -1.421875 
Q 22.515625 -1.421875 17.65625 -0.515625 
Q 12.796875 0.390625 7.625 2.203125 
L 7.625 11.71875 
Q 11.71875 9.328125 16.59375 8.109375 
Q 21.484375 6.890625 26.8125 6.890625 
Q 36.078125 6.890625 40.9375 10.546875 
Q 45.796875 14.203125 45.796875 21.1875 
Q 45.796875 27.640625 41.28125 31.265625 
Q 36.765625 34.90625 28.71875 34.90625 
L 20.21875 34.90625 
L 20.21875 43.015625 
L 29.109375 43.015625 
Q 36.375 43.015625 40.234375 45.921875 
Q 44.09375 48.828125 44.09375 54.296875 
Q 44.09375 59.90625 40.109375 62.90625 
Q 36.140625 65.921875 28.71875 65.921875 
Q 24.65625 65.921875 20.015625 65.03125 
Q 15.375 64.15625 9.8125 62.3125 
L 9.8125 71.09375 
Q 15.4375 72.65625 20.34375 73.4375 
Q 25.25 74.21875 29.59375 74.21875 
Q 40.828125 74.21875 47.359375 69.109375 
Q 53.90625 64.015625 53.90625 55.328125 
Q 53.90625 49.265625 50.4375 45.09375 
Q 46.96875 40.921875 40.578125 39.3125 
" id="BitstreamVeraSans-Roman-33"/>
      </defs>
      <g transform="translate(302.798454 401.918125)scale(0.12 -0.12)">
       <use xlink:href="#BitstreamVeraSans-Roman-31"/>
       <use x="63.623046875" xlink:href="#BitstreamVeraSans-Roman-36"/>
       <use x="127.24609375" xlink:href="#BitstreamVeraSans-Roman-33"/>
       <use x="190.869140625" xlink:href="#BitstreamVeraSans-Roman-2e"/>
       <use x="222.65625" xlink:href="#BitstreamVeraSans-Roman-30"/>
      </g>
     </g>
    </g>
    <g id="xtick_6">
     <g id="line2d_17">
      <g>
       <use style="stroke:#000000;stroke-width:0.5;" x="370.246467534" xlink:href="#m88bc15137d" y="388.8"/>
      </g>
     </g>
     <g id="line2d_18">
      <g>
       <use style="stroke:#000000;stroke-width:0.5;" x="370.246467534" xlink:href="#m1989787d27" y="43.2"/>
      </g>
     </g>
     <g id="text_6">
      <!-- 163.5 -->
      <g transform="translate(353.069592534 401.918125)scale(0.12 -0.12)">
       <use xlink:href="#BitstreamVeraSans-Roman-31"/>
       <use x="63.623046875" xlink:href="#BitstreamVeraSans-Roman-36"/>
       <use x="127.24609375" xlink:href="#BitstreamVeraSans-Roman-33"/>
       <use x="190.869140625" xlink:href="#BitstreamVeraSans-Roman-2e"/>
       <use x="222.65625" xlink:href="#BitstreamVeraSans-Roman-35"/>
      </g>
     </g>
    </g>
    <g id="xtick_7">
     <g id="line2d_19">
      <g>
       <use style="stroke:#000000;stroke-width:0.5;" x="420.517606068" xlink:href="#m88bc15137d" y="388.8"/>
      </g>
     </g>
     <g id="line2d_20">
      <g>
       <use style="stroke:#000000;stroke-width:0.5;" x="420.517606068" xlink:href="#m1989787d27" y="43.2"/>
      </g>
     </g>
     <g id="text_7">
      <!-- 164.0 -->
      <defs>
       <path d="M 37.796875 64.3125 
L 12.890625 25.390625 
L 37.796875 25.390625 
z
M 35.203125 72.90625 
L 47.609375 72.90625 
L 47.609375 25.390625 
L 58.015625 25.390625 
L 58.015625 17.1875 
L 47.609375 17.1875 
L 47.609375 0 
L 37.796875 0 
L 37.796875 17.1875 
L 4.890625 17.1875 
L 4.890625 26.703125 
z
" id="BitstreamVeraSans-Roman-34"/>
      </defs>
      <g transform="translate(403.340731068 401.918125)scale(0.12 -0.12)">
       <use xlink:href="#BitstreamVeraSans-Roman-31"/>
       <use x="63.623046875" xlink:href="#BitstreamVeraSans-Roman-36"/>
       <use x="127.24609375" xlink:href="#BitstreamVeraSans-Roman-34"/>
       <use x="190.869140625" xlink:href="#BitstreamVeraSans-Roman-2e"/>
       <use x="222.65625" xlink:href="#BitstreamVeraSans-Roman-30"/>
      </g>
     </g>
    </g>
    <g id="xtick_8">
     <g id="line2d_21">
      <g>
       <use style="stroke:#000000;stroke-width:0.5;" x="470.788744602" xlink:href="#m88bc15137d" y="388.8"/>
      </g>
     </g>
     <g id="line2d_22">
      <g>
       <use style="stroke:#000000;stroke-width:0.5;" x="470.788744602" xlink:href="#m1989787d27" y="43.2"/>
      </g>
     </g>
     <g id="text_8">
      <!-- 164.5 -->
      <g transform="translate(453.611869602 401.918125)scale(0.12 -0.12)">
       <use xlink:href="#BitstreamVeraSans-Roman-31"/>
       <use x="63.623046875" xlink:href="#BitstreamVeraSans-Roman-36"/>
       <use x="127.24609375" xlink:href="#BitstreamVeraSans-Roman-34"/>
       <use x="190.869140625" xlink:href="#BitstreamVeraSans-Roman-2e"/>
       <use x="222.65625" xlink:href="#BitstreamVeraSans-Roman-35"/>
      </g>
     </g>
    </g>
    <g id="text_9">
     <!-- Time (s) -->
     <defs>
      <path id="BitstreamVeraSans-Roman-20"/>
      <path d="M 8.015625 75.875 
L 15.828125 75.875 
Q 23.140625 64.359375 26.78125 53.3125 
Q 30.421875 42.28125 30.421875 31.390625 
Q 30.421875 20.453125 26.78125 9.375 
Q 23.140625 -1.703125 15.828125 -13.1875 
L 8.015625 -13.1875 
Q 14.5 -2 17.703125 9.0625 
Q 20.90625 20.125 20.90625 31.390625 
Q 20.90625 42.671875 17.703125 53.65625 
Q 14.5 64.65625 8.015625 75.875 
" id="BitstreamVeraSans-Roman-29"/>
      <path d="M 31 75.875 
Q 24.46875 64.65625 21.28125 53.65625 
Q 18.109375 42.671875 18.109375 31.390625 
Q 18.109375 20.125 21.3125 9.0625 
Q 24.515625 -2 31 -13.1875 
L 23.1875 -13.1875 
Q 15.875 -1.703125 12.234375 9.375 
Q 8.59375 20.453125 8.59375 31.390625 
Q 8.59375 42.28125 12.203125 53.3125 
Q 15.828125 64.359375 23.1875 75.875 
z
" id="BitstreamVeraSans-Roman-28"/>
      <path d="M 9.421875 54.6875 
L 18.40625 54.6875 
L 18.40625 0 
L 9.421875 0 
z
M 9.421875 75.984375 
L 18.40625 75.984375 
L 18.40625 64.59375 
L 9.421875 64.59375 
z
" id="BitstreamVeraSans-Roman-69"/>
      <path d="M 52 44.1875 
Q 55.375 50.25 60.0625 53.125 
Q 64.75 56 71.09375 56 
Q 79.640625 56 84.28125 50.015625 
Q 88.921875 44.046875 88.921875 33.015625 
L 88.921875 0 
L 79.890625 0 
L 79.890625 32.71875 
Q 79.890625 40.578125 77.09375 44.375 
Q 74.3125 48.1875 68.609375 48.1875 
Q 61.625 48.1875 57.5625 43.546875 
Q 53.515625 38.921875 53.515625 30.90625 
L 53.515625 0 
L 44.484375 0 
L 44.484375 32.71875 
Q 44.484375 40.625 41.703125 44.40625 
Q 38.921875 48.1875 33.109375 48.1875 
Q 26.21875 48.1875 22.15625 43.53125 
Q 18.109375 38.875 18.109375 30.90625 
L 18.109375 0 
L 9.078125 0 
L 9.078125 54.6875 
L 18.109375 54.6875 
L 18.109375 46.1875 
Q 21.1875 51.21875 25.484375 53.609375 
Q 29.78125 56 35.6875 56 
Q 41.65625 56 45.828125 52.96875 
Q 50 49.953125 52 44.1875 
" id="BitstreamVeraSans-Roman-6d"/>
      <path d="M 56.203125 29.59375 
L 56.203125 25.203125 
L 14.890625 25.203125 
Q 15.484375 15.921875 20.484375 11.0625 
Q 25.484375 6.203125 34.421875 6.203125 
Q 39.59375 6.203125 44.453125 7.46875 
Q 49.3125 8.734375 54.109375 11.28125 
L 54.109375 2.78125 
Q 49.265625 0.734375 44.1875 -0.34375 
Q 39.109375 -1.421875 33.890625 -1.421875 
Q 20.796875 -1.421875 13.15625 6.1875 
Q 5.515625 13.8125 5.515625 26.8125 
Q 5.515625 40.234375 12.765625 48.109375 
Q 20.015625 56 32.328125 56 
Q 43.359375 56 49.78125 48.890625 
Q 56.203125 41.796875 56.203125 29.59375 
M 47.21875 32.234375 
Q 47.125 39.59375 43.09375 43.984375 
Q 39.0625 48.390625 32.421875 48.390625 
Q 24.90625 48.390625 20.390625 44.140625 
Q 15.875 39.890625 15.1875 32.171875 
z
" id="BitstreamVeraSans-Roman-65"/>
      <path d="M -0.296875 72.90625 
L 61.375 72.90625 
L 61.375 64.59375 
L 35.5 64.59375 
L 35.5 0 
L 25.59375 0 
L 25.59375 64.59375 
L -0.296875 64.59375 
z
" id="BitstreamVeraSans-Roman-54"/>
      <path d="M 44.28125 53.078125 
L 44.28125 44.578125 
Q 40.484375 46.53125 36.375 47.5 
Q 32.28125 48.484375 27.875 48.484375 
Q 21.1875 48.484375 17.84375 46.4375 
Q 14.5 44.390625 14.5 40.28125 
Q 14.5 37.15625 16.890625 35.375 
Q 19.28125 33.59375 26.515625 31.984375 
L 29.59375 31.296875 
Q 39.15625 29.25 43.1875 25.515625 
Q 47.21875 21.78125 47.21875 15.09375 
Q 47.21875 7.46875 41.1875 3.015625 
Q 35.15625 -1.421875 24.609375 -1.421875 
Q 20.21875 -1.421875 15.453125 -0.5625 
Q 10.6875 0.296875 5.421875 2 
L 5.421875 11.28125 
Q 10.40625 8.6875 15.234375 7.390625 
Q 20.0625 6.109375 24.8125 6.109375 
Q 31.15625 6.109375 34.5625 8.28125 
Q 37.984375 10.453125 37.984375 14.40625 
Q 37.984375 18.0625 35.515625 20.015625 
Q 33.0625 21.96875 24.703125 23.78125 
L 21.578125 24.515625 
Q 13.234375 26.265625 9.515625 29.90625 
Q 5.8125 33.546875 5.8125 39.890625 
Q 5.8125 47.609375 11.28125 51.796875 
Q 16.75 56 26.8125 56 
Q 31.78125 56 36.171875 55.265625 
Q 40.578125 54.546875 44.28125 53.078125 
" id="BitstreamVeraSans-Roman-73"/>
     </defs>
     <g transform="translate(271.081875 418.531875)scale(0.12 -0.12)">
      <use xlink:href="#BitstreamVeraSans-Roman-54"/>
      <use x="61.037109375" xlink:href="#BitstreamVeraSans-Roman-69"/>
      <use x="88.8203125" xlink:href="#BitstreamVeraSans-Roman-6d"/>
      <use x="186.232421875" xlink:href="#BitstreamVeraSans-Roman-65"/>
      <use x="247.755859375" xlink:href="#BitstreamVeraSans-Roman-20"/>
      <use x="279.54296875" xlink:href="#BitstreamVeraSans-Roman-28"/>
      <use x="318.556640625" xlink:href="#BitstreamVeraSans-Roman-73"/>
      <use x="370.65625" xlink:href="#BitstreamVeraSans-Roman-29"/>
     </g>
    </g>
   </g>
   <g id="matplotlib.axis_2">
    <g id="ytick_1">
     <g id="line2d_23">
      <defs>
       <path d="M 0 0 
L 4 0 
" id="m3560b947d2" style="stroke:#000000;stroke-width:0.5;"/>
      </defs>
      <g>
       <use style="stroke:#000000;stroke-width:0.5;" x="72.1125" xlink:href="#m3560b947d2" y="369.6979646"/>
      </g>
     </g>
     <g id="line2d_24">
      <defs>
       <path d="M 0 0 
L -4 0 
" id="mb5dae36ff3" style="stroke:#000000;stroke-width:0.5;"/>
      </defs>
      <g>
       <use style="stroke:#000000;stroke-width:0.5;" x="519.21" xlink:href="#mb5dae36ff3" y="369.6979646"/>
      </g>
     </g>
     <g id="text_10">
      <!-- −6 -->
      <defs>
       <path d="M 10.59375 35.5 
L 73.1875 35.5 
L 73.1875 27.203125 
L 10.59375 27.203125 
z
" id="BitstreamVeraSans-Roman-2212"/>
      </defs>
      <g transform="translate(50.421875 373.0092146)scale(0.12 -0.12)">
       <use xlink:href="#BitstreamVeraSans-Roman-2212"/>
       <use x="83.7890625" xlink:href="#BitstreamVeraSans-Roman-36"/>
      </g>
     </g>
    </g>
    <g id="ytick_2">
     <g id="line2d_25">
      <g>
       <use style="stroke:#000000;stroke-width:0.5;" x="72.1125" xlink:href="#m3560b947d2" y="319.12803367"/>
      </g>
     </g>
     <g id="line2d_26">
      <g>
       <use style="stroke:#000000;stroke-width:0.5;" x="519.21" xlink:href="#mb5dae36ff3" y="319.12803367"/>
      </g>
     </g>
     <g id="text_11">
      <!-- −4 -->
      <g transform="translate(50.421875 322.43928367)scale(0.12 -0.12)">
       <use xlink:href="#BitstreamVeraSans-Roman-2212"/>
       <use x="83.7890625" xlink:href="#BitstreamVeraSans-Roman-34"/>
      </g>
     </g>
    </g>
    <g id="ytick_3">
     <g id="line2d_27">
      <g>
       <use style="stroke:#000000;stroke-width:0.5;" x="72.1125" xlink:href="#m3560b947d2" y="268.55810274"/>
      </g>
     </g>
     <g id="line2d_28">
      <g>
       <use style="stroke:#000000;stroke-width:0.5;" x="519.21" xlink:href="#mb5dae36ff3" y="268.55810274"/>
      </g>
     </g>
     <g id="text_12">
      <!-- −2 -->
      <g transform="translate(50.421875 271.86935274)scale(0.12 -0.12)">
       <use xlink:href="#BitstreamVeraSans-Roman-2212"/>
       <use x="83.7890625" xlink:href="#BitstreamVeraSans-Roman-32"/>
      </g>
     </g>
    </g>
    <g id="ytick_4">
     <g id="line2d_29">
      <g>
       <use style="stroke:#000000;stroke-width:0.5;" x="72.1125" xlink:href="#m3560b947d2" y="217.98817181"/>
      </g>
     </g>
     <g id="line2d_30">
      <g>
       <use style="stroke:#000000;stroke-width:0.5;" x="519.21" xlink:href="#mb5dae36ff3" y="217.98817181"/>
      </g>
     </g>
     <g id="text_13">
      <!-- 0 -->
      <g transform="translate(60.4775 221.29942181)scale(0.12 -0.12)">
       <use xlink:href="#BitstreamVeraSans-Roman-30"/>
      </g>
     </g>
    </g>
    <g id="ytick_5">
     <g id="line2d_31">
      <g>
       <use style="stroke:#000000;stroke-width:0.5;" x="72.1125" xlink:href="#m3560b947d2" y="167.418240881"/>
      </g>
     </g>
     <g id="line2d_32">
      <g>
       <use style="stroke:#000000;stroke-width:0.5;" x="519.21" xlink:href="#mb5dae36ff3" y="167.418240881"/>
      </g>
     </g>
     <g id="text_14">
      <!-- 2 -->
      <g transform="translate(60.4775 170.729490881)scale(0.12 -0.12)">
       <use xlink:href="#BitstreamVeraSans-Roman-32"/>
      </g>
     </g>
    </g>
    <g id="ytick_6">
     <g id="line2d_33">
      <g>
       <use style="stroke:#000000;stroke-width:0.5;" x="72.1125" xlink:href="#m3560b947d2" y="116.848309951"/>
      </g>
     </g>
     <g id="line2d_34">
      <g>
       <use style="stroke:#000000;stroke-width:0.5;" x="519.21" xlink:href="#mb5dae36ff3" y="116.848309951"/>
      </g>
     </g>
     <g id="text_15">
      <!-- 4 -->
      <g transform="translate(60.4775 120.159559951)scale(0.12 -0.12)">
       <use xlink:href="#BitstreamVeraSans-Roman-34"/>
      </g>
     </g>
    </g>
    <g id="ytick_7">
     <g id="line2d_35">
      <g>
       <use style="stroke:#000000;stroke-width:0.5;" x="72.1125" xlink:href="#m3560b947d2" y="66.2783790207"/>
      </g>
     </g>
     <g id="line2d_36">
      <g>
       <use style="stroke:#000000;stroke-width:0.5;" x="519.21" xlink:href="#mb5dae36ff3" y="66.2783790207"/>
      </g>
     </g>
     <g id="text_16">
      <!-- 6 -->
      <g transform="translate(60.4775 69.5896290207)scale(0.12 -0.12)">
       <use xlink:href="#BitstreamVeraSans-Roman-36"/>
      </g>
     </g>
    </g>
    <g id="text_17">
     <!-- Motor position (rad) -->
     <defs>
      <path d="M 9.8125 72.90625 
L 24.515625 72.90625 
L 43.109375 23.296875 
L 61.8125 72.90625 
L 76.515625 72.90625 
L 76.515625 0 
L 66.890625 0 
L 66.890625 64.015625 
L 48.09375 14.015625 
L 38.1875 14.015625 
L 19.390625 64.015625 
L 19.390625 0 
L 9.8125 0 
z
" id="BitstreamVeraSans-Roman-4d"/>
      <path d="M 54.890625 33.015625 
L 54.890625 0 
L 45.90625 0 
L 45.90625 32.71875 
Q 45.90625 40.484375 42.875 44.328125 
Q 39.84375 48.1875 33.796875 48.1875 
Q 26.515625 48.1875 22.3125 43.546875 
Q 18.109375 38.921875 18.109375 30.90625 
L 18.109375 0 
L 9.078125 0 
L 9.078125 54.6875 
L 18.109375 54.6875 
L 18.109375 46.1875 
Q 21.34375 51.125 25.703125 53.5625 
Q 30.078125 56 35.796875 56 
Q 45.21875 56 50.046875 50.171875 
Q 54.890625 44.34375 54.890625 33.015625 
" id="BitstreamVeraSans-Roman-6e"/>
      <path d="M 34.28125 27.484375 
Q 23.390625 27.484375 19.1875 25 
Q 14.984375 22.515625 14.984375 16.5 
Q 14.984375 11.71875 18.140625 8.90625 
Q 21.296875 6.109375 26.703125 6.109375 
Q 34.1875 6.109375 38.703125 11.40625 
Q 43.21875 16.703125 43.21875 25.484375 
L 43.21875 27.484375 
z
M 52.203125 31.203125 
L 52.203125 0 
L 43.21875 0 
L 43.21875 8.296875 
Q 40.140625 3.328125 35.546875 0.953125 
Q 30.953125 -1.421875 24.3125 -1.421875 
Q 15.921875 -1.421875 10.953125 3.296875 
Q 6 8.015625 6 15.921875 
Q 6 25.140625 12.171875 29.828125 
Q 18.359375 34.515625 30.609375 34.515625 
L 43.21875 34.515625 
L 43.21875 35.40625 
Q 43.21875 41.609375 39.140625 45 
Q 35.0625 48.390625 27.6875 48.390625 
Q 23 48.390625 18.546875 47.265625 
Q 14.109375 46.140625 10.015625 43.890625 
L 10.015625 52.203125 
Q 14.9375 54.109375 19.578125 55.046875 
Q 24.21875 56 28.609375 56 
Q 40.484375 56 46.34375 49.84375 
Q 52.203125 43.703125 52.203125 31.203125 
" id="BitstreamVeraSans-Roman-61"/>
      <path d="M 30.609375 48.390625 
Q 23.390625 48.390625 19.1875 42.75 
Q 14.984375 37.109375 14.984375 27.296875 
Q 14.984375 17.484375 19.15625 11.84375 
Q 23.34375 6.203125 30.609375 6.203125 
Q 37.796875 6.203125 41.984375 11.859375 
Q 46.1875 17.53125 46.1875 27.296875 
Q 46.1875 37.015625 41.984375 42.703125 
Q 37.796875 48.390625 30.609375 48.390625 
M 30.609375 56 
Q 42.328125 56 49.015625 48.375 
Q 55.71875 40.765625 55.71875 27.296875 
Q 55.71875 13.875 49.015625 6.21875 
Q 42.328125 -1.421875 30.609375 -1.421875 
Q 18.84375 -1.421875 12.171875 6.21875 
Q 5.515625 13.875 5.515625 27.296875 
Q 5.515625 40.765625 12.171875 48.375 
Q 18.84375 56 30.609375 56 
" id="BitstreamVeraSans-Roman-6f"/>
      <path d="M 45.40625 46.390625 
L 45.40625 75.984375 
L 54.390625 75.984375 
L 54.390625 0 
L 45.40625 0 
L 45.40625 8.203125 
Q 42.578125 3.328125 38.25 0.953125 
Q 33.9375 -1.421875 27.875 -1.421875 
Q 17.96875 -1.421875 11.734375 6.484375 
Q 5.515625 14.40625 5.515625 27.296875 
Q 5.515625 40.1875 11.734375 48.09375 
Q 17.96875 56 27.875 56 
Q 33.9375 56 38.25 53.625 
Q 42.578125 51.265625 45.40625 46.390625 
M 14.796875 27.296875 
Q 14.796875 17.390625 18.875 11.75 
Q 22.953125 6.109375 30.078125 6.109375 
Q 37.203125 6.109375 41.296875 11.75 
Q 45.40625 17.390625 45.40625 27.296875 
Q 45.40625 37.203125 41.296875 42.84375 
Q 37.203125 48.484375 30.078125 48.484375 
Q 22.953125 48.484375 18.875 42.84375 
Q 14.796875 37.203125 14.796875 27.296875 
" id="BitstreamVeraSans-Roman-64"/>
      <path d="M 18.3125 70.21875 
L 18.3125 54.6875 
L 36.8125 54.6875 
L 36.8125 47.703125 
L 18.3125 47.703125 
L 18.3125 18.015625 
Q 18.3125 11.328125 20.140625 9.421875 
Q 21.96875 7.515625 27.59375 7.515625 
L 36.8125 7.515625 
L 36.8125 0 
L 27.59375 0 
Q 17.1875 0 13.234375 3.875 
Q 9.28125 7.765625 9.28125 18.015625 
L 9.28125 47.703125 
L 2.6875 47.703125 
L 2.6875 54.6875 
L 9.28125 54.6875 
L 9.28125 70.21875 
z
" id="BitstreamVeraSans-Roman-74"/>
      <path d="M 41.109375 46.296875 
Q 39.59375 47.171875 37.8125 47.578125 
Q 36.03125 48 33.890625 48 
Q 26.265625 48 22.1875 43.046875 
Q 18.109375 38.09375 18.109375 28.8125 
L 18.109375 0 
L 9.078125 0 
L 9.078125 54.6875 
L 18.109375 54.6875 
L 18.109375 46.1875 
Q 20.953125 51.171875 25.484375 53.578125 
Q 30.03125 56 36.53125 56 
Q 37.453125 56 38.578125 55.875 
Q 39.703125 55.765625 41.0625 55.515625 
z
" id="BitstreamVeraSans-Roman-72"/>
      <path d="M 18.109375 8.203125 
L 18.109375 -20.796875 
L 9.078125 -20.796875 
L 9.078125 54.6875 
L 18.109375 54.6875 
L 18.109375 46.390625 
Q 20.953125 51.265625 25.265625 53.625 
Q 29.59375 56 35.59375 56 
Q 45.5625 56 51.78125 48.09375 
Q 58.015625 40.1875 58.015625 27.296875 
Q 58.015625 14.40625 51.78125 6.484375 
Q 45.5625 -1.421875 35.59375 -1.421875 
Q 29.59375 -1.421875 25.265625 0.953125 
Q 20.953125 3.328125 18.109375 8.203125 
M 48.6875 27.296875 
Q 48.6875 37.203125 44.609375 42.84375 
Q 40.53125 48.484375 33.40625 48.484375 
Q 26.265625 48.484375 22.1875 42.84375 
Q 18.109375 37.203125 18.109375 27.296875 
Q 18.109375 17.390625 22.1875 11.75 
Q 26.265625 6.109375 33.40625 6.109375 
Q 40.53125 6.109375 44.609375 11.75 
Q 48.6875 17.390625 48.6875 27.296875 
" id="BitstreamVeraSans-Roman-70"/>
     </defs>
     <g transform="translate(42.92625 275.551875)rotate(-90.0)scale(0.12 -0.12)">
      <use xlink:href="#BitstreamVeraSans-Roman-4d"/>
      <use x="86.279296875" xlink:href="#BitstreamVeraSans-Roman-6f"/>
      <use x="147.4609375" xlink:href="#BitstreamVeraSans-Roman-74"/>
      <use x="186.669921875" xlink:href="#BitstreamVeraSans-Roman-6f"/>
      <use x="247.8515625" xlink:href="#BitstreamVeraSans-Roman-72"/>
      <use x="288.96484375" xlink:href="#BitstreamVeraSans-Roman-20"/>
      <use x="320.751953125" xlink:href="#BitstreamVeraSans-Roman-70"/>
      <use x="384.228515625" xlink:href="#BitstreamVeraSans-Roman-6f"/>
      <use x="445.41015625" xlink:href="#BitstreamVeraSans-Roman-73"/>
      <use x="497.509765625" xlink:href="#BitstreamVeraSans-Roman-69"/>
      <use x="525.29296875" xlink:href="#BitstreamVeraSans-Roman-74"/>
      <use x="564.501953125" xlink:href="#BitstreamVeraSans-Roman-69"/>
      <use x="592.28515625" xlink:href="#BitstreamVeraSans-Roman-6f"/>
      <use x="653.466796875" xlink:href="#BitstreamVeraSans-Roman-6e"/>
      <use x="716.845703125" xlink:href="#BitstreamVeraSans-Roman-20"/>
      <use x="748.6328125" xlink:href="#BitstreamVeraSans-Roman-28"/>
      <use x="787.646484375" xlink:href="#BitstreamVeraSans-Roman-72"/>
      <use x="828.759765625" xlink:href="#BitstreamVeraSans-Roman-61"/>
      <use x="890.0390625" xlink:href="#BitstreamVeraSans-Roman-64"/>
      <use x="953.515625" xlink:href="#BitstreamVeraSans-Roman-29"/>
     </g>
    </g>
   </g>
   <g id="legend_1">
    <g id="patch_7">
     <path d="M 77.1105 383.802 
L 514.212 383.802 
L 514.212 366.131677 
L 77.1105 366.131677 
z
" style="fill:#ffffff;stroke:#000000;stroke-linejoin:miter;"/>
    </g>
    <g id="line2d_37">
     <path d="M 84.1077 374.226875 
L 98.1021 374.226875 
" style="fill:none;stroke:#b4656f;stroke-linecap:square;"/>
    </g>
    <g id="line2d_38"/>
    <g id="text_18">
     <!-- Muscle 1 -->
     <defs>
      <path d="M 8.5 21.578125 
L 8.5 54.6875 
L 17.484375 54.6875 
L 17.484375 21.921875 
Q 17.484375 14.15625 20.5 10.265625 
Q 23.53125 6.390625 29.59375 6.390625 
Q 36.859375 6.390625 41.078125 11.03125 
Q 45.3125 15.671875 45.3125 23.6875 
L 45.3125 54.6875 
L 54.296875 54.6875 
L 54.296875 0 
L 45.3125 0 
L 45.3125 8.40625 
Q 42.046875 3.421875 37.71875 1 
Q 33.40625 -1.421875 27.6875 -1.421875 
Q 18.265625 -1.421875 13.375 4.4375 
Q 8.5 10.296875 8.5 21.578125 
" id="BitstreamVeraSans-Roman-75"/>
      <path d="M 9.421875 75.984375 
L 18.40625 75.984375 
L 18.40625 0 
L 9.421875 0 
z
" id="BitstreamVeraSans-Roman-6c"/>
      <path d="M 48.78125 52.59375 
L 48.78125 44.1875 
Q 44.96875 46.296875 41.140625 47.34375 
Q 37.3125 48.390625 33.40625 48.390625 
Q 24.65625 48.390625 19.8125 42.84375 
Q 14.984375 37.3125 14.984375 27.296875 
Q 14.984375 17.28125 19.8125 11.734375 
Q 24.65625 6.203125 33.40625 6.203125 
Q 37.3125 6.203125 41.140625 7.25 
Q 44.96875 8.296875 48.78125 10.40625 
L 48.78125 2.09375 
Q 45.015625 0.34375 40.984375 -0.53125 
Q 36.96875 -1.421875 32.421875 -1.421875 
Q 20.0625 -1.421875 12.78125 6.34375 
Q 5.515625 14.109375 5.515625 27.296875 
Q 5.515625 40.671875 12.859375 48.328125 
Q 20.21875 56 33.015625 56 
Q 37.15625 56 41.109375 55.140625 
Q 45.0625 54.296875 48.78125 52.59375 
" id="BitstreamVeraSans-Roman-63"/>
     </defs>
     <g transform="translate(109.0977 377.725475)scale(0.09996 -0.09996)">
      <use xlink:href="#BitstreamVeraSans-Roman-4d"/>
      <use x="86.279296875" xlink:href="#BitstreamVeraSans-Roman-75"/>
      <use x="149.658203125" xlink:href="#BitstreamVeraSans-Roman-73"/>
      <use x="201.7578125" xlink:href="#BitstreamVeraSans-Roman-63"/>
      <use x="256.73828125" xlink:href="#BitstreamVeraSans-Roman-6c"/>
      <use x="284.521484375" xlink:href="#BitstreamVeraSans-Roman-65"/>
      <use x="346.044921875" xlink:href="#BitstreamVeraSans-Roman-20"/>
      <use x="377.83203125" xlink:href="#BitstreamVeraSans-Roman-31"/>
     </g>
    </g>
    <g id="line2d_39">
     <path d="M 155.496505 374.226875 
L 169.490905 374.226875 
" style="fill:none;stroke:#f3d34a;stroke-linecap:square;"/>
    </g>
    <g id="line2d_40"/>
    <g id="text_19">
     <!-- Muscle 2 -->
     <g transform="translate(180.486505 377.725475)scale(0.09996 -0.09996)">
      <use xlink:href="#BitstreamVeraSans-Roman-4d"/>
      <use x="86.279296875" xlink:href="#BitstreamVeraSans-Roman-75"/>
      <use x="149.658203125" xlink:href="#BitstreamVeraSans-Roman-73"/>
      <use x="201.7578125" xlink:href="#BitstreamVeraSans-Roman-63"/>
      <use x="256.73828125" xlink:href="#BitstreamVeraSans-Roman-6c"/>
      <use x="284.521484375" xlink:href="#BitstreamVeraSans-Roman-65"/>
      <use x="346.044921875" xlink:href="#BitstreamVeraSans-Roman-20"/>
      <use x="377.83203125" xlink:href="#BitstreamVeraSans-Roman-32"/>
     </g>
    </g>
    <g id="line2d_41">
     <path d="M 226.88531 374.226875 
L 240.87971 374.226875 
" style="fill:none;stroke:#a11692;stroke-linecap:square;"/>
    </g>
    <g id="line2d_42"/>
    <g id="text_20">
     <!-- Muscle 6 -->
     <g transform="translate(251.87531 377.725475)scale(0.09996 -0.09996)">
      <use xlink:href="#BitstreamVeraSans-Roman-4d"/>
      <use x="86.279296875" xlink:href="#BitstreamVeraSans-Roman-75"/>
      <use x="149.658203125" xlink:href="#BitstreamVeraSans-Roman-73"/>
      <use x="201.7578125" xlink:href="#BitstreamVeraSans-Roman-63"/>
      <use x="256.73828125" xlink:href="#BitstreamVeraSans-Roman-6c"/>
      <use x="284.521484375" xlink:href="#BitstreamVeraSans-Roman-65"/>
      <use x="346.044921875" xlink:href="#BitstreamVeraSans-Roman-20"/>
      <use x="377.83203125" xlink:href="#BitstreamVeraSans-Roman-36"/>
     </g>
    </g>
    <g id="line2d_43">
     <path d="M 298.274115 374.226875 
L 312.268515 374.226875 
" style="fill:none;stroke:#f75c03;stroke-linecap:square;"/>
    </g>
    <g id="line2d_44"/>
    <g id="text_21">
     <!-- Muscle 5 -->
     <g transform="translate(323.264115 377.725475)scale(0.09996 -0.09996)">
      <use xlink:href="#BitstreamVeraSans-Roman-4d"/>
      <use x="86.279296875" xlink:href="#BitstreamVeraSans-Roman-75"/>
      <use x="149.658203125" xlink:href="#BitstreamVeraSans-Roman-73"/>
      <use x="201.7578125" xlink:href="#BitstreamVeraSans-Roman-63"/>
      <use x="256.73828125" xlink:href="#BitstreamVeraSans-Roman-6c"/>
      <use x="284.521484375" xlink:href="#BitstreamVeraSans-Roman-65"/>
      <use x="346.044921875" xlink:href="#BitstreamVeraSans-Roman-20"/>
      <use x="377.83203125" xlink:href="#BitstreamVeraSans-Roman-35"/>
     </g>
    </g>
    <g id="line2d_45">
     <path d="M 369.66292 374.226875 
L 383.65732 374.226875 
" style="fill:none;stroke:#2274a5;stroke-linecap:square;"/>
    </g>
    <g id="line2d_46"/>
    <g id="text_22">
     <!-- Muscle 4 -->
     <g transform="translate(394.65292 377.725475)scale(0.09996 -0.09996)">
      <use xlink:href="#BitstreamVeraSans-Roman-4d"/>
      <use x="86.279296875" xlink:href="#BitstreamVeraSans-Roman-75"/>
      <use x="149.658203125" xlink:href="#BitstreamVeraSans-Roman-73"/>
      <use x="201.7578125" xlink:href="#BitstreamVeraSans-Roman-63"/>
      <use x="256.73828125" xlink:href="#BitstreamVeraSans-Roman-6c"/>
      <use x="284.521484375" xlink:href="#BitstreamVeraSans-Roman-65"/>
      <use x="346.044921875" xlink:href="#BitstreamVeraSans-Roman-20"/>
      <use x="377.83203125" xlink:href="#BitstreamVeraSans-Roman-34"/>
     </g>
    </g>
    <g id="line2d_47">
     <path d="M 441.051725 374.226875 
L 455.046125 374.226875 
" style="fill:none;stroke:#4e937a;stroke-linecap:square;"/>
    </g>
    <g id="line2d_48"/>
    <g id="text_23">
     <!-- Muscle 3 -->
     <g transform="translate(466.041725 377.725475)scale(0.09996 -0.09996)">
      <use xlink:href="#BitstreamVeraSans-Roman-4d"/>
      <use x="86.279296875" xlink:href="#BitstreamVeraSans-Roman-75"/>
      <use x="149.658203125" xlink:href="#BitstreamVeraSans-Roman-73"/>
      <use x="201.7578125" xlink:href="#BitstreamVeraSans-Roman-63"/>
      <use x="256.73828125" xlink:href="#BitstreamVeraSans-Roman-6c"/>
      <use x="284.521484375" xlink:href="#BitstreamVeraSans-Roman-65"/>
      <use x="346.044921875" xlink:href="#BitstreamVeraSans-Roman-20"/>
      <use x="377.83203125" xlink:href="#BitstreamVeraSans-Roman-33"/>
     </g>
    </g>
   </g>
  </g>
 </g>
 <defs>
  <clipPath id="p72fc9b339b">
   <rect height="345.6" width="447.0975" x="72.1125" y="43.2"/>
  </clipPath>
 </defs>
</svg>
