<?xml version="1.0" encoding="utf-8" standalone="no"?>
<!DOCTYPE svg PUBLIC "-//W3C//DTD SVG 1.1//EN"
  "http://www.w3.org/Graphics/SVG/1.1/DTD/svg11.dtd">
<!-- Created with matplotlib (http://matplotlib.org/) -->
<svg height="432pt" version="1.1" viewBox="0 0 576 432" width="576pt" xmlns="http://www.w3.org/2000/svg" xmlns:xlink="http://www.w3.org/1999/xlink">
 <defs>
  <style type="text/css">
*{stroke-linecap:butt;stroke-linejoin:round;stroke-miterlimit:100000;}
  </style>
 </defs>
 <g id="figure_1">
  <g id="patch_1">
   <path d="M 0 432 
L 576.9 432 
L 576.9 0 
L 0 0 
z
" style="fill:#ffffff;"/>
  </g>
  <g id="axes_1">
   <g id="patch_2">
    <path d="M 72.1125 388.8 
L 519.21 388.8 
L 519.21 43.2 
L 72.1125 43.2 
z
" style="fill:#ffffff;"/>
   </g>
   <g id="line2d_1">
    <path clip-path="url(#p8d234f6020)" d="M 71.745333 157.372678 
L 89.168954 258.444024 
L 94.976234 291.975274 
L 101.612745 330.337918 
L 102.444608 332.308619 
L 103.275481 332.249938 
L 104.933202 331.780491 
L 106.59208 330.663923 
L 107.48635 329.81957 
L 109.098872 327.418543 
L 110.742124 324.341055 
L 112.403158 320.466485 
L 114.058584 315.992066 
L 115.71945 310.502141 
L 117.377597 304.02116 
L 119.036326 296.24757 
L 120.694849 287.21886 
L 145.589395 142.497067 
L 154.715608 92.047786 
L 155.544701 90.484591 
L 158.031505 91.967914 
L 158.865236 92.557984 
L 159.692381 93.506658 
L 161.350359 95.923986 
L 163.009544 99.061784 
L 163.837212 101.661675 
L 164.675207 103.901329 
L 166.33003 109.177721 
L 167.989076 116.591076 
L 168.817012 120.292863 
L 171.308504 134.531134 
L 184.579202 211.872572 
L 192.161493 255.242655 
L 192.876026 259.976248 
L 200.345874 302.387875 
L 201.174828 302.573698 
L 202.006245 303.484882 
L 202.830334 304.02279 
L 203.66448 303.768506 
L 204.493188 302.803532 
L 205.323111 302.72692 
L 206.150651 301.942878 
L 206.982791 299.866226 
L 207.810083 298.787149 
L 208.640146 296.26061 
L 209.471919 294.94192 
L 210.298381 291.774781 
L 211.130856 290.231147 
L 211.961136 286.296266 
L 212.788192 284.428257 
L 213.617057 280.364604 
L 214.448158 277.875555 
L 215.276232 273.376686 
L 217.767081 263.526443 
L 218.596223 258.954222 
L 221.914741 243.230998 
L 222.744932 238.759839 
L 223.575548 235.141183 
L 224.402119 230.712404 
L 229.380998 208.782045 
L 234.359551 191.414125 
L 235.191018 189.343993 
L 236.019557 186.595771 
L 236.850658 184.690271 
L 237.678336 182.232193 
L 238.511544 180.668999 
L 239.338391 178.409784 
L 240.172162 177.058493 
L 240.998437 175.097573 
L 241.826066 173.994045 
L 242.657859 172.212428 
L 243.484647 171.361555 
L 244.316935 169.496806 
L 245.146255 169.038769 
L 246.80543 170.41614 
L 248.46503 174.150528 
L 250.124749 175.806634 
L 250.956581 178.752089 
L 251.78428 180.364184 
L 252.612255 182.898873 
L 253.443247 184.541939 
L 254.273062 187.601496 
L 255.930892 190.780046 
L 256.76125 194.646466 
L 257.590136 196.315611 
L 258.421583 198.442794 
L 259.250755 200.020659 
L 260.079145 204.079422 
L 260.908377 205.592085 
L 261.740921 208.333788 
L 262.568926 210.495201 
L 264.227567 212.98751 
L 265.056324 214.583304 
L 266.719217 216.560525 
L 267.547252 216.782209 
L 268.376424 217.318487 
L 269.207703 218.14165 
L 272.526339 217.942787 
L 274.184673 217.488009 
L 275.011393 216.969661 
L 276.673178 215.531979 
L 277.502677 214.839218 
L 279.162326 212.99077 
L 280.822955 211.109721 
L 281.653284 209.918172 
L 283.311094 208.092544 
L 284.137823 207.037918 
L 284.969844 205.613275 
L 285.797928 204.478778 
L 286.626289 203.766457 
L 289.11787 200.605838 
L 290.776906 197.642452 
L 291.605999 195.746733 
L 293.265303 192.809427 
L 294.092833 191.167992 
L 295.75628 188.548541 
L 296.586372 187.254301 
L 297.415366 185.428673 
L 298.245597 184.369156 
L 299.073572 182.445726 
L 299.90399 181.41066 
L 302.391852 176.809099 
L 304.051977 174.884039 
L 304.881752 173.125242 
L 306.542984 172.551473 
L 308.202218 172.119516 
L 310.688577 173.894614 
L 313.178151 177.338857 
L 314.008875 178.903682 
L 316.496569 184.310475 
L 317.327561 186.52568 
L 320.644695 196.758978 
L 325.623792 215.809083 
L 329.770483 231.941443 
L 332.260145 240.204041 
L 335.579197 249.322403 
L 336.407993 251.666379 
L 339.741732 259.094404 
L 341.388514 262.204492 
L 343.875308 266.693582 
L 344.70811 267.981302 
L 347.195626 272.325319 
L 349.681857 275.932565 
L 350.512829 276.558495 
L 353.000246 277.373507 
L 354.662437 276.384082 
L 355.459634 275.536469 
L 356.319456 274.366111 
L 357.980836 271.582028 
L 358.808367 269.700979 
L 361.296763 262.908663 
L 362.12731 259.813245 
L 365.447529 244.799083 
L 379.550377 165.208209 
L 382.037349 152.153337 
L 382.867985 148.49556 
L 384.5271 142.67474 
L 386.183773 137.375528 
L 388.676006 130.971159 
L 391.994959 124.147873 
L 393.654085 121.567543 
L 394.483158 120.496616 
L 396.143698 119.076864 
L 396.976143 118.547106 
L 397.804336 118.253702 
L 399.432367 118.364543 
L 400.293514 118.75901 
L 401.952966 120.318944 
L 402.779645 121.415951 
L 403.609193 122.935134 
L 405.271315 126.483699 
L 406.102436 128.527751 
L 406.93142 131.334654 
L 409.418817 141.817347 
L 411.076934 150.282068 
L 413.567704 164.660521 
L 425.981231 237.54221 
L 430.160234 261.739935 
L 437.629676 305.26324 
L 438.455198 308.627612 
L 440.117894 311.855062 
L 440.946562 313.162342 
L 441.772183 314.251199 
L 443.431941 315.802983 
L 445.092995 316.777738 
L 445.924897 316.996161 
L 446.754653 316.996161 
L 447.583103 316.849459 
L 448.408388 316.305031 
L 450.068463 314.600024 
L 450.897724 313.408476 
L 451.731396 311.783341 
L 454.220445 305.437652 
L 455.87962 299.517401 
L 457.539715 292.211627 
L 459.199058 283.420901 
L 463.346609 259.384549 
L 479.939495 163.129927 
L 483.259328 145.791348 
L 486.578568 129.422635 
L 489.892546 114.351421 
L 493.213477 100.543477 
L 494.044697 99.940368 
L 494.875995 99.901247 
L 495.703743 100.005569 
L 496.532223 100.403295 
L 497.361988 101.144957 
L 498.190735 102.064291 
L 499.022874 103.259099 
L 500.679082 106.378968 
L 502.340096 110.235607 
L 504.829758 118.035278 
L 508.975816 134.368131 
L 510.637088 142.594869 
L 512.293513 151.639879 
L 519.760809 195.423988 
L 519.760809 195.423988 
" style="fill:none;stroke:#b4656f;stroke-linecap:square;"/>
   </g>
   <g id="line2d_2">
    <path clip-path="url(#p8d234f6020)" d="M 71.745333 273.68965 
L 75.065562 258.890651 
L 80.044273 238.331142 
L 83.362692 225.393632 
L 88.342749 207.561156 
L 91.659269 196.100448 
L 96.633935 179.242727 
L 103.275481 156.552775 
L 106.59208 146.197225 
L 108.253065 141.222388 
L 111.569337 131.914943 
L 114.89014 123.119327 
L 117.377597 116.996952 
L 118.20934 115.485919 
L 119.036326 116.305822 
L 120.694849 124.438018 
L 122.357831 134.418662 
L 128.16158 171.72994 
L 135.633317 218.100899 
L 148.07608 293.618339 
L 153.882984 328.748644 
L 154.715608 331.190421 
L 156.374812 331.001338 
L 157.202501 330.879087 
L 158.865236 330.170026 
L 159.692381 329.526166 
L 161.350359 327.84724 
L 163.009544 325.382641 
L 165.500818 319.49662 
L 166.33003 317.152644 
L 169.647084 303.445761 
L 174.62442 278.18526 
L 177.114983 266.59578 
L 180.430435 252.135826 
L 184.579202 234.847778 
L 187.898798 221.882558 
L 190.417222 212.803317 
L 191.218157 209.866011 
L 192.161493 206.865135 
L 193.706514 201.153526 
L 206.982791 156.052357 
L 210.298381 145.939681 
L 213.617057 136.316012 
L 215.276232 131.72423 
L 216.109192 131.978514 
L 217.767081 136.928901 
L 218.596223 140.969734 
L 219.425811 143.902149 
L 220.253657 147.338242 
L 223.575548 164.148693 
L 234.359551 225.664216 
L 237.678336 240.872352 
L 238.511544 243.672735 
L 239.338391 247.309322 
L 240.172162 249.641888 
L 240.998437 252.937799 
L 241.826066 254.727567 
L 242.657859 257.702363 
L 243.484647 259.307938 
L 244.316935 261.896418 
L 246.80543 266.938086 
L 249.293025 269.293472 
L 250.124749 269.759659 
L 250.956581 269.577097 
L 251.78428 269.749879 
L 252.612255 269.573837 
L 253.443247 269.515156 
L 254.273062 269.071789 
L 255.104637 269.262502 
L 255.930892 269.034298 
L 256.76125 268.49313 
L 257.590136 268.680583 
L 258.421583 268.675693 
L 259.250755 268.224176 
L 260.908377 266.659351 
L 263.401154 261.329169 
L 264.227567 259.793685 
L 268.376424 246.319896 
L 274.184673 224.304775 
L 279.162326 205.166649 
L 281.653284 196.24552 
L 283.311094 190.827316 
L 284.137823 188.127994 
L 284.969844 186.202935 
L 285.797928 184.002401 
L 286.626289 182.333255 
L 287.460535 180.171841 
L 288.289351 179.082984 
L 289.11787 177.232906 
L 289.947566 176.016907 
L 290.776906 174.373841 
L 293.265303 170.479711 
L 294.922549 168.264507 
L 295.75628 167.289752 
L 299.90399 163.465712 
L 300.735477 162.860973 
L 303.218947 160.533297 
L 304.881752 159.384129 
L 305.711557 159.248837 
L 306.542984 159.343378 
L 307.368299 159.610703 
L 308.202218 160.11764 
L 309.030322 161.134776 
L 310.688577 163.677616 
L 312.348771 167.027318 
L 314.008875 170.859507 
L 316.496569 177.891436 
L 318.157 183.98447 
L 319.812981 190.185086 
L 322.303958 201.142116 
L 323.962975 208.738034 
L 327.283372 224.576989 
L 329.770483 235.656271 
L 330.603967 239.103774 
L 333.91932 250.258037 
L 337.241527 259.418779 
L 339.741732 264.908704 
L 341.388514 267.965002 
L 343.875308 272.423121 
L 345.53564 275.088212 
L 347.195626 277.911416 
L 349.681857 281.450201 
L 350.512829 282.08428 
L 352.170115 282.845502 
L 353.000246 283.019915 
L 353.832187 282.654789 
L 354.662437 282.094061 
L 355.459634 281.363809 
L 356.319456 280.250502 
L 357.980836 277.468049 
L 358.808367 275.58537 
L 361.296763 268.641462 
L 362.12731 265.487363 
L 369.592964 233.432917 
L 372.88369 220.09116 
L 378.722995 198.13961 
L 386.183773 171.136611 
L 388.676006 162.477917 
L 393.654085 146.407498 
L 401.122152 123.239949 
L 402.779645 118.343353 
L 403.609193 118.402034 
L 404.443993 119.686494 
L 406.102436 123.184528 
L 406.93142 125.797459 
L 409.418817 135.55479 
L 411.076934 144.120573 
L 412.735763 153.809443 
L 421.862688 210.764155 
L 435.139835 291.644379 
L 437.629676 306.798723 
L 438.455198 310.692854 
L 440.117894 314.155027 
L 440.946562 315.62042 
L 441.772183 316.750028 
L 443.431941 318.397983 
L 444.26324 319.010873 
L 445.092995 319.4738 
L 445.924897 319.736234 
L 446.754653 319.829145 
L 447.583103 319.754164 
L 448.408388 319.255376 
L 450.068463 317.833994 
L 450.897724 316.780998 
L 451.731396 315.348206 
L 453.390868 311.863212 
L 454.220445 309.651268 
L 455.87962 304.156452 
L 457.539715 297.442378 
L 462.518367 274.644845 
L 465.834837 260.655968 
L 476.622698 216.643656 
L 484.084663 187.995962 
L 492.384968 158.495765 
L 498.190735 139.884137 
L 502.340096 127.318272 
L 504.829758 119.997829 
L 505.62742 118.229251 
L 506.487202 119.41265 
L 508.146763 125.310081 
L 508.975816 128.47722 
L 510.637088 136.423593 
L 512.293513 145.475124 
L 516.442993 171.446316 
L 519.760809 192.113406 
L 519.760809 192.113406 
" style="fill:none;stroke:#f3d34a;stroke-linecap:square;"/>
   </g>
   <g id="line2d_3">
    <path clip-path="url(#p8d234f6020)" d="M 71.745333 266.266515 
L 75.065562 248.414479 
L 78.384584 229.903912 
L 103.275481 88.060744 
L 104.104435 87.514685 
L 105.762957 88.378599 
L 107.48635 89.891262 
L 108.253065 90.988269 
L 109.914722 93.824513 
L 111.569337 97.373078 
L 113.227691 101.598104 
L 114.89014 106.763654 
L 116.549018 112.740956 
L 118.20934 120.030429 
L 119.86715 128.566872 
L 124.014721 152.908039 
L 153.882984 329.868471 
L 154.715608 329.936932 
L 157.202501 329.211571 
L 159.692381 327.325632 
L 161.350359 325.29136 
L 163.009544 322.464896 
L 164.675207 318.230091 
L 166.33003 313.067801 
L 169.647084 298.249241 
L 177.940782 255.304595 
L 182.92165 227.538745 
L 203.66448 109.259222 
L 204.493188 108.898987 
L 205.323111 108.982118 
L 206.150651 109.585227 
L 207.810083 111.813472 
L 208.640146 113.61139 
L 209.471919 114.861619 
L 210.298381 117.186035 
L 211.130856 118.674248 
L 211.961136 121.750106 
L 212.788192 123.443702 
L 213.617057 126.671152 
L 214.448158 128.884726 
L 215.276232 132.723436 
L 216.109192 135.227155 
L 216.936989 138.289972 
L 217.767081 140.906163 
L 218.596223 145.028497 
L 220.253657 151.71323 
L 225.234228 177.386128 
L 232.701069 218.511665 
L 234.359551 227.030177 
L 237.678336 241.565113 
L 238.511544 244.195973 
L 239.338391 247.589686 
L 240.172162 249.834231 
L 240.998437 252.942689 
L 241.826066 254.758537 
L 242.657859 257.575221 
L 243.484647 259.184056 
L 244.316935 261.663324 
L 246.80543 266.522429 
L 248.46503 267.570536 
L 249.293025 268.48009 
L 250.124749 268.812615 
L 250.956581 268.563221 
L 251.78428 268.595821 
L 252.612255 268.317087 
L 253.443247 268.163865 
L 254.273062 267.684637 
L 255.104637 267.797109 
L 255.930892 267.489034 
L 256.76125 266.877775 
L 257.590136 266.982096 
L 258.421583 266.910375 
L 259.250755 266.398547 
L 260.908377 264.62508 
L 263.401154 259.175905 
L 264.227567 257.580111 
L 267.547252 246.976796 
L 269.207703 241.182057 
L 272.526339 228.873736 
L 277.502677 209.675298 
L 279.162326 203.771347 
L 281.653284 195.56906 
L 282.48033 192.871368 
L 284.137823 188.204606 
L 288.289351 179.940378 
L 291.605999 174.442302 
L 293.265303 172.054315 
L 295.75628 169.09582 
L 297.415366 167.601086 
L 301.56267 164.119352 
L 302.391852 163.31249 
L 304.051977 162.171472 
L 304.881752 161.641714 
L 305.711557 161.662904 
L 306.542984 161.913928 
L 308.202218 163.098957 
L 309.030322 164.164993 
L 310.688577 166.841495 
L 312.348771 170.210757 
L 314.008875 173.842453 
L 316.496569 180.75539 
L 318.157 186.54524 
L 319.812981 192.546993 
L 322.303958 202.936774 
L 324.793848 213.898694 
L 327.283372 224.891584 
L 329.770483 235.167263 
L 331.430953 240.929403 
L 332.260145 243.809657 
L 337.241527 257.175864 
L 339.741732 262.442476 
L 342.215609 266.843544 
L 348.021841 276.126538 
L 349.681857 278.387383 
L 350.512829 278.970932 
L 352.170115 279.561001 
L 353.000246 279.627832 
L 353.832187 279.166535 
L 354.662437 278.547126 
L 355.459634 277.735373 
L 356.319456 276.568275 
L 357.980836 273.702691 
L 358.808367 271.870542 
L 361.296763 264.972275 
L 362.12731 261.832847 
L 364.62077 250.764975 
L 367.105596 237.667722 
L 369.592964 223.866298 
L 382.867985 147.898971 
L 383.700915 144.285205 
L 386.183773 136.091068 
L 387.850088 131.72097 
L 389.508324 127.779569 
L 391.165619 124.323916 
L 391.994959 122.763982 
L 394.483158 119.129025 
L 396.143698 117.772844 
L 396.976143 117.230046 
L 397.804336 116.951312 
L 399.432367 117.099644 
L 400.293514 117.46803 
L 401.952966 119.073604 
L 402.779645 120.142901 
L 404.443993 123.370351 
L 406.102436 127.067248 
L 406.93142 129.830141 
L 409.418817 140.260673 
L 411.076934 148.813415 
L 413.567704 163.201648 
L 437.629676 306.479238 
L 438.455198 309.066089 
L 440.117894 312.334289 
L 440.946562 313.69699 
L 441.772183 314.777697 
L 443.431941 316.349041 
L 444.26324 316.92118 
L 445.092995 317.353137 
L 445.924897 317.643281 
L 446.754653 317.726413 
L 447.583103 317.493319 
L 448.408388 316.90162 
L 450.068463 315.307455 
L 450.897724 314.133837 
L 451.731396 312.593463 
L 453.390868 308.788984 
L 455.046254 303.706566 
L 456.709188 297.305456 
L 458.369391 289.544906 
L 460.856076 277.137154 
L 465.006466 255.485528 
L 469.982072 227.801179 
L 492.384968 99.867017 
L 493.213477 99.45788 
L 494.875995 99.184036 
L 495.703743 99.270428 
L 496.532223 99.677934 
L 498.190735 101.39598 
L 499.022874 102.567969 
L 499.849494 103.979571 
L 501.512141 107.356983 
L 502.340096 109.355394 
L 504.000606 114.29763 
L 504.829758 116.974132 
L 508.146763 129.618238 
L 508.975816 133.072261 
L 510.637088 141.245208 
L 512.293513 150.350529 
L 519.760809 194.605715 
L 519.760809 194.605715 
" style="fill:none;stroke:#a11692;stroke-linecap:square;"/>
   </g>
   <g id="line2d_4">
    <path clip-path="url(#p8d234f6020)" d="M 71.745333 157.910586 
L 79.215744 201.39151 
L 89.168954 258.321772 
L 101.612745 329.731549 
L 102.444608 332.292318 
L 103.275481 332.243418 
L 104.104435 332.069005 
L 104.933202 331.780491 
L 105.762957 331.320823 
L 106.59208 330.693264 
L 107.48635 329.847281 
L 109.098872 327.376162 
L 110.742124 324.373656 
L 112.403158 320.419215 
L 113.227691 318.375163 
L 114.89014 313.325345 
L 116.549018 307.380642 
L 118.20934 300.290033 
L 119.86715 291.887252 
L 122.357831 277.637572 
L 132.312623 220.022699 
L 138.119389 187.510215 
L 143.097349 161.630304 
L 150.584534 123.882179 
L 156.374812 95.910945 
L 157.202501 92.168407 
L 158.031505 90.743765 
L 158.865236 91.240923 
L 160.521167 92.94593 
L 161.350359 93.977736 
L 163.009544 96.784639 
L 164.675207 101.009664 
L 166.33003 106.098603 
L 168.817012 116.83884 
L 170.476909 126.115314 
L 173.795417 145.693547 
L 181.260299 189.493956 
L 191.218157 246.673612 
L 192.161493 251.531087 
L 193.706514 260.915142 
L 202.006245 308.712373 
L 202.830334 311.305743 
L 203.66448 311.08243 
L 204.493188 310.608092 
L 205.323111 310.619503 
L 206.150651 310.141905 
L 207.810083 307.996792 
L 208.640146 306.265705 
L 209.471919 304.999176 
L 210.298381 302.69432 
L 211.130856 301.201217 
L 211.961136 298.19708 
L 212.788192 296.529564 
L 213.617057 293.289074 
L 214.448158 291.1081 
L 215.276232 287.288951 
L 216.109192 284.812943 
L 217.767081 279.086664 
L 218.596223 275.019751 
L 220.253657 268.266556 
L 224.402119 247.053408 
L 226.892028 233.279694 
L 231.872599 205.592085 
L 234.359551 192.719776 
L 236.850658 181.704065 
L 237.678336 178.18158 
L 238.511544 175.421948 
L 239.338391 172.003785 
L 240.172162 169.74457 
L 240.998437 166.51223 
L 241.826066 164.834934 
L 242.657859 161.794936 
L 243.484647 160.406155 
L 244.316935 157.762254 
L 245.146255 156.063768 
L 245.977989 154.772788 
L 246.80543 152.826537 
L 248.46503 151.651289 
L 249.293025 150.741735 
L 250.124749 150.309778 
L 250.956581 150.505381 
L 251.78428 150.40758 
L 252.612255 150.686314 
L 253.443247 150.802046 
L 254.273062 151.216072 
L 255.104637 151.134571 
L 255.930892 151.343214 
L 256.76125 151.845262 
L 258.421583 151.866453 
L 259.250755 152.202238 
L 260.079145 152.96672 
L 260.908377 153.980595 
L 264.227567 161.147816 
L 265.888206 166.236755 
L 267.547252 171.822852 
L 269.207703 177.718653 
L 275.011393 199.849506 
L 278.332343 212.850588 
L 281.653284 224.050491 
L 282.48033 226.784044 
L 284.137823 231.525787 
L 287.460535 238.665298 
L 288.289351 239.843806 
L 289.11787 241.37766 
L 289.947566 242.657229 
L 291.605999 245.545634 
L 293.265303 247.87983 
L 295.75628 250.867667 
L 298.245597 253.051901 
L 299.90399 254.432532 
L 300.735477 254.999781 
L 302.391852 256.631436 
L 304.051977 257.790384 
L 304.881752 258.325032 
L 305.711557 258.305472 
L 306.542984 258.065858 
L 308.202218 256.88409 
L 309.030322 255.757742 
L 310.688577 253.02256 
L 311.517492 251.443066 
L 314.008875 245.91728 
L 316.496569 238.888611 
L 318.157 232.98955 
L 319.812981 226.912816 
L 322.303958 216.327431 
L 325.623792 201.549622 
L 328.943061 187.130419 
L 330.603967 180.784731 
L 333.088051 172.838358 
L 333.91932 170.333009 
L 338.069611 159.928558 
L 339.741732 156.446824 
L 341.388514 153.478548 
L 343.875308 149.198101 
L 345.53564 146.56887 
L 347.195626 143.828798 
L 349.681857 140.386185 
L 350.512829 139.796116 
L 352.170115 139.139215 
L 353.000246 139.056084 
L 353.832187 139.496191 
L 354.662437 140.09604 
L 355.459634 140.898013 
L 356.319456 142.066741 
L 357.980836 145.002416 
L 358.808367 146.881835 
L 361.296763 153.926804 
L 362.12731 157.064603 
L 365.447529 172.603634 
L 382.037349 268.53388 
L 383.700915 275.384877 
L 386.183773 283.570863 
L 387.850088 288.048543 
L 389.508324 291.934523 
L 391.165619 295.393437 
L 392.82336 298.228051 
L 393.654085 299.530441 
L 394.483158 300.591587 
L 396.143698 301.960808 
L 396.976143 302.515017 
L 397.804336 302.814942 
L 399.432367 302.70247 
L 400.293514 302.303114 
L 401.952966 300.76111 
L 402.779645 299.678773 
L 404.443993 296.496964 
L 405.271315 294.809888 
L 406.102436 292.780506 
L 406.93142 290.033914 
L 409.418817 279.676733 
L 411.076934 271.181041 
L 414.394423 252.130936 
L 423.520488 199.562622 
L 426.842171 181.640494 
L 432.64956 151.73116 
L 440.117894 114.613855 
L 441.772183 106.837005 
L 442.601919 103.603035 
L 444.26324 102.326725 
L 445.092995 101.837717 
L 445.924897 101.562243 
L 446.754653 101.514972 
L 447.583103 101.596474 
L 448.408388 102.072441 
L 449.243662 102.797802 
L 450.068463 103.664976 
L 450.897724 104.779913 
L 451.731396 106.346367 
L 453.390868 110.152476 
L 454.220445 112.480152 
L 455.87962 118.190131 
L 457.539715 125.404623 
L 459.199058 134.136668 
L 462.518367 153.679041 
L 480.768865 259.661653 
L 490.728186 317.217845 
L 491.555153 319.027173 
L 492.384968 319.618872 
L 493.213477 320.010078 
L 494.044697 320.272512 
L 495.703743 320.336083 
L 496.532223 319.990518 
L 498.190735 318.303442 
L 499.022874 317.105373 
L 500.679082 314.097977 
L 502.340096 310.41738 
L 504.000606 305.493073 
L 505.62742 299.867856 
L 508.975816 286.894485 
L 510.637088 278.736209 
L 512.293513 269.714019 
L 518.1038 236.138758 
L 519.760809 226.497159 
L 519.760809 226.497159 
" style="fill:none;stroke:#f75c03;stroke-linecap:square;"/>
   </g>
   <g id="line2d_5">
    <path clip-path="url(#p8d234f6020)" d="M 71.745333 256.942771 
L 77.554314 223.388701 
L 84.19047 187.798729 
L 93.319462 139.714614 
L 97.468567 118.928532 
L 100.784454 103.215089 
L 104.104435 88.978448 
L 104.933202 89.09907 
L 105.762957 89.627198 
L 107.48635 91.273524 
L 109.098872 93.940245 
L 110.742124 97.374708 
L 112.403158 101.684495 
L 114.058584 106.657702 
L 115.71945 112.713246 
L 117.377597 119.772885 
L 119.036326 128.118615 
L 120.694849 137.724353 
L 137.291918 239.045094 
L 148.07608 303.572903 
L 152.225481 328.059143 
L 153.055315 328.272676 
L 154.715608 328.220515 
L 155.544701 327.917331 
L 156.374812 327.338672 
L 157.202501 326.958876 
L 158.031505 326.062362 
L 158.865236 325.441322 
L 159.692381 324.373656 
L 161.350359 321.656404 
L 163.009544 318.239871 
L 163.837212 315.371026 
L 164.675207 313.04824 
L 166.33003 307.310551 
L 167.989076 299.50599 
L 168.817012 295.696621 
L 171.308504 281.130716 
L 182.090223 218.109049 
L 187.898798 186.675642 
L 198.684849 130.211567 
L 201.174828 117.930957 
L 202.006245 116.969242 
L 202.830334 116.597596 
L 203.66448 116.86003 
L 204.493188 117.885316 
L 205.323111 118.089069 
L 206.150651 119.085015 
L 206.982791 120.980734 
L 207.810083 122.203253 
L 208.640146 124.749352 
L 209.471919 126.172364 
L 210.298381 129.365584 
L 211.130856 130.963009 
L 211.961136 135.016881 
L 212.788192 136.85555 
L 213.617057 141.114806 
L 214.448158 143.551694 
L 215.276232 148.242906 
L 217.767081 158.17791 
L 218.596223 162.846303 
L 221.914741 178.369033 
L 222.744932 182.770101 
L 223.575548 186.286066 
L 224.402119 190.648014 
L 225.234228 194.137898 
L 226.066832 198.248821 
L 226.892028 201.445301 
L 227.725038 205.27912 
L 232.701069 223.378921 
L 234.359551 228.547731 
L 235.191018 230.529842 
L 236.019557 233.162332 
L 236.850658 235.064572 
L 237.678336 237.388988 
L 238.511544 238.926102 
L 239.338391 241.149456 
L 240.172162 242.463256 
L 240.998437 244.435587 
L 241.826066 245.552154 
L 242.657859 247.302801 
L 243.484647 248.137374 
L 244.316935 249.984193 
L 245.146255 250.41289 
L 245.977989 249.617437 
L 246.80543 249.009438 
L 248.46503 245.177249 
L 249.293025 244.446997 
L 250.124749 243.558633 
L 250.956581 240.464846 
L 251.78428 239.019013 
L 252.612255 236.26753 
L 253.443247 234.795618 
L 254.273062 231.550237 
L 255.930892 228.366798 
L 256.76125 224.466148 
L 257.590136 222.785592 
L 258.421583 220.402495 
L 259.250755 218.849081 
L 260.079145 214.803358 
L 260.908377 213.241794 
L 261.740921 210.43489 
L 262.568926 208.302817 
L 263.401154 207.011837 
L 264.227567 205.945801 
L 265.056324 204.276655 
L 265.888206 203.411111 
L 266.719217 202.382565 
L 267.547252 202.226083 
L 268.376424 201.709365 
L 269.207703 200.953033 
L 271.693597 201.296969 
L 272.526339 201.316529 
L 274.184673 201.878888 
L 275.011393 202.328775 
L 278.332343 205.407892 
L 284.137823 212.413741 
L 284.969844 213.828603 
L 285.797928 214.974511 
L 286.626289 215.686832 
L 289.11787 218.855601 
L 290.776906 221.851587 
L 291.605999 223.768497 
L 292.435122 225.145868 
L 294.092833 228.391248 
L 295.75628 231.04493 
L 296.586372 232.39622 
L 297.415366 234.182728 
L 298.245597 235.340046 
L 299.073572 237.167304 
L 299.90399 238.278982 
L 302.391852 242.816972 
L 304.051977 244.831683 
L 304.881752 246.469859 
L 308.202218 247.454394 
L 310.688577 245.609205 
L 313.178151 241.966099 
L 314.008875 240.409425 
L 316.496569 234.886899 
L 317.327561 232.674955 
L 318.157 230.094625 
L 318.984264 227.952772 
L 320.644695 222.572058 
L 326.452647 200.299393 
L 329.770483 187.480874 
L 331.430953 181.969759 
L 332.260145 179.285107 
L 333.088051 177.144884 
L 333.91932 174.610195 
L 335.579197 170.228687 
L 336.407993 167.923831 
L 338.896201 162.132352 
L 343.875308 152.937379 
L 344.70811 151.7116 
L 346.363458 148.803635 
L 347.195626 147.321942 
L 349.681857 143.797828 
L 350.512829 143.144187 
L 353.000246 142.255824 
L 353.832187 142.65681 
L 354.662437 143.220799 
L 355.459634 144.045591 
L 356.319456 145.160529 
L 357.980836 147.947872 
L 358.808367 149.869672 
L 361.296763 156.645687 
L 362.12731 159.754145 
L 365.447529 174.836769 
L 369.592964 199.158375 
L 378.722995 253.729991 
L 380.380073 261.363399 
L 382.037349 268.031833 
L 385.358606 279.650653 
L 387.018483 284.356536 
L 389.508324 290.278417 
L 391.165619 293.742221 
L 392.82336 296.586615 
L 394.483158 298.912661 
L 396.143698 300.294923 
L 396.976143 300.810011 
L 397.804336 301.155576 
L 398.630195 301.173506 
L 399.432367 301.000724 
L 400.293514 300.448145 
L 401.122152 299.761904 
L 402.779645 297.765123 
L 404.443993 294.418682 
L 406.102436 290.557152 
L 406.93142 287.755138 
L 409.418817 277.225175 
L 411.076934 268.670803 
L 422.69544 204.377716 
L 431.818796 156.314792 
L 435.965328 135.626511 
L 439.287318 120.154311 
L 442.601919 105.502014 
L 443.431941 104.129533 
L 445.092995 103.162928 
L 445.924897 102.910274 
L 446.754653 102.897234 
L 447.583103 103.014596 
L 448.408388 103.418842 
L 450.068463 105.078208 
L 450.897724 106.274646 
L 451.731396 107.883481 
L 453.390868 111.833032 
L 455.046254 117.104534 
L 456.709188 123.683316 
L 458.369391 131.893753 
L 460.856076 146.299916 
L 466.666254 181.563883 
L 484.917603 291.015189 
L 489.067568 315.428077 
L 489.892546 316.520194 
L 491.555153 318.248021 
L 492.384968 318.86743 
L 494.044697 319.406969 
L 495.703743 319.375998 
L 496.532223 318.952192 
L 498.190735 317.159164 
L 499.022874 315.926865 
L 499.849494 314.471252 
L 501.512141 311.005819 
L 503.170564 306.445008 
L 504.829758 301.039844 
L 508.975816 284.65646 
L 511.466438 271.973234 
L 519.760809 225.225739 
L 519.760809 225.225739 
" style="fill:none;stroke:#2274a5;stroke-linecap:square;"/>
   </g>
   <g id="line2d_6">
    <path clip-path="url(#p8d234f6020)" d="M 71.745333 250.266187 
L 77.554314 215.223904 
L 83.362692 181.632344 
L 93.319462 125.165009 
L 99.125061 93.151313 
L 99.956211 89.687509 
L 103.275481 89.76575 
L 104.933202 90.678564 
L 105.762957 91.376215 
L 107.48635 93.333876 
L 109.098872 96.468414 
L 110.742124 100.181612 
L 112.403158 105.024417 
L 114.058584 110.564873 
L 115.71945 117.233306 
L 117.377597 124.866714 
L 119.036326 133.921504 
L 121.526038 149.317093 
L 148.903818 324.735521 
L 149.736264 326.953986 
L 150.584534 327.056677 
L 152.225481 327.628816 
L 154.715608 327.426693 
L 157.202501 325.95315 
L 158.031505 325.014256 
L 158.865236 324.345945 
L 159.692381 323.217968 
L 161.350359 320.497456 
L 163.009544 317.004312 
L 165.500818 308.728673 
L 166.33003 305.594135 
L 169.647084 288.643502 
L 180.430435 222.505227 
L 186.239703 188.341528 
L 191.218157 159.609073 
L 192.161493 154.761377 
L 193.706514 145.457193 
L 198.684849 117.596802 
L 199.516286 115.507109 
L 200.345874 115.075152 
L 201.174828 115.008321 
L 202.006245 114.25525 
L 202.830334 113.976515 
L 203.66448 114.310671 
L 204.493188 115.199034 
L 205.323111 115.335956 
L 206.150651 116.250401 
L 206.982791 117.823375 
L 207.810083 119.019814 
L 208.640146 121.329559 
L 209.471919 122.749311 
L 210.298381 125.570885 
L 211.130856 127.20417 
L 211.961136 130.884767 
L 212.788192 132.710396 
L 213.617057 136.531175 
L 214.448158 138.961543 
L 215.276232 143.414772 
L 216.109192 146.262426 
L 217.767081 152.705916 
L 218.596223 157.291177 
L 220.253657 164.107942 
L 221.085698 168.567691 
L 221.914741 172.36239 
L 222.744932 176.735748 
L 223.575548 180.334844 
L 224.402119 184.742432 
L 226.892028 196.547075 
L 228.554279 204.387496 
L 231.040796 215.334746 
L 234.359551 228.772674 
L 235.191018 231.348114 
L 236.019557 234.601645 
L 236.850658 236.947251 
L 237.678336 239.920417 
L 238.511544 241.824287 
L 239.338391 244.65238 
L 240.172162 246.332936 
L 240.998437 248.826875 
L 241.826066 250.349319 
L 242.657859 252.538443 
L 243.484647 253.837573 
L 244.316935 255.894665 
L 245.146255 256.937881 
L 246.80543 257.837655 
L 248.46503 256.426053 
L 249.293025 256.502664 
L 250.124749 255.925635 
L 250.956581 254.626505 
L 251.78428 253.764222 
L 252.612255 252.40152 
L 253.443247 251.413725 
L 254.273062 249.76903 
L 255.104637 249.059969 
L 255.930892 248.068913 
L 256.76125 245.94173 
L 257.590136 245.146278 
L 259.250755 242.940854 
L 260.079145 240.538197 
L 260.908377 239.325458 
L 261.740921 236.926061 
L 262.568926 234.92602 
L 264.227567 231.74421 
L 265.056324 229.509446 
L 265.888206 227.745758 
L 266.719217 225.618575 
L 268.376424 222.518267 
L 269.207703 220.552457 
L 275.011393 210.231137 
L 277.502677 206.713542 
L 279.162326 204.837383 
L 280.822955 203.062286 
L 281.653284 202.475477 
L 282.48033 201.627864 
L 284.137823 200.428165 
L 284.969844 200.291243 
L 286.626289 199.489271 
L 287.460535 199.117625 
L 288.289351 199.065464 
L 289.11787 198.80955 
L 292.435122 199.212166 
L 293.265303 199.360499 
L 294.092833 199.653903 
L 294.922549 199.764745 
L 296.586372 200.310803 
L 297.415366 200.783511 
L 298.245597 201.107886 
L 299.073572 201.583853 
L 299.90399 201.818577 
L 302.391852 203.001975 
L 303.218947 203.189428 
L 304.051977 203.530103 
L 304.881752 203.99303 
L 306.542984 204.62059 
L 308.202218 205.469833 
L 309.030322 205.761608 
L 310.688577 206.57499 
L 312.348771 207.143869 
L 314.008875 207.763279 
L 322.303958 210.188756 
L 326.452647 210.933678 
L 330.603967 211.290653 
L 339.741732 211.346074 
L 343.048747 211.240123 
L 344.70811 211.109721 
L 349.681857 210.920638 
L 351.341872 210.844027 
L 364.62077 210.087695 
L 367.933383 209.929582 
L 373.739793 209.75843 
L 387.850088 209.694859 
L 413.567704 209.80081 
L 430.160234 209.859491 
L 519.760809 209.866011 
L 519.760809 209.866011 
" style="fill:none;stroke:#4e937a;stroke-linecap:square;"/>
   </g>
   <g id="patch_3">
    <path d="M 72.1125 43.2 
L 519.21 43.2 
" style="fill:none;stroke:#000000;stroke-linecap:square;stroke-linejoin:miter;"/>
   </g>
   <g id="patch_4">
    <path d="M 519.21 388.8 
L 519.21 43.2 
" style="fill:none;stroke:#000000;stroke-linecap:square;stroke-linejoin:miter;"/>
   </g>
   <g id="patch_5">
    <path d="M 72.1125 388.8 
L 519.21 388.8 
" style="fill:none;stroke:#000000;stroke-linecap:square;stroke-linejoin:miter;"/>
   </g>
   <g id="patch_6">
    <path d="M 72.1125 388.8 
L 72.1125 43.2 
" style="fill:none;stroke:#000000;stroke-linecap:square;stroke-linejoin:miter;"/>
   </g>
   <g id="matplotlib.axis_1">
    <g id="xtick_1">
     <g id="line2d_7">
      <defs>
       <path d="M 0 0 
L 0 -4 
" id="meac857bf95" style="stroke:#000000;stroke-width:0.5;"/>
      </defs>
      <g>
       <use style="stroke:#000000;stroke-width:0.5;" x="99.1261293242" xlink:href="#meac857bf95" y="388.8"/>
      </g>
     </g>
     <g id="line2d_8">
      <defs>
       <path d="M 0 0 
L 0 4 
" id="ma7344fdce4" style="stroke:#000000;stroke-width:0.5;"/>
      </defs>
      <g>
       <use style="stroke:#000000;stroke-width:0.5;" x="99.1261293242" xlink:href="#ma7344fdce4" y="43.2"/>
      </g>
     </g>
     <g id="text_1">
      <!-- 322 -->
      <defs>
       <path d="M 19.1875 8.296875 
L 53.609375 8.296875 
L 53.609375 0 
L 7.328125 0 
L 7.328125 8.296875 
Q 12.9375 14.109375 22.625 23.890625 
Q 32.328125 33.6875 34.8125 36.53125 
Q 39.546875 41.84375 41.421875 45.53125 
Q 43.3125 49.21875 43.3125 52.78125 
Q 43.3125 58.59375 39.234375 62.25 
Q 35.15625 65.921875 28.609375 65.921875 
Q 23.96875 65.921875 18.8125 64.3125 
Q 13.671875 62.703125 7.8125 59.421875 
L 7.8125 69.390625 
Q 13.765625 71.78125 18.9375 73 
Q 24.125 74.21875 28.421875 74.21875 
Q 39.75 74.21875 46.484375 68.546875 
Q 53.21875 62.890625 53.21875 53.421875 
Q 53.21875 48.921875 51.53125 44.890625 
Q 49.859375 40.875 45.40625 35.40625 
Q 44.1875 33.984375 37.640625 27.21875 
Q 31.109375 20.453125 19.1875 8.296875 
" id="BitstreamVeraSans-Roman-32"/>
       <path d="M 40.578125 39.3125 
Q 47.65625 37.796875 51.625 33 
Q 55.609375 28.21875 55.609375 21.1875 
Q 55.609375 10.40625 48.1875 4.484375 
Q 40.765625 -1.421875 27.09375 -1.421875 
Q 22.515625 -1.421875 17.65625 -0.515625 
Q 12.796875 0.390625 7.625 2.203125 
L 7.625 11.71875 
Q 11.71875 9.328125 16.59375 8.109375 
Q 21.484375 6.890625 26.8125 6.890625 
Q 36.078125 6.890625 40.9375 10.546875 
Q 45.796875 14.203125 45.796875 21.1875 
Q 45.796875 27.640625 41.28125 31.265625 
Q 36.765625 34.90625 28.71875 34.90625 
L 20.21875 34.90625 
L 20.21875 43.015625 
L 29.109375 43.015625 
Q 36.375 43.015625 40.234375 45.921875 
Q 44.09375 48.828125 44.09375 54.296875 
Q 44.09375 59.90625 40.109375 62.90625 
Q 36.140625 65.921875 28.71875 65.921875 
Q 24.65625 65.921875 20.015625 65.03125 
Q 15.375 64.15625 9.8125 62.3125 
L 9.8125 71.09375 
Q 15.4375 72.65625 20.34375 73.4375 
Q 25.25 74.21875 29.59375 74.21875 
Q 40.828125 74.21875 47.359375 69.109375 
Q 53.90625 64.015625 53.90625 55.328125 
Q 53.90625 49.265625 50.4375 45.09375 
Q 46.96875 40.921875 40.578125 39.3125 
" id="BitstreamVeraSans-Roman-33"/>
      </defs>
      <g transform="translate(87.6736293242 401.918125)scale(0.12 -0.12)">
       <use xlink:href="#BitstreamVeraSans-Roman-33"/>
       <use x="63.623046875" xlink:href="#BitstreamVeraSans-Roman-32"/>
       <use x="127.24609375" xlink:href="#BitstreamVeraSans-Roman-32"/>
      </g>
     </g>
    </g>
    <g id="xtick_2">
     <g id="line2d_9">
      <g>
       <use style="stroke:#000000;stroke-width:0.5;" x="182.091874295" xlink:href="#meac857bf95" y="388.8"/>
      </g>
     </g>
     <g id="line2d_10">
      <g>
       <use style="stroke:#000000;stroke-width:0.5;" x="182.091874295" xlink:href="#ma7344fdce4" y="43.2"/>
      </g>
     </g>
     <g id="text_2">
      <!-- 324 -->
      <defs>
       <path d="M 37.796875 64.3125 
L 12.890625 25.390625 
L 37.796875 25.390625 
z
M 35.203125 72.90625 
L 47.609375 72.90625 
L 47.609375 25.390625 
L 58.015625 25.390625 
L 58.015625 17.1875 
L 47.609375 17.1875 
L 47.609375 0 
L 37.796875 0 
L 37.796875 17.1875 
L 4.890625 17.1875 
L 4.890625 26.703125 
z
" id="BitstreamVeraSans-Roman-34"/>
      </defs>
      <g transform="translate(170.639374295 401.918125)scale(0.12 -0.12)">
       <use xlink:href="#BitstreamVeraSans-Roman-33"/>
       <use x="63.623046875" xlink:href="#BitstreamVeraSans-Roman-32"/>
       <use x="127.24609375" xlink:href="#BitstreamVeraSans-Roman-34"/>
      </g>
     </g>
    </g>
    <g id="xtick_3">
     <g id="line2d_11">
      <g>
       <use style="stroke:#000000;stroke-width:0.5;" x="265.057619266" xlink:href="#meac857bf95" y="388.8"/>
      </g>
     </g>
     <g id="line2d_12">
      <g>
       <use style="stroke:#000000;stroke-width:0.5;" x="265.057619266" xlink:href="#ma7344fdce4" y="43.2"/>
      </g>
     </g>
     <g id="text_3">
      <!-- 326 -->
      <defs>
       <path d="M 33.015625 40.375 
Q 26.375 40.375 22.484375 35.828125 
Q 18.609375 31.296875 18.609375 23.390625 
Q 18.609375 15.53125 22.484375 10.953125 
Q 26.375 6.390625 33.015625 6.390625 
Q 39.65625 6.390625 43.53125 10.953125 
Q 47.40625 15.53125 47.40625 23.390625 
Q 47.40625 31.296875 43.53125 35.828125 
Q 39.65625 40.375 33.015625 40.375 
M 52.59375 71.296875 
L 52.59375 62.3125 
Q 48.875 64.0625 45.09375 64.984375 
Q 41.3125 65.921875 37.59375 65.921875 
Q 27.828125 65.921875 22.671875 59.328125 
Q 17.53125 52.734375 16.796875 39.40625 
Q 19.671875 43.65625 24.015625 45.921875 
Q 28.375 48.1875 33.59375 48.1875 
Q 44.578125 48.1875 50.953125 41.515625 
Q 57.328125 34.859375 57.328125 23.390625 
Q 57.328125 12.15625 50.6875 5.359375 
Q 44.046875 -1.421875 33.015625 -1.421875 
Q 20.359375 -1.421875 13.671875 8.265625 
Q 6.984375 17.96875 6.984375 36.375 
Q 6.984375 53.65625 15.1875 63.9375 
Q 23.390625 74.21875 37.203125 74.21875 
Q 40.921875 74.21875 44.703125 73.484375 
Q 48.484375 72.75 52.59375 71.296875 
" id="BitstreamVeraSans-Roman-36"/>
      </defs>
      <g transform="translate(253.605119266 401.918125)scale(0.12 -0.12)">
       <use xlink:href="#BitstreamVeraSans-Roman-33"/>
       <use x="63.623046875" xlink:href="#BitstreamVeraSans-Roman-32"/>
       <use x="127.24609375" xlink:href="#BitstreamVeraSans-Roman-36"/>
      </g>
     </g>
    </g>
    <g id="xtick_4">
     <g id="line2d_13">
      <g>
       <use style="stroke:#000000;stroke-width:0.5;" x="348.023364237" xlink:href="#meac857bf95" y="388.8"/>
      </g>
     </g>
     <g id="line2d_14">
      <g>
       <use style="stroke:#000000;stroke-width:0.5;" x="348.023364237" xlink:href="#ma7344fdce4" y="43.2"/>
      </g>
     </g>
     <g id="text_4">
      <!-- 328 -->
      <defs>
       <path d="M 31.78125 34.625 
Q 24.75 34.625 20.71875 30.859375 
Q 16.703125 27.09375 16.703125 20.515625 
Q 16.703125 13.921875 20.71875 10.15625 
Q 24.75 6.390625 31.78125 6.390625 
Q 38.8125 6.390625 42.859375 10.171875 
Q 46.921875 13.96875 46.921875 20.515625 
Q 46.921875 27.09375 42.890625 30.859375 
Q 38.875 34.625 31.78125 34.625 
M 21.921875 38.8125 
Q 15.578125 40.375 12.03125 44.71875 
Q 8.5 49.078125 8.5 55.328125 
Q 8.5 64.0625 14.71875 69.140625 
Q 20.953125 74.21875 31.78125 74.21875 
Q 42.671875 74.21875 48.875 69.140625 
Q 55.078125 64.0625 55.078125 55.328125 
Q 55.078125 49.078125 51.53125 44.71875 
Q 48 40.375 41.703125 38.8125 
Q 48.828125 37.15625 52.796875 32.3125 
Q 56.78125 27.484375 56.78125 20.515625 
Q 56.78125 9.90625 50.3125 4.234375 
Q 43.84375 -1.421875 31.78125 -1.421875 
Q 19.734375 -1.421875 13.25 4.234375 
Q 6.78125 9.90625 6.78125 20.515625 
Q 6.78125 27.484375 10.78125 32.3125 
Q 14.796875 37.15625 21.921875 38.8125 
M 18.3125 54.390625 
Q 18.3125 48.734375 21.84375 45.5625 
Q 25.390625 42.390625 31.78125 42.390625 
Q 38.140625 42.390625 41.71875 45.5625 
Q 45.3125 48.734375 45.3125 54.390625 
Q 45.3125 60.0625 41.71875 63.234375 
Q 38.140625 66.40625 31.78125 66.40625 
Q 25.390625 66.40625 21.84375 63.234375 
Q 18.3125 60.0625 18.3125 54.390625 
" id="BitstreamVeraSans-Roman-38"/>
      </defs>
      <g transform="translate(336.570864237 401.918125)scale(0.12 -0.12)">
       <use xlink:href="#BitstreamVeraSans-Roman-33"/>
       <use x="63.623046875" xlink:href="#BitstreamVeraSans-Roman-32"/>
       <use x="127.24609375" xlink:href="#BitstreamVeraSans-Roman-38"/>
      </g>
     </g>
    </g>
    <g id="xtick_5">
     <g id="line2d_15">
      <g>
       <use style="stroke:#000000;stroke-width:0.5;" x="430.989109208" xlink:href="#meac857bf95" y="388.8"/>
      </g>
     </g>
     <g id="line2d_16">
      <g>
       <use style="stroke:#000000;stroke-width:0.5;" x="430.989109208" xlink:href="#ma7344fdce4" y="43.2"/>
      </g>
     </g>
     <g id="text_5">
      <!-- 330 -->
      <defs>
       <path d="M 31.78125 66.40625 
Q 24.171875 66.40625 20.328125 58.90625 
Q 16.5 51.421875 16.5 36.375 
Q 16.5 21.390625 20.328125 13.890625 
Q 24.171875 6.390625 31.78125 6.390625 
Q 39.453125 6.390625 43.28125 13.890625 
Q 47.125 21.390625 47.125 36.375 
Q 47.125 51.421875 43.28125 58.90625 
Q 39.453125 66.40625 31.78125 66.40625 
M 31.78125 74.21875 
Q 44.046875 74.21875 50.515625 64.515625 
Q 56.984375 54.828125 56.984375 36.375 
Q 56.984375 17.96875 50.515625 8.265625 
Q 44.046875 -1.421875 31.78125 -1.421875 
Q 19.53125 -1.421875 13.0625 8.265625 
Q 6.59375 17.96875 6.59375 36.375 
Q 6.59375 54.828125 13.0625 64.515625 
Q 19.53125 74.21875 31.78125 74.21875 
" id="BitstreamVeraSans-Roman-30"/>
      </defs>
      <g transform="translate(419.536609208 401.918125)scale(0.12 -0.12)">
       <use xlink:href="#BitstreamVeraSans-Roman-33"/>
       <use x="63.623046875" xlink:href="#BitstreamVeraSans-Roman-33"/>
       <use x="127.24609375" xlink:href="#BitstreamVeraSans-Roman-30"/>
      </g>
     </g>
    </g>
    <g id="xtick_6">
     <g id="line2d_17">
      <g>
       <use style="stroke:#000000;stroke-width:0.5;" x="513.95485418" xlink:href="#meac857bf95" y="388.8"/>
      </g>
     </g>
     <g id="line2d_18">
      <g>
       <use style="stroke:#000000;stroke-width:0.5;" x="513.95485418" xlink:href="#ma7344fdce4" y="43.2"/>
      </g>
     </g>
     <g id="text_6">
      <!-- 332 -->
      <g transform="translate(502.50235418 401.918125)scale(0.12 -0.12)">
       <use xlink:href="#BitstreamVeraSans-Roman-33"/>
       <use x="63.623046875" xlink:href="#BitstreamVeraSans-Roman-33"/>
       <use x="127.24609375" xlink:href="#BitstreamVeraSans-Roman-32"/>
      </g>
     </g>
    </g>
    <g id="text_7">
     <!-- Time (s) -->
     <defs>
      <path id="BitstreamVeraSans-Roman-20"/>
      <path d="M 8.015625 75.875 
L 15.828125 75.875 
Q 23.140625 64.359375 26.78125 53.3125 
Q 30.421875 42.28125 30.421875 31.390625 
Q 30.421875 20.453125 26.78125 9.375 
Q 23.140625 -1.703125 15.828125 -13.1875 
L 8.015625 -13.1875 
Q 14.5 -2 17.703125 9.0625 
Q 20.90625 20.125 20.90625 31.390625 
Q 20.90625 42.671875 17.703125 53.65625 
Q 14.5 64.65625 8.015625 75.875 
" id="BitstreamVeraSans-Roman-29"/>
      <path d="M 31 75.875 
Q 24.46875 64.65625 21.28125 53.65625 
Q 18.109375 42.671875 18.109375 31.390625 
Q 18.109375 20.125 21.3125 9.0625 
Q 24.515625 -2 31 -13.1875 
L 23.1875 -13.1875 
Q 15.875 -1.703125 12.234375 9.375 
Q 8.59375 20.453125 8.59375 31.390625 
Q 8.59375 42.28125 12.203125 53.3125 
Q 15.828125 64.359375 23.1875 75.875 
z
" id="BitstreamVeraSans-Roman-28"/>
      <path d="M 9.421875 54.6875 
L 18.40625 54.6875 
L 18.40625 0 
L 9.421875 0 
z
M 9.421875 75.984375 
L 18.40625 75.984375 
L 18.40625 64.59375 
L 9.421875 64.59375 
z
" id="BitstreamVeraSans-Roman-69"/>
      <path d="M 52 44.1875 
Q 55.375 50.25 60.0625 53.125 
Q 64.75 56 71.09375 56 
Q 79.640625 56 84.28125 50.015625 
Q 88.921875 44.046875 88.921875 33.015625 
L 88.921875 0 
L 79.890625 0 
L 79.890625 32.71875 
Q 79.890625 40.578125 77.09375 44.375 
Q 74.3125 48.1875 68.609375 48.1875 
Q 61.625 48.1875 57.5625 43.546875 
Q 53.515625 38.921875 53.515625 30.90625 
L 53.515625 0 
L 44.484375 0 
L 44.484375 32.71875 
Q 44.484375 40.625 41.703125 44.40625 
Q 38.921875 48.1875 33.109375 48.1875 
Q 26.21875 48.1875 22.15625 43.53125 
Q 18.109375 38.875 18.109375 30.90625 
L 18.109375 0 
L 9.078125 0 
L 9.078125 54.6875 
L 18.109375 54.6875 
L 18.109375 46.1875 
Q 21.1875 51.21875 25.484375 53.609375 
Q 29.78125 56 35.6875 56 
Q 41.65625 56 45.828125 52.96875 
Q 50 49.953125 52 44.1875 
" id="BitstreamVeraSans-Roman-6d"/>
      <path d="M 56.203125 29.59375 
L 56.203125 25.203125 
L 14.890625 25.203125 
Q 15.484375 15.921875 20.484375 11.0625 
Q 25.484375 6.203125 34.421875 6.203125 
Q 39.59375 6.203125 44.453125 7.46875 
Q 49.3125 8.734375 54.109375 11.28125 
L 54.109375 2.78125 
Q 49.265625 0.734375 44.1875 -0.34375 
Q 39.109375 -1.421875 33.890625 -1.421875 
Q 20.796875 -1.421875 13.15625 6.1875 
Q 5.515625 13.8125 5.515625 26.8125 
Q 5.515625 40.234375 12.765625 48.109375 
Q 20.015625 56 32.328125 56 
Q 43.359375 56 49.78125 48.890625 
Q 56.203125 41.796875 56.203125 29.59375 
M 47.21875 32.234375 
Q 47.125 39.59375 43.09375 43.984375 
Q 39.0625 48.390625 32.421875 48.390625 
Q 24.90625 48.390625 20.390625 44.140625 
Q 15.875 39.890625 15.1875 32.171875 
z
" id="BitstreamVeraSans-Roman-65"/>
      <path d="M -0.296875 72.90625 
L 61.375 72.90625 
L 61.375 64.59375 
L 35.5 64.59375 
L 35.5 0 
L 25.59375 0 
L 25.59375 64.59375 
L -0.296875 64.59375 
z
" id="BitstreamVeraSans-Roman-54"/>
      <path d="M 44.28125 53.078125 
L 44.28125 44.578125 
Q 40.484375 46.53125 36.375 47.5 
Q 32.28125 48.484375 27.875 48.484375 
Q 21.1875 48.484375 17.84375 46.4375 
Q 14.5 44.390625 14.5 40.28125 
Q 14.5 37.15625 16.890625 35.375 
Q 19.28125 33.59375 26.515625 31.984375 
L 29.59375 31.296875 
Q 39.15625 29.25 43.1875 25.515625 
Q 47.21875 21.78125 47.21875 15.09375 
Q 47.21875 7.46875 41.1875 3.015625 
Q 35.15625 -1.421875 24.609375 -1.421875 
Q 20.21875 -1.421875 15.453125 -0.5625 
Q 10.6875 0.296875 5.421875 2 
L 5.421875 11.28125 
Q 10.40625 8.6875 15.234375 7.390625 
Q 20.0625 6.109375 24.8125 6.109375 
Q 31.15625 6.109375 34.5625 8.28125 
Q 37.984375 10.453125 37.984375 14.40625 
Q 37.984375 18.0625 35.515625 20.015625 
Q 33.0625 21.96875 24.703125 23.78125 
L 21.578125 24.515625 
Q 13.234375 26.265625 9.515625 29.90625 
Q 5.8125 33.546875 5.8125 39.890625 
Q 5.8125 47.609375 11.28125 51.796875 
Q 16.75 56 26.8125 56 
Q 31.78125 56 36.171875 55.265625 
Q 40.578125 54.546875 44.28125 53.078125 
" id="BitstreamVeraSans-Roman-73"/>
     </defs>
     <g transform="translate(271.081875 418.531875)scale(0.12 -0.12)">
      <use xlink:href="#BitstreamVeraSans-Roman-54"/>
      <use x="61.037109375" xlink:href="#BitstreamVeraSans-Roman-69"/>
      <use x="88.8203125" xlink:href="#BitstreamVeraSans-Roman-6d"/>
      <use x="186.232421875" xlink:href="#BitstreamVeraSans-Roman-65"/>
      <use x="247.755859375" xlink:href="#BitstreamVeraSans-Roman-20"/>
      <use x="279.54296875" xlink:href="#BitstreamVeraSans-Roman-28"/>
      <use x="318.556640625" xlink:href="#BitstreamVeraSans-Roman-73"/>
      <use x="370.65625" xlink:href="#BitstreamVeraSans-Roman-29"/>
     </g>
    </g>
   </g>
   <g id="matplotlib.axis_2">
    <g id="ytick_1">
     <g id="line2d_19">
      <defs>
       <path d="M 0 0 
L 4 0 
" id="md1785b0583" style="stroke:#000000;stroke-width:0.5;"/>
      </defs>
      <g>
       <use style="stroke:#000000;stroke-width:0.5;" x="72.1125" xlink:href="#md1785b0583" y="374.67400102"/>
      </g>
     </g>
     <g id="line2d_20">
      <defs>
       <path d="M 0 0 
L -4 0 
" id="m36a8e746b0" style="stroke:#000000;stroke-width:0.5;"/>
      </defs>
      <g>
       <use style="stroke:#000000;stroke-width:0.5;" x="519.21" xlink:href="#m36a8e746b0" y="374.67400102"/>
      </g>
     </g>
     <g id="text_8">
      <!-- −6 -->
      <defs>
       <path d="M 10.59375 35.5 
L 73.1875 35.5 
L 73.1875 27.203125 
L 10.59375 27.203125 
z
" id="BitstreamVeraSans-Roman-2212"/>
      </defs>
      <g transform="translate(50.421875 377.98525102)scale(0.12 -0.12)">
       <use xlink:href="#BitstreamVeraSans-Roman-2212"/>
       <use x="83.7890625" xlink:href="#BitstreamVeraSans-Roman-36"/>
      </g>
     </g>
    </g>
    <g id="ytick_2">
     <g id="line2d_21">
      <g>
       <use style="stroke:#000000;stroke-width:0.5;" x="72.1125" xlink:href="#md1785b0583" y="319.67552016"/>
      </g>
     </g>
     <g id="line2d_22">
      <g>
       <use style="stroke:#000000;stroke-width:0.5;" x="519.21" xlink:href="#m36a8e746b0" y="319.67552016"/>
      </g>
     </g>
     <g id="text_9">
      <!-- −4 -->
      <g transform="translate(50.421875 322.98677016)scale(0.12 -0.12)">
       <use xlink:href="#BitstreamVeraSans-Roman-2212"/>
       <use x="83.7890625" xlink:href="#BitstreamVeraSans-Roman-34"/>
      </g>
     </g>
    </g>
    <g id="ytick_3">
     <g id="line2d_23">
      <g>
       <use style="stroke:#000000;stroke-width:0.5;" x="72.1125" xlink:href="#md1785b0583" y="264.677039301"/>
      </g>
     </g>
     <g id="line2d_24">
      <g>
       <use style="stroke:#000000;stroke-width:0.5;" x="519.21" xlink:href="#m36a8e746b0" y="264.677039301"/>
      </g>
     </g>
     <g id="text_10">
      <!-- −2 -->
      <g transform="translate(50.421875 267.988289301)scale(0.12 -0.12)">
       <use xlink:href="#BitstreamVeraSans-Roman-2212"/>
       <use x="83.7890625" xlink:href="#BitstreamVeraSans-Roman-32"/>
      </g>
     </g>
    </g>
    <g id="ytick_4">
     <g id="line2d_25">
      <g>
       <use style="stroke:#000000;stroke-width:0.5;" x="72.1125" xlink:href="#md1785b0583" y="209.678558442"/>
      </g>
     </g>
     <g id="line2d_26">
      <g>
       <use style="stroke:#000000;stroke-width:0.5;" x="519.21" xlink:href="#m36a8e746b0" y="209.678558442"/>
      </g>
     </g>
     <g id="text_11">
      <!-- 0 -->
      <g transform="translate(60.4775 212.989808442)scale(0.12 -0.12)">
       <use xlink:href="#BitstreamVeraSans-Roman-30"/>
      </g>
     </g>
    </g>
    <g id="ytick_5">
     <g id="line2d_27">
      <g>
       <use style="stroke:#000000;stroke-width:0.5;" x="72.1125" xlink:href="#md1785b0583" y="154.680077583"/>
      </g>
     </g>
     <g id="line2d_28">
      <g>
       <use style="stroke:#000000;stroke-width:0.5;" x="519.21" xlink:href="#m36a8e746b0" y="154.680077583"/>
      </g>
     </g>
     <g id="text_12">
      <!-- 2 -->
      <g transform="translate(60.4775 157.991327583)scale(0.12 -0.12)">
       <use xlink:href="#BitstreamVeraSans-Roman-32"/>
      </g>
     </g>
    </g>
    <g id="ytick_6">
     <g id="line2d_29">
      <g>
       <use style="stroke:#000000;stroke-width:0.5;" x="72.1125" xlink:href="#md1785b0583" y="99.6815967238"/>
      </g>
     </g>
     <g id="line2d_30">
      <g>
       <use style="stroke:#000000;stroke-width:0.5;" x="519.21" xlink:href="#m36a8e746b0" y="99.6815967238"/>
      </g>
     </g>
     <g id="text_13">
      <!-- 4 -->
      <g transform="translate(60.4775 102.992846724)scale(0.12 -0.12)">
       <use xlink:href="#BitstreamVeraSans-Roman-34"/>
      </g>
     </g>
    </g>
    <g id="ytick_7">
     <g id="line2d_31">
      <g>
       <use style="stroke:#000000;stroke-width:0.5;" x="72.1125" xlink:href="#md1785b0583" y="44.6831158646"/>
      </g>
     </g>
     <g id="line2d_32">
      <g>
       <use style="stroke:#000000;stroke-width:0.5;" x="519.21" xlink:href="#m36a8e746b0" y="44.6831158646"/>
      </g>
     </g>
     <g id="text_14">
      <!-- 6 -->
      <g transform="translate(60.4775 47.9943658646)scale(0.12 -0.12)">
       <use xlink:href="#BitstreamVeraSans-Roman-36"/>
      </g>
     </g>
    </g>
    <g id="text_15">
     <!-- Motor position (rad) -->
     <defs>
      <path d="M 9.8125 72.90625 
L 24.515625 72.90625 
L 43.109375 23.296875 
L 61.8125 72.90625 
L 76.515625 72.90625 
L 76.515625 0 
L 66.890625 0 
L 66.890625 64.015625 
L 48.09375 14.015625 
L 38.1875 14.015625 
L 19.390625 64.015625 
L 19.390625 0 
L 9.8125 0 
z
" id="BitstreamVeraSans-Roman-4d"/>
      <path d="M 54.890625 33.015625 
L 54.890625 0 
L 45.90625 0 
L 45.90625 32.71875 
Q 45.90625 40.484375 42.875 44.328125 
Q 39.84375 48.1875 33.796875 48.1875 
Q 26.515625 48.1875 22.3125 43.546875 
Q 18.109375 38.921875 18.109375 30.90625 
L 18.109375 0 
L 9.078125 0 
L 9.078125 54.6875 
L 18.109375 54.6875 
L 18.109375 46.1875 
Q 21.34375 51.125 25.703125 53.5625 
Q 30.078125 56 35.796875 56 
Q 45.21875 56 50.046875 50.171875 
Q 54.890625 44.34375 54.890625 33.015625 
" id="BitstreamVeraSans-Roman-6e"/>
      <path d="M 34.28125 27.484375 
Q 23.390625 27.484375 19.1875 25 
Q 14.984375 22.515625 14.984375 16.5 
Q 14.984375 11.71875 18.140625 8.90625 
Q 21.296875 6.109375 26.703125 6.109375 
Q 34.1875 6.109375 38.703125 11.40625 
Q 43.21875 16.703125 43.21875 25.484375 
L 43.21875 27.484375 
z
M 52.203125 31.203125 
L 52.203125 0 
L 43.21875 0 
L 43.21875 8.296875 
Q 40.140625 3.328125 35.546875 0.953125 
Q 30.953125 -1.421875 24.3125 -1.421875 
Q 15.921875 -1.421875 10.953125 3.296875 
Q 6 8.015625 6 15.921875 
Q 6 25.140625 12.171875 29.828125 
Q 18.359375 34.515625 30.609375 34.515625 
L 43.21875 34.515625 
L 43.21875 35.40625 
Q 43.21875 41.609375 39.140625 45 
Q 35.0625 48.390625 27.6875 48.390625 
Q 23 48.390625 18.546875 47.265625 
Q 14.109375 46.140625 10.015625 43.890625 
L 10.015625 52.203125 
Q 14.9375 54.109375 19.578125 55.046875 
Q 24.21875 56 28.609375 56 
Q 40.484375 56 46.34375 49.84375 
Q 52.203125 43.703125 52.203125 31.203125 
" id="BitstreamVeraSans-Roman-61"/>
      <path d="M 30.609375 48.390625 
Q 23.390625 48.390625 19.1875 42.75 
Q 14.984375 37.109375 14.984375 27.296875 
Q 14.984375 17.484375 19.15625 11.84375 
Q 23.34375 6.203125 30.609375 6.203125 
Q 37.796875 6.203125 41.984375 11.859375 
Q 46.1875 17.53125 46.1875 27.296875 
Q 46.1875 37.015625 41.984375 42.703125 
Q 37.796875 48.390625 30.609375 48.390625 
M 30.609375 56 
Q 42.328125 56 49.015625 48.375 
Q 55.71875 40.765625 55.71875 27.296875 
Q 55.71875 13.875 49.015625 6.21875 
Q 42.328125 -1.421875 30.609375 -1.421875 
Q 18.84375 -1.421875 12.171875 6.21875 
Q 5.515625 13.875 5.515625 27.296875 
Q 5.515625 40.765625 12.171875 48.375 
Q 18.84375 56 30.609375 56 
" id="BitstreamVeraSans-Roman-6f"/>
      <path d="M 45.40625 46.390625 
L 45.40625 75.984375 
L 54.390625 75.984375 
L 54.390625 0 
L 45.40625 0 
L 45.40625 8.203125 
Q 42.578125 3.328125 38.25 0.953125 
Q 33.9375 -1.421875 27.875 -1.421875 
Q 17.96875 -1.421875 11.734375 6.484375 
Q 5.515625 14.40625 5.515625 27.296875 
Q 5.515625 40.1875 11.734375 48.09375 
Q 17.96875 56 27.875 56 
Q 33.9375 56 38.25 53.625 
Q 42.578125 51.265625 45.40625 46.390625 
M 14.796875 27.296875 
Q 14.796875 17.390625 18.875 11.75 
Q 22.953125 6.109375 30.078125 6.109375 
Q 37.203125 6.109375 41.296875 11.75 
Q 45.40625 17.390625 45.40625 27.296875 
Q 45.40625 37.203125 41.296875 42.84375 
Q 37.203125 48.484375 30.078125 48.484375 
Q 22.953125 48.484375 18.875 42.84375 
Q 14.796875 37.203125 14.796875 27.296875 
" id="BitstreamVeraSans-Roman-64"/>
      <path d="M 18.3125 70.21875 
L 18.3125 54.6875 
L 36.8125 54.6875 
L 36.8125 47.703125 
L 18.3125 47.703125 
L 18.3125 18.015625 
Q 18.3125 11.328125 20.140625 9.421875 
Q 21.96875 7.515625 27.59375 7.515625 
L 36.8125 7.515625 
L 36.8125 0 
L 27.59375 0 
Q 17.1875 0 13.234375 3.875 
Q 9.28125 7.765625 9.28125 18.015625 
L 9.28125 47.703125 
L 2.6875 47.703125 
L 2.6875 54.6875 
L 9.28125 54.6875 
L 9.28125 70.21875 
z
" id="BitstreamVeraSans-Roman-74"/>
      <path d="M 41.109375 46.296875 
Q 39.59375 47.171875 37.8125 47.578125 
Q 36.03125 48 33.890625 48 
Q 26.265625 48 22.1875 43.046875 
Q 18.109375 38.09375 18.109375 28.8125 
L 18.109375 0 
L 9.078125 0 
L 9.078125 54.6875 
L 18.109375 54.6875 
L 18.109375 46.1875 
Q 20.953125 51.171875 25.484375 53.578125 
Q 30.03125 56 36.53125 56 
Q 37.453125 56 38.578125 55.875 
Q 39.703125 55.765625 41.0625 55.515625 
z
" id="BitstreamVeraSans-Roman-72"/>
      <path d="M 18.109375 8.203125 
L 18.109375 -20.796875 
L 9.078125 -20.796875 
L 9.078125 54.6875 
L 18.109375 54.6875 
L 18.109375 46.390625 
Q 20.953125 51.265625 25.265625 53.625 
Q 29.59375 56 35.59375 56 
Q 45.5625 56 51.78125 48.09375 
Q 58.015625 40.1875 58.015625 27.296875 
Q 58.015625 14.40625 51.78125 6.484375 
Q 45.5625 -1.421875 35.59375 -1.421875 
Q 29.59375 -1.421875 25.265625 0.953125 
Q 20.953125 3.328125 18.109375 8.203125 
M 48.6875 27.296875 
Q 48.6875 37.203125 44.609375 42.84375 
Q 40.53125 48.484375 33.40625 48.484375 
Q 26.265625 48.484375 22.1875 42.84375 
Q 18.109375 37.203125 18.109375 27.296875 
Q 18.109375 17.390625 22.1875 11.75 
Q 26.265625 6.109375 33.40625 6.109375 
Q 40.53125 6.109375 44.609375 11.75 
Q 48.6875 17.390625 48.6875 27.296875 
" id="BitstreamVeraSans-Roman-70"/>
     </defs>
     <g transform="translate(42.92625 275.551875)rotate(-90.0)scale(0.12 -0.12)">
      <use xlink:href="#BitstreamVeraSans-Roman-4d"/>
      <use x="86.279296875" xlink:href="#BitstreamVeraSans-Roman-6f"/>
      <use x="147.4609375" xlink:href="#BitstreamVeraSans-Roman-74"/>
      <use x="186.669921875" xlink:href="#BitstreamVeraSans-Roman-6f"/>
      <use x="247.8515625" xlink:href="#BitstreamVeraSans-Roman-72"/>
      <use x="288.96484375" xlink:href="#BitstreamVeraSans-Roman-20"/>
      <use x="320.751953125" xlink:href="#BitstreamVeraSans-Roman-70"/>
      <use x="384.228515625" xlink:href="#BitstreamVeraSans-Roman-6f"/>
      <use x="445.41015625" xlink:href="#BitstreamVeraSans-Roman-73"/>
      <use x="497.509765625" xlink:href="#BitstreamVeraSans-Roman-69"/>
      <use x="525.29296875" xlink:href="#BitstreamVeraSans-Roman-74"/>
      <use x="564.501953125" xlink:href="#BitstreamVeraSans-Roman-69"/>
      <use x="592.28515625" xlink:href="#BitstreamVeraSans-Roman-6f"/>
      <use x="653.466796875" xlink:href="#BitstreamVeraSans-Roman-6e"/>
      <use x="716.845703125" xlink:href="#BitstreamVeraSans-Roman-20"/>
      <use x="748.6328125" xlink:href="#BitstreamVeraSans-Roman-28"/>
      <use x="787.646484375" xlink:href="#BitstreamVeraSans-Roman-72"/>
      <use x="828.759765625" xlink:href="#BitstreamVeraSans-Roman-61"/>
      <use x="890.0390625" xlink:href="#BitstreamVeraSans-Roman-64"/>
      <use x="953.515625" xlink:href="#BitstreamVeraSans-Roman-29"/>
     </g>
    </g>
   </g>
   <g id="legend_1">
    <g id="patch_7">
     <path d="M 77.1105 383.802 
L 514.212 383.802 
L 514.212 366.131677 
L 77.1105 366.131677 
z
" style="fill:#ffffff;stroke:#000000;stroke-linejoin:miter;"/>
    </g>
    <g id="line2d_33">
     <path d="M 84.1077 374.226875 
L 98.1021 374.226875 
" style="fill:none;stroke:#b4656f;stroke-linecap:square;"/>
    </g>
    <g id="line2d_34"/>
    <g id="text_16">
     <!-- Muscle 1 -->
     <defs>
      <path d="M 12.40625 8.296875 
L 28.515625 8.296875 
L 28.515625 63.921875 
L 10.984375 60.40625 
L 10.984375 69.390625 
L 28.421875 72.90625 
L 38.28125 72.90625 
L 38.28125 8.296875 
L 54.390625 8.296875 
L 54.390625 0 
L 12.40625 0 
z
" id="BitstreamVeraSans-Roman-31"/>
      <path d="M 8.5 21.578125 
L 8.5 54.6875 
L 17.484375 54.6875 
L 17.484375 21.921875 
Q 17.484375 14.15625 20.5 10.265625 
Q 23.53125 6.390625 29.59375 6.390625 
Q 36.859375 6.390625 41.078125 11.03125 
Q 45.3125 15.671875 45.3125 23.6875 
L 45.3125 54.6875 
L 54.296875 54.6875 
L 54.296875 0 
L 45.3125 0 
L 45.3125 8.40625 
Q 42.046875 3.421875 37.71875 1 
Q 33.40625 -1.421875 27.6875 -1.421875 
Q 18.265625 -1.421875 13.375 4.4375 
Q 8.5 10.296875 8.5 21.578125 
" id="BitstreamVeraSans-Roman-75"/>
      <path d="M 9.421875 75.984375 
L 18.40625 75.984375 
L 18.40625 0 
L 9.421875 0 
z
" id="BitstreamVeraSans-Roman-6c"/>
      <path d="M 48.78125 52.59375 
L 48.78125 44.1875 
Q 44.96875 46.296875 41.140625 47.34375 
Q 37.3125 48.390625 33.40625 48.390625 
Q 24.65625 48.390625 19.8125 42.84375 
Q 14.984375 37.3125 14.984375 27.296875 
Q 14.984375 17.28125 19.8125 11.734375 
Q 24.65625 6.203125 33.40625 6.203125 
Q 37.3125 6.203125 41.140625 7.25 
Q 44.96875 8.296875 48.78125 10.40625 
L 48.78125 2.09375 
Q 45.015625 0.34375 40.984375 -0.53125 
Q 36.96875 -1.421875 32.421875 -1.421875 
Q 20.0625 -1.421875 12.78125 6.34375 
Q 5.515625 14.109375 5.515625 27.296875 
Q 5.515625 40.671875 12.859375 48.328125 
Q 20.21875 56 33.015625 56 
Q 37.15625 56 41.109375 55.140625 
Q 45.0625 54.296875 48.78125 52.59375 
" id="BitstreamVeraSans-Roman-63"/>
     </defs>
     <g transform="translate(109.0977 377.725475)scale(0.09996 -0.09996)">
      <use xlink:href="#BitstreamVeraSans-Roman-4d"/>
      <use x="86.279296875" xlink:href="#BitstreamVeraSans-Roman-75"/>
      <use x="149.658203125" xlink:href="#BitstreamVeraSans-Roman-73"/>
      <use x="201.7578125" xlink:href="#BitstreamVeraSans-Roman-63"/>
      <use x="256.73828125" xlink:href="#BitstreamVeraSans-Roman-6c"/>
      <use x="284.521484375" xlink:href="#BitstreamVeraSans-Roman-65"/>
      <use x="346.044921875" xlink:href="#BitstreamVeraSans-Roman-20"/>
      <use x="377.83203125" xlink:href="#BitstreamVeraSans-Roman-31"/>
     </g>
    </g>
    <g id="line2d_35">
     <path d="M 155.496505 374.226875 
L 169.490905 374.226875 
" style="fill:none;stroke:#f3d34a;stroke-linecap:square;"/>
    </g>
    <g id="line2d_36"/>
    <g id="text_17">
     <!-- Muscle 2 -->
     <g transform="translate(180.486505 377.725475)scale(0.09996 -0.09996)">
      <use xlink:href="#BitstreamVeraSans-Roman-4d"/>
      <use x="86.279296875" xlink:href="#BitstreamVeraSans-Roman-75"/>
      <use x="149.658203125" xlink:href="#BitstreamVeraSans-Roman-73"/>
      <use x="201.7578125" xlink:href="#BitstreamVeraSans-Roman-63"/>
      <use x="256.73828125" xlink:href="#BitstreamVeraSans-Roman-6c"/>
      <use x="284.521484375" xlink:href="#BitstreamVeraSans-Roman-65"/>
      <use x="346.044921875" xlink:href="#BitstreamVeraSans-Roman-20"/>
      <use x="377.83203125" xlink:href="#BitstreamVeraSans-Roman-32"/>
     </g>
    </g>
    <g id="line2d_37">
     <path d="M 226.88531 374.226875 
L 240.87971 374.226875 
" style="fill:none;stroke:#a11692;stroke-linecap:square;"/>
    </g>
    <g id="line2d_38"/>
    <g id="text_18">
     <!-- Muscle 6 -->
     <g transform="translate(251.87531 377.725475)scale(0.09996 -0.09996)">
      <use xlink:href="#BitstreamVeraSans-Roman-4d"/>
      <use x="86.279296875" xlink:href="#BitstreamVeraSans-Roman-75"/>
      <use x="149.658203125" xlink:href="#BitstreamVeraSans-Roman-73"/>
      <use x="201.7578125" xlink:href="#BitstreamVeraSans-Roman-63"/>
      <use x="256.73828125" xlink:href="#BitstreamVeraSans-Roman-6c"/>
      <use x="284.521484375" xlink:href="#BitstreamVeraSans-Roman-65"/>
      <use x="346.044921875" xlink:href="#BitstreamVeraSans-Roman-20"/>
      <use x="377.83203125" xlink:href="#BitstreamVeraSans-Roman-36"/>
     </g>
    </g>
    <g id="line2d_39">
     <path d="M 298.274115 374.226875 
L 312.268515 374.226875 
" style="fill:none;stroke:#f75c03;stroke-linecap:square;"/>
    </g>
    <g id="line2d_40"/>
    <g id="text_19">
     <!-- Muscle 5 -->
     <defs>
      <path d="M 10.796875 72.90625 
L 49.515625 72.90625 
L 49.515625 64.59375 
L 19.828125 64.59375 
L 19.828125 46.734375 
Q 21.96875 47.46875 24.109375 47.828125 
Q 26.265625 48.1875 28.421875 48.1875 
Q 40.625 48.1875 47.75 41.5 
Q 54.890625 34.8125 54.890625 23.390625 
Q 54.890625 11.625 47.5625 5.09375 
Q 40.234375 -1.421875 26.90625 -1.421875 
Q 22.3125 -1.421875 17.546875 -0.640625 
Q 12.796875 0.140625 7.71875 1.703125 
L 7.71875 11.625 
Q 12.109375 9.234375 16.796875 8.0625 
Q 21.484375 6.890625 26.703125 6.890625 
Q 35.15625 6.890625 40.078125 11.328125 
Q 45.015625 15.765625 45.015625 23.390625 
Q 45.015625 31 40.078125 35.4375 
Q 35.15625 39.890625 26.703125 39.890625 
Q 22.75 39.890625 18.8125 39.015625 
Q 14.890625 38.140625 10.796875 36.28125 
z
" id="BitstreamVeraSans-Roman-35"/>
     </defs>
     <g transform="translate(323.264115 377.725475)scale(0.09996 -0.09996)">
      <use xlink:href="#BitstreamVeraSans-Roman-4d"/>
      <use x="86.279296875" xlink:href="#BitstreamVeraSans-Roman-75"/>
      <use x="149.658203125" xlink:href="#BitstreamVeraSans-Roman-73"/>
      <use x="201.7578125" xlink:href="#BitstreamVeraSans-Roman-63"/>
      <use x="256.73828125" xlink:href="#BitstreamVeraSans-Roman-6c"/>
      <use x="284.521484375" xlink:href="#BitstreamVeraSans-Roman-65"/>
      <use x="346.044921875" xlink:href="#BitstreamVeraSans-Roman-20"/>
      <use x="377.83203125" xlink:href="#BitstreamVeraSans-Roman-35"/>
     </g>
    </g>
    <g id="line2d_41">
     <path d="M 369.66292 374.226875 
L 383.65732 374.226875 
" style="fill:none;stroke:#2274a5;stroke-linecap:square;"/>
    </g>
    <g id="line2d_42"/>
    <g id="text_20">
     <!-- Muscle 4 -->
     <g transform="translate(394.65292 377.725475)scale(0.09996 -0.09996)">
      <use xlink:href="#BitstreamVeraSans-Roman-4d"/>
      <use x="86.279296875" xlink:href="#BitstreamVeraSans-Roman-75"/>
      <use x="149.658203125" xlink:href="#BitstreamVeraSans-Roman-73"/>
      <use x="201.7578125" xlink:href="#BitstreamVeraSans-Roman-63"/>
      <use x="256.73828125" xlink:href="#BitstreamVeraSans-Roman-6c"/>
      <use x="284.521484375" xlink:href="#BitstreamVeraSans-Roman-65"/>
      <use x="346.044921875" xlink:href="#BitstreamVeraSans-Roman-20"/>
      <use x="377.83203125" xlink:href="#BitstreamVeraSans-Roman-34"/>
     </g>
    </g>
    <g id="line2d_43">
     <path d="M 441.051725 374.226875 
L 455.046125 374.226875 
" style="fill:none;stroke:#4e937a;stroke-linecap:square;"/>
    </g>
    <g id="line2d_44"/>
    <g id="text_21">
     <!-- Muscle 3 -->
     <g transform="translate(466.041725 377.725475)scale(0.09996 -0.09996)">
      <use xlink:href="#BitstreamVeraSans-Roman-4d"/>
      <use x="86.279296875" xlink:href="#BitstreamVeraSans-Roman-75"/>
      <use x="149.658203125" xlink:href="#BitstreamVeraSans-Roman-73"/>
      <use x="201.7578125" xlink:href="#BitstreamVeraSans-Roman-63"/>
      <use x="256.73828125" xlink:href="#BitstreamVeraSans-Roman-6c"/>
      <use x="284.521484375" xlink:href="#BitstreamVeraSans-Roman-65"/>
      <use x="346.044921875" xlink:href="#BitstreamVeraSans-Roman-20"/>
      <use x="377.83203125" xlink:href="#BitstreamVeraSans-Roman-33"/>
     </g>
    </g>
   </g>
  </g>
 </g>
 <defs>
  <clipPath id="p8d234f6020">
   <rect height="345.6" width="447.0975" x="72.1125" y="43.2"/>
  </clipPath>
 </defs>
</svg>
