<?xml version="1.0" encoding="utf-8" standalone="no"?>
<!DOCTYPE svg PUBLIC "-//W3C//DTD SVG 1.1//EN"
  "http://www.w3.org/Graphics/SVG/1.1/DTD/svg11.dtd">
<!-- Created with matplotlib (http://matplotlib.org/) -->
<svg height="432pt" version="1.1" viewBox="0 0 576 432" width="576pt" xmlns="http://www.w3.org/2000/svg" xmlns:xlink="http://www.w3.org/1999/xlink">
 <defs>
  <style type="text/css">
*{stroke-linecap:butt;stroke-linejoin:round;stroke-miterlimit:100000;}
  </style>
 </defs>
 <g id="figure_1">
  <g id="patch_1">
   <path d="M 0 432 
L 576.9 432 
L 576.9 0 
L 0 0 
z
" style="fill:#ffffff;"/>
  </g>
  <g id="axes_1">
   <g id="patch_2">
    <path d="M 72.1125 388.8 
L 519.21 388.8 
L 519.21 43.2 
L 72.1125 43.2 
z
" style="fill:#ffffff;"/>
   </g>
   <g id="line2d_1">
    <path clip-path="url(#p7d8a9f0ce0)" d="M 71.044322 235.902039 
L 87.716384 288.587715 
L 93.778916 307.711172 
L 99.840238 326.881899 
L 101.353405 331.185165 
L 102.878442 331.007493 
L 104.391807 329.974057 
L 105.906853 329.962646 
L 107.415413 329.302486 
L 108.937143 327.359496 
L 110.448937 326.557524 
L 111.968409 325.219273 
L 113.47771 322.053764 
L 116.51156 318.684502 
L 118.02834 314.506747 
L 119.549709 311.615082 
L 121.053644 307.096652 
L 122.577597 303.976784 
L 124.088884 300.343457 
L 125.605574 297.065477 
L 127.116537 292.467175 
L 128.579621 287.5934 
L 136.217526 264.240028 
L 155.926184 201.281932 
L 161.982393 182.295398 
L 163.493861 180.106274 
L 166.523086 173.553573 
L 168.043028 171.718164 
L 169.561651 171.672524 
L 171.07695 168.573846 
L 172.587786 166.075017 
L 174.104367 165.054621 
L 175.617751 165.921794 
L 177.075541 163.152382 
L 178.655883 161.175161 
L 180.169971 160.117274 
L 181.680247 160.102604 
L 183.197876 162.987749 
L 186.228745 170.7972 
L 187.744604 171.351409 
L 189.263931 172.75486 
L 190.775273 174.601679 
L 192.289452 179.291262 
L 193.807063 181.519506 
L 195.323013 183.325574 
L 196.802755 184.647525 
L 198.314024 186.427512 
L 199.844536 191.104055 
L 201.385816 195.281809 
L 202.899904 199.969762 
L 204.419105 203.611238 
L 207.446125 208.276371 
L 208.965164 212.962693 
L 210.479704 216.395527 
L 211.99381 220.270097 
L 213.514005 221.026428 
L 215.028003 221.908272 
L 216.540411 223.08026 
L 218.058637 225.282424 
L 219.574405 224.956419 
L 221.085332 224.785267 
L 222.604569 224.799937 
L 225.578507 225.295465 
L 227.151224 225.01021 
L 228.664662 225.02814 
L 234.729435 222.962898 
L 240.79007 219.701218 
L 242.304917 218.447728 
L 245.338586 214.69052 
L 246.854445 213.278918 
L 248.36884 211.567392 
L 249.885602 209.379898 
L 251.400395 206.046496 
L 252.918296 204.636524 
L 254.435112 201.981213 
L 255.950754 199.893151 
L 257.462512 196.818923 
L 258.976311 195.676276 
L 262.00942 192.424375 
L 263.534403 190.388474 
L 265.04457 189.51641 
L 268.075601 187.012691 
L 269.589834 185.62065 
L 272.621245 184.588844 
L 274.075277 183.806432 
L 275.65233 182.3932 
L 277.166165 181.426595 
L 278.685023 181.019088 
L 280.198172 180.300247 
L 281.714194 179.273331 
L 283.228336 177.625376 
L 284.744899 176.911425 
L 286.26271 175.180338 
L 289.292187 173.581283 
L 290.810937 172.805391 
L 292.323055 171.330218 
L 293.840631 171.219377 
L 296.868301 172.135451 
L 298.385154 172.277263 
L 299.901248 173.253648 
L 302.929207 176.329506 
L 304.445482 177.798158 
L 305.958901 179.563476 
L 307.479133 181.922122 
L 310.512964 186.383502 
L 312.022373 188.958941 
L 315.056205 194.576008 
L 318.088645 200.243606 
L 324.152586 212.558447 
L 325.661218 215.98639 
L 328.699422 223.499177 
L 330.218497 227.357446 
L 331.735657 231.580842 
L 333.245481 236.126982 
L 339.308718 252.479396 
L 343.85259 262.447 
L 345.371828 265.257164 
L 346.889493 267.291435 
L 348.368712 269.52131 
L 349.915701 271.46104 
L 351.431704 273.034014 
L 354.464795 275.043835 
L 357.493531 277.340541 
L 360.523262 278.359307 
L 362.042842 279.23789 
L 363.556696 280.334897 
L 366.590383 282.235507 
L 368.113071 283.655259 
L 374.17161 287.986236 
L 375.690234 288.25193 
L 377.200004 288.25519 
L 378.713731 288.395372 
L 380.231613 288.349732 
L 381.746785 287.319556 
L 386.293549 283.500406 
L 387.809335 281.578607 
L 389.323695 279.019467 
L 390.839553 276.708091 
L 392.357002 274.152212 
L 393.868525 270.944322 
L 399.936405 255.168937 
L 405.99807 236.148173 
L 412.05688 217.207279 
L 424.184546 179.780269 
L 430.241459 161.872812 
L 436.308815 144.935219 
L 439.337822 136.886154 
L 440.854205 133.554383 
L 442.365077 131.937398 
L 445.401872 128.119879 
L 451.468614 122.778286 
L 456.00797 119.757849 
L 459.045469 118.911866 
L 460.55869 118.52881 
L 462.07603 118.489689 
L 463.585331 118.760274 
L 466.620807 119.920852 
L 468.131715 120.863006 
L 469.650573 122.38545 
L 472.680972 125.787312 
L 474.199252 127.793874 
L 475.710015 130.326933 
L 478.741661 136.713372 
L 480.253563 140.270087 
L 483.295435 148.500084 
L 486.322455 157.644526 
L 507.538498 225.63777 
L 519.664375 264.38347 
L 519.664375 264.38347 
" style="fill:none;stroke:#b4656f;stroke-linecap:square;"/>
   </g>
   <g id="line2d_2">
    <path clip-path="url(#p7d8a9f0ce0)" d="M 71.044322 225.733941 
L 72.558392 222.617333 
L 74.082634 219.732188 
L 81.658026 205.127162 
L 96.807689 176.393077 
L 101.353405 167.793063 
L 108.937143 154.382846 
L 113.47771 146.94178 
L 118.02834 139.896811 
L 124.088884 130.80453 
L 125.605574 128.651267 
L 127.116537 128.502935 
L 128.579621 131.080005 
L 130.146213 134.763862 
L 131.66807 138.056513 
L 133.179701 142.351629 
L 149.852523 200.230566 
L 160.461204 235.875958 
L 168.043028 261.037028 
L 171.07695 268.047767 
L 172.587786 271.531131 
L 174.104367 274.323364 
L 175.617751 274.960704 
L 177.075541 278.160444 
L 178.655883 281.12383 
L 180.169971 282.975538 
L 181.680247 283.669929 
L 183.197876 282.45882 
L 186.228745 279.542705 
L 187.744604 279.940431 
L 189.263931 279.627466 
L 190.775273 278.776593 
L 192.289452 276.064231 
L 193.807063 276.457067 
L 195.323013 276.404907 
L 196.802755 276.031631 
L 198.314024 274.944404 
L 199.844536 272.884052 
L 201.385816 272.606948 
L 202.899904 270.657437 
L 204.419105 270.395003 
L 207.446125 269.576731 
L 208.965164 266.880669 
L 210.479704 265.997195 
L 211.99381 263.204962 
L 213.514005 261.997113 
L 215.028003 259.571636 
L 216.540411 257.592785 
L 218.058637 254.261013 
L 222.604569 246.031016 
L 224.119182 243.08556 
L 225.578507 239.898861 
L 234.729435 223.233483 
L 242.304917 211.335928 
L 243.822763 209.207115 
L 246.854445 203.73675 
L 249.885602 198.168584 
L 252.918296 192.75201 
L 254.435112 190.615047 
L 255.950754 187.946696 
L 257.462512 185.65651 
L 258.976311 183.909123 
L 260.492495 181.698809 
L 262.00942 179.703658 
L 263.534403 178.740313 
L 265.04457 177.982351 
L 266.554593 177.014116 
L 269.589834 175.542204 
L 271.106271 175.007555 
L 272.621245 174.741861 
L 274.075277 174.314794 
L 275.65233 173.35634 
L 277.166165 172.965134 
L 280.198172 172.70433 
L 281.714194 172.042539 
L 283.228336 171.245457 
L 284.744899 170.80372 
L 286.26271 169.646402 
L 287.777141 168.723808 
L 289.292187 168.109288 
L 290.810937 167.633321 
L 292.323055 166.477633 
L 293.840631 166.2967 
L 295.356526 166.448293 
L 296.868301 166.854169 
L 298.385154 167.075852 
L 299.901248 168.167969 
L 304.445482 172.976544 
L 305.958901 174.926054 
L 307.479133 177.521054 
L 310.512964 182.248127 
L 312.022373 184.96538 
L 315.056205 191.192076 
L 316.574936 194.02995 
L 322.639564 207.174474 
L 325.661218 214.512847 
L 331.735657 231.253207 
L 333.245481 236.133502 
L 339.308718 253.806236 
L 343.85259 264.804017 
L 345.371828 268.007016 
L 346.889493 270.1831 
L 348.368712 272.683559 
L 349.915701 274.880833 
L 351.431704 276.525528 
L 357.493531 281.13035 
L 360.523262 282.287668 
L 362.042842 283.10594 
L 363.556696 284.181757 
L 366.590383 286.056286 
L 368.113071 287.476038 
L 372.654686 290.664367 
L 374.17161 291.917857 
L 375.690234 292.250382 
L 377.200004 292.377524 
L 378.713731 292.622028 
L 380.231613 292.706789 
L 381.746785 291.860806 
L 383.261542 290.703488 
L 384.776714 289.712433 
L 386.293549 288.467093 
L 387.809335 286.524103 
L 389.323695 284.082325 
L 390.839553 281.902982 
L 392.357002 279.334062 
L 393.868525 276.209303 
L 401.449463 257.669396 
L 405.99807 246.96991 
L 413.57151 229.923106 
L 422.664513 210.732819 
L 428.729286 198.315286 
L 433.273556 189.231156 
L 440.854205 173.982269 
L 443.888543 168.127219 
L 451.468614 154.289934 
L 466.620807 128.015557 
L 469.650573 123.011379 
L 471.165565 120.936357 
L 472.680972 121.431885 
L 474.199252 123.109181 
L 475.710015 125.324385 
L 477.221972 128.069348 
L 478.741661 131.094675 
L 480.253563 134.457417 
L 481.773035 138.243966 
L 483.295435 142.364669 
L 486.322455 151.613433 
L 490.864376 167.137793 
L 504.489635 213.732065 
L 519.664375 264.37532 
L 519.664375 264.37532 
" style="fill:none;stroke:#f3d34a;stroke-linecap:square;"/>
   </g>
   <g id="line2d_3">
    <path clip-path="url(#p7d8a9f0ce0)" d="M 71.044322 200.45551 
L 102.878442 101.046789 
L 104.391807 97.745988 
L 105.906853 98.000272 
L 107.415413 98.862555 
L 108.937143 100.360548 
L 110.448937 101.214682 
L 111.968409 102.512182 
L 113.47771 105.147933 
L 114.999639 106.724167 
L 116.51156 108.456884 
L 118.02834 112.122811 
L 119.549709 114.67543 
L 121.053644 118.773314 
L 122.577597 121.396024 
L 125.605574 127.836254 
L 127.116537 132.561697 
L 128.579621 136.697072 
L 131.66807 144.34352 
L 133.179701 148.764149 
L 140.762645 173.183557 
L 168.043028 261.643398 
L 172.587786 271.643603 
L 174.104367 274.233713 
L 175.617751 274.859643 
L 177.075541 277.819768 
L 178.655883 280.708173 
L 180.169971 282.641383 
L 181.680247 283.211892 
L 183.197876 281.77095 
L 186.228745 278.431028 
L 187.744604 278.799414 
L 189.263931 278.5435 
L 190.775273 277.726857 
L 192.289452 275.011235 
L 193.807063 275.237808 
L 195.323013 275.156307 
L 196.802755 274.822152 
L 198.314024 273.834357 
L 199.844536 271.593072 
L 201.385816 271.180676 
L 202.899904 269.050233 
L 205.931314 268.443863 
L 207.446125 267.879874 
L 208.965164 265.160992 
L 210.479704 264.143857 
L 211.99381 261.217961 
L 213.514005 259.933501 
L 215.028003 257.473793 
L 216.540411 255.514503 
L 218.058637 252.018099 
L 221.085332 246.640645 
L 224.119182 241.186581 
L 225.578507 237.957501 
L 234.729435 222.123435 
L 236.24112 219.688178 
L 239.278439 215.406101 
L 242.304917 210.954502 
L 243.822763 208.930011 
L 245.338586 205.982925 
L 246.854445 203.590048 
L 248.36884 200.991788 
L 249.885602 198.031662 
L 251.400395 195.34701 
L 252.918296 193.175817 
L 254.435112 191.301288 
L 255.950754 188.688357 
L 257.462512 186.760037 
L 258.976311 185.097412 
L 260.492495 183.099001 
L 262.00942 181.631978 
L 268.075601 178.657182 
L 271.106271 177.586255 
L 272.621245 177.415103 
L 274.075277 176.983146 
L 275.65233 175.95134 
L 277.166165 175.597624 
L 280.198172 175.446032 
L 283.228336 173.819267 
L 284.744899 173.287879 
L 286.26271 172.052319 
L 287.777141 171.237307 
L 290.810937 170.078359 
L 292.323055 169.010692 
L 293.840631 168.997652 
L 295.356526 169.411679 
L 296.868301 170.001748 
L 298.385154 170.357093 
L 299.901248 171.511151 
L 305.958901 178.257826 
L 307.479133 180.727314 
L 310.512964 185.332135 
L 312.022373 187.953216 
L 315.056205 193.726765 
L 316.574936 196.502698 
L 322.639564 208.791459 
L 325.661218 215.683206 
L 327.184358 219.671877 
L 328.699422 223.280753 
L 331.735657 231.531941 
L 333.245481 236.219894 
L 339.308718 252.78584 
L 345.371828 265.777142 
L 346.889493 267.814673 
L 348.368712 270.042918 
L 349.915701 272.10327 
L 351.431704 273.679504 
L 354.464795 275.708886 
L 357.493531 278.005591 
L 360.523262 279.079778 
L 362.042842 279.932281 
L 365.074072 281.956773 
L 366.590383 282.933158 
L 368.113071 284.36758 
L 372.654686 287.493968 
L 374.17161 288.677367 
L 375.690234 289.027822 
L 378.713731 289.205495 
L 380.231613 289.047382 
L 381.746785 288.170429 
L 383.261542 286.918569 
L 384.776714 285.831343 
L 386.293549 284.501242 
L 387.809335 282.615303 
L 389.323695 280.059423 
L 390.839553 277.788798 
L 392.357002 275.31279 
L 393.868525 272.194551 
L 396.900387 264.701325 
L 399.936405 256.560979 
L 405.99807 238.728503 
L 410.535294 224.723326 
L 437.819253 139.321412 
L 439.337822 134.798092 
L 440.854205 132.680689 
L 442.365077 130.957753 
L 445.401872 127.195654 
L 449.948166 122.977149 
L 452.981889 120.771725 
L 454.495327 119.658418 
L 456.00797 118.779834 
L 460.55869 117.550795 
L 462.07603 117.459513 
L 463.585331 117.826269 
L 466.620807 118.946096 
L 468.131715 119.922482 
L 469.650573 121.337344 
L 472.680972 124.691936 
L 474.199252 126.695237 
L 475.710015 129.128864 
L 477.221972 132.11018 
L 478.741661 135.376751 
L 480.253563 138.980737 
L 481.773035 142.892798 
L 484.805602 151.629733 
L 487.83302 161.279482 
L 519.664375 264.766526 
L 519.664375 264.766526 
" style="fill:none;stroke:#a11692;stroke-linecap:square;"/>
   </g>
   <g id="line2d_4">
    <path clip-path="url(#p7d8a9f0ce0)" d="M 71.044322 235.747186 
L 101.353405 330.456544 
L 102.878442 332.304993 
L 104.391807 331.48998 
L 105.906853 331.48346 
L 107.415413 330.789069 
L 108.937143 329.204685 
L 110.448937 328.425533 
L 111.968409 327.118252 
L 113.47771 324.479241 
L 114.999639 322.929087 
L 116.51156 321.207781 
L 118.02834 317.597275 
L 119.549709 315.083776 
L 121.053644 311.059244 
L 122.577597 308.350142 
L 125.605574 302.100625 
L 128.579621 293.283818 
L 131.66807 285.66182 
L 133.179701 281.277052 
L 146.82899 238.309586 
L 154.403315 214.447646 
L 160.461204 196.013691 
L 165.018013 182.854497 
L 169.561651 170.018048 
L 174.104367 157.543465 
L 177.075541 151.562902 
L 178.655883 148.672867 
L 180.169971 146.651636 
L 181.680247 145.960505 
L 183.197876 147.272675 
L 184.712145 149.052663 
L 186.228745 150.430034 
L 187.744604 150.203461 
L 189.263931 150.382764 
L 190.775273 151.41131 
L 192.289452 153.668895 
L 193.807063 153.540123 
L 196.802755 153.864498 
L 198.314024 155.041376 
L 199.844536 156.894715 
L 201.385816 157.504344 
L 202.899904 159.312042 
L 205.931314 159.913521 
L 207.446125 160.599762 
L 208.965164 162.930698 
L 210.479704 164.149957 
L 211.99381 166.855799 
L 213.514005 168.438553 
L 216.540411 172.893412 
L 218.058637 176.393077 
L 219.574405 179.027198 
L 221.085332 181.948203 
L 222.604569 184.596994 
L 224.119182 187.464208 
L 225.578507 190.77316 
L 230.181551 199.104219 
L 233.215888 204.548503 
L 236.24112 209.53475 
L 237.763808 211.647263 
L 242.304917 218.53738 
L 243.822763 220.599362 
L 245.338586 223.515477 
L 248.36884 228.669617 
L 249.885602 231.737324 
L 251.400395 234.410566 
L 252.918296 236.63881 
L 254.435112 238.55735 
L 255.950754 241.186581 
L 260.492495 246.849289 
L 262.00942 248.355432 
L 263.534403 249.147624 
L 265.04457 249.804524 
L 266.554593 250.666808 
L 269.589834 251.965938 
L 271.106271 252.425605 
L 272.621245 252.622838 
L 274.075277 253.041754 
L 275.65233 254.01814 
L 277.166165 254.350665 
L 280.198172 254.529968 
L 281.714194 255.190128 
L 283.228336 256.102942 
L 284.744899 256.587059 
L 286.26271 257.755788 
L 287.777141 258.57243 
L 290.810937 259.718338 
L 292.323055 260.676793 
L 293.840631 260.668643 
L 295.356526 260.295367 
L 296.868301 259.679217 
L 298.385154 259.335282 
L 299.901248 258.124173 
L 302.929207 254.777731 
L 304.445482 253.165636 
L 305.958901 251.276437 
L 307.479133 248.749898 
L 310.512964 244.053795 
L 312.022373 241.413154 
L 315.056205 235.489642 
L 316.574936 232.672959 
L 319.601179 226.428332 
L 324.152586 216.814443 
L 325.661218 213.287068 
L 331.735657 197.558955 
L 334.754908 188.973612 
L 340.824468 172.862442 
L 343.85259 165.967435 
L 345.371828 163.03013 
L 346.889493 160.958368 
L 348.368712 158.681222 
L 349.915701 156.62902 
L 351.431704 154.959875 
L 354.464795 152.902783 
L 357.493531 150.615857 
L 360.523262 149.527 
L 362.042842 148.716878 
L 363.556696 147.629651 
L 366.590383 145.777942 
L 368.113071 144.32885 
L 369.621522 143.261183 
L 371.142549 142.322289 
L 372.654686 141.252992 
L 374.17161 139.931042 
L 375.690234 139.618077 
L 380.231613 139.380093 
L 381.746785 140.340178 
L 384.776714 142.584723 
L 386.293549 143.986545 
L 387.809335 145.909974 
L 389.323695 148.495194 
L 390.839553 150.692468 
L 392.357002 153.290729 
L 393.868525 156.428527 
L 399.936405 172.391365 
L 405.99807 191.620773 
L 413.57151 215.600074 
L 437.819253 291.756484 
L 439.337822 294.838862 
L 445.401872 302.301118 
L 449.948166 306.558744 
L 452.981889 308.769058 
L 454.495327 309.883995 
L 456.00797 310.764209 
L 460.55869 311.996508 
L 462.07603 312.1155 
L 463.585331 311.796015 
L 466.620807 310.697378 
L 468.131715 309.727513 
L 469.650573 308.286571 
L 472.680972 304.961319 
L 474.199252 302.995509 
L 475.710015 300.584701 
L 477.221972 297.606645 
L 478.741661 294.346595 
L 481.773035 286.895749 
L 484.805602 278.230535 
L 490.864376 259.20977 
L 507.538498 206.806088 
L 512.084955 193.174187 
L 518.149619 175.801378 
L 519.664375 171.591022 
L 519.664375 171.591022 
" style="fill:none;stroke:#f75c03;stroke-linecap:square;"/>
   </g>
   <g id="line2d_5">
    <path clip-path="url(#p7d8a9f0ce0)" d="M 71.044322 192.07229 
L 77.105192 174.485947 
L 84.684215 152.695769 
L 90.749764 135.730467 
L 95.298533 123.503647 
L 99.840238 111.744645 
L 102.878442 104.32151 
L 104.391807 100.856076 
L 105.906853 100.759905 
L 107.415413 101.653159 
L 108.937143 103.566808 
L 110.448937 104.474732 
L 111.968409 105.931975 
L 113.47771 109.258856 
L 114.999639 110.967123 
L 116.51156 112.864472 
L 118.02834 117.317701 
L 119.549709 120.295757 
L 121.053644 125.070101 
L 122.577597 128.287771 
L 124.088884 132.035199 
L 125.605574 135.477813 
L 130.146213 150.304522 
L 131.66807 154.547478 
L 134.704991 164.211898 
L 157.433371 239.339762 
L 158.945291 243.286053 
L 160.461204 246.92264 
L 163.493861 249.54372 
L 166.523086 256.029591 
L 168.043028 257.794908 
L 169.561651 257.718297 
L 171.07695 260.807195 
L 172.587786 263.252233 
L 174.104367 264.321529 
L 175.617751 263.239192 
L 177.075541 266.173238 
L 178.655883 268.139048 
L 180.169971 269.183895 
L 181.680247 269.267026 
L 183.197876 266.139007 
L 186.228745 258.254575 
L 187.744604 257.757418 
L 189.263931 256.414277 
L 190.775273 254.533228 
L 192.289452 250.15172 
L 193.807063 247.641481 
L 195.323013 245.700121 
L 196.802755 244.399361 
L 198.314024 242.616113 
L 202.899904 229.50093 
L 204.419105 225.412826 
L 207.446125 220.561871 
L 210.479704 212.428045 
L 211.99381 208.529025 
L 215.028003 207.055482 
L 216.540411 205.961735 
L 218.058637 203.632429 
L 221.085332 204.32356 
L 222.604569 204.387131 
L 225.578507 203.774241 
L 227.151224 204.113286 
L 228.664662 204.118176 
L 234.729435 206.31219 
L 240.79007 209.635812 
L 242.304917 210.910492 
L 245.338586 214.66281 
L 246.854445 216.102122 
L 248.36884 217.790828 
L 249.885602 219.976692 
L 251.400395 223.301944 
L 252.918296 224.762446 
L 254.435112 227.509039 
L 255.950754 229.54168 
L 257.462512 232.542557 
L 258.976311 233.740625 
L 262.00942 237.119668 
L 263.534403 238.986047 
L 265.04457 239.895601 
L 268.075601 242.43681 
L 269.589834 243.833742 
L 272.621245 244.801977 
L 274.075277 245.501258 
L 275.65233 247.028591 
L 277.166165 247.954446 
L 278.685023 248.269041 
L 280.198172 249.123174 
L 281.714194 250.17617 
L 283.228336 251.719804 
L 284.744899 252.397894 
L 286.26271 254.174622 
L 287.777141 255.018975 
L 290.810937 256.445247 
L 292.323055 257.94813 
L 293.840631 258.000291 
L 295.356526 257.646576 
L 296.868301 256.996196 
L 298.385154 256.810373 
L 299.901248 255.876368 
L 301.419022 254.181142 
L 304.445482 251.144405 
L 305.958901 249.341597 
L 307.479133 246.91938 
L 310.512964 242.480821 
L 312.022373 239.926571 
L 315.056205 234.301354 
L 316.574936 231.732434 
L 322.639564 219.805539 
L 325.661218 213.137106 
L 331.735657 197.849099 
L 336.277596 185.358216 
L 339.308718 177.333601 
L 342.335973 170.300042 
L 343.85259 167.090523 
L 345.371828 164.197228 
L 346.889493 162.327589 
L 348.368712 160.039033 
L 349.915701 158.086263 
L 351.431704 156.487208 
L 354.464795 154.498577 
L 357.493531 152.218172 
L 360.523262 151.145615 
L 362.042842 150.372983 
L 365.074072 148.309372 
L 366.590383 147.455238 
L 368.113071 145.981695 
L 369.621522 144.909139 
L 371.142549 144.010995 
L 372.654686 142.936808 
L 374.17161 141.634418 
L 375.690234 141.334493 
L 380.231613 141.181271 
L 381.746785 142.115276 
L 386.293549 145.955615 
L 387.809335 147.880675 
L 389.323695 150.469155 
L 390.839553 152.73 
L 392.357002 155.354341 
L 393.868525 158.52148 
L 396.900387 166.187489 
L 398.423274 169.998488 
L 399.936405 174.326205 
L 404.475183 188.737258 
L 434.78871 287.083202 
L 439.337822 293.890187 
L 443.888543 299.254601 
L 445.401872 301.068819 
L 451.468614 306.425082 
L 454.495327 308.579975 
L 456.00797 309.468339 
L 460.55869 310.645217 
L 462.07603 310.710418 
L 463.585331 310.345292 
L 466.620807 309.145594 
L 468.131715 308.154539 
L 469.650573 306.632095 
L 472.680972 303.174811 
L 474.199252 301.13239 
L 475.710015 298.537389 
L 477.221972 295.500652 
L 478.741661 292.167251 
L 480.253563 288.577935 
L 483.295435 280.287627 
L 486.322455 271.148075 
L 490.864376 256.807113 
L 496.935779 238.320996 
L 509.054032 202.651154 
L 518.149619 176.151833 
L 519.664375 171.814336 
L 519.664375 171.814336 
" style="fill:none;stroke:#2274a5;stroke-linecap:square;"/>
   </g>
   <g id="line2d_6">
    <path clip-path="url(#p7d8a9f0ce0)" d="M 71.044322 181.12015 
L 87.716384 129.370108 
L 96.807689 101.923743 
L 98.327396 100.005203 
L 101.353405 99.778629 
L 102.878442 100.231776 
L 104.391807 101.211422 
L 105.906853 101.519496 
L 107.415413 102.616503 
L 108.937143 104.520373 
L 110.448937 105.59293 
L 111.968409 107.113743 
L 113.47771 110.399874 
L 114.999639 112.181492 
L 116.51156 114.215763 
L 118.02834 118.561411 
L 119.549709 121.521536 
L 121.053644 126.24209 
L 122.577597 129.46628 
L 125.605574 136.61557 
L 128.579621 146.555464 
L 133.179701 159.757039 
L 139.243444 180.898467 
L 152.884403 228.782089 
L 155.926184 238.055302 
L 157.433371 240.816565 
L 160.461204 248.751528 
L 163.493861 251.817605 
L 166.523086 258.639261 
L 168.043028 260.958787 
L 169.561651 261.522776 
L 171.07695 264.729036 
L 172.587786 267.465848 
L 174.104367 269.095873 
L 175.617751 268.90027 
L 177.075541 271.958198 
L 178.655883 274.329884 
L 180.169971 275.839288 
L 181.680247 276.052821 
L 183.197876 273.676244 
L 184.712145 270.734049 
L 186.228745 268.122748 
L 187.744604 268.181429 
L 189.263931 267.392497 
L 190.775273 265.953185 
L 192.289452 262.090025 
L 193.807063 261.560266 
L 195.323013 260.621372 
L 196.802755 259.938391 
L 198.314024 258.438768 
L 199.844536 253.868177 
L 201.385816 252.74183 
L 202.899904 248.391292 
L 204.419105 247.423057 
L 207.446125 244.800347 
L 208.965164 240.355268 
L 210.479704 238.782293 
L 211.99381 235.33479 
L 213.514005 234.153022 
L 216.540411 230.83429 
L 218.058637 227.789403 
L 219.574405 226.612525 
L 224.119182 222.271768 
L 225.578507 220.526011 
L 227.151224 219.254591 
L 228.664662 217.862549 
L 234.729435 213.942339 
L 237.763808 212.605718 
L 240.79007 211.231607 
L 242.304917 210.840401 
L 243.822763 210.693698 
L 248.36884 209.184295 
L 249.885602 209.053893 
L 251.400395 209.179405 
L 252.918296 209.027812 
L 257.462512 209.661892 
L 260.492495 209.285356 
L 262.00942 209.412498 
L 263.534403 209.878686 
L 266.554593 210.291082 
L 269.589834 211.036004 
L 272.621245 211.223456 
L 281.714194 212.72145 
L 284.744899 213.212087 
L 287.777141 213.577213 
L 290.810937 213.733695 
L 293.840631 214.080891 
L 298.385154 214.206403 
L 302.929207 214.485137 
L 322.639564 214.814402 
L 340.824468 214.830702 
L 396.900387 214.758981 
L 519.664375 214.755721 
L 519.664375 214.755721 
" style="fill:none;stroke:#4e937a;stroke-linecap:square;"/>
   </g>
   <g id="patch_3">
    <path d="M 72.1125 43.2 
L 519.21 43.2 
" style="fill:none;stroke:#000000;stroke-linecap:square;stroke-linejoin:miter;"/>
   </g>
   <g id="patch_4">
    <path d="M 519.21 388.8 
L 519.21 43.2 
" style="fill:none;stroke:#000000;stroke-linecap:square;stroke-linejoin:miter;"/>
   </g>
   <g id="patch_5">
    <path d="M 72.1125 388.8 
L 519.21 388.8 
" style="fill:none;stroke:#000000;stroke-linecap:square;stroke-linejoin:miter;"/>
   </g>
   <g id="patch_6">
    <path d="M 72.1125 388.8 
L 72.1125 43.2 
" style="fill:none;stroke:#000000;stroke-linecap:square;stroke-linejoin:miter;"/>
   </g>
   <g id="matplotlib.axis_1">
    <g id="xtick_1">
     <g id="line2d_7">
      <defs>
       <path d="M 0 0 
L 0 -4 
" id="md8ecd0d2f6" style="stroke:#000000;stroke-width:0.5;"/>
      </defs>
      <g>
       <use style="stroke:#000000;stroke-width:0.5;" x="105.904522371" xlink:href="#md8ecd0d2f6" y="388.8"/>
      </g>
     </g>
     <g id="line2d_8">
      <defs>
       <path d="M 0 0 
L 0 4 
" id="m1e93b1b457" style="stroke:#000000;stroke-width:0.5;"/>
      </defs>
      <g>
       <use style="stroke:#000000;stroke-width:0.5;" x="105.904522371" xlink:href="#m1e93b1b457" y="43.2"/>
      </g>
     </g>
     <g id="text_1">
      <!-- 205 -->
      <defs>
       <path d="M 19.1875 8.296875 
L 53.609375 8.296875 
L 53.609375 0 
L 7.328125 0 
L 7.328125 8.296875 
Q 12.9375 14.109375 22.625 23.890625 
Q 32.328125 33.6875 34.8125 36.53125 
Q 39.546875 41.84375 41.421875 45.53125 
Q 43.3125 49.21875 43.3125 52.78125 
Q 43.3125 58.59375 39.234375 62.25 
Q 35.15625 65.921875 28.609375 65.921875 
Q 23.96875 65.921875 18.8125 64.3125 
Q 13.671875 62.703125 7.8125 59.421875 
L 7.8125 69.390625 
Q 13.765625 71.78125 18.9375 73 
Q 24.125 74.21875 28.421875 74.21875 
Q 39.75 74.21875 46.484375 68.546875 
Q 53.21875 62.890625 53.21875 53.421875 
Q 53.21875 48.921875 51.53125 44.890625 
Q 49.859375 40.875 45.40625 35.40625 
Q 44.1875 33.984375 37.640625 27.21875 
Q 31.109375 20.453125 19.1875 8.296875 
" id="BitstreamVeraSans-Roman-32"/>
       <path d="M 31.78125 66.40625 
Q 24.171875 66.40625 20.328125 58.90625 
Q 16.5 51.421875 16.5 36.375 
Q 16.5 21.390625 20.328125 13.890625 
Q 24.171875 6.390625 31.78125 6.390625 
Q 39.453125 6.390625 43.28125 13.890625 
Q 47.125 21.390625 47.125 36.375 
Q 47.125 51.421875 43.28125 58.90625 
Q 39.453125 66.40625 31.78125 66.40625 
M 31.78125 74.21875 
Q 44.046875 74.21875 50.515625 64.515625 
Q 56.984375 54.828125 56.984375 36.375 
Q 56.984375 17.96875 50.515625 8.265625 
Q 44.046875 -1.421875 31.78125 -1.421875 
Q 19.53125 -1.421875 13.0625 8.265625 
Q 6.59375 17.96875 6.59375 36.375 
Q 6.59375 54.828125 13.0625 64.515625 
Q 19.53125 74.21875 31.78125 74.21875 
" id="BitstreamVeraSans-Roman-30"/>
       <path d="M 10.796875 72.90625 
L 49.515625 72.90625 
L 49.515625 64.59375 
L 19.828125 64.59375 
L 19.828125 46.734375 
Q 21.96875 47.46875 24.109375 47.828125 
Q 26.265625 48.1875 28.421875 48.1875 
Q 40.625 48.1875 47.75 41.5 
Q 54.890625 34.8125 54.890625 23.390625 
Q 54.890625 11.625 47.5625 5.09375 
Q 40.234375 -1.421875 26.90625 -1.421875 
Q 22.3125 -1.421875 17.546875 -0.640625 
Q 12.796875 0.140625 7.71875 1.703125 
L 7.71875 11.625 
Q 12.109375 9.234375 16.796875 8.0625 
Q 21.484375 6.890625 26.703125 6.890625 
Q 35.15625 6.890625 40.078125 11.328125 
Q 45.015625 15.765625 45.015625 23.390625 
Q 45.015625 31 40.078125 35.4375 
Q 35.15625 39.890625 26.703125 39.890625 
Q 22.75 39.890625 18.8125 39.015625 
Q 14.890625 38.140625 10.796875 36.28125 
z
" id="BitstreamVeraSans-Roman-35"/>
      </defs>
      <g transform="translate(94.4520223709 401.918125)scale(0.12 -0.12)">
       <use xlink:href="#BitstreamVeraSans-Roman-32"/>
       <use x="63.623046875" xlink:href="#BitstreamVeraSans-Roman-30"/>
       <use x="127.24609375" xlink:href="#BitstreamVeraSans-Roman-35"/>
      </g>
     </g>
    </g>
    <g id="xtick_2">
     <g id="line2d_9">
      <g>
       <use style="stroke:#000000;stroke-width:0.5;" x="181.684890101" xlink:href="#md8ecd0d2f6" y="388.8"/>
      </g>
     </g>
     <g id="line2d_10">
      <g>
       <use style="stroke:#000000;stroke-width:0.5;" x="181.684890101" xlink:href="#m1e93b1b457" y="43.2"/>
      </g>
     </g>
     <g id="text_2">
      <!-- 206 -->
      <defs>
       <path d="M 33.015625 40.375 
Q 26.375 40.375 22.484375 35.828125 
Q 18.609375 31.296875 18.609375 23.390625 
Q 18.609375 15.53125 22.484375 10.953125 
Q 26.375 6.390625 33.015625 6.390625 
Q 39.65625 6.390625 43.53125 10.953125 
Q 47.40625 15.53125 47.40625 23.390625 
Q 47.40625 31.296875 43.53125 35.828125 
Q 39.65625 40.375 33.015625 40.375 
M 52.59375 71.296875 
L 52.59375 62.3125 
Q 48.875 64.0625 45.09375 64.984375 
Q 41.3125 65.921875 37.59375 65.921875 
Q 27.828125 65.921875 22.671875 59.328125 
Q 17.53125 52.734375 16.796875 39.40625 
Q 19.671875 43.65625 24.015625 45.921875 
Q 28.375 48.1875 33.59375 48.1875 
Q 44.578125 48.1875 50.953125 41.515625 
Q 57.328125 34.859375 57.328125 23.390625 
Q 57.328125 12.15625 50.6875 5.359375 
Q 44.046875 -1.421875 33.015625 -1.421875 
Q 20.359375 -1.421875 13.671875 8.265625 
Q 6.984375 17.96875 6.984375 36.375 
Q 6.984375 53.65625 15.1875 63.9375 
Q 23.390625 74.21875 37.203125 74.21875 
Q 40.921875 74.21875 44.703125 73.484375 
Q 48.484375 72.75 52.59375 71.296875 
" id="BitstreamVeraSans-Roman-36"/>
      </defs>
      <g transform="translate(170.232390101 401.918125)scale(0.12 -0.12)">
       <use xlink:href="#BitstreamVeraSans-Roman-32"/>
       <use x="63.623046875" xlink:href="#BitstreamVeraSans-Roman-30"/>
       <use x="127.24609375" xlink:href="#BitstreamVeraSans-Roman-36"/>
      </g>
     </g>
    </g>
    <g id="xtick_3">
     <g id="line2d_11">
      <g>
       <use style="stroke:#000000;stroke-width:0.5;" x="257.465257831" xlink:href="#md8ecd0d2f6" y="388.8"/>
      </g>
     </g>
     <g id="line2d_12">
      <g>
       <use style="stroke:#000000;stroke-width:0.5;" x="257.465257831" xlink:href="#m1e93b1b457" y="43.2"/>
      </g>
     </g>
     <g id="text_3">
      <!-- 207 -->
      <defs>
       <path d="M 8.203125 72.90625 
L 55.078125 72.90625 
L 55.078125 68.703125 
L 28.609375 0 
L 18.3125 0 
L 43.21875 64.59375 
L 8.203125 64.59375 
z
" id="BitstreamVeraSans-Roman-37"/>
      </defs>
      <g transform="translate(246.012757831 401.918125)scale(0.12 -0.12)">
       <use xlink:href="#BitstreamVeraSans-Roman-32"/>
       <use x="63.623046875" xlink:href="#BitstreamVeraSans-Roman-30"/>
       <use x="127.24609375" xlink:href="#BitstreamVeraSans-Roman-37"/>
      </g>
     </g>
    </g>
    <g id="xtick_4">
     <g id="line2d_13">
      <g>
       <use style="stroke:#000000;stroke-width:0.5;" x="333.245625561" xlink:href="#md8ecd0d2f6" y="388.8"/>
      </g>
     </g>
     <g id="line2d_14">
      <g>
       <use style="stroke:#000000;stroke-width:0.5;" x="333.245625561" xlink:href="#m1e93b1b457" y="43.2"/>
      </g>
     </g>
     <g id="text_4">
      <!-- 208 -->
      <defs>
       <path d="M 31.78125 34.625 
Q 24.75 34.625 20.71875 30.859375 
Q 16.703125 27.09375 16.703125 20.515625 
Q 16.703125 13.921875 20.71875 10.15625 
Q 24.75 6.390625 31.78125 6.390625 
Q 38.8125 6.390625 42.859375 10.171875 
Q 46.921875 13.96875 46.921875 20.515625 
Q 46.921875 27.09375 42.890625 30.859375 
Q 38.875 34.625 31.78125 34.625 
M 21.921875 38.8125 
Q 15.578125 40.375 12.03125 44.71875 
Q 8.5 49.078125 8.5 55.328125 
Q 8.5 64.0625 14.71875 69.140625 
Q 20.953125 74.21875 31.78125 74.21875 
Q 42.671875 74.21875 48.875 69.140625 
Q 55.078125 64.0625 55.078125 55.328125 
Q 55.078125 49.078125 51.53125 44.71875 
Q 48 40.375 41.703125 38.8125 
Q 48.828125 37.15625 52.796875 32.3125 
Q 56.78125 27.484375 56.78125 20.515625 
Q 56.78125 9.90625 50.3125 4.234375 
Q 43.84375 -1.421875 31.78125 -1.421875 
Q 19.734375 -1.421875 13.25 4.234375 
Q 6.78125 9.90625 6.78125 20.515625 
Q 6.78125 27.484375 10.78125 32.3125 
Q 14.796875 37.15625 21.921875 38.8125 
M 18.3125 54.390625 
Q 18.3125 48.734375 21.84375 45.5625 
Q 25.390625 42.390625 31.78125 42.390625 
Q 38.140625 42.390625 41.71875 45.5625 
Q 45.3125 48.734375 45.3125 54.390625 
Q 45.3125 60.0625 41.71875 63.234375 
Q 38.140625 66.40625 31.78125 66.40625 
Q 25.390625 66.40625 21.84375 63.234375 
Q 18.3125 60.0625 18.3125 54.390625 
" id="BitstreamVeraSans-Roman-38"/>
      </defs>
      <g transform="translate(321.793125561 401.918125)scale(0.12 -0.12)">
       <use xlink:href="#BitstreamVeraSans-Roman-32"/>
       <use x="63.623046875" xlink:href="#BitstreamVeraSans-Roman-30"/>
       <use x="127.24609375" xlink:href="#BitstreamVeraSans-Roman-38"/>
      </g>
     </g>
    </g>
    <g id="xtick_5">
     <g id="line2d_15">
      <g>
       <use style="stroke:#000000;stroke-width:0.5;" x="409.025993292" xlink:href="#md8ecd0d2f6" y="388.8"/>
      </g>
     </g>
     <g id="line2d_16">
      <g>
       <use style="stroke:#000000;stroke-width:0.5;" x="409.025993292" xlink:href="#m1e93b1b457" y="43.2"/>
      </g>
     </g>
     <g id="text_5">
      <!-- 209 -->
      <defs>
       <path d="M 10.984375 1.515625 
L 10.984375 10.5 
Q 14.703125 8.734375 18.5 7.8125 
Q 22.3125 6.890625 25.984375 6.890625 
Q 35.75 6.890625 40.890625 13.453125 
Q 46.046875 20.015625 46.78125 33.40625 
Q 43.953125 29.203125 39.59375 26.953125 
Q 35.25 24.703125 29.984375 24.703125 
Q 19.046875 24.703125 12.671875 31.3125 
Q 6.296875 37.9375 6.296875 49.421875 
Q 6.296875 60.640625 12.9375 67.421875 
Q 19.578125 74.21875 30.609375 74.21875 
Q 43.265625 74.21875 49.921875 64.515625 
Q 56.59375 54.828125 56.59375 36.375 
Q 56.59375 19.140625 48.40625 8.859375 
Q 40.234375 -1.421875 26.421875 -1.421875 
Q 22.703125 -1.421875 18.890625 -0.6875 
Q 15.09375 0.046875 10.984375 1.515625 
M 30.609375 32.421875 
Q 37.25 32.421875 41.125 36.953125 
Q 45.015625 41.5 45.015625 49.421875 
Q 45.015625 57.28125 41.125 61.84375 
Q 37.25 66.40625 30.609375 66.40625 
Q 23.96875 66.40625 20.09375 61.84375 
Q 16.21875 57.28125 16.21875 49.421875 
Q 16.21875 41.5 20.09375 36.953125 
Q 23.96875 32.421875 30.609375 32.421875 
" id="BitstreamVeraSans-Roman-39"/>
      </defs>
      <g transform="translate(397.573493292 401.918125)scale(0.12 -0.12)">
       <use xlink:href="#BitstreamVeraSans-Roman-32"/>
       <use x="63.623046875" xlink:href="#BitstreamVeraSans-Roman-30"/>
       <use x="127.24609375" xlink:href="#BitstreamVeraSans-Roman-39"/>
      </g>
     </g>
    </g>
    <g id="xtick_6">
     <g id="line2d_17">
      <g>
       <use style="stroke:#000000;stroke-width:0.5;" x="484.806361022" xlink:href="#md8ecd0d2f6" y="388.8"/>
      </g>
     </g>
     <g id="line2d_18">
      <g>
       <use style="stroke:#000000;stroke-width:0.5;" x="484.806361022" xlink:href="#m1e93b1b457" y="43.2"/>
      </g>
     </g>
     <g id="text_6">
      <!-- 210 -->
      <defs>
       <path d="M 12.40625 8.296875 
L 28.515625 8.296875 
L 28.515625 63.921875 
L 10.984375 60.40625 
L 10.984375 69.390625 
L 28.421875 72.90625 
L 38.28125 72.90625 
L 38.28125 8.296875 
L 54.390625 8.296875 
L 54.390625 0 
L 12.40625 0 
z
" id="BitstreamVeraSans-Roman-31"/>
      </defs>
      <g transform="translate(473.353861022 401.918125)scale(0.12 -0.12)">
       <use xlink:href="#BitstreamVeraSans-Roman-32"/>
       <use x="63.623046875" xlink:href="#BitstreamVeraSans-Roman-31"/>
       <use x="127.24609375" xlink:href="#BitstreamVeraSans-Roman-30"/>
      </g>
     </g>
    </g>
    <g id="text_7">
     <!-- Time (s) -->
     <defs>
      <path id="BitstreamVeraSans-Roman-20"/>
      <path d="M 8.015625 75.875 
L 15.828125 75.875 
Q 23.140625 64.359375 26.78125 53.3125 
Q 30.421875 42.28125 30.421875 31.390625 
Q 30.421875 20.453125 26.78125 9.375 
Q 23.140625 -1.703125 15.828125 -13.1875 
L 8.015625 -13.1875 
Q 14.5 -2 17.703125 9.0625 
Q 20.90625 20.125 20.90625 31.390625 
Q 20.90625 42.671875 17.703125 53.65625 
Q 14.5 64.65625 8.015625 75.875 
" id="BitstreamVeraSans-Roman-29"/>
      <path d="M 31 75.875 
Q 24.46875 64.65625 21.28125 53.65625 
Q 18.109375 42.671875 18.109375 31.390625 
Q 18.109375 20.125 21.3125 9.0625 
Q 24.515625 -2 31 -13.1875 
L 23.1875 -13.1875 
Q 15.875 -1.703125 12.234375 9.375 
Q 8.59375 20.453125 8.59375 31.390625 
Q 8.59375 42.28125 12.203125 53.3125 
Q 15.828125 64.359375 23.1875 75.875 
z
" id="BitstreamVeraSans-Roman-28"/>
      <path d="M 9.421875 54.6875 
L 18.40625 54.6875 
L 18.40625 0 
L 9.421875 0 
z
M 9.421875 75.984375 
L 18.40625 75.984375 
L 18.40625 64.59375 
L 9.421875 64.59375 
z
" id="BitstreamVeraSans-Roman-69"/>
      <path d="M 52 44.1875 
Q 55.375 50.25 60.0625 53.125 
Q 64.75 56 71.09375 56 
Q 79.640625 56 84.28125 50.015625 
Q 88.921875 44.046875 88.921875 33.015625 
L 88.921875 0 
L 79.890625 0 
L 79.890625 32.71875 
Q 79.890625 40.578125 77.09375 44.375 
Q 74.3125 48.1875 68.609375 48.1875 
Q 61.625 48.1875 57.5625 43.546875 
Q 53.515625 38.921875 53.515625 30.90625 
L 53.515625 0 
L 44.484375 0 
L 44.484375 32.71875 
Q 44.484375 40.625 41.703125 44.40625 
Q 38.921875 48.1875 33.109375 48.1875 
Q 26.21875 48.1875 22.15625 43.53125 
Q 18.109375 38.875 18.109375 30.90625 
L 18.109375 0 
L 9.078125 0 
L 9.078125 54.6875 
L 18.109375 54.6875 
L 18.109375 46.1875 
Q 21.1875 51.21875 25.484375 53.609375 
Q 29.78125 56 35.6875 56 
Q 41.65625 56 45.828125 52.96875 
Q 50 49.953125 52 44.1875 
" id="BitstreamVeraSans-Roman-6d"/>
      <path d="M 56.203125 29.59375 
L 56.203125 25.203125 
L 14.890625 25.203125 
Q 15.484375 15.921875 20.484375 11.0625 
Q 25.484375 6.203125 34.421875 6.203125 
Q 39.59375 6.203125 44.453125 7.46875 
Q 49.3125 8.734375 54.109375 11.28125 
L 54.109375 2.78125 
Q 49.265625 0.734375 44.1875 -0.34375 
Q 39.109375 -1.421875 33.890625 -1.421875 
Q 20.796875 -1.421875 13.15625 6.1875 
Q 5.515625 13.8125 5.515625 26.8125 
Q 5.515625 40.234375 12.765625 48.109375 
Q 20.015625 56 32.328125 56 
Q 43.359375 56 49.78125 48.890625 
Q 56.203125 41.796875 56.203125 29.59375 
M 47.21875 32.234375 
Q 47.125 39.59375 43.09375 43.984375 
Q 39.0625 48.390625 32.421875 48.390625 
Q 24.90625 48.390625 20.390625 44.140625 
Q 15.875 39.890625 15.1875 32.171875 
z
" id="BitstreamVeraSans-Roman-65"/>
      <path d="M -0.296875 72.90625 
L 61.375 72.90625 
L 61.375 64.59375 
L 35.5 64.59375 
L 35.5 0 
L 25.59375 0 
L 25.59375 64.59375 
L -0.296875 64.59375 
z
" id="BitstreamVeraSans-Roman-54"/>
      <path d="M 44.28125 53.078125 
L 44.28125 44.578125 
Q 40.484375 46.53125 36.375 47.5 
Q 32.28125 48.484375 27.875 48.484375 
Q 21.1875 48.484375 17.84375 46.4375 
Q 14.5 44.390625 14.5 40.28125 
Q 14.5 37.15625 16.890625 35.375 
Q 19.28125 33.59375 26.515625 31.984375 
L 29.59375 31.296875 
Q 39.15625 29.25 43.1875 25.515625 
Q 47.21875 21.78125 47.21875 15.09375 
Q 47.21875 7.46875 41.1875 3.015625 
Q 35.15625 -1.421875 24.609375 -1.421875 
Q 20.21875 -1.421875 15.453125 -0.5625 
Q 10.6875 0.296875 5.421875 2 
L 5.421875 11.28125 
Q 10.40625 8.6875 15.234375 7.390625 
Q 20.0625 6.109375 24.8125 6.109375 
Q 31.15625 6.109375 34.5625 8.28125 
Q 37.984375 10.453125 37.984375 14.40625 
Q 37.984375 18.0625 35.515625 20.015625 
Q 33.0625 21.96875 24.703125 23.78125 
L 21.578125 24.515625 
Q 13.234375 26.265625 9.515625 29.90625 
Q 5.8125 33.546875 5.8125 39.890625 
Q 5.8125 47.609375 11.28125 51.796875 
Q 16.75 56 26.8125 56 
Q 31.78125 56 36.171875 55.265625 
Q 40.578125 54.546875 44.28125 53.078125 
" id="BitstreamVeraSans-Roman-73"/>
     </defs>
     <g transform="translate(271.081875 418.531875)scale(0.12 -0.12)">
      <use xlink:href="#BitstreamVeraSans-Roman-54"/>
      <use x="61.037109375" xlink:href="#BitstreamVeraSans-Roman-69"/>
      <use x="88.8203125" xlink:href="#BitstreamVeraSans-Roman-6d"/>
      <use x="186.232421875" xlink:href="#BitstreamVeraSans-Roman-65"/>
      <use x="247.755859375" xlink:href="#BitstreamVeraSans-Roman-20"/>
      <use x="279.54296875" xlink:href="#BitstreamVeraSans-Roman-28"/>
      <use x="318.556640625" xlink:href="#BitstreamVeraSans-Roman-73"/>
      <use x="370.65625" xlink:href="#BitstreamVeraSans-Roman-29"/>
     </g>
    </g>
   </g>
   <g id="matplotlib.axis_2">
    <g id="ytick_1">
     <g id="line2d_19">
      <defs>
       <path d="M 0 0 
L 4 0 
" id="m0b94fbc864" style="stroke:#000000;stroke-width:0.5;"/>
      </defs>
      <g>
       <use style="stroke:#000000;stroke-width:0.5;" x="72.1125" xlink:href="#m0b94fbc864" y="379.589791253"/>
      </g>
     </g>
     <g id="line2d_20">
      <defs>
       <path d="M 0 0 
L -4 0 
" id="mcb38cb96c8" style="stroke:#000000;stroke-width:0.5;"/>
      </defs>
      <g>
       <use style="stroke:#000000;stroke-width:0.5;" x="519.21" xlink:href="#mcb38cb96c8" y="379.589791253"/>
      </g>
     </g>
     <g id="text_8">
      <!-- −6 -->
      <defs>
       <path d="M 10.59375 35.5 
L 73.1875 35.5 
L 73.1875 27.203125 
L 10.59375 27.203125 
z
" id="BitstreamVeraSans-Roman-2212"/>
      </defs>
      <g transform="translate(50.421875 382.901041253)scale(0.12 -0.12)">
       <use xlink:href="#BitstreamVeraSans-Roman-2212"/>
       <use x="83.7890625" xlink:href="#BitstreamVeraSans-Roman-36"/>
      </g>
     </g>
    </g>
    <g id="ytick_2">
     <g id="line2d_21">
      <g>
       <use style="stroke:#000000;stroke-width:0.5;" x="72.1125" xlink:href="#m0b94fbc864" y="324.591310393"/>
      </g>
     </g>
     <g id="line2d_22">
      <g>
       <use style="stroke:#000000;stroke-width:0.5;" x="519.21" xlink:href="#mcb38cb96c8" y="324.591310393"/>
      </g>
     </g>
     <g id="text_9">
      <!-- −4 -->
      <defs>
       <path d="M 37.796875 64.3125 
L 12.890625 25.390625 
L 37.796875 25.390625 
z
M 35.203125 72.90625 
L 47.609375 72.90625 
L 47.609375 25.390625 
L 58.015625 25.390625 
L 58.015625 17.1875 
L 47.609375 17.1875 
L 47.609375 0 
L 37.796875 0 
L 37.796875 17.1875 
L 4.890625 17.1875 
L 4.890625 26.703125 
z
" id="BitstreamVeraSans-Roman-34"/>
      </defs>
      <g transform="translate(50.421875 327.902560393)scale(0.12 -0.12)">
       <use xlink:href="#BitstreamVeraSans-Roman-2212"/>
       <use x="83.7890625" xlink:href="#BitstreamVeraSans-Roman-34"/>
      </g>
     </g>
    </g>
    <g id="ytick_3">
     <g id="line2d_23">
      <g>
       <use style="stroke:#000000;stroke-width:0.5;" x="72.1125" xlink:href="#m0b94fbc864" y="269.592829534"/>
      </g>
     </g>
     <g id="line2d_24">
      <g>
       <use style="stroke:#000000;stroke-width:0.5;" x="519.21" xlink:href="#mcb38cb96c8" y="269.592829534"/>
      </g>
     </g>
     <g id="text_10">
      <!-- −2 -->
      <g transform="translate(50.421875 272.904079534)scale(0.12 -0.12)">
       <use xlink:href="#BitstreamVeraSans-Roman-2212"/>
       <use x="83.7890625" xlink:href="#BitstreamVeraSans-Roman-32"/>
      </g>
     </g>
    </g>
    <g id="ytick_4">
     <g id="line2d_25">
      <g>
       <use style="stroke:#000000;stroke-width:0.5;" x="72.1125" xlink:href="#m0b94fbc864" y="214.594348675"/>
      </g>
     </g>
     <g id="line2d_26">
      <g>
       <use style="stroke:#000000;stroke-width:0.5;" x="519.21" xlink:href="#mcb38cb96c8" y="214.594348675"/>
      </g>
     </g>
     <g id="text_11">
      <!-- 0 -->
      <g transform="translate(60.4775 217.905598675)scale(0.12 -0.12)">
       <use xlink:href="#BitstreamVeraSans-Roman-30"/>
      </g>
     </g>
    </g>
    <g id="ytick_5">
     <g id="line2d_27">
      <g>
       <use style="stroke:#000000;stroke-width:0.5;" x="72.1125" xlink:href="#m0b94fbc864" y="159.595867816"/>
      </g>
     </g>
     <g id="line2d_28">
      <g>
       <use style="stroke:#000000;stroke-width:0.5;" x="519.21" xlink:href="#mcb38cb96c8" y="159.595867816"/>
      </g>
     </g>
     <g id="text_12">
      <!-- 2 -->
      <g transform="translate(60.4775 162.907117816)scale(0.12 -0.12)">
       <use xlink:href="#BitstreamVeraSans-Roman-32"/>
      </g>
     </g>
    </g>
    <g id="ytick_6">
     <g id="line2d_29">
      <g>
       <use style="stroke:#000000;stroke-width:0.5;" x="72.1125" xlink:href="#m0b94fbc864" y="104.597386957"/>
      </g>
     </g>
     <g id="line2d_30">
      <g>
       <use style="stroke:#000000;stroke-width:0.5;" x="519.21" xlink:href="#mcb38cb96c8" y="104.597386957"/>
      </g>
     </g>
     <g id="text_13">
      <!-- 4 -->
      <g transform="translate(60.4775 107.908636957)scale(0.12 -0.12)">
       <use xlink:href="#BitstreamVeraSans-Roman-34"/>
      </g>
     </g>
    </g>
    <g id="ytick_7">
     <g id="line2d_31">
      <g>
       <use style="stroke:#000000;stroke-width:0.5;" x="72.1125" xlink:href="#m0b94fbc864" y="49.5989060976"/>
      </g>
     </g>
     <g id="line2d_32">
      <g>
       <use style="stroke:#000000;stroke-width:0.5;" x="519.21" xlink:href="#mcb38cb96c8" y="49.5989060976"/>
      </g>
     </g>
     <g id="text_14">
      <!-- 6 -->
      <g transform="translate(60.4775 52.9101560976)scale(0.12 -0.12)">
       <use xlink:href="#BitstreamVeraSans-Roman-36"/>
      </g>
     </g>
    </g>
    <g id="text_15">
     <!-- Motor position (rad) -->
     <defs>
      <path d="M 9.8125 72.90625 
L 24.515625 72.90625 
L 43.109375 23.296875 
L 61.8125 72.90625 
L 76.515625 72.90625 
L 76.515625 0 
L 66.890625 0 
L 66.890625 64.015625 
L 48.09375 14.015625 
L 38.1875 14.015625 
L 19.390625 64.015625 
L 19.390625 0 
L 9.8125 0 
z
" id="BitstreamVeraSans-Roman-4d"/>
      <path d="M 54.890625 33.015625 
L 54.890625 0 
L 45.90625 0 
L 45.90625 32.71875 
Q 45.90625 40.484375 42.875 44.328125 
Q 39.84375 48.1875 33.796875 48.1875 
Q 26.515625 48.1875 22.3125 43.546875 
Q 18.109375 38.921875 18.109375 30.90625 
L 18.109375 0 
L 9.078125 0 
L 9.078125 54.6875 
L 18.109375 54.6875 
L 18.109375 46.1875 
Q 21.34375 51.125 25.703125 53.5625 
Q 30.078125 56 35.796875 56 
Q 45.21875 56 50.046875 50.171875 
Q 54.890625 44.34375 54.890625 33.015625 
" id="BitstreamVeraSans-Roman-6e"/>
      <path d="M 34.28125 27.484375 
Q 23.390625 27.484375 19.1875 25 
Q 14.984375 22.515625 14.984375 16.5 
Q 14.984375 11.71875 18.140625 8.90625 
Q 21.296875 6.109375 26.703125 6.109375 
Q 34.1875 6.109375 38.703125 11.40625 
Q 43.21875 16.703125 43.21875 25.484375 
L 43.21875 27.484375 
z
M 52.203125 31.203125 
L 52.203125 0 
L 43.21875 0 
L 43.21875 8.296875 
Q 40.140625 3.328125 35.546875 0.953125 
Q 30.953125 -1.421875 24.3125 -1.421875 
Q 15.921875 -1.421875 10.953125 3.296875 
Q 6 8.015625 6 15.921875 
Q 6 25.140625 12.171875 29.828125 
Q 18.359375 34.515625 30.609375 34.515625 
L 43.21875 34.515625 
L 43.21875 35.40625 
Q 43.21875 41.609375 39.140625 45 
Q 35.0625 48.390625 27.6875 48.390625 
Q 23 48.390625 18.546875 47.265625 
Q 14.109375 46.140625 10.015625 43.890625 
L 10.015625 52.203125 
Q 14.9375 54.109375 19.578125 55.046875 
Q 24.21875 56 28.609375 56 
Q 40.484375 56 46.34375 49.84375 
Q 52.203125 43.703125 52.203125 31.203125 
" id="BitstreamVeraSans-Roman-61"/>
      <path d="M 30.609375 48.390625 
Q 23.390625 48.390625 19.1875 42.75 
Q 14.984375 37.109375 14.984375 27.296875 
Q 14.984375 17.484375 19.15625 11.84375 
Q 23.34375 6.203125 30.609375 6.203125 
Q 37.796875 6.203125 41.984375 11.859375 
Q 46.1875 17.53125 46.1875 27.296875 
Q 46.1875 37.015625 41.984375 42.703125 
Q 37.796875 48.390625 30.609375 48.390625 
M 30.609375 56 
Q 42.328125 56 49.015625 48.375 
Q 55.71875 40.765625 55.71875 27.296875 
Q 55.71875 13.875 49.015625 6.21875 
Q 42.328125 -1.421875 30.609375 -1.421875 
Q 18.84375 -1.421875 12.171875 6.21875 
Q 5.515625 13.875 5.515625 27.296875 
Q 5.515625 40.765625 12.171875 48.375 
Q 18.84375 56 30.609375 56 
" id="BitstreamVeraSans-Roman-6f"/>
      <path d="M 45.40625 46.390625 
L 45.40625 75.984375 
L 54.390625 75.984375 
L 54.390625 0 
L 45.40625 0 
L 45.40625 8.203125 
Q 42.578125 3.328125 38.25 0.953125 
Q 33.9375 -1.421875 27.875 -1.421875 
Q 17.96875 -1.421875 11.734375 6.484375 
Q 5.515625 14.40625 5.515625 27.296875 
Q 5.515625 40.1875 11.734375 48.09375 
Q 17.96875 56 27.875 56 
Q 33.9375 56 38.25 53.625 
Q 42.578125 51.265625 45.40625 46.390625 
M 14.796875 27.296875 
Q 14.796875 17.390625 18.875 11.75 
Q 22.953125 6.109375 30.078125 6.109375 
Q 37.203125 6.109375 41.296875 11.75 
Q 45.40625 17.390625 45.40625 27.296875 
Q 45.40625 37.203125 41.296875 42.84375 
Q 37.203125 48.484375 30.078125 48.484375 
Q 22.953125 48.484375 18.875 42.84375 
Q 14.796875 37.203125 14.796875 27.296875 
" id="BitstreamVeraSans-Roman-64"/>
      <path d="M 18.3125 70.21875 
L 18.3125 54.6875 
L 36.8125 54.6875 
L 36.8125 47.703125 
L 18.3125 47.703125 
L 18.3125 18.015625 
Q 18.3125 11.328125 20.140625 9.421875 
Q 21.96875 7.515625 27.59375 7.515625 
L 36.8125 7.515625 
L 36.8125 0 
L 27.59375 0 
Q 17.1875 0 13.234375 3.875 
Q 9.28125 7.765625 9.28125 18.015625 
L 9.28125 47.703125 
L 2.6875 47.703125 
L 2.6875 54.6875 
L 9.28125 54.6875 
L 9.28125 70.21875 
z
" id="BitstreamVeraSans-Roman-74"/>
      <path d="M 41.109375 46.296875 
Q 39.59375 47.171875 37.8125 47.578125 
Q 36.03125 48 33.890625 48 
Q 26.265625 48 22.1875 43.046875 
Q 18.109375 38.09375 18.109375 28.8125 
L 18.109375 0 
L 9.078125 0 
L 9.078125 54.6875 
L 18.109375 54.6875 
L 18.109375 46.1875 
Q 20.953125 51.171875 25.484375 53.578125 
Q 30.03125 56 36.53125 56 
Q 37.453125 56 38.578125 55.875 
Q 39.703125 55.765625 41.0625 55.515625 
z
" id="BitstreamVeraSans-Roman-72"/>
      <path d="M 18.109375 8.203125 
L 18.109375 -20.796875 
L 9.078125 -20.796875 
L 9.078125 54.6875 
L 18.109375 54.6875 
L 18.109375 46.390625 
Q 20.953125 51.265625 25.265625 53.625 
Q 29.59375 56 35.59375 56 
Q 45.5625 56 51.78125 48.09375 
Q 58.015625 40.1875 58.015625 27.296875 
Q 58.015625 14.40625 51.78125 6.484375 
Q 45.5625 -1.421875 35.59375 -1.421875 
Q 29.59375 -1.421875 25.265625 0.953125 
Q 20.953125 3.328125 18.109375 8.203125 
M 48.6875 27.296875 
Q 48.6875 37.203125 44.609375 42.84375 
Q 40.53125 48.484375 33.40625 48.484375 
Q 26.265625 48.484375 22.1875 42.84375 
Q 18.109375 37.203125 18.109375 27.296875 
Q 18.109375 17.390625 22.1875 11.75 
Q 26.265625 6.109375 33.40625 6.109375 
Q 40.53125 6.109375 44.609375 11.75 
Q 48.6875 17.390625 48.6875 27.296875 
" id="BitstreamVeraSans-Roman-70"/>
     </defs>
     <g transform="translate(42.92625 275.551875)rotate(-90.0)scale(0.12 -0.12)">
      <use xlink:href="#BitstreamVeraSans-Roman-4d"/>
      <use x="86.279296875" xlink:href="#BitstreamVeraSans-Roman-6f"/>
      <use x="147.4609375" xlink:href="#BitstreamVeraSans-Roman-74"/>
      <use x="186.669921875" xlink:href="#BitstreamVeraSans-Roman-6f"/>
      <use x="247.8515625" xlink:href="#BitstreamVeraSans-Roman-72"/>
      <use x="288.96484375" xlink:href="#BitstreamVeraSans-Roman-20"/>
      <use x="320.751953125" xlink:href="#BitstreamVeraSans-Roman-70"/>
      <use x="384.228515625" xlink:href="#BitstreamVeraSans-Roman-6f"/>
      <use x="445.41015625" xlink:href="#BitstreamVeraSans-Roman-73"/>
      <use x="497.509765625" xlink:href="#BitstreamVeraSans-Roman-69"/>
      <use x="525.29296875" xlink:href="#BitstreamVeraSans-Roman-74"/>
      <use x="564.501953125" xlink:href="#BitstreamVeraSans-Roman-69"/>
      <use x="592.28515625" xlink:href="#BitstreamVeraSans-Roman-6f"/>
      <use x="653.466796875" xlink:href="#BitstreamVeraSans-Roman-6e"/>
      <use x="716.845703125" xlink:href="#BitstreamVeraSans-Roman-20"/>
      <use x="748.6328125" xlink:href="#BitstreamVeraSans-Roman-28"/>
      <use x="787.646484375" xlink:href="#BitstreamVeraSans-Roman-72"/>
      <use x="828.759765625" xlink:href="#BitstreamVeraSans-Roman-61"/>
      <use x="890.0390625" xlink:href="#BitstreamVeraSans-Roman-64"/>
      <use x="953.515625" xlink:href="#BitstreamVeraSans-Roman-29"/>
     </g>
    </g>
   </g>
   <g id="legend_1">
    <g id="patch_7">
     <path d="M 77.1105 383.802 
L 514.212 383.802 
L 514.212 366.131677 
L 77.1105 366.131677 
z
" style="fill:#ffffff;stroke:#000000;stroke-linejoin:miter;"/>
    </g>
    <g id="line2d_33">
     <path d="M 84.1077 374.226875 
L 98.1021 374.226875 
" style="fill:none;stroke:#b4656f;stroke-linecap:square;"/>
    </g>
    <g id="line2d_34"/>
    <g id="text_16">
     <!-- Muscle 1 -->
     <defs>
      <path d="M 8.5 21.578125 
L 8.5 54.6875 
L 17.484375 54.6875 
L 17.484375 21.921875 
Q 17.484375 14.15625 20.5 10.265625 
Q 23.53125 6.390625 29.59375 6.390625 
Q 36.859375 6.390625 41.078125 11.03125 
Q 45.3125 15.671875 45.3125 23.6875 
L 45.3125 54.6875 
L 54.296875 54.6875 
L 54.296875 0 
L 45.3125 0 
L 45.3125 8.40625 
Q 42.046875 3.421875 37.71875 1 
Q 33.40625 -1.421875 27.6875 -1.421875 
Q 18.265625 -1.421875 13.375 4.4375 
Q 8.5 10.296875 8.5 21.578125 
" id="BitstreamVeraSans-Roman-75"/>
      <path d="M 9.421875 75.984375 
L 18.40625 75.984375 
L 18.40625 0 
L 9.421875 0 
z
" id="BitstreamVeraSans-Roman-6c"/>
      <path d="M 48.78125 52.59375 
L 48.78125 44.1875 
Q 44.96875 46.296875 41.140625 47.34375 
Q 37.3125 48.390625 33.40625 48.390625 
Q 24.65625 48.390625 19.8125 42.84375 
Q 14.984375 37.3125 14.984375 27.296875 
Q 14.984375 17.28125 19.8125 11.734375 
Q 24.65625 6.203125 33.40625 6.203125 
Q 37.3125 6.203125 41.140625 7.25 
Q 44.96875 8.296875 48.78125 10.40625 
L 48.78125 2.09375 
Q 45.015625 0.34375 40.984375 -0.53125 
Q 36.96875 -1.421875 32.421875 -1.421875 
Q 20.0625 -1.421875 12.78125 6.34375 
Q 5.515625 14.109375 5.515625 27.296875 
Q 5.515625 40.671875 12.859375 48.328125 
Q 20.21875 56 33.015625 56 
Q 37.15625 56 41.109375 55.140625 
Q 45.0625 54.296875 48.78125 52.59375 
" id="BitstreamVeraSans-Roman-63"/>
     </defs>
     <g transform="translate(109.0977 377.725475)scale(0.09996 -0.09996)">
      <use xlink:href="#BitstreamVeraSans-Roman-4d"/>
      <use x="86.279296875" xlink:href="#BitstreamVeraSans-Roman-75"/>
      <use x="149.658203125" xlink:href="#BitstreamVeraSans-Roman-73"/>
      <use x="201.7578125" xlink:href="#BitstreamVeraSans-Roman-63"/>
      <use x="256.73828125" xlink:href="#BitstreamVeraSans-Roman-6c"/>
      <use x="284.521484375" xlink:href="#BitstreamVeraSans-Roman-65"/>
      <use x="346.044921875" xlink:href="#BitstreamVeraSans-Roman-20"/>
      <use x="377.83203125" xlink:href="#BitstreamVeraSans-Roman-31"/>
     </g>
    </g>
    <g id="line2d_35">
     <path d="M 155.496505 374.226875 
L 169.490905 374.226875 
" style="fill:none;stroke:#f3d34a;stroke-linecap:square;"/>
    </g>
    <g id="line2d_36"/>
    <g id="text_17">
     <!-- Muscle 2 -->
     <g transform="translate(180.486505 377.725475)scale(0.09996 -0.09996)">
      <use xlink:href="#BitstreamVeraSans-Roman-4d"/>
      <use x="86.279296875" xlink:href="#BitstreamVeraSans-Roman-75"/>
      <use x="149.658203125" xlink:href="#BitstreamVeraSans-Roman-73"/>
      <use x="201.7578125" xlink:href="#BitstreamVeraSans-Roman-63"/>
      <use x="256.73828125" xlink:href="#BitstreamVeraSans-Roman-6c"/>
      <use x="284.521484375" xlink:href="#BitstreamVeraSans-Roman-65"/>
      <use x="346.044921875" xlink:href="#BitstreamVeraSans-Roman-20"/>
      <use x="377.83203125" xlink:href="#BitstreamVeraSans-Roman-32"/>
     </g>
    </g>
    <g id="line2d_37">
     <path d="M 226.88531 374.226875 
L 240.87971 374.226875 
" style="fill:none;stroke:#a11692;stroke-linecap:square;"/>
    </g>
    <g id="line2d_38"/>
    <g id="text_18">
     <!-- Muscle 6 -->
     <g transform="translate(251.87531 377.725475)scale(0.09996 -0.09996)">
      <use xlink:href="#BitstreamVeraSans-Roman-4d"/>
      <use x="86.279296875" xlink:href="#BitstreamVeraSans-Roman-75"/>
      <use x="149.658203125" xlink:href="#BitstreamVeraSans-Roman-73"/>
      <use x="201.7578125" xlink:href="#BitstreamVeraSans-Roman-63"/>
      <use x="256.73828125" xlink:href="#BitstreamVeraSans-Roman-6c"/>
      <use x="284.521484375" xlink:href="#BitstreamVeraSans-Roman-65"/>
      <use x="346.044921875" xlink:href="#BitstreamVeraSans-Roman-20"/>
      <use x="377.83203125" xlink:href="#BitstreamVeraSans-Roman-36"/>
     </g>
    </g>
    <g id="line2d_39">
     <path d="M 298.274115 374.226875 
L 312.268515 374.226875 
" style="fill:none;stroke:#f75c03;stroke-linecap:square;"/>
    </g>
    <g id="line2d_40"/>
    <g id="text_19">
     <!-- Muscle 5 -->
     <g transform="translate(323.264115 377.725475)scale(0.09996 -0.09996)">
      <use xlink:href="#BitstreamVeraSans-Roman-4d"/>
      <use x="86.279296875" xlink:href="#BitstreamVeraSans-Roman-75"/>
      <use x="149.658203125" xlink:href="#BitstreamVeraSans-Roman-73"/>
      <use x="201.7578125" xlink:href="#BitstreamVeraSans-Roman-63"/>
      <use x="256.73828125" xlink:href="#BitstreamVeraSans-Roman-6c"/>
      <use x="284.521484375" xlink:href="#BitstreamVeraSans-Roman-65"/>
      <use x="346.044921875" xlink:href="#BitstreamVeraSans-Roman-20"/>
      <use x="377.83203125" xlink:href="#BitstreamVeraSans-Roman-35"/>
     </g>
    </g>
    <g id="line2d_41">
     <path d="M 369.66292 374.226875 
L 383.65732 374.226875 
" style="fill:none;stroke:#2274a5;stroke-linecap:square;"/>
    </g>
    <g id="line2d_42"/>
    <g id="text_20">
     <!-- Muscle 4 -->
     <g transform="translate(394.65292 377.725475)scale(0.09996 -0.09996)">
      <use xlink:href="#BitstreamVeraSans-Roman-4d"/>
      <use x="86.279296875" xlink:href="#BitstreamVeraSans-Roman-75"/>
      <use x="149.658203125" xlink:href="#BitstreamVeraSans-Roman-73"/>
      <use x="201.7578125" xlink:href="#BitstreamVeraSans-Roman-63"/>
      <use x="256.73828125" xlink:href="#BitstreamVeraSans-Roman-6c"/>
      <use x="284.521484375" xlink:href="#BitstreamVeraSans-Roman-65"/>
      <use x="346.044921875" xlink:href="#BitstreamVeraSans-Roman-20"/>
      <use x="377.83203125" xlink:href="#BitstreamVeraSans-Roman-34"/>
     </g>
    </g>
    <g id="line2d_43">
     <path d="M 441.051725 374.226875 
L 455.046125 374.226875 
" style="fill:none;stroke:#4e937a;stroke-linecap:square;"/>
    </g>
    <g id="line2d_44"/>
    <g id="text_21">
     <!-- Muscle 3 -->
     <defs>
      <path d="M 40.578125 39.3125 
Q 47.65625 37.796875 51.625 33 
Q 55.609375 28.21875 55.609375 21.1875 
Q 55.609375 10.40625 48.1875 4.484375 
Q 40.765625 -1.421875 27.09375 -1.421875 
Q 22.515625 -1.421875 17.65625 -0.515625 
Q 12.796875 0.390625 7.625 2.203125 
L 7.625 11.71875 
Q 11.71875 9.328125 16.59375 8.109375 
Q 21.484375 6.890625 26.8125 6.890625 
Q 36.078125 6.890625 40.9375 10.546875 
Q 45.796875 14.203125 45.796875 21.1875 
Q 45.796875 27.640625 41.28125 31.265625 
Q 36.765625 34.90625 28.71875 34.90625 
L 20.21875 34.90625 
L 20.21875 43.015625 
L 29.109375 43.015625 
Q 36.375 43.015625 40.234375 45.921875 
Q 44.09375 48.828125 44.09375 54.296875 
Q 44.09375 59.90625 40.109375 62.90625 
Q 36.140625 65.921875 28.71875 65.921875 
Q 24.65625 65.921875 20.015625 65.03125 
Q 15.375 64.15625 9.8125 62.3125 
L 9.8125 71.09375 
Q 15.4375 72.65625 20.34375 73.4375 
Q 25.25 74.21875 29.59375 74.21875 
Q 40.828125 74.21875 47.359375 69.109375 
Q 53.90625 64.015625 53.90625 55.328125 
Q 53.90625 49.265625 50.4375 45.09375 
Q 46.96875 40.921875 40.578125 39.3125 
" id="BitstreamVeraSans-Roman-33"/>
     </defs>
     <g transform="translate(466.041725 377.725475)scale(0.09996 -0.09996)">
      <use xlink:href="#BitstreamVeraSans-Roman-4d"/>
      <use x="86.279296875" xlink:href="#BitstreamVeraSans-Roman-75"/>
      <use x="149.658203125" xlink:href="#BitstreamVeraSans-Roman-73"/>
      <use x="201.7578125" xlink:href="#BitstreamVeraSans-Roman-63"/>
      <use x="256.73828125" xlink:href="#BitstreamVeraSans-Roman-6c"/>
      <use x="284.521484375" xlink:href="#BitstreamVeraSans-Roman-65"/>
      <use x="346.044921875" xlink:href="#BitstreamVeraSans-Roman-20"/>
      <use x="377.83203125" xlink:href="#BitstreamVeraSans-Roman-33"/>
     </g>
    </g>
   </g>
  </g>
 </g>
 <defs>
  <clipPath id="p7d8a9f0ce0">
   <rect height="345.6" width="447.0975" x="72.1125" y="43.2"/>
  </clipPath>
 </defs>
</svg>
