<?xml version="1.0" encoding="utf-8" standalone="no"?>
<!DOCTYPE svg PUBLIC "-//W3C//DTD SVG 1.1//EN"
  "http://www.w3.org/Graphics/SVG/1.1/DTD/svg11.dtd">
<!-- Created with matplotlib (http://matplotlib.org/) -->
<svg height="432pt" version="1.1" viewBox="0 0 576 432" width="576pt" xmlns="http://www.w3.org/2000/svg" xmlns:xlink="http://www.w3.org/1999/xlink">
 <defs>
  <style type="text/css">
*{stroke-linecap:butt;stroke-linejoin:round;stroke-miterlimit:100000;}
  </style>
 </defs>
 <g id="figure_1">
  <g id="patch_1">
   <path d="M 0 432 
L 576.9 432 
L 576.9 0 
L 0 0 
z
" style="fill:#ffffff;"/>
  </g>
  <g id="axes_1">
   <g id="patch_2">
    <path d="M 72.1125 388.8 
L 519.21 388.8 
L 519.21 43.2 
L 72.1125 43.2 
z
" style="fill:#ffffff;"/>
   </g>
   <g id="line2d_1">
    <path clip-path="url(#p5f2b1a1326)" d="M 71.526248 202.483429 
L 86.451342 230.412803 
L 116.316602 286.128461 
L 126.26702 304.667326 
L 128.7582 309.324842 
L 131.243535 310.736878 
L 133.743318 310.560766 
L 136.223343 306.46146 
L 138.710547 306.352963 
L 141.198493 306.073072 
L 143.691037 304.895327 
L 146.182958 303.164089 
L 148.665801 298.659098 
L 151.150899 294.842828 
L 153.647745 292.554953 
L 156.044225 291.098889 
L 158.629511 286.681954 
L 190.983992 225.936116 
L 193.466093 222.294384 
L 195.960151 219.190422 
L 198.449906 217.940346 
L 200.927172 215.855313 
L 203.418767 215.850596 
L 205.902885 215.611587 
L 208.403084 214.839528 
L 210.886253 214.790783 
L 213.376632 215.300248 
L 218.351485 216.161935 
L 220.845454 216.792477 
L 223.333845 217.610137 
L 225.821642 218.294141 
L 228.298937 219.121235 
L 233.292897 221.291179 
L 238.266237 223.657675 
L 240.755577 224.432879 
L 243.242752 225.388912 
L 245.733783 226.71132 
L 248.209773 227.714526 
L 250.713798 228.549482 
L 253.195217 229.558978 
L 255.690758 230.220968 
L 263.148454 232.716403 
L 265.643521 234.177184 
L 268.132831 236.133278 
L 270.616178 239.880361 
L 273.101276 241.059678 
L 275.593553 242.555052 
L 278.085682 244.438815 
L 280.566894 247.295907 
L 283.063592 248.953241 
L 288.044912 253.390618 
L 290.522208 255.371871 
L 297.991623 260.273112 
L 300.49194 260.93353 
L 302.973774 260.505831 
L 305.460711 260.36903 
L 310.435921 259.55137 
L 312.924549 258.6488 
L 317.902043 256.136068 
L 320.402568 255.191042 
L 322.882474 254.78064 
L 325.366029 253.617047 
L 330.34999 250.788258 
L 332.836719 249.82908 
L 335.32778 248.393458 
L 340.301477 244.78632 
L 342.795623 243.517375 
L 345.288316 241.877338 
L 347.772879 239.781298 
L 350.258304 237.97144 
L 352.740286 236.332975 
L 355.228351 234.474371 
L 357.727719 232.239959 
L 362.700169 228.277453 
L 365.193277 226.112227 
L 367.586404 223.844793 
L 377.629268 215.059667 
L 382.606139 210.908471 
L 390.068552 205.338949 
L 395.060168 202.077744 
L 397.545206 200.326065 
L 400.031758 198.035045 
L 402.52095 195.35092 
L 405.008955 191.584967 
L 407.509717 189.319106 
L 409.990127 186.862981 
L 412.466206 183.826633 
L 414.958691 179.9569 
L 417.45352 177.076222 
L 419.944966 173.914079 
L 422.430094 170.961069 
L 424.913204 167.714016 
L 427.407558 165.25003 
L 429.893457 162.514014 
L 432.396859 160.309477 
L 434.875519 159.079843 
L 439.854348 157.883229 
L 442.342057 157.713407 
L 444.836173 157.880084 
L 447.223515 158.620695 
L 449.803432 159.63648 
L 457.28151 163.031341 
L 459.756906 164.820758 
L 462.246513 166.76899 
L 464.732738 168.545828 
L 467.221248 170.173286 
L 469.724413 172.355808 
L 472.201976 175.074528 
L 474.687578 177.461465 
L 477.178253 179.35938 
L 479.671331 181.788773 
L 482.162926 185.112875 
L 484.640577 187.874049 
L 487.142437 190.220104 
L 489.624005 193.158962 
L 492.112366 196.901328 
L 494.605771 200.412549 
L 497.085795 203.459904 
L 499.583858 207.043456 
L 507.047369 218.946696 
L 509.530598 222.921781 
L 516.998974 235.549909 
L 519.487424 239.576883 
L 519.487424 239.576883 
" style="fill:none;stroke:#b4656f;stroke-linecap:square;"/>
   </g>
   <g id="line2d_2">
    <path clip-path="url(#p5f2b1a1326)" d="M 71.526248 259.760503 
L 74.007282 256.411242 
L 76.412128 253.140603 
L 81.481859 246.714111 
L 86.451342 240.402405 
L 93.916574 231.392423 
L 98.898459 225.679811 
L 111.335073 211.737138 
L 133.743318 187.15388 
L 141.198493 178.722548 
L 146.182958 173.327566 
L 156.044225 163.246763 
L 161.113482 158.460308 
L 163.600923 156.056074 
L 166.093171 154.876757 
L 168.571089 159.974551 
L 171.069864 163.344253 
L 173.558551 168.407455 
L 178.536163 174.81665 
L 181.025237 179.76192 
L 183.516683 183.87695 
L 186.000179 188.551763 
L 188.498212 190.85379 
L 190.983992 193.671572 
L 193.466093 196.111972 
L 195.960151 199.857483 
L 198.449906 201.305685 
L 200.927172 203.631298 
L 203.418767 205.427005 
L 205.902885 207.72117 
L 208.403084 209.636381 
L 215.864697 214.767196 
L 220.845454 217.658882 
L 223.333845 218.992297 
L 230.792757 223.429674 
L 233.292897 224.607418 
L 235.676679 225.954985 
L 238.266237 227.115433 
L 240.755577 228.43784 
L 243.242752 229.447336 
L 245.733783 230.217823 
L 255.690758 233.832823 
L 260.657868 235.276307 
L 263.148454 236.345555 
L 265.643521 237.877094 
L 268.132831 239.878789 
L 270.616178 242.941868 
L 273.101276 244.180937 
L 275.593553 245.787954 
L 278.085682 247.891855 
L 280.566894 250.605857 
L 283.063592 252.258473 
L 285.711892 254.708308 
L 288.044912 256.579491 
L 290.522208 258.733711 
L 293.012497 260.424065 
L 295.50516 262.391166 
L 297.991623 263.910126 
L 300.49194 264.701055 
L 302.973774 264.468337 
L 305.460711 264.488778 
L 308.166271 264.079948 
L 310.435921 263.605076 
L 312.924549 262.625457 
L 315.421603 261.23229 
L 320.402568 258.801325 
L 322.882474 258.147197 
L 325.366029 256.920707 
L 327.854034 255.466216 
L 330.34999 253.838758 
L 332.836719 252.898449 
L 335.32778 251.443958 
L 340.301477 247.393397 
L 342.795623 246.126024 
L 345.288316 244.489132 
L 347.772879 242.161947 
L 350.258304 240.15868 
L 352.740286 238.520215 
L 355.228351 236.529528 
L 357.727719 234.164604 
L 365.193277 227.517973 
L 367.586404 225.077573 
L 380.119083 213.245091 
L 385.095776 208.920928 
L 390.068552 204.736711 
L 397.545206 199.096431 
L 400.031758 196.692196 
L 405.008955 191.254758 
L 412.466206 182.672475 
L 417.45352 177.387561 
L 427.407558 167.269021 
L 434.875519 159.946248 
L 439.854348 154.845308 
L 442.342057 153.599949 
L 444.836173 153.672281 
L 447.223515 153.895565 
L 449.803432 154.722659 
L 454.777128 156.780961 
L 457.28151 157.998016 
L 459.756906 159.779571 
L 462.246513 161.724658 
L 467.221248 165.165119 
L 469.724413 167.451422 
L 472.201976 170.262914 
L 474.687578 172.734762 
L 477.178253 174.701863 
L 479.671331 177.247616 
L 482.162926 180.647194 
L 484.640577 183.603349 
L 487.142437 186.062618 
L 489.624005 189.131987 
L 492.112366 193.088203 
L 494.605771 196.70792 
L 497.085795 199.994284 
L 499.583858 203.779106 
L 504.551887 212.433721 
L 507.047369 216.558186 
L 512.018721 225.450237 
L 516.998974 234.534124 
L 519.487424 238.93848 
L 519.487424 238.93848 
" style="fill:none;stroke:#f3d34a;stroke-linecap:square;"/>
   </g>
   <g id="line2d_3">
    <path clip-path="url(#p5f2b1a1326)" d="M 71.526248 247.13552 
L 136.223343 128.568551 
L 138.710547 128.112548 
L 141.198493 128.353129 
L 143.691037 129.005684 
L 146.182958 130.169277 
L 148.665801 134.616089 
L 151.150899 136.097311 
L 156.044225 139.21857 
L 168.571089 161.416463 
L 171.069864 165.897868 
L 173.558551 170.610419 
L 176.044628 174.623242 
L 178.536163 177.629715 
L 181.025237 182.229051 
L 183.516683 186.362951 
L 186.000179 190.896246 
L 188.498212 193.185693 
L 190.983992 195.817929 
L 193.466093 198.000452 
L 195.960151 201.599728 
L 198.449906 203.052647 
L 200.927172 205.283914 
L 203.418767 206.993138 
L 205.902885 209.134778 
L 208.403084 211.038982 
L 213.376632 214.297042 
L 215.864697 215.801851 
L 220.845454 218.46239 
L 223.333845 219.6763 
L 230.792757 223.728434 
L 233.292897 224.767805 
L 235.676679 225.947123 
L 238.266237 226.97706 
L 240.755577 228.148515 
L 243.242752 228.989761 
L 245.733783 229.541681 
L 250.713798 231.057497 
L 253.195217 231.736783 
L 255.690758 232.598471 
L 258.172978 233.214861 
L 260.657868 233.713319 
L 263.148454 234.708662 
L 265.643521 236.18045 
L 268.132831 238.123965 
L 270.616178 241.270383 
L 273.101276 242.451272 
L 275.593553 243.92935 
L 278.085682 245.877582 
L 280.566894 248.278671 
L 283.063592 249.910846 
L 285.711892 252.304074 
L 290.522208 255.906494 
L 295.50516 259.390983 
L 297.991623 260.781005 
L 300.49194 261.389533 
L 302.973774 261.093917 
L 305.460711 261.0436 
L 310.435921 260.17405 
L 312.924549 259.269907 
L 317.902043 256.790196 
L 320.402568 255.853032 
L 322.882474 255.357719 
L 325.366029 254.315202 
L 330.34999 251.428234 
L 332.836719 250.50365 
L 335.32778 249.118345 
L 337.807182 247.157534 
L 340.301477 245.330379 
L 342.795623 244.069295 
L 345.288316 242.451272 
L 347.772879 240.265605 
L 350.258304 238.345676 
L 352.740286 236.74495 
L 355.228351 234.898926 
L 357.727719 232.626775 
L 365.193277 226.318214 
L 367.586404 223.980022 
L 382.606139 210.812553 
L 390.068552 205.018175 
L 395.060168 201.65948 
L 397.545206 199.774145 
L 400.031758 197.468973 
L 402.52095 194.732957 
L 405.008955 190.759445 
L 407.509717 188.581639 
L 409.990127 186.149101 
L 412.466206 183.041994 
L 414.958691 178.978853 
L 417.45352 176.271141 
L 419.944966 173.046102 
L 422.430094 170.063216 
L 424.913204 166.710811 
L 427.407558 164.253114 
L 429.893457 161.487222 
L 432.396859 159.259099 
L 434.875519 158.031037 
L 437.35676 157.477544 
L 439.854348 156.771526 
L 442.342057 156.664601 
L 444.836173 156.837568 
L 447.223515 157.505847 
L 449.803432 158.499619 
L 457.28151 161.897624 
L 459.756906 163.630434 
L 462.246513 165.643136 
L 464.732738 167.465574 
L 467.221248 169.017555 
L 469.724413 171.302285 
L 472.201976 174.066604 
L 474.687578 176.469267 
L 477.178253 178.397057 
L 479.671331 180.828023 
L 482.162926 184.108097 
L 484.640577 186.984058 
L 487.142437 189.336402 
L 489.624005 192.394765 
L 492.112366 196.093103 
L 494.605771 199.557151 
L 497.085795 202.708286 
L 499.583858 206.342155 
L 507.047369 218.41679 
L 512.018721 226.749058 
L 516.998974 235.27788 
L 519.487424 239.353599 
L 519.487424 239.353599 
" style="fill:none;stroke:#a11692;stroke-linecap:square;"/>
   </g>
   <g id="line2d_4">
    <path clip-path="url(#p5f2b1a1326)" d="M 71.526248 202.874963 
L 86.451342 230.342044 
L 96.415972 248.599446 
L 131.243535 312.705551 
L 133.743318 316.274951 
L 136.223343 315.504464 
L 138.710547 315.757624 
L 141.198493 315.644409 
L 143.691037 315.167965 
L 146.182958 313.985503 
L 148.665801 309.611023 
L 156.044225 305.057286 
L 166.093171 287.72447 
L 173.558551 274.027095 
L 176.044628 269.912064 
L 178.536163 266.773508 
L 181.025237 262.298393 
L 183.516683 258.107886 
L 186.000179 253.595033 
L 188.498212 251.096453 
L 190.983992 248.439058 
L 193.466093 246.20779 
L 195.960151 242.584928 
L 198.449906 241.155596 
L 200.927172 238.826838 
L 203.418767 237.106607 
L 205.902885 234.900498 
L 208.403084 232.93497 
L 215.864697 228.016431 
L 220.845454 225.266264 
L 223.333845 224.006753 
L 228.298937 221.099343 
L 230.792757 219.79266 
L 233.292897 218.765868 
L 235.676679 217.487488 
L 238.266237 216.451261 
L 240.755577 215.226344 
L 243.242752 214.344215 
L 245.733783 213.752984 
L 250.713798 212.138105 
L 253.195217 211.450957 
L 255.690758 210.523227 
L 258.172978 209.85023 
L 260.657868 209.323469 
L 263.148454 208.262083 
L 265.643521 206.944393 
L 268.132831 204.937981 
L 270.616178 201.709797 
L 273.101276 200.552494 
L 275.593553 199.083851 
L 278.085682 197.119895 
L 280.566894 194.492377 
L 283.063592 192.959265 
L 285.711892 190.435526 
L 295.50516 182.991676 
L 297.991623 181.584358 
L 300.49194 180.916078 
L 302.973774 181.269873 
L 305.460711 181.417681 
L 308.166271 181.898842 
L 310.435921 182.433466 
L 312.924549 183.409941 
L 317.902043 186.072053 
L 320.402568 187.090983 
L 322.882474 187.748255 
L 325.366029 188.938579 
L 330.34999 191.855424 
L 332.836719 192.857057 
L 335.32778 194.374445 
L 340.301477 198.063349 
L 342.795623 199.390474 
L 345.288316 201.050952 
L 347.772879 203.213034 
L 350.258304 205.115665 
L 352.740286 206.785578 
L 355.228351 208.620596 
L 360.214537 213.002938 
L 362.700169 215.026646 
L 365.193277 217.253197 
L 367.586404 219.616548 
L 382.606139 232.985287 
L 390.068552 238.839417 
L 397.545206 244.105461 
L 400.031758 246.445226 
L 402.52095 249.190677 
L 405.008955 253.161044 
L 407.509717 255.269663 
L 409.990127 257.790257 
L 412.466206 260.892647 
L 414.958691 264.999815 
L 417.45352 267.644631 
L 419.944966 270.901118 
L 422.430094 273.92017 
L 424.913204 277.2883 
L 427.407558 279.755431 
L 429.893457 282.529185 
L 432.396859 284.763598 
L 434.875519 286.032543 
L 439.854348 287.331364 
L 442.342057 287.466592 
L 444.836173 287.296771 
L 447.223515 286.669374 
L 449.803432 285.659879 
L 457.28151 282.282314 
L 459.756906 280.529063 
L 462.246513 278.522652 
L 464.732738 276.731662 
L 467.221248 275.135653 
L 469.724413 272.888661 
L 472.201976 270.114907 
L 474.687578 267.630479 
L 477.178253 265.72942 
L 479.671331 263.241847 
L 482.162926 259.917745 
L 484.640577 257.049646 
L 487.142437 254.686294 
L 489.624005 251.656235 
L 492.112366 247.880848 
L 494.605771 244.347614 
L 497.085795 241.174465 
L 499.583858 237.443106 
L 512.018721 216.987457 
L 516.998974 208.497947 
L 519.487424 204.431661 
L 519.487424 204.431661 
" style="fill:none;stroke:#f75c03;stroke-linecap:square;"/>
   </g>
   <g id="line2d_5">
    <path clip-path="url(#p5f2b1a1326)" d="M 71.526248 236.656894 
L 78.990323 223.693841 
L 93.916574 198.003597 
L 116.316602 159.922661 
L 128.7582 139.688725 
L 131.243535 135.710495 
L 133.743318 133.957244 
L 136.223343 138.334869 
L 138.710547 138.429214 
L 141.198493 138.781437 
L 143.691037 140.012644 
L 146.182958 141.754888 
L 148.665801 146.530336 
L 151.150899 150.27113 
L 153.647745 152.500826 
L 156.044225 154.088973 
L 158.629511 158.803096 
L 166.093171 173.321276 
L 181.025237 202.005413 
L 188.498212 216.52202 
L 190.983992 220.569437 
L 193.466093 221.799071 
L 195.960151 224.830702 
L 198.449906 226.068199 
L 200.927172 228.146942 
L 203.418767 228.159521 
L 205.902885 228.39224 
L 208.403084 229.032216 
L 210.886253 229.134424 
L 220.845454 226.992784 
L 223.333845 226.1594 
L 225.821642 225.48483 
L 228.298937 224.670315 
L 233.292897 222.501944 
L 235.676679 221.464145 
L 238.266237 220.160607 
L 240.755577 219.468741 
L 243.242752 218.496983 
L 245.733783 217.147845 
L 248.209773 216.103756 
L 250.713798 215.30811 
L 253.195217 214.257731 
L 255.690758 213.631907 
L 263.148454 211.123893 
L 265.643521 209.729154 
L 268.132831 207.752618 
L 270.616178 203.985093 
L 273.101276 202.741307 
L 275.593553 201.344995 
L 278.085682 199.401481 
L 280.566894 196.437464 
L 283.063592 194.880765 
L 285.711892 192.416779 
L 290.522208 188.254575 
L 293.012497 186.719891 
L 295.50516 184.777949 
L 297.991623 183.329747 
L 300.49194 182.579702 
L 302.973774 182.971235 
L 305.460711 183.131622 
L 310.435921 184.106524 
L 312.924549 184.996515 
L 317.902043 187.586296 
L 320.402568 188.559625 
L 322.882474 189.114691 
L 325.366029 190.154062 
L 330.34999 193.030024 
L 332.836719 193.990774 
L 335.32778 195.445265 
L 337.807182 197.349469 
L 340.301477 199.024099 
L 342.795623 200.266313 
L 345.288316 201.929937 
L 347.772879 204.022831 
L 350.258304 205.813821 
L 352.740286 207.445996 
L 355.228351 209.323469 
L 360.214537 213.546996 
L 362.700169 215.51567 
L 365.193277 217.679323 
L 367.586404 219.975061 
L 380.119083 230.824778 
L 382.606139 232.851631 
L 390.068552 238.405428 
L 395.060168 241.676068 
L 397.545206 243.561403 
L 400.031758 245.855568 
L 402.52095 248.555418 
L 405.008955 252.621703 
L 407.509717 254.595094 
L 409.990127 257.044928 
L 412.466206 260.068697 
L 414.958691 264.149135 
L 417.45352 266.74835 
L 419.944966 269.959237 
L 422.430094 272.857212 
L 424.913204 276.156155 
L 427.407558 278.561962 
L 429.893457 281.307412 
L 432.396859 283.463204 
L 434.875519 284.6095 
L 437.35676 285.093806 
L 439.854348 285.785673 
L 442.342057 285.832845 
L 444.836173 285.63472 
L 447.223515 284.930274 
L 452.28847 282.722593 
L 457.28151 280.463021 
L 459.756906 278.711342 
L 462.246513 276.698641 
L 464.732738 274.895072 
L 467.221248 273.36196 
L 469.724413 270.993891 
L 472.201976 268.331779 
L 474.687578 265.910248 
L 477.178253 264.031203 
L 479.671331 261.608099 
L 482.162926 258.350039 
L 484.640577 255.574713 
L 487.142437 253.205072 
L 489.624005 250.305524 
L 492.112366 246.618193 
L 494.605771 243.224904 
L 497.085795 240.133521 
L 499.583858 236.644315 
L 509.530598 220.929521 
L 519.487424 204.503993 
L 519.487424 204.503993 
" style="fill:none;stroke:#2274a5;stroke-linecap:square;"/>
   </g>
   <g id="line2d_6">
    <path clip-path="url(#p5f2b1a1326)" d="M 71.526248 228.662697 
L 78.990323 214.709017 
L 91.432485 191.721768 
L 113.829991 150.705119 
L 126.26702 128.368853 
L 128.7582 127.765043 
L 131.243535 130.782522 
L 133.743318 131.056123 
L 136.223343 134.883401 
L 138.710547 134.663261 
L 141.198493 135.09096 
L 143.691037 136.029697 
L 146.182958 137.477898 
L 148.665801 142.434175 
L 151.150899 144.786519 
L 153.647745 146.796076 
L 156.044225 148.33076 
L 158.629511 153.208416 
L 176.044628 188.896124 
L 178.536163 192.43722 
L 181.025237 197.399787 
L 183.516683 200.684578 
L 186.000179 205.397129 
L 193.466093 210.405296 
L 195.960151 213.602031 
L 198.449906 214.913432 
L 200.927172 216.998464 
L 203.418767 217.886883 
L 208.403084 220.333573 
L 210.886253 221.140226 
L 215.864697 222.185887 
L 218.351485 222.640317 
L 220.845454 222.972099 
L 225.821642 223.415522 
L 228.298937 223.778752 
L 230.792757 223.899828 
L 243.242752 223.81649 
L 248.209773 223.305452 
L 250.713798 223.288156 
L 253.195217 223.110472 
L 255.690758 223.167079 
L 263.148454 223.000402 
L 265.643521 223.016126 
L 273.101276 222.695352 
L 275.593553 222.703214 
L 288.044912 222.214191 
L 320.402568 222.016066 
L 377.629268 222.012921 
L 519.487424 222.014493 
L 519.487424 222.014493 
" style="fill:none;stroke:#4e937a;stroke-linecap:square;"/>
   </g>
   <g id="patch_3">
    <path d="M 72.1125 43.2 
L 519.21 43.2 
" style="fill:none;stroke:#000000;stroke-linecap:square;stroke-linejoin:miter;"/>
   </g>
   <g id="patch_4">
    <path d="M 519.21 388.8 
L 519.21 43.2 
" style="fill:none;stroke:#000000;stroke-linecap:square;stroke-linejoin:miter;"/>
   </g>
   <g id="patch_5">
    <path d="M 72.1125 388.8 
L 519.21 388.8 
" style="fill:none;stroke:#000000;stroke-linecap:square;stroke-linejoin:miter;"/>
   </g>
   <g id="patch_6">
    <path d="M 72.1125 388.8 
L 72.1125 43.2 
" style="fill:none;stroke:#000000;stroke-linecap:square;stroke-linejoin:miter;"/>
   </g>
   <g id="matplotlib.axis_1">
    <g id="xtick_1">
     <g id="line2d_7">
      <defs>
       <path d="M 0 0 
L 0 -4 
" id="m1b9404cfa4" style="stroke:#000000;stroke-width:0.5;"/>
      </defs>
      <g>
       <use style="stroke:#000000;stroke-width:0.5;" x="76.4997073503" xlink:href="#m1b9404cfa4" y="388.8"/>
      </g>
     </g>
     <g id="line2d_8">
      <defs>
       <path d="M 0 0 
L 0 4 
" id="md93b33715a" style="stroke:#000000;stroke-width:0.5;"/>
      </defs>
      <g>
       <use style="stroke:#000000;stroke-width:0.5;" x="76.4997073503" xlink:href="#md93b33715a" y="43.2"/>
      </g>
     </g>
     <g id="text_1">
      <!-- 116.5 -->
      <defs>
       <path d="M 10.6875 12.40625 
L 21 12.40625 
L 21 0 
L 10.6875 0 
z
" id="BitstreamVeraSans-Roman-2e"/>
       <path d="M 12.40625 8.296875 
L 28.515625 8.296875 
L 28.515625 63.921875 
L 10.984375 60.40625 
L 10.984375 69.390625 
L 28.421875 72.90625 
L 38.28125 72.90625 
L 38.28125 8.296875 
L 54.390625 8.296875 
L 54.390625 0 
L 12.40625 0 
z
" id="BitstreamVeraSans-Roman-31"/>
       <path d="M 33.015625 40.375 
Q 26.375 40.375 22.484375 35.828125 
Q 18.609375 31.296875 18.609375 23.390625 
Q 18.609375 15.53125 22.484375 10.953125 
Q 26.375 6.390625 33.015625 6.390625 
Q 39.65625 6.390625 43.53125 10.953125 
Q 47.40625 15.53125 47.40625 23.390625 
Q 47.40625 31.296875 43.53125 35.828125 
Q 39.65625 40.375 33.015625 40.375 
M 52.59375 71.296875 
L 52.59375 62.3125 
Q 48.875 64.0625 45.09375 64.984375 
Q 41.3125 65.921875 37.59375 65.921875 
Q 27.828125 65.921875 22.671875 59.328125 
Q 17.53125 52.734375 16.796875 39.40625 
Q 19.671875 43.65625 24.015625 45.921875 
Q 28.375 48.1875 33.59375 48.1875 
Q 44.578125 48.1875 50.953125 41.515625 
Q 57.328125 34.859375 57.328125 23.390625 
Q 57.328125 12.15625 50.6875 5.359375 
Q 44.046875 -1.421875 33.015625 -1.421875 
Q 20.359375 -1.421875 13.671875 8.265625 
Q 6.984375 17.96875 6.984375 36.375 
Q 6.984375 53.65625 15.1875 63.9375 
Q 23.390625 74.21875 37.203125 74.21875 
Q 40.921875 74.21875 44.703125 73.484375 
Q 48.484375 72.75 52.59375 71.296875 
" id="BitstreamVeraSans-Roman-36"/>
       <path d="M 10.796875 72.90625 
L 49.515625 72.90625 
L 49.515625 64.59375 
L 19.828125 64.59375 
L 19.828125 46.734375 
Q 21.96875 47.46875 24.109375 47.828125 
Q 26.265625 48.1875 28.421875 48.1875 
Q 40.625 48.1875 47.75 41.5 
Q 54.890625 34.8125 54.890625 23.390625 
Q 54.890625 11.625 47.5625 5.09375 
Q 40.234375 -1.421875 26.90625 -1.421875 
Q 22.3125 -1.421875 17.546875 -0.640625 
Q 12.796875 0.140625 7.71875 1.703125 
L 7.71875 11.625 
Q 12.109375 9.234375 16.796875 8.0625 
Q 21.484375 6.890625 26.703125 6.890625 
Q 35.15625 6.890625 40.078125 11.328125 
Q 45.015625 15.765625 45.015625 23.390625 
Q 45.015625 31 40.078125 35.4375 
Q 35.15625 39.890625 26.703125 39.890625 
Q 22.75 39.890625 18.8125 39.015625 
Q 14.890625 38.140625 10.796875 36.28125 
z
" id="BitstreamVeraSans-Roman-35"/>
      </defs>
      <g transform="translate(59.3228323503 401.918125)scale(0.12 -0.12)">
       <use xlink:href="#BitstreamVeraSans-Roman-31"/>
       <use x="63.623046875" xlink:href="#BitstreamVeraSans-Roman-31"/>
       <use x="127.24609375" xlink:href="#BitstreamVeraSans-Roman-36"/>
       <use x="190.869140625" xlink:href="#BitstreamVeraSans-Roman-2e"/>
       <use x="222.65625" xlink:href="#BitstreamVeraSans-Roman-35"/>
      </g>
     </g>
    </g>
    <g id="xtick_2">
     <g id="line2d_9">
      <g>
       <use style="stroke:#000000;stroke-width:0.5;" x="138.717696874" xlink:href="#m1b9404cfa4" y="388.8"/>
      </g>
     </g>
     <g id="line2d_10">
      <g>
       <use style="stroke:#000000;stroke-width:0.5;" x="138.717696874" xlink:href="#md93b33715a" y="43.2"/>
      </g>
     </g>
     <g id="text_2">
      <!-- 117.0 -->
      <defs>
       <path d="M 31.78125 66.40625 
Q 24.171875 66.40625 20.328125 58.90625 
Q 16.5 51.421875 16.5 36.375 
Q 16.5 21.390625 20.328125 13.890625 
Q 24.171875 6.390625 31.78125 6.390625 
Q 39.453125 6.390625 43.28125 13.890625 
Q 47.125 21.390625 47.125 36.375 
Q 47.125 51.421875 43.28125 58.90625 
Q 39.453125 66.40625 31.78125 66.40625 
M 31.78125 74.21875 
Q 44.046875 74.21875 50.515625 64.515625 
Q 56.984375 54.828125 56.984375 36.375 
Q 56.984375 17.96875 50.515625 8.265625 
Q 44.046875 -1.421875 31.78125 -1.421875 
Q 19.53125 -1.421875 13.0625 8.265625 
Q 6.59375 17.96875 6.59375 36.375 
Q 6.59375 54.828125 13.0625 64.515625 
Q 19.53125 74.21875 31.78125 74.21875 
" id="BitstreamVeraSans-Roman-30"/>
       <path d="M 8.203125 72.90625 
L 55.078125 72.90625 
L 55.078125 68.703125 
L 28.609375 0 
L 18.3125 0 
L 43.21875 64.59375 
L 8.203125 64.59375 
z
" id="BitstreamVeraSans-Roman-37"/>
      </defs>
      <g transform="translate(121.540821874 401.918125)scale(0.12 -0.12)">
       <use xlink:href="#BitstreamVeraSans-Roman-31"/>
       <use x="63.623046875" xlink:href="#BitstreamVeraSans-Roman-31"/>
       <use x="127.24609375" xlink:href="#BitstreamVeraSans-Roman-37"/>
       <use x="190.869140625" xlink:href="#BitstreamVeraSans-Roman-2e"/>
       <use x="222.65625" xlink:href="#BitstreamVeraSans-Roman-30"/>
      </g>
     </g>
    </g>
    <g id="xtick_3">
     <g id="line2d_11">
      <g>
       <use style="stroke:#000000;stroke-width:0.5;" x="200.935686398" xlink:href="#m1b9404cfa4" y="388.8"/>
      </g>
     </g>
     <g id="line2d_12">
      <g>
       <use style="stroke:#000000;stroke-width:0.5;" x="200.935686398" xlink:href="#md93b33715a" y="43.2"/>
      </g>
     </g>
     <g id="text_3">
      <!-- 117.5 -->
      <g transform="translate(183.758811398 401.918125)scale(0.12 -0.12)">
       <use xlink:href="#BitstreamVeraSans-Roman-31"/>
       <use x="63.623046875" xlink:href="#BitstreamVeraSans-Roman-31"/>
       <use x="127.24609375" xlink:href="#BitstreamVeraSans-Roman-37"/>
       <use x="190.869140625" xlink:href="#BitstreamVeraSans-Roman-2e"/>
       <use x="222.65625" xlink:href="#BitstreamVeraSans-Roman-35"/>
      </g>
     </g>
    </g>
    <g id="xtick_4">
     <g id="line2d_13">
      <g>
       <use style="stroke:#000000;stroke-width:0.5;" x="263.153675923" xlink:href="#m1b9404cfa4" y="388.8"/>
      </g>
     </g>
     <g id="line2d_14">
      <g>
       <use style="stroke:#000000;stroke-width:0.5;" x="263.153675923" xlink:href="#md93b33715a" y="43.2"/>
      </g>
     </g>
     <g id="text_4">
      <!-- 118.0 -->
      <defs>
       <path d="M 31.78125 34.625 
Q 24.75 34.625 20.71875 30.859375 
Q 16.703125 27.09375 16.703125 20.515625 
Q 16.703125 13.921875 20.71875 10.15625 
Q 24.75 6.390625 31.78125 6.390625 
Q 38.8125 6.390625 42.859375 10.171875 
Q 46.921875 13.96875 46.921875 20.515625 
Q 46.921875 27.09375 42.890625 30.859375 
Q 38.875 34.625 31.78125 34.625 
M 21.921875 38.8125 
Q 15.578125 40.375 12.03125 44.71875 
Q 8.5 49.078125 8.5 55.328125 
Q 8.5 64.0625 14.71875 69.140625 
Q 20.953125 74.21875 31.78125 74.21875 
Q 42.671875 74.21875 48.875 69.140625 
Q 55.078125 64.0625 55.078125 55.328125 
Q 55.078125 49.078125 51.53125 44.71875 
Q 48 40.375 41.703125 38.8125 
Q 48.828125 37.15625 52.796875 32.3125 
Q 56.78125 27.484375 56.78125 20.515625 
Q 56.78125 9.90625 50.3125 4.234375 
Q 43.84375 -1.421875 31.78125 -1.421875 
Q 19.734375 -1.421875 13.25 4.234375 
Q 6.78125 9.90625 6.78125 20.515625 
Q 6.78125 27.484375 10.78125 32.3125 
Q 14.796875 37.15625 21.921875 38.8125 
M 18.3125 54.390625 
Q 18.3125 48.734375 21.84375 45.5625 
Q 25.390625 42.390625 31.78125 42.390625 
Q 38.140625 42.390625 41.71875 45.5625 
Q 45.3125 48.734375 45.3125 54.390625 
Q 45.3125 60.0625 41.71875 63.234375 
Q 38.140625 66.40625 31.78125 66.40625 
Q 25.390625 66.40625 21.84375 63.234375 
Q 18.3125 60.0625 18.3125 54.390625 
" id="BitstreamVeraSans-Roman-38"/>
      </defs>
      <g transform="translate(245.976800923 401.918125)scale(0.12 -0.12)">
       <use xlink:href="#BitstreamVeraSans-Roman-31"/>
       <use x="63.623046875" xlink:href="#BitstreamVeraSans-Roman-31"/>
       <use x="127.24609375" xlink:href="#BitstreamVeraSans-Roman-38"/>
       <use x="190.869140625" xlink:href="#BitstreamVeraSans-Roman-2e"/>
       <use x="222.65625" xlink:href="#BitstreamVeraSans-Roman-30"/>
      </g>
     </g>
    </g>
    <g id="xtick_5">
     <g id="line2d_15">
      <g>
       <use style="stroke:#000000;stroke-width:0.5;" x="325.371665447" xlink:href="#m1b9404cfa4" y="388.8"/>
      </g>
     </g>
     <g id="line2d_16">
      <g>
       <use style="stroke:#000000;stroke-width:0.5;" x="325.371665447" xlink:href="#md93b33715a" y="43.2"/>
      </g>
     </g>
     <g id="text_5">
      <!-- 118.5 -->
      <g transform="translate(308.194790447 401.918125)scale(0.12 -0.12)">
       <use xlink:href="#BitstreamVeraSans-Roman-31"/>
       <use x="63.623046875" xlink:href="#BitstreamVeraSans-Roman-31"/>
       <use x="127.24609375" xlink:href="#BitstreamVeraSans-Roman-38"/>
       <use x="190.869140625" xlink:href="#BitstreamVeraSans-Roman-2e"/>
       <use x="222.65625" xlink:href="#BitstreamVeraSans-Roman-35"/>
      </g>
     </g>
    </g>
    <g id="xtick_6">
     <g id="line2d_17">
      <g>
       <use style="stroke:#000000;stroke-width:0.5;" x="387.589654971" xlink:href="#m1b9404cfa4" y="388.8"/>
      </g>
     </g>
     <g id="line2d_18">
      <g>
       <use style="stroke:#000000;stroke-width:0.5;" x="387.589654971" xlink:href="#md93b33715a" y="43.2"/>
      </g>
     </g>
     <g id="text_6">
      <!-- 119.0 -->
      <defs>
       <path d="M 10.984375 1.515625 
L 10.984375 10.5 
Q 14.703125 8.734375 18.5 7.8125 
Q 22.3125 6.890625 25.984375 6.890625 
Q 35.75 6.890625 40.890625 13.453125 
Q 46.046875 20.015625 46.78125 33.40625 
Q 43.953125 29.203125 39.59375 26.953125 
Q 35.25 24.703125 29.984375 24.703125 
Q 19.046875 24.703125 12.671875 31.3125 
Q 6.296875 37.9375 6.296875 49.421875 
Q 6.296875 60.640625 12.9375 67.421875 
Q 19.578125 74.21875 30.609375 74.21875 
Q 43.265625 74.21875 49.921875 64.515625 
Q 56.59375 54.828125 56.59375 36.375 
Q 56.59375 19.140625 48.40625 8.859375 
Q 40.234375 -1.421875 26.421875 -1.421875 
Q 22.703125 -1.421875 18.890625 -0.6875 
Q 15.09375 0.046875 10.984375 1.515625 
M 30.609375 32.421875 
Q 37.25 32.421875 41.125 36.953125 
Q 45.015625 41.5 45.015625 49.421875 
Q 45.015625 57.28125 41.125 61.84375 
Q 37.25 66.40625 30.609375 66.40625 
Q 23.96875 66.40625 20.09375 61.84375 
Q 16.21875 57.28125 16.21875 49.421875 
Q 16.21875 41.5 20.09375 36.953125 
Q 23.96875 32.421875 30.609375 32.421875 
" id="BitstreamVeraSans-Roman-39"/>
      </defs>
      <g transform="translate(370.412779971 401.918125)scale(0.12 -0.12)">
       <use xlink:href="#BitstreamVeraSans-Roman-31"/>
       <use x="63.623046875" xlink:href="#BitstreamVeraSans-Roman-31"/>
       <use x="127.24609375" xlink:href="#BitstreamVeraSans-Roman-39"/>
       <use x="190.869140625" xlink:href="#BitstreamVeraSans-Roman-2e"/>
       <use x="222.65625" xlink:href="#BitstreamVeraSans-Roman-30"/>
      </g>
     </g>
    </g>
    <g id="xtick_7">
     <g id="line2d_19">
      <g>
       <use style="stroke:#000000;stroke-width:0.5;" x="449.807644495" xlink:href="#m1b9404cfa4" y="388.8"/>
      </g>
     </g>
     <g id="line2d_20">
      <g>
       <use style="stroke:#000000;stroke-width:0.5;" x="449.807644495" xlink:href="#md93b33715a" y="43.2"/>
      </g>
     </g>
     <g id="text_7">
      <!-- 119.5 -->
      <g transform="translate(432.630769495 401.918125)scale(0.12 -0.12)">
       <use xlink:href="#BitstreamVeraSans-Roman-31"/>
       <use x="63.623046875" xlink:href="#BitstreamVeraSans-Roman-31"/>
       <use x="127.24609375" xlink:href="#BitstreamVeraSans-Roman-39"/>
       <use x="190.869140625" xlink:href="#BitstreamVeraSans-Roman-2e"/>
       <use x="222.65625" xlink:href="#BitstreamVeraSans-Roman-35"/>
      </g>
     </g>
    </g>
    <g id="xtick_8">
     <g id="line2d_21">
      <g>
       <use style="stroke:#000000;stroke-width:0.5;" x="512.025634019" xlink:href="#m1b9404cfa4" y="388.8"/>
      </g>
     </g>
     <g id="line2d_22">
      <g>
       <use style="stroke:#000000;stroke-width:0.5;" x="512.025634019" xlink:href="#md93b33715a" y="43.2"/>
      </g>
     </g>
     <g id="text_8">
      <!-- 120.0 -->
      <defs>
       <path d="M 19.1875 8.296875 
L 53.609375 8.296875 
L 53.609375 0 
L 7.328125 0 
L 7.328125 8.296875 
Q 12.9375 14.109375 22.625 23.890625 
Q 32.328125 33.6875 34.8125 36.53125 
Q 39.546875 41.84375 41.421875 45.53125 
Q 43.3125 49.21875 43.3125 52.78125 
Q 43.3125 58.59375 39.234375 62.25 
Q 35.15625 65.921875 28.609375 65.921875 
Q 23.96875 65.921875 18.8125 64.3125 
Q 13.671875 62.703125 7.8125 59.421875 
L 7.8125 69.390625 
Q 13.765625 71.78125 18.9375 73 
Q 24.125 74.21875 28.421875 74.21875 
Q 39.75 74.21875 46.484375 68.546875 
Q 53.21875 62.890625 53.21875 53.421875 
Q 53.21875 48.921875 51.53125 44.890625 
Q 49.859375 40.875 45.40625 35.40625 
Q 44.1875 33.984375 37.640625 27.21875 
Q 31.109375 20.453125 19.1875 8.296875 
" id="BitstreamVeraSans-Roman-32"/>
      </defs>
      <g transform="translate(494.848759019 401.918125)scale(0.12 -0.12)">
       <use xlink:href="#BitstreamVeraSans-Roman-31"/>
       <use x="63.623046875" xlink:href="#BitstreamVeraSans-Roman-32"/>
       <use x="127.24609375" xlink:href="#BitstreamVeraSans-Roman-30"/>
       <use x="190.869140625" xlink:href="#BitstreamVeraSans-Roman-2e"/>
       <use x="222.65625" xlink:href="#BitstreamVeraSans-Roman-30"/>
      </g>
     </g>
    </g>
    <g id="text_9">
     <!-- Time (s) -->
     <defs>
      <path id="BitstreamVeraSans-Roman-20"/>
      <path d="M 8.015625 75.875 
L 15.828125 75.875 
Q 23.140625 64.359375 26.78125 53.3125 
Q 30.421875 42.28125 30.421875 31.390625 
Q 30.421875 20.453125 26.78125 9.375 
Q 23.140625 -1.703125 15.828125 -13.1875 
L 8.015625 -13.1875 
Q 14.5 -2 17.703125 9.0625 
Q 20.90625 20.125 20.90625 31.390625 
Q 20.90625 42.671875 17.703125 53.65625 
Q 14.5 64.65625 8.015625 75.875 
" id="BitstreamVeraSans-Roman-29"/>
      <path d="M 31 75.875 
Q 24.46875 64.65625 21.28125 53.65625 
Q 18.109375 42.671875 18.109375 31.390625 
Q 18.109375 20.125 21.3125 9.0625 
Q 24.515625 -2 31 -13.1875 
L 23.1875 -13.1875 
Q 15.875 -1.703125 12.234375 9.375 
Q 8.59375 20.453125 8.59375 31.390625 
Q 8.59375 42.28125 12.203125 53.3125 
Q 15.828125 64.359375 23.1875 75.875 
z
" id="BitstreamVeraSans-Roman-28"/>
      <path d="M 9.421875 54.6875 
L 18.40625 54.6875 
L 18.40625 0 
L 9.421875 0 
z
M 9.421875 75.984375 
L 18.40625 75.984375 
L 18.40625 64.59375 
L 9.421875 64.59375 
z
" id="BitstreamVeraSans-Roman-69"/>
      <path d="M 52 44.1875 
Q 55.375 50.25 60.0625 53.125 
Q 64.75 56 71.09375 56 
Q 79.640625 56 84.28125 50.015625 
Q 88.921875 44.046875 88.921875 33.015625 
L 88.921875 0 
L 79.890625 0 
L 79.890625 32.71875 
Q 79.890625 40.578125 77.09375 44.375 
Q 74.3125 48.1875 68.609375 48.1875 
Q 61.625 48.1875 57.5625 43.546875 
Q 53.515625 38.921875 53.515625 30.90625 
L 53.515625 0 
L 44.484375 0 
L 44.484375 32.71875 
Q 44.484375 40.625 41.703125 44.40625 
Q 38.921875 48.1875 33.109375 48.1875 
Q 26.21875 48.1875 22.15625 43.53125 
Q 18.109375 38.875 18.109375 30.90625 
L 18.109375 0 
L 9.078125 0 
L 9.078125 54.6875 
L 18.109375 54.6875 
L 18.109375 46.1875 
Q 21.1875 51.21875 25.484375 53.609375 
Q 29.78125 56 35.6875 56 
Q 41.65625 56 45.828125 52.96875 
Q 50 49.953125 52 44.1875 
" id="BitstreamVeraSans-Roman-6d"/>
      <path d="M 56.203125 29.59375 
L 56.203125 25.203125 
L 14.890625 25.203125 
Q 15.484375 15.921875 20.484375 11.0625 
Q 25.484375 6.203125 34.421875 6.203125 
Q 39.59375 6.203125 44.453125 7.46875 
Q 49.3125 8.734375 54.109375 11.28125 
L 54.109375 2.78125 
Q 49.265625 0.734375 44.1875 -0.34375 
Q 39.109375 -1.421875 33.890625 -1.421875 
Q 20.796875 -1.421875 13.15625 6.1875 
Q 5.515625 13.8125 5.515625 26.8125 
Q 5.515625 40.234375 12.765625 48.109375 
Q 20.015625 56 32.328125 56 
Q 43.359375 56 49.78125 48.890625 
Q 56.203125 41.796875 56.203125 29.59375 
M 47.21875 32.234375 
Q 47.125 39.59375 43.09375 43.984375 
Q 39.0625 48.390625 32.421875 48.390625 
Q 24.90625 48.390625 20.390625 44.140625 
Q 15.875 39.890625 15.1875 32.171875 
z
" id="BitstreamVeraSans-Roman-65"/>
      <path d="M -0.296875 72.90625 
L 61.375 72.90625 
L 61.375 64.59375 
L 35.5 64.59375 
L 35.5 0 
L 25.59375 0 
L 25.59375 64.59375 
L -0.296875 64.59375 
z
" id="BitstreamVeraSans-Roman-54"/>
      <path d="M 44.28125 53.078125 
L 44.28125 44.578125 
Q 40.484375 46.53125 36.375 47.5 
Q 32.28125 48.484375 27.875 48.484375 
Q 21.1875 48.484375 17.84375 46.4375 
Q 14.5 44.390625 14.5 40.28125 
Q 14.5 37.15625 16.890625 35.375 
Q 19.28125 33.59375 26.515625 31.984375 
L 29.59375 31.296875 
Q 39.15625 29.25 43.1875 25.515625 
Q 47.21875 21.78125 47.21875 15.09375 
Q 47.21875 7.46875 41.1875 3.015625 
Q 35.15625 -1.421875 24.609375 -1.421875 
Q 20.21875 -1.421875 15.453125 -0.5625 
Q 10.6875 0.296875 5.421875 2 
L 5.421875 11.28125 
Q 10.40625 8.6875 15.234375 7.390625 
Q 20.0625 6.109375 24.8125 6.109375 
Q 31.15625 6.109375 34.5625 8.28125 
Q 37.984375 10.453125 37.984375 14.40625 
Q 37.984375 18.0625 35.515625 20.015625 
Q 33.0625 21.96875 24.703125 23.78125 
L 21.578125 24.515625 
Q 13.234375 26.265625 9.515625 29.90625 
Q 5.8125 33.546875 5.8125 39.890625 
Q 5.8125 47.609375 11.28125 51.796875 
Q 16.75 56 26.8125 56 
Q 31.78125 56 36.171875 55.265625 
Q 40.578125 54.546875 44.28125 53.078125 
" id="BitstreamVeraSans-Roman-73"/>
     </defs>
     <g transform="translate(271.081875 418.531875)scale(0.12 -0.12)">
      <use xlink:href="#BitstreamVeraSans-Roman-54"/>
      <use x="61.037109375" xlink:href="#BitstreamVeraSans-Roman-69"/>
      <use x="88.8203125" xlink:href="#BitstreamVeraSans-Roman-6d"/>
      <use x="186.232421875" xlink:href="#BitstreamVeraSans-Roman-65"/>
      <use x="247.755859375" xlink:href="#BitstreamVeraSans-Roman-20"/>
      <use x="279.54296875" xlink:href="#BitstreamVeraSans-Roman-28"/>
      <use x="318.556640625" xlink:href="#BitstreamVeraSans-Roman-73"/>
      <use x="370.65625" xlink:href="#BitstreamVeraSans-Roman-29"/>
     </g>
    </g>
   </g>
   <g id="matplotlib.axis_2">
    <g id="ytick_1">
     <g id="line2d_23">
      <defs>
       <path d="M 0 0 
L 4 0 
" id="ma7eba4a4db" style="stroke:#000000;stroke-width:0.5;"/>
      </defs>
      <g>
       <use style="stroke:#000000;stroke-width:0.5;" x="72.1125" xlink:href="#ma7eba4a4db" y="381.011014814"/>
      </g>
     </g>
     <g id="line2d_24">
      <defs>
       <path d="M 0 0 
L -4 0 
" id="m7477909419" style="stroke:#000000;stroke-width:0.5;"/>
      </defs>
      <g>
       <use style="stroke:#000000;stroke-width:0.5;" x="519.21" xlink:href="#m7477909419" y="381.011014814"/>
      </g>
     </g>
     <g id="text_10">
      <!-- −6 -->
      <defs>
       <path d="M 10.59375 35.5 
L 73.1875 35.5 
L 73.1875 27.203125 
L 10.59375 27.203125 
z
" id="BitstreamVeraSans-Roman-2212"/>
      </defs>
      <g transform="translate(50.421875 384.322264814)scale(0.12 -0.12)">
       <use xlink:href="#BitstreamVeraSans-Roman-2212"/>
       <use x="83.7890625" xlink:href="#BitstreamVeraSans-Roman-36"/>
      </g>
     </g>
    </g>
    <g id="ytick_2">
     <g id="line2d_25">
      <g>
       <use style="stroke:#000000;stroke-width:0.5;" x="72.1125" xlink:href="#ma7eba4a4db" y="327.956091176"/>
      </g>
     </g>
     <g id="line2d_26">
      <g>
       <use style="stroke:#000000;stroke-width:0.5;" x="519.21" xlink:href="#m7477909419" y="327.956091176"/>
      </g>
     </g>
     <g id="text_11">
      <!-- −4 -->
      <defs>
       <path d="M 37.796875 64.3125 
L 12.890625 25.390625 
L 37.796875 25.390625 
z
M 35.203125 72.90625 
L 47.609375 72.90625 
L 47.609375 25.390625 
L 58.015625 25.390625 
L 58.015625 17.1875 
L 47.609375 17.1875 
L 47.609375 0 
L 37.796875 0 
L 37.796875 17.1875 
L 4.890625 17.1875 
L 4.890625 26.703125 
z
" id="BitstreamVeraSans-Roman-34"/>
      </defs>
      <g transform="translate(50.421875 331.267341176)scale(0.12 -0.12)">
       <use xlink:href="#BitstreamVeraSans-Roman-2212"/>
       <use x="83.7890625" xlink:href="#BitstreamVeraSans-Roman-34"/>
      </g>
     </g>
    </g>
    <g id="ytick_3">
     <g id="line2d_27">
      <g>
       <use style="stroke:#000000;stroke-width:0.5;" x="72.1125" xlink:href="#ma7eba4a4db" y="274.901167538"/>
      </g>
     </g>
     <g id="line2d_28">
      <g>
       <use style="stroke:#000000;stroke-width:0.5;" x="519.21" xlink:href="#m7477909419" y="274.901167538"/>
      </g>
     </g>
     <g id="text_12">
      <!-- −2 -->
      <g transform="translate(50.421875 278.212417538)scale(0.12 -0.12)">
       <use xlink:href="#BitstreamVeraSans-Roman-2212"/>
       <use x="83.7890625" xlink:href="#BitstreamVeraSans-Roman-32"/>
      </g>
     </g>
    </g>
    <g id="ytick_4">
     <g id="line2d_29">
      <g>
       <use style="stroke:#000000;stroke-width:0.5;" x="72.1125" xlink:href="#ma7eba4a4db" y="221.8462439"/>
      </g>
     </g>
     <g id="line2d_30">
      <g>
       <use style="stroke:#000000;stroke-width:0.5;" x="519.21" xlink:href="#m7477909419" y="221.8462439"/>
      </g>
     </g>
     <g id="text_13">
      <!-- 0 -->
      <g transform="translate(60.4775 225.1574939)scale(0.12 -0.12)">
       <use xlink:href="#BitstreamVeraSans-Roman-30"/>
      </g>
     </g>
    </g>
    <g id="ytick_5">
     <g id="line2d_31">
      <g>
       <use style="stroke:#000000;stroke-width:0.5;" x="72.1125" xlink:href="#ma7eba4a4db" y="168.791320261"/>
      </g>
     </g>
     <g id="line2d_32">
      <g>
       <use style="stroke:#000000;stroke-width:0.5;" x="519.21" xlink:href="#m7477909419" y="168.791320261"/>
      </g>
     </g>
     <g id="text_14">
      <!-- 2 -->
      <g transform="translate(60.4775 172.102570261)scale(0.12 -0.12)">
       <use xlink:href="#BitstreamVeraSans-Roman-32"/>
      </g>
     </g>
    </g>
    <g id="ytick_6">
     <g id="line2d_33">
      <g>
       <use style="stroke:#000000;stroke-width:0.5;" x="72.1125" xlink:href="#ma7eba4a4db" y="115.736396623"/>
      </g>
     </g>
     <g id="line2d_34">
      <g>
       <use style="stroke:#000000;stroke-width:0.5;" x="519.21" xlink:href="#m7477909419" y="115.736396623"/>
      </g>
     </g>
     <g id="text_15">
      <!-- 4 -->
      <g transform="translate(60.4775 119.047646623)scale(0.12 -0.12)">
       <use xlink:href="#BitstreamVeraSans-Roman-34"/>
      </g>
     </g>
    </g>
    <g id="ytick_7">
     <g id="line2d_35">
      <g>
       <use style="stroke:#000000;stroke-width:0.5;" x="72.1125" xlink:href="#ma7eba4a4db" y="62.6814729848"/>
      </g>
     </g>
     <g id="line2d_36">
      <g>
       <use style="stroke:#000000;stroke-width:0.5;" x="519.21" xlink:href="#m7477909419" y="62.6814729848"/>
      </g>
     </g>
     <g id="text_16">
      <!-- 6 -->
      <g transform="translate(60.4775 65.9927229848)scale(0.12 -0.12)">
       <use xlink:href="#BitstreamVeraSans-Roman-36"/>
      </g>
     </g>
    </g>
    <g id="text_17">
     <!-- Motor position (rad) -->
     <defs>
      <path d="M 9.8125 72.90625 
L 24.515625 72.90625 
L 43.109375 23.296875 
L 61.8125 72.90625 
L 76.515625 72.90625 
L 76.515625 0 
L 66.890625 0 
L 66.890625 64.015625 
L 48.09375 14.015625 
L 38.1875 14.015625 
L 19.390625 64.015625 
L 19.390625 0 
L 9.8125 0 
z
" id="BitstreamVeraSans-Roman-4d"/>
      <path d="M 54.890625 33.015625 
L 54.890625 0 
L 45.90625 0 
L 45.90625 32.71875 
Q 45.90625 40.484375 42.875 44.328125 
Q 39.84375 48.1875 33.796875 48.1875 
Q 26.515625 48.1875 22.3125 43.546875 
Q 18.109375 38.921875 18.109375 30.90625 
L 18.109375 0 
L 9.078125 0 
L 9.078125 54.6875 
L 18.109375 54.6875 
L 18.109375 46.1875 
Q 21.34375 51.125 25.703125 53.5625 
Q 30.078125 56 35.796875 56 
Q 45.21875 56 50.046875 50.171875 
Q 54.890625 44.34375 54.890625 33.015625 
" id="BitstreamVeraSans-Roman-6e"/>
      <path d="M 34.28125 27.484375 
Q 23.390625 27.484375 19.1875 25 
Q 14.984375 22.515625 14.984375 16.5 
Q 14.984375 11.71875 18.140625 8.90625 
Q 21.296875 6.109375 26.703125 6.109375 
Q 34.1875 6.109375 38.703125 11.40625 
Q 43.21875 16.703125 43.21875 25.484375 
L 43.21875 27.484375 
z
M 52.203125 31.203125 
L 52.203125 0 
L 43.21875 0 
L 43.21875 8.296875 
Q 40.140625 3.328125 35.546875 0.953125 
Q 30.953125 -1.421875 24.3125 -1.421875 
Q 15.921875 -1.421875 10.953125 3.296875 
Q 6 8.015625 6 15.921875 
Q 6 25.140625 12.171875 29.828125 
Q 18.359375 34.515625 30.609375 34.515625 
L 43.21875 34.515625 
L 43.21875 35.40625 
Q 43.21875 41.609375 39.140625 45 
Q 35.0625 48.390625 27.6875 48.390625 
Q 23 48.390625 18.546875 47.265625 
Q 14.109375 46.140625 10.015625 43.890625 
L 10.015625 52.203125 
Q 14.9375 54.109375 19.578125 55.046875 
Q 24.21875 56 28.609375 56 
Q 40.484375 56 46.34375 49.84375 
Q 52.203125 43.703125 52.203125 31.203125 
" id="BitstreamVeraSans-Roman-61"/>
      <path d="M 30.609375 48.390625 
Q 23.390625 48.390625 19.1875 42.75 
Q 14.984375 37.109375 14.984375 27.296875 
Q 14.984375 17.484375 19.15625 11.84375 
Q 23.34375 6.203125 30.609375 6.203125 
Q 37.796875 6.203125 41.984375 11.859375 
Q 46.1875 17.53125 46.1875 27.296875 
Q 46.1875 37.015625 41.984375 42.703125 
Q 37.796875 48.390625 30.609375 48.390625 
M 30.609375 56 
Q 42.328125 56 49.015625 48.375 
Q 55.71875 40.765625 55.71875 27.296875 
Q 55.71875 13.875 49.015625 6.21875 
Q 42.328125 -1.421875 30.609375 -1.421875 
Q 18.84375 -1.421875 12.171875 6.21875 
Q 5.515625 13.875 5.515625 27.296875 
Q 5.515625 40.765625 12.171875 48.375 
Q 18.84375 56 30.609375 56 
" id="BitstreamVeraSans-Roman-6f"/>
      <path d="M 45.40625 46.390625 
L 45.40625 75.984375 
L 54.390625 75.984375 
L 54.390625 0 
L 45.40625 0 
L 45.40625 8.203125 
Q 42.578125 3.328125 38.25 0.953125 
Q 33.9375 -1.421875 27.875 -1.421875 
Q 17.96875 -1.421875 11.734375 6.484375 
Q 5.515625 14.40625 5.515625 27.296875 
Q 5.515625 40.1875 11.734375 48.09375 
Q 17.96875 56 27.875 56 
Q 33.9375 56 38.25 53.625 
Q 42.578125 51.265625 45.40625 46.390625 
M 14.796875 27.296875 
Q 14.796875 17.390625 18.875 11.75 
Q 22.953125 6.109375 30.078125 6.109375 
Q 37.203125 6.109375 41.296875 11.75 
Q 45.40625 17.390625 45.40625 27.296875 
Q 45.40625 37.203125 41.296875 42.84375 
Q 37.203125 48.484375 30.078125 48.484375 
Q 22.953125 48.484375 18.875 42.84375 
Q 14.796875 37.203125 14.796875 27.296875 
" id="BitstreamVeraSans-Roman-64"/>
      <path d="M 18.3125 70.21875 
L 18.3125 54.6875 
L 36.8125 54.6875 
L 36.8125 47.703125 
L 18.3125 47.703125 
L 18.3125 18.015625 
Q 18.3125 11.328125 20.140625 9.421875 
Q 21.96875 7.515625 27.59375 7.515625 
L 36.8125 7.515625 
L 36.8125 0 
L 27.59375 0 
Q 17.1875 0 13.234375 3.875 
Q 9.28125 7.765625 9.28125 18.015625 
L 9.28125 47.703125 
L 2.6875 47.703125 
L 2.6875 54.6875 
L 9.28125 54.6875 
L 9.28125 70.21875 
z
" id="BitstreamVeraSans-Roman-74"/>
      <path d="M 41.109375 46.296875 
Q 39.59375 47.171875 37.8125 47.578125 
Q 36.03125 48 33.890625 48 
Q 26.265625 48 22.1875 43.046875 
Q 18.109375 38.09375 18.109375 28.8125 
L 18.109375 0 
L 9.078125 0 
L 9.078125 54.6875 
L 18.109375 54.6875 
L 18.109375 46.1875 
Q 20.953125 51.171875 25.484375 53.578125 
Q 30.03125 56 36.53125 56 
Q 37.453125 56 38.578125 55.875 
Q 39.703125 55.765625 41.0625 55.515625 
z
" id="BitstreamVeraSans-Roman-72"/>
      <path d="M 18.109375 8.203125 
L 18.109375 -20.796875 
L 9.078125 -20.796875 
L 9.078125 54.6875 
L 18.109375 54.6875 
L 18.109375 46.390625 
Q 20.953125 51.265625 25.265625 53.625 
Q 29.59375 56 35.59375 56 
Q 45.5625 56 51.78125 48.09375 
Q 58.015625 40.1875 58.015625 27.296875 
Q 58.015625 14.40625 51.78125 6.484375 
Q 45.5625 -1.421875 35.59375 -1.421875 
Q 29.59375 -1.421875 25.265625 0.953125 
Q 20.953125 3.328125 18.109375 8.203125 
M 48.6875 27.296875 
Q 48.6875 37.203125 44.609375 42.84375 
Q 40.53125 48.484375 33.40625 48.484375 
Q 26.265625 48.484375 22.1875 42.84375 
Q 18.109375 37.203125 18.109375 27.296875 
Q 18.109375 17.390625 22.1875 11.75 
Q 26.265625 6.109375 33.40625 6.109375 
Q 40.53125 6.109375 44.609375 11.75 
Q 48.6875 17.390625 48.6875 27.296875 
" id="BitstreamVeraSans-Roman-70"/>
     </defs>
     <g transform="translate(42.92625 275.551875)rotate(-90.0)scale(0.12 -0.12)">
      <use xlink:href="#BitstreamVeraSans-Roman-4d"/>
      <use x="86.279296875" xlink:href="#BitstreamVeraSans-Roman-6f"/>
      <use x="147.4609375" xlink:href="#BitstreamVeraSans-Roman-74"/>
      <use x="186.669921875" xlink:href="#BitstreamVeraSans-Roman-6f"/>
      <use x="247.8515625" xlink:href="#BitstreamVeraSans-Roman-72"/>
      <use x="288.96484375" xlink:href="#BitstreamVeraSans-Roman-20"/>
      <use x="320.751953125" xlink:href="#BitstreamVeraSans-Roman-70"/>
      <use x="384.228515625" xlink:href="#BitstreamVeraSans-Roman-6f"/>
      <use x="445.41015625" xlink:href="#BitstreamVeraSans-Roman-73"/>
      <use x="497.509765625" xlink:href="#BitstreamVeraSans-Roman-69"/>
      <use x="525.29296875" xlink:href="#BitstreamVeraSans-Roman-74"/>
      <use x="564.501953125" xlink:href="#BitstreamVeraSans-Roman-69"/>
      <use x="592.28515625" xlink:href="#BitstreamVeraSans-Roman-6f"/>
      <use x="653.466796875" xlink:href="#BitstreamVeraSans-Roman-6e"/>
      <use x="716.845703125" xlink:href="#BitstreamVeraSans-Roman-20"/>
      <use x="748.6328125" xlink:href="#BitstreamVeraSans-Roman-28"/>
      <use x="787.646484375" xlink:href="#BitstreamVeraSans-Roman-72"/>
      <use x="828.759765625" xlink:href="#BitstreamVeraSans-Roman-61"/>
      <use x="890.0390625" xlink:href="#BitstreamVeraSans-Roman-64"/>
      <use x="953.515625" xlink:href="#BitstreamVeraSans-Roman-29"/>
     </g>
    </g>
   </g>
   <g id="legend_1">
    <g id="patch_7">
     <path d="M 77.1105 383.802 
L 514.212 383.802 
L 514.212 366.131677 
L 77.1105 366.131677 
z
" style="fill:#ffffff;stroke:#000000;stroke-linejoin:miter;"/>
    </g>
    <g id="line2d_37">
     <path d="M 84.1077 374.226875 
L 98.1021 374.226875 
" style="fill:none;stroke:#b4656f;stroke-linecap:square;"/>
    </g>
    <g id="line2d_38"/>
    <g id="text_18">
     <!-- Muscle 1 -->
     <defs>
      <path d="M 8.5 21.578125 
L 8.5 54.6875 
L 17.484375 54.6875 
L 17.484375 21.921875 
Q 17.484375 14.15625 20.5 10.265625 
Q 23.53125 6.390625 29.59375 6.390625 
Q 36.859375 6.390625 41.078125 11.03125 
Q 45.3125 15.671875 45.3125 23.6875 
L 45.3125 54.6875 
L 54.296875 54.6875 
L 54.296875 0 
L 45.3125 0 
L 45.3125 8.40625 
Q 42.046875 3.421875 37.71875 1 
Q 33.40625 -1.421875 27.6875 -1.421875 
Q 18.265625 -1.421875 13.375 4.4375 
Q 8.5 10.296875 8.5 21.578125 
" id="BitstreamVeraSans-Roman-75"/>
      <path d="M 9.421875 75.984375 
L 18.40625 75.984375 
L 18.40625 0 
L 9.421875 0 
z
" id="BitstreamVeraSans-Roman-6c"/>
      <path d="M 48.78125 52.59375 
L 48.78125 44.1875 
Q 44.96875 46.296875 41.140625 47.34375 
Q 37.3125 48.390625 33.40625 48.390625 
Q 24.65625 48.390625 19.8125 42.84375 
Q 14.984375 37.3125 14.984375 27.296875 
Q 14.984375 17.28125 19.8125 11.734375 
Q 24.65625 6.203125 33.40625 6.203125 
Q 37.3125 6.203125 41.140625 7.25 
Q 44.96875 8.296875 48.78125 10.40625 
L 48.78125 2.09375 
Q 45.015625 0.34375 40.984375 -0.53125 
Q 36.96875 -1.421875 32.421875 -1.421875 
Q 20.0625 -1.421875 12.78125 6.34375 
Q 5.515625 14.109375 5.515625 27.296875 
Q 5.515625 40.671875 12.859375 48.328125 
Q 20.21875 56 33.015625 56 
Q 37.15625 56 41.109375 55.140625 
Q 45.0625 54.296875 48.78125 52.59375 
" id="BitstreamVeraSans-Roman-63"/>
     </defs>
     <g transform="translate(109.0977 377.725475)scale(0.09996 -0.09996)">
      <use xlink:href="#BitstreamVeraSans-Roman-4d"/>
      <use x="86.279296875" xlink:href="#BitstreamVeraSans-Roman-75"/>
      <use x="149.658203125" xlink:href="#BitstreamVeraSans-Roman-73"/>
      <use x="201.7578125" xlink:href="#BitstreamVeraSans-Roman-63"/>
      <use x="256.73828125" xlink:href="#BitstreamVeraSans-Roman-6c"/>
      <use x="284.521484375" xlink:href="#BitstreamVeraSans-Roman-65"/>
      <use x="346.044921875" xlink:href="#BitstreamVeraSans-Roman-20"/>
      <use x="377.83203125" xlink:href="#BitstreamVeraSans-Roman-31"/>
     </g>
    </g>
    <g id="line2d_39">
     <path d="M 155.496505 374.226875 
L 169.490905 374.226875 
" style="fill:none;stroke:#f3d34a;stroke-linecap:square;"/>
    </g>
    <g id="line2d_40"/>
    <g id="text_19">
     <!-- Muscle 2 -->
     <g transform="translate(180.486505 377.725475)scale(0.09996 -0.09996)">
      <use xlink:href="#BitstreamVeraSans-Roman-4d"/>
      <use x="86.279296875" xlink:href="#BitstreamVeraSans-Roman-75"/>
      <use x="149.658203125" xlink:href="#BitstreamVeraSans-Roman-73"/>
      <use x="201.7578125" xlink:href="#BitstreamVeraSans-Roman-63"/>
      <use x="256.73828125" xlink:href="#BitstreamVeraSans-Roman-6c"/>
      <use x="284.521484375" xlink:href="#BitstreamVeraSans-Roman-65"/>
      <use x="346.044921875" xlink:href="#BitstreamVeraSans-Roman-20"/>
      <use x="377.83203125" xlink:href="#BitstreamVeraSans-Roman-32"/>
     </g>
    </g>
    <g id="line2d_41">
     <path d="M 226.88531 374.226875 
L 240.87971 374.226875 
" style="fill:none;stroke:#a11692;stroke-linecap:square;"/>
    </g>
    <g id="line2d_42"/>
    <g id="text_20">
     <!-- Muscle 6 -->
     <g transform="translate(251.87531 377.725475)scale(0.09996 -0.09996)">
      <use xlink:href="#BitstreamVeraSans-Roman-4d"/>
      <use x="86.279296875" xlink:href="#BitstreamVeraSans-Roman-75"/>
      <use x="149.658203125" xlink:href="#BitstreamVeraSans-Roman-73"/>
      <use x="201.7578125" xlink:href="#BitstreamVeraSans-Roman-63"/>
      <use x="256.73828125" xlink:href="#BitstreamVeraSans-Roman-6c"/>
      <use x="284.521484375" xlink:href="#BitstreamVeraSans-Roman-65"/>
      <use x="346.044921875" xlink:href="#BitstreamVeraSans-Roman-20"/>
      <use x="377.83203125" xlink:href="#BitstreamVeraSans-Roman-36"/>
     </g>
    </g>
    <g id="line2d_43">
     <path d="M 298.274115 374.226875 
L 312.268515 374.226875 
" style="fill:none;stroke:#f75c03;stroke-linecap:square;"/>
    </g>
    <g id="line2d_44"/>
    <g id="text_21">
     <!-- Muscle 5 -->
     <g transform="translate(323.264115 377.725475)scale(0.09996 -0.09996)">
      <use xlink:href="#BitstreamVeraSans-Roman-4d"/>
      <use x="86.279296875" xlink:href="#BitstreamVeraSans-Roman-75"/>
      <use x="149.658203125" xlink:href="#BitstreamVeraSans-Roman-73"/>
      <use x="201.7578125" xlink:href="#BitstreamVeraSans-Roman-63"/>
      <use x="256.73828125" xlink:href="#BitstreamVeraSans-Roman-6c"/>
      <use x="284.521484375" xlink:href="#BitstreamVeraSans-Roman-65"/>
      <use x="346.044921875" xlink:href="#BitstreamVeraSans-Roman-20"/>
      <use x="377.83203125" xlink:href="#BitstreamVeraSans-Roman-35"/>
     </g>
    </g>
    <g id="line2d_45">
     <path d="M 369.66292 374.226875 
L 383.65732 374.226875 
" style="fill:none;stroke:#2274a5;stroke-linecap:square;"/>
    </g>
    <g id="line2d_46"/>
    <g id="text_22">
     <!-- Muscle 4 -->
     <g transform="translate(394.65292 377.725475)scale(0.09996 -0.09996)">
      <use xlink:href="#BitstreamVeraSans-Roman-4d"/>
      <use x="86.279296875" xlink:href="#BitstreamVeraSans-Roman-75"/>
      <use x="149.658203125" xlink:href="#BitstreamVeraSans-Roman-73"/>
      <use x="201.7578125" xlink:href="#BitstreamVeraSans-Roman-63"/>
      <use x="256.73828125" xlink:href="#BitstreamVeraSans-Roman-6c"/>
      <use x="284.521484375" xlink:href="#BitstreamVeraSans-Roman-65"/>
      <use x="346.044921875" xlink:href="#BitstreamVeraSans-Roman-20"/>
      <use x="377.83203125" xlink:href="#BitstreamVeraSans-Roman-34"/>
     </g>
    </g>
    <g id="line2d_47">
     <path d="M 441.051725 374.226875 
L 455.046125 374.226875 
" style="fill:none;stroke:#4e937a;stroke-linecap:square;"/>
    </g>
    <g id="line2d_48"/>
    <g id="text_23">
     <!-- Muscle 3 -->
     <defs>
      <path d="M 40.578125 39.3125 
Q 47.65625 37.796875 51.625 33 
Q 55.609375 28.21875 55.609375 21.1875 
Q 55.609375 10.40625 48.1875 4.484375 
Q 40.765625 -1.421875 27.09375 -1.421875 
Q 22.515625 -1.421875 17.65625 -0.515625 
Q 12.796875 0.390625 7.625 2.203125 
L 7.625 11.71875 
Q 11.71875 9.328125 16.59375 8.109375 
Q 21.484375 6.890625 26.8125 6.890625 
Q 36.078125 6.890625 40.9375 10.546875 
Q 45.796875 14.203125 45.796875 21.1875 
Q 45.796875 27.640625 41.28125 31.265625 
Q 36.765625 34.90625 28.71875 34.90625 
L 20.21875 34.90625 
L 20.21875 43.015625 
L 29.109375 43.015625 
Q 36.375 43.015625 40.234375 45.921875 
Q 44.09375 48.828125 44.09375 54.296875 
Q 44.09375 59.90625 40.109375 62.90625 
Q 36.140625 65.921875 28.71875 65.921875 
Q 24.65625 65.921875 20.015625 65.03125 
Q 15.375 64.15625 9.8125 62.3125 
L 9.8125 71.09375 
Q 15.4375 72.65625 20.34375 73.4375 
Q 25.25 74.21875 29.59375 74.21875 
Q 40.828125 74.21875 47.359375 69.109375 
Q 53.90625 64.015625 53.90625 55.328125 
Q 53.90625 49.265625 50.4375 45.09375 
Q 46.96875 40.921875 40.578125 39.3125 
" id="BitstreamVeraSans-Roman-33"/>
     </defs>
     <g transform="translate(466.041725 377.725475)scale(0.09996 -0.09996)">
      <use xlink:href="#BitstreamVeraSans-Roman-4d"/>
      <use x="86.279296875" xlink:href="#BitstreamVeraSans-Roman-75"/>
      <use x="149.658203125" xlink:href="#BitstreamVeraSans-Roman-73"/>
      <use x="201.7578125" xlink:href="#BitstreamVeraSans-Roman-63"/>
      <use x="256.73828125" xlink:href="#BitstreamVeraSans-Roman-6c"/>
      <use x="284.521484375" xlink:href="#BitstreamVeraSans-Roman-65"/>
      <use x="346.044921875" xlink:href="#BitstreamVeraSans-Roman-20"/>
      <use x="377.83203125" xlink:href="#BitstreamVeraSans-Roman-33"/>
     </g>
    </g>
   </g>
  </g>
 </g>
 <defs>
  <clipPath id="p5f2b1a1326">
   <rect height="345.6" width="447.0975" x="72.1125" y="43.2"/>
  </clipPath>
 </defs>
</svg>
