<?xml version="1.0" encoding="utf-8" standalone="no"?>
<!DOCTYPE svg PUBLIC "-//W3C//DTD SVG 1.1//EN"
  "http://www.w3.org/Graphics/SVG/1.1/DTD/svg11.dtd">
<!-- Created with matplotlib (http://matplotlib.org/) -->
<svg height="432pt" version="1.1" viewBox="0 0 576 432" width="576pt" xmlns="http://www.w3.org/2000/svg" xmlns:xlink="http://www.w3.org/1999/xlink">
 <defs>
  <style type="text/css">
*{stroke-linecap:butt;stroke-linejoin:round;stroke-miterlimit:100000;}
  </style>
 </defs>
 <g id="figure_1">
  <g id="patch_1">
   <path d="M 0 432 
L 576.9 432 
L 576.9 0 
L 0 0 
z
" style="fill:#ffffff;"/>
  </g>
  <g id="axes_1">
   <g id="patch_2">
    <path d="M 72.1125 388.8 
L 519.21 388.8 
L 519.21 43.2 
L 72.1125 43.2 
z
" style="fill:#ffffff;"/>
   </g>
   <g id="line2d_1">
    <path clip-path="url(#pee6d500bc6)" d="M 71.454672 135.578528 
L 87.585303 216.704346 
L 111.312329 335.284564 
L 112.262627 337.57402 
L 113.211284 337.502728 
L 115.110284 337.018264 
L 117.009397 335.882447 
L 117.95406 335.017218 
L 118.904425 333.923528 
L 120.803425 331.131785 
L 122.69971 327.623878 
L 124.599241 323.409529 
L 125.547265 321.017995 
L 127.447859 315.484738 
L 129.344868 308.932324 
L 131.242872 300.975127 
L 133.144712 291.852949 
L 150.219475 205.321876 
L 161.610181 148.573177 
L 169.203544 112.732575 
L 170.15116 108.035382 
L 171.104026 103.905288 
L 172.048666 104.153191 
L 172.997912 104.789961 
L 173.950246 105.878789 
L 174.899004 106.69379 
L 175.846191 108.505264 
L 176.797721 109.615156 
L 177.749671 111.987246 
L 178.692795 113.33532 
L 179.642154 116.51755 
L 180.594725 118.170236 
L 181.542658 120.249056 
L 182.489788 124.264111 
L 183.439712 127.532216 
L 184.388143 132.015532 
L 185.335917 135.500755 
L 192.930027 173.207919 
L 206.218522 239.919723 
L 208.116131 248.328978 
L 210.012438 255.466313 
L 210.962656 257.253482 
L 211.909582 260.234798 
L 212.85911 261.621758 
L 213.807417 263.932278 
L 214.759219 264.674366 
L 215.705839 266.422648 
L 216.654926 266.338394 
L 217.604681 268.159589 
L 218.550724 268.524152 
L 219.501452 267.717252 
L 220.447756 268.175792 
L 221.398155 268.138525 
L 222.350941 266.061326 
L 223.295265 265.701624 
L 224.247396 264.972498 
L 225.194163 261.569909 
L 226.142752 260.510245 
L 227.094238 257.271305 
L 228.046447 256.342884 
L 228.99326 252.392641 
L 229.940797 251.316775 
L 230.889149 247.079742 
L 231.837523 243.607481 
L 233.736772 240.843282 
L 234.649328 236.664579 
L 235.636846 234.623026 
L 236.584689 231.46672 
L 237.531569 230.183458 
L 238.482138 228.40439 
L 239.431101 225.196235 
L 240.381048 223.609981 
L 241.329772 221.087204 
L 242.281054 219.776397 
L 243.244045 216.835588 
L 244.18235 214.834542 
L 245.124559 213.804044 
L 246.073804 212.502959 
L 247.021149 210.608851 
L 248.919979 208.34856 
L 249.870129 207.744195 
L 251.771641 206.114193 
L 252.718476 205.798239 
L 254.580278 204.915186 
L 255.564232 204.59275 
L 257.463707 204.59275 
L 258.409378 204.728854 
L 260.308377 205.466081 
L 261.256876 206.342653 
L 262.207253 208.011542 
L 263.155197 208.973988 
L 265.055667 212.592074 
L 266.004392 214.678995 
L 266.952291 216.140488 
L 267.900304 219.165552 
L 268.848881 220.526587 
L 269.797934 223.481978 
L 270.749544 225.380947 
L 271.698077 228.17269 
L 272.648951 229.736261 
L 273.595289 233.014088 
L 274.544003 234.593861 
L 275.497026 236.491209 
L 276.442448 239.453082 
L 277.394239 241.157617 
L 280.236725 247.308201 
L 281.187272 248.693541 
L 282.138881 251.446397 
L 283.085072 253.274073 
L 284.034702 254.419612 
L 284.950257 255.067724 
L 285.934675 256.595648 
L 286.882325 257.177329 
L 287.831627 257.554854 
L 288.780092 256.986136 
L 290.67744 256.939148 
L 292.572389 255.322108 
L 293.524666 254.831163 
L 294.473991 253.815247 
L 296.373183 251.517689 
L 297.32098 250.500153 
L 298.267488 249.291424 
L 301.120869 244.958795 
L 302.064537 243.440592 
L 304.91302 237.933259 
L 307.760416 231.912297 
L 309.658058 227.678505 
L 310.610754 225.601305 
L 312.506563 220.452054 
L 313.453444 217.42051 
L 314.403086 214.828061 
L 315.316909 211.337977 
L 316.302323 208.393928 
L 317.251297 204.568446 
L 318.200995 201.284137 
L 319.148543 197.235057 
L 320.098105 193.861633 
L 321.045269 189.935694 
L 321.997908 186.486117 
L 322.945298 182.636331 
L 323.895132 179.552937 
L 324.84578 175.801988 
L 326.73824 169.500718 
L 328.638043 163.356615 
L 330.537077 158.176578 
L 331.486458 155.405899 
L 332.436099 153.140747 
L 334.333368 148.322033 
L 335.282659 146.910769 
L 336.233047 145.729585 
L 337.182643 144.177356 
L 338.129241 143.440129 
L 340.029281 143.172782 
L 340.976875 143.077186 
L 341.926527 143.342912 
L 344.771469 145.928879 
L 346.674225 149.190504 
L 348.570125 152.544484 
L 349.516779 154.470997 
L 353.317449 163.468414 
L 358.060575 177.618323 
L 361.856109 191.564076 
L 364.704161 204.333505 
L 367.55201 218.426704 
L 375.14061 256.741473 
L 377.988663 271.152247 
L 382.731847 294.845607 
L 384.630552 301.326728 
L 385.579458 304.095787 
L 386.527165 306.234557 
L 388.426164 309.789452 
L 389.37653 311.066233 
L 391.273934 312.965202 
L 392.22396 313.478831 
L 393.172029 313.493413 
L 394.122655 313.341107 
L 395.072567 312.926315 
L 396.017672 312.312229 
L 398.86844 309.050604 
L 399.81376 307.743038 
L 401.713234 304.330728 
L 403.613128 300.552234 
L 404.559941 298.411844 
L 406.424379 293.290137 
L 408.355847 287.662904 
L 410.253942 280.570937 
L 412.151381 272.753084 
L 414.050573 263.554752 
L 431.132633 178.059039 
L 433.978932 164.450304 
L 437.773526 147.644756 
L 440.625301 135.64334 
L 444.420947 120.905269 
L 447.264147 110.79796 
L 448.213494 110.488487 
L 450.112471 110.590565 
L 451.06218 110.982672 
L 452.959935 112.598092 
L 453.908457 113.537855 
L 454.860768 114.639645 
L 456.757573 117.424907 
L 458.655475 120.654126 
L 459.602379 122.600083 
L 461.502781 127.26487 
L 462.449289 129.841116 
L 464.346784 136.10674 
L 466.247639 143.323468 
L 470.041848 160.976423 
L 497.566614 300.552234 
L 501.361072 319.700707 
L 502.309458 322.312599 
L 504.205041 323.75951 
L 505.157148 324.268278 
L 507.053976 324.584232 
L 509.900219 324.649043 
L 510.849645 324.402761 
L 511.801877 323.676875 
L 512.752672 322.800304 
L 513.699395 321.570511 
L 514.648527 320.057169 
L 516.546033 316.41964 
L 518.440383 311.424315 
L 519.391054 308.624471 
L 519.391054 308.624471 
" style="fill:none;stroke:#b4656f;stroke-linecap:square;"/>
   </g>
   <g id="line2d_2">
    <path clip-path="url(#pee6d500bc6)" d="M 71.454672 303.156025 
L 75.25214 286.36992 
L 79.046779 271.079334 
L 81.891653 260.427611 
L 86.637925 243.568594 
L 89.488523 233.908483 
L 94.22778 218.862559 
L 100.872113 198.971997 
L 103.719215 190.611351 
L 111.312329 167.852893 
L 115.110284 157.214132 
L 118.904425 147.283434 
L 121.750521 140.300025 
L 125.547265 131.433851 
L 128.392964 125.215215 
L 129.344868 123.243334 
L 130.292394 121.95035 
L 131.242872 123.293563 
L 133.144712 131.770869 
L 135.037874 141.849013 
L 140.736264 173.668079 
L 147.379172 209.784128 
L 153.068591 239.956989 
L 170.15116 330.06078 
L 171.104026 331.136646 
L 172.048666 330.81097 
L 172.997912 330.75264 
L 173.950246 330.460989 
L 174.899004 329.986247 
L 175.846191 328.976812 
L 176.797721 328.302776 
L 177.749671 326.920677 
L 178.692795 326.01494 
L 179.642154 324.021995 
L 180.594725 322.994737 
L 181.542658 321.395521 
L 183.439712 315.863883 
L 184.388143 312.37542 
L 185.335917 309.441092 
L 193.880155 273.342866 
L 198.626483 255.190865 
L 202.419233 241.186782 
L 205.267648 231.123221 
L 210.012438 215.670607 
L 213.807417 203.887928 
L 221.398155 181.236409 
L 225.194163 169.795609 
L 228.99326 159.127683 
L 231.837523 151.473479 
L 232.787334 150.475386 
L 233.736772 151.851004 
L 234.649328 154.242538 
L 235.636846 155.736436 
L 238.482138 162.708503 
L 239.431101 165.822682 
L 240.381048 168.014921 
L 241.329772 171.253861 
L 242.281054 173.578964 
L 243.244045 176.769296 
L 245.124559 181.962294 
L 246.073804 184.050836 
L 247.021149 186.764805 
L 247.972137 188.926259 
L 249.870129 193.571603 
L 256.511543 210.335024 
L 257.463707 212.446249 
L 258.409378 214.87829 
L 259.361383 216.866374 
L 265.055667 231.818321 
L 266.004392 235.041058 
L 267.900304 240.371781 
L 268.848881 242.643414 
L 269.797934 245.213179 
L 271.698077 249.618721 
L 275.497026 257.149784 
L 278.337816 261.69143 
L 279.291824 262.976312 
L 280.236725 264.578769 
L 281.187272 265.700003 
L 283.085072 268.292452 
L 284.034702 268.862791 
L 284.950257 268.956767 
L 286.882325 269.478497 
L 287.831627 269.0313 
L 288.780092 268.237362 
L 289.727233 267.780443 
L 290.67744 266.806655 
L 291.626131 265.669218 
L 292.572389 264.232029 
L 293.524666 263.091352 
L 294.473991 261.668746 
L 296.373183 258.298563 
L 297.32098 256.851652 
L 299.218294 253.274073 
L 302.064537 247.727854 
L 306.809836 236.706707 
L 309.658058 229.298785 
L 310.610754 226.905631 
L 314.403086 215.273638 
L 317.251297 205.884113 
L 321.045269 194.026902 
L 327.688843 173.535216 
L 333.385628 157.883308 
L 337.182643 147.694985 
L 340.029281 139.987311 
L 340.976875 138.41888 
L 341.926527 138.550123 
L 342.875309 139.002181 
L 343.823525 139.687559 
L 344.771469 140.539827 
L 345.685417 141.957572 
L 348.570125 146.986922 
L 350.468118 151.274184 
L 352.364379 155.725094 
L 353.317449 158.118248 
L 358.060575 172.919509 
L 361.856109 187.553882 
L 364.704161 201.133451 
L 367.55201 216.09188 
L 383.682178 300.790415 
L 385.579458 306.819478 
L 386.527165 309.071668 
L 388.426164 312.78211 
L 389.37653 314.141525 
L 391.273934 316.149053 
L 392.22396 316.724252 
L 393.172029 316.832811 
L 394.122655 316.77124 
L 395.072567 316.507135 
L 396.017672 315.975683 
L 397.915518 314.10912 
L 398.86844 313.132091 
L 399.81376 311.91364 
L 401.713234 308.728169 
L 403.613128 305.246186 
L 404.559941 303.157645 
L 406.424379 298.194726 
L 408.355847 292.732761 
L 410.253942 285.989154 
L 416.896566 261.317145 
L 428.285621 221.349689 
L 434.928618 198.688448 
L 443.471577 170.997857 
L 447.264147 159.757972 
L 451.06218 149.083565 
L 456.757573 133.784878 
L 460.553117 124.008106 
L 461.502781 123.087787 
L 462.449289 125.075871 
L 463.399382 127.723409 
L 465.297466 133.802701 
L 466.247639 137.44023 
L 469.094775 150.164292 
L 470.990867 160.180865 
L 477.633367 196.410334 
L 487.090116 247.097565 
L 490.922813 267.30084 
L 501.361072 322.528097 
L 502.309458 323.952323 
L 504.205041 325.791341 
L 505.157148 326.444314 
L 507.053976 326.948221 
L 509.900219 327.267417 
L 510.849645 327.060021 
L 511.801877 326.475099 
L 512.752672 325.710327 
L 513.699395 324.640942 
L 515.594446 321.811933 
L 516.546033 320.126841 
L 518.440383 315.533346 
L 519.391054 312.991126 
L 519.391054 312.991126 
" style="fill:none;stroke:#f3d34a;stroke-linecap:square;"/>
   </g>
   <g id="line2d_3">
    <path clip-path="url(#pee6d500bc6)" d="M 71.454672 296.509634 
L 77.151253 270.933509 
L 80.944195 253.241668 
L 86.637925 225.384188 
L 112.262627 98.373651 
L 113.211284 94.214391 
L 114.157509 94.241936 
L 116.057549 95.110406 
L 117.009397 95.773101 
L 117.95406 96.652913 
L 118.904425 97.769286 
L 120.803425 100.619359 
L 122.69971 104.182356 
L 124.599241 108.500403 
L 126.495469 113.690161 
L 128.392964 119.743528 
L 130.292394 127.125526 
L 132.192276 135.813469 
L 137.886967 164.916945 
L 169.203544 326.932019 
L 170.15116 330.00245 
L 171.104026 329.88741 
L 172.048666 329.496922 
L 172.997912 329.261982 
L 174.899004 328.001404 
L 175.846191 326.88017 
L 176.797721 326.029522 
L 177.749671 324.482155 
L 178.692795 323.433833 
L 179.642154 321.280481 
L 180.594725 320.040966 
L 181.542658 318.401242 
L 183.439712 312.419167 
L 186.286713 301.399641 
L 196.727834 254.165228 
L 202.419233 226.411445 
L 217.604681 151.110536 
L 218.550724 147.14733 
L 219.501452 145.904575 
L 220.447756 143.576232 
L 221.398155 142.249223 
L 222.350941 142.250843 
L 223.295265 141.36941 
L 224.247396 141.230066 
L 226.142752 142.63971 
L 227.094238 143.822515 
L 228.046447 144.535438 
L 228.99326 146.327468 
L 229.940797 147.163533 
L 230.889149 149.835375 
L 231.837523 151.282286 
L 232.787334 152.393798 
L 233.736772 153.905519 
L 234.649328 156.580602 
L 235.636846 158.152274 
L 237.531569 162.928861 
L 238.482138 165.189152 
L 239.431101 168.347078 
L 240.381048 170.565242 
L 241.329772 173.749093 
L 242.281054 176.090398 
L 243.244045 179.254806 
L 245.124559 184.240408 
L 246.073804 186.281962 
L 247.021149 188.833903 
L 247.972137 190.922445 
L 249.870129 195.436546 
L 253.666918 204.777462 
L 254.580278 207.126868 
L 255.564232 209.21541 
L 256.511543 211.519449 
L 257.463707 213.539938 
L 258.409378 215.853698 
L 259.361383 217.692717 
L 262.207253 224.752278 
L 263.155197 227.079001 
L 264.107881 230.02467 
L 265.055667 232.019236 
L 266.004392 235.182023 
L 267.900304 240.234057 
L 271.698077 248.795618 
L 274.544003 254.024263 
L 276.442448 257.044466 
L 277.394239 258.539985 
L 279.291824 260.949341 
L 280.236725 262.397872 
L 281.187272 263.415408 
L 283.085072 265.734029 
L 284.034702 266.215253 
L 284.950257 266.224974 
L 286.882325 266.464776 
L 287.831627 265.964109 
L 288.780092 265.149108 
L 289.727233 264.590111 
L 290.67744 263.690856 
L 291.626131 262.506431 
L 292.572389 261.111369 
L 293.524666 259.970692 
L 294.473991 258.612897 
L 296.373183 255.399881 
L 297.32098 254.055049 
L 299.218294 250.587649 
L 303.014665 243.273703 
L 308.709401 230.13485 
L 312.506563 219.969211 
L 313.453444 216.830728 
L 314.403086 214.168607 
L 315.316909 210.54728 
L 316.302323 207.53842 
L 317.251297 203.575214 
L 318.200995 200.20341 
L 319.148543 196.071696 
L 320.098105 192.643182 
L 321.045269 188.517949 
L 321.997908 184.971155 
L 322.945298 181.004708 
L 323.895132 177.973164 
L 324.84578 174.099074 
L 329.586542 159.202216 
L 331.486458 153.766175 
L 334.333368 146.760083 
L 335.282659 145.330996 
L 336.233047 144.110925 
L 337.182643 142.664014 
L 338.129241 141.899242 
L 339.0799 141.730733 
L 340.029281 141.704808 
L 340.976875 141.526578 
L 341.926527 141.931648 
L 344.771469 144.475488 
L 348.570125 151.139701 
L 349.516779 153.129405 
L 353.317449 162.198114 
L 358.060575 176.570001 
L 361.856109 190.679403 
L 364.704161 203.664329 
L 367.55201 217.913075 
L 381.786029 291.694161 
L 382.731847 295.714077 
L 385.579458 304.651543 
L 387.476716 308.664978 
L 388.426164 310.361411 
L 389.37653 311.675459 
L 391.273934 313.553364 
L 392.22396 314.096158 
L 393.172029 314.191754 
L 395.072567 313.635998 
L 396.017672 313.018671 
L 397.915518 310.970637 
L 398.86844 309.878568 
L 399.81376 308.569381 
L 400.765505 307.033355 
L 403.613128 301.660506 
L 404.559941 299.528217 
L 407.407123 291.783277 
L 408.355847 288.839227 
L 410.253942 281.852578 
L 412.151381 274.143284 
L 414.999999 261.484034 
L 419.745569 238.992922 
L 433.978932 168.042466 
L 445.366448 111.094472 
L 446.317413 110.294053 
L 447.264147 109.9862 
L 448.213494 109.804729 
L 450.112471 109.833894 
L 451.06218 110.204938 
L 453.908457 112.773082 
L 454.860768 113.852189 
L 455.80964 115.120868 
L 458.655475 119.714363 
L 459.602379 121.629535 
L 461.502781 126.197105 
L 462.449289 128.685856 
L 464.346784 134.847782 
L 466.247639 141.978636 
L 469.094775 154.942499 
L 474.789828 184.204762 
L 501.361072 321.602916 
L 502.309458 322.618832 
L 504.205041 324.201846 
L 505.157148 324.721956 
L 507.053976 325.243686 
L 508.952501 325.405714 
L 509.900219 325.271231 
L 510.849645 324.883984 
L 511.801877 324.253695 
L 512.752672 323.41277 
L 513.699395 322.208901 
L 515.594446 319.109305 
L 516.546033 317.22978 
L 518.440383 312.37704 
L 519.391054 309.580436 
L 519.391054 309.580436 
" style="fill:none;stroke:#a11692;stroke-linecap:square;"/>
   </g>
   <g id="line2d_4">
    <path clip-path="url(#pee6d500bc6)" d="M 71.454672 135.738936 
L 80.944195 184.324663 
L 88.535352 222.316997 
L 95.179764 255.257297 
L 111.312329 335.66857 
L 112.262627 337.535133 
L 114.157509 337.314775 
L 115.110284 337.005302 
L 116.057549 336.543522 
L 117.009397 335.908372 
L 117.95406 335.046383 
L 118.904425 333.93487 
L 120.803425 331.128545 
L 122.69971 327.643322 
L 124.599241 323.445175 
L 126.495469 318.308886 
L 128.392964 312.419167 
L 130.292394 305.168413 
L 132.192276 296.642497 
L 135.037874 282.398613 
L 142.633183 244.367392 
L 150.219475 206.512782 
L 154.018481 188.710762 
L 160.661128 159.001301 
L 172.997912 106.129933 
L 173.950246 102.844004 
L 174.899004 103.336569 
L 176.797721 105.287387 
L 178.692795 107.852291 
L 179.642154 109.767462 
L 180.594725 111.019939 
L 181.542658 112.766601 
L 183.439712 118.563964 
L 184.388143 122.423472 
L 185.335917 125.584639 
L 191.030032 153.659237 
L 200.522134 201.669764 
L 212.85911 262.9034 
L 215.705839 277.06789 
L 216.654926 279.381651 
L 217.604681 282.199318 
L 218.550724 284.616777 
L 219.501452 285.869253 
L 220.447756 288.254306 
L 221.398155 289.641266 
L 222.350941 289.675292 
L 223.295265 290.509736 
L 224.247396 290.696069 
L 226.142752 289.335033 
L 227.094238 288.092278 
L 228.046447 287.369633 
L 228.99326 285.663478 
L 229.940797 284.918149 
L 230.889149 282.21066 
L 231.837523 280.778332 
L 232.787334 279.754315 
L 233.736772 278.171301 
L 234.649328 275.50432 
L 235.636846 273.955332 
L 237.531569 269.070187 
L 238.482138 266.866605 
L 239.431101 263.707059 
L 240.381048 261.419223 
L 241.329772 258.266157 
L 242.281054 255.780647 
L 244.18235 250.072399 
L 245.124559 247.64684 
L 246.073804 245.579362 
L 247.021149 242.949647 
L 247.972137 240.82708 
L 249.870129 236.251408 
L 253.666918 226.763046 
L 254.580278 224.313182 
L 255.564232 222.231122 
L 256.511543 219.825006 
L 257.463707 217.835301 
L 258.409378 215.404881 
L 259.361383 213.569103 
L 262.207253 206.454452 
L 263.155197 204.158515 
L 264.107881 201.206364 
L 265.055667 199.210179 
L 266.004392 195.987441 
L 267.900304 190.988876 
L 271.698077 182.268527 
L 275.497026 175.072862 
L 276.442448 173.736131 
L 277.394239 172.154737 
L 281.187272 167.034651 
L 283.085072 164.636636 
L 284.034702 164.239668 
L 286.882325 163.930194 
L 287.831627 164.447063 
L 290.67744 166.755963 
L 291.626131 167.966312 
L 292.572389 169.416463 
L 293.524666 170.613851 
L 294.473991 172.029976 
L 296.373183 175.345069 
L 297.32098 176.817904 
L 300.170334 182.100018 
L 303.014665 187.822848 
L 306.809836 196.405473 
L 309.658058 203.542808 
L 310.610754 205.803099 
L 314.403086 217.201772 
L 315.316909 220.827959 
L 316.302323 223.872466 
L 317.251297 227.830811 
L 318.200995 231.239881 
L 319.148543 235.39428 
L 320.098105 238.853578 
L 321.045269 243.003116 
L 321.997908 246.54829 
L 322.945298 250.524458 
L 323.895132 253.565724 
L 324.84578 257.459258 
L 329.586542 272.445231 
L 331.486458 277.928259 
L 334.333368 284.948934 
L 335.282659 286.410427 
L 336.233047 287.6386 
L 337.182643 289.08389 
L 338.129241 289.848662 
L 339.0799 290.056058 
L 340.976875 290.24239 
L 341.926527 289.934537 
L 344.771469 287.380975 
L 348.570125 280.710281 
L 349.516779 278.780527 
L 353.317449 269.598398 
L 358.060575 255.095268 
L 361.856109 240.877308 
L 364.704161 227.855115 
L 373.240287 187.011088 
L 378.938734 161.687726 
L 386.527165 129.024494 
L 388.426164 121.323302 
L 389.37653 119.3498 
L 391.273934 117.421667 
L 392.22396 116.839986 
L 393.172029 116.825403 
L 395.072567 117.204549 
L 396.017672 117.808914 
L 397.915518 119.774314 
L 398.86844 120.866383 
L 399.81376 122.136682 
L 401.713234 125.489043 
L 403.613128 129.202725 
L 404.559941 131.279925 
L 407.407123 139.060511 
L 408.355847 141.988357 
L 410.253942 149.041438 
L 412.151381 156.943545 
L 414.050573 166.255296 
L 433.978932 266.354597 
L 444.420947 318.537346 
L 445.366448 320.536772 
L 446.317413 321.16382 
L 447.264147 321.575372 
L 448.213494 321.743881 
L 450.112471 321.777907 
L 451.06218 321.440888 
L 453.908457 318.895428 
L 454.860768 317.827663 
L 455.80964 316.550882 
L 458.655475 311.988173 
L 459.602379 310.131331 
L 460.553117 307.955295 
L 462.449289 303.120378 
L 464.346784 296.979516 
L 465.297466 293.623915 
L 467.160919 285.78986 
L 469.094775 276.983636 
L 485.227465 196.881836 
L 490.922813 171.158265 
L 499.461122 133.653635 
L 505.157148 109.751259 
L 506.106032 106.335708 
L 507.053976 106.104008 
L 508.952501 105.958183 
L 510.849645 106.126692 
L 511.801877 106.716474 
L 512.752672 107.534716 
L 513.699395 108.686735 
L 515.594446 111.781471 
L 516.546033 113.678819 
L 518.440383 118.450545 
L 519.391054 121.1953 
L 519.391054 121.1953 
" style="fill:none;stroke:#f75c03;stroke-linecap:square;"/>
   </g>
   <g id="line2d_5">
    <path clip-path="url(#pee6d500bc6)" d="M 71.454672 291.308535 
L 83.792553 228.853208 
L 96.126837 171.608703 
L 101.820917 145.710141 
L 105.620625 129.144395 
L 109.413058 113.45522 
L 113.211284 98.801405 
L 114.157509 95.672643 
L 115.110284 95.816848 
L 116.057549 96.370984 
L 117.009397 97.111452 
L 117.95406 98.036632 
L 118.904425 99.264805 
L 120.803425 102.393566 
L 122.69971 106.256315 
L 125.547265 113.599425 
L 127.447859 119.649552 
L 129.344868 126.80147 
L 131.242872 135.366272 
L 133.144712 145.06851 
L 161.610181 295.0368 
L 167.303119 324.525902 
L 168.254072 327.897706 
L 169.203544 327.661145 
L 170.15116 326.961184 
L 171.104026 326.697078 
L 172.997912 325.336042 
L 173.950246 324.056021 
L 174.899004 323.257223 
L 175.846191 321.209188 
L 176.797721 320.057169 
L 177.749671 317.45986 
L 178.692795 316.090723 
L 179.642154 312.704337 
L 180.594725 310.98846 
L 181.542658 308.710346 
L 182.489788 304.589973 
L 183.439712 301.232752 
L 184.388143 296.624674 
L 185.335917 292.974183 
L 191.982467 259.235085 
L 197.675202 230.167255 
L 204.284112 198.521559 
L 206.218522 190.134988 
L 209.062378 179.177032 
L 210.012438 175.755 
L 210.962656 174.19305 
L 211.909582 171.148543 
L 212.85911 170.003005 
L 213.807417 167.567723 
L 214.759219 166.997385 
L 215.705839 165.202114 
L 216.654926 165.388446 
L 217.604681 163.593176 
L 218.550724 163.301525 
L 219.501452 164.054956 
L 220.447756 163.708216 
L 221.398155 163.969081 
L 222.350941 165.796757 
L 223.295265 166.193726 
L 224.247396 167.034651 
L 225.194163 170.364327 
L 226.142752 171.375382 
L 227.094238 174.705058 
L 228.046447 175.628618 
L 228.99326 179.646914 
L 229.940797 180.657968 
L 230.889149 185.00194 
L 231.837523 188.376984 
L 232.787334 189.665107 
L 233.736772 191.175208 
L 234.649328 195.379836 
L 235.636846 197.379262 
L 236.584689 200.542049 
L 237.531569 201.757259 
L 238.482138 203.559011 
L 239.431101 206.716938 
L 240.381048 208.288609 
L 241.329772 210.77574 
L 242.281054 212.076825 
L 243.244045 214.99657 
L 244.18235 216.957109 
L 245.124559 217.898492 
L 246.073804 219.235224 
L 247.021149 221.06614 
L 248.919979 223.281064 
L 249.870129 223.903251 
L 251.771641 225.478164 
L 253.666918 226.217012 
L 254.580278 226.648006 
L 255.564232 226.962341 
L 257.463707 227.059557 
L 258.409378 226.871605 
L 259.361383 226.388761 
L 260.308377 226.082528 
L 261.256876 225.201096 
L 262.207253 223.477118 
L 263.155197 222.642673 
L 266.004392 216.947388 
L 266.952291 215.673847 
L 267.900304 212.405742 
L 268.848881 211.222937 
L 269.797934 208.128202 
L 270.749544 206.344273 
L 271.698077 203.371059 
L 272.648951 202.014884 
L 273.595289 198.562066 
L 274.544003 197.043864 
L 275.497026 195.204846 
L 276.442448 192.006412 
L 277.394239 190.442842 
L 279.291824 186.311127 
L 280.236725 184.080001 
L 281.187272 182.812941 
L 282.138881 179.980691 
L 283.085072 178.193522 
L 284.034702 176.900538 
L 284.950257 176.372327 
L 285.934675 174.765009 
L 286.882325 174.222215 
L 287.831627 173.838208 
L 288.780092 174.345356 
L 290.67744 174.418269 
L 294.473991 177.54865 
L 296.373183 179.862411 
L 297.32098 180.892909 
L 298.267488 182.11136 
L 302.064537 187.983256 
L 304.91302 193.522995 
L 308.709401 201.545003 
L 311.558902 208.481423 
L 312.506563 211.023643 
L 313.453444 214.050326 
L 314.403086 216.639534 
L 315.316909 220.132859 
L 316.302323 223.101213 
L 317.251297 226.955859 
L 318.200995 230.19318 
L 319.148543 234.347578 
L 320.098105 237.633507 
L 321.045269 241.761981 
L 321.997908 245.103 
L 322.945298 249.101851 
L 323.895132 252.016736 
L 324.84578 255.945916 
L 325.792774 258.758722 
L 327.688843 265.123184 
L 328.638043 268.101259 
L 330.537077 273.354208 
L 331.486458 276.055215 
L 334.333368 283.140701 
L 337.182643 287.168718 
L 338.129241 287.886502 
L 339.0799 288.053391 
L 340.976875 288.191115 
L 341.926527 287.910807 
L 344.771469 285.234103 
L 346.674225 281.901187 
L 349.516779 276.609351 
L 353.317449 267.561706 
L 358.060575 253.31134 
L 361.856109 239.563261 
L 364.704161 227.223206 
L 374.190788 183.888808 
L 379.887357 158.905705 
L 384.630552 138.906584 
L 388.426164 123.896307 
L 389.37653 120.699494 
L 391.273934 118.905843 
L 392.22396 118.340366 
L 393.172029 118.346847 
L 394.122655 118.48133 
L 395.072567 118.742195 
L 396.017672 119.391928 
L 397.915518 121.441582 
L 398.86844 122.569297 
L 399.81376 123.899547 
L 401.713234 127.311858 
L 403.613128 131.066048 
L 404.559941 133.232362 
L 407.407123 141.081 
L 408.355847 144.072038 
L 410.253942 151.176967 
L 411.202531 154.819358 
L 413.102787 163.518643 
L 427.337835 237.539531 
L 438.724163 296.691106 
L 442.52343 316.301359 
L 443.471577 317.911918 
L 445.366448 319.668302 
L 446.317413 320.314794 
L 447.264147 320.614545 
L 448.213494 320.75551 
L 450.112471 320.702041 
L 451.06218 320.290489 
L 453.908457 317.589482 
L 454.860768 316.492552 
L 456.757573 313.674885 
L 458.655475 310.382475 
L 459.602379 308.50619 
L 461.502781 303.721502 
L 462.449289 301.159839 
L 464.346784 294.845607 
L 466.247639 287.586751 
L 469.094775 274.645571 
L 476.685728 237.395326 
L 485.227465 197.453795 
L 489.972549 175.662644 
L 494.71752 154.663811 
L 498.513642 138.671644 
L 502.309458 123.68567 
L 506.106032 109.380215 
L 507.053976 107.121544 
L 509.900219 107.194457 
L 510.849645 107.388891 
L 511.801877 107.968951 
L 512.752672 108.843902 
L 513.699395 110.04129 
L 514.648527 111.528707 
L 516.546033 115.269934 
L 518.440383 120.286322 
L 519.391054 123.099129 
L 519.391054 123.099129 
" style="fill:none;stroke:#2274a5;stroke-linecap:square;"/>
   </g>
   <g id="line2d_6">
    <path clip-path="url(#pee6d500bc6)" d="M 71.454672 285.830367 
L 79.9953 240.337755 
L 88.535352 196.84619 
L 96.126837 159.036947 
L 103.719215 121.945489 
L 108.464152 99.502986 
L 109.413058 96.338579 
L 113.211284 96.505467 
L 115.110284 97.435508 
L 116.057549 98.13709 
L 117.009397 99.008801 
L 117.95406 100.126794 
L 118.904425 101.526716 
L 120.803425 105.033003 
L 122.69971 109.441786 
L 124.599241 114.558631 
L 126.495469 120.861522 
L 128.392964 127.927564 
L 130.292394 136.414593 
L 132.192276 146.152478 
L 135.983657 167.195059 
L 164.459014 325.564502 
L 165.410183 327.588232 
L 166.351837 327.45861 
L 167.303119 327.784286 
L 168.254072 327.507218 
L 169.203544 327.414862 
L 170.15116 326.852625 
L 171.104026 326.556113 
L 172.997912 325.32308 
L 173.950246 324.141896 
L 174.899004 323.310692 
L 175.846191 321.615879 
L 176.797721 320.491404 
L 177.749671 318.295924 
L 178.692795 316.952712 
L 179.642154 314.003802 
L 180.594725 312.443472 
L 181.542658 310.350069 
L 182.489788 306.427371 
L 183.439712 303.178708 
L 184.388143 298.659747 
L 185.335917 295.129156 
L 193.880155 250.370531 
L 199.570502 220.531448 
L 204.284112 196.585324 
L 205.267648 192.34019 
L 206.218522 188.81284 
L 210.012438 173.399112 
L 210.962656 171.263583 
L 211.909582 167.796183 
L 212.85911 166.209929 
L 213.807417 163.209169 
L 214.759219 162.104138 
L 215.705839 159.595944 
L 216.654926 159.041808 
L 217.604681 156.544956 
L 218.550724 155.29572 
L 219.501452 155.070501 
L 220.447756 153.649515 
L 221.398155 153.297914 
L 222.350941 154.190689 
L 223.295265 153.980052 
L 224.247396 154.555252 
L 225.194163 156.131785 
L 226.142752 157.0278 
L 227.094238 159.351282 
L 228.046447 160.329931 
L 228.99326 163.074686 
L 229.940797 164.041993 
L 230.889149 167.632535 
L 231.837523 169.837736 
L 232.787334 171.061048 
L 233.736772 172.729937 
L 234.649328 176.262148 
L 235.636846 177.942379 
L 236.584689 180.944758 
L 238.482138 184.720011 
L 239.431101 188.033485 
L 240.381048 189.867642 
L 241.329772 192.857059 
L 242.281054 194.687976 
L 243.244045 197.591519 
L 244.18235 199.997635 
L 246.073804 203.338653 
L 247.021149 205.506588 
L 250.821683 211.885632 
L 252.718476 214.837783 
L 254.580278 217.559854 
L 256.511543 219.936805 
L 258.409378 221.840634 
L 259.361383 222.62485 
L 260.308377 223.60674 
L 261.256876 224.232168 
L 262.207253 224.619415 
L 263.155197 225.389048 
L 264.107881 225.777916 
L 265.055667 225.999894 
L 266.004392 226.524865 
L 266.952291 226.84568 
L 267.900304 226.690134 
L 268.848881 227.012569 
L 269.797934 226.743603 
L 271.698077 226.456813 
L 272.648951 226.223493 
L 273.595289 225.756852 
L 274.544003 225.80546 
L 275.497026 225.51219 
L 276.442448 224.982358 
L 277.394239 224.959674 
L 278.337816 224.637238 
L 279.291824 224.01019 
L 280.236725 223.945379 
L 281.187272 223.559752 
L 282.138881 222.751232 
L 283.085072 222.503329 
L 285.934675 220.936518 
L 286.882325 220.633526 
L 287.831627 220.046984 
L 288.780092 219.946527 
L 290.67744 219.000283 
L 291.626131 218.87066 
L 293.524666 218.11399 
L 297.32098 217.203392 
L 298.267488 216.889058 
L 301.120869 216.466164 
L 303.014665 216.190717 
L 304.91302 215.968738 
L 307.760416 215.685189 
L 316.302323 215.374095 
L 325.792774 215.387058 
L 350.468118 215.74838 
L 470.990867 215.843977 
L 519.391054 215.814812 
L 519.391054 215.814812 
" style="fill:none;stroke:#4e937a;stroke-linecap:square;"/>
   </g>
   <g id="patch_3">
    <path d="M 72.1125 43.2 
L 519.21 43.2 
" style="fill:none;stroke:#000000;stroke-linecap:square;stroke-linejoin:miter;"/>
   </g>
   <g id="patch_4">
    <path d="M 519.21 388.8 
L 519.21 43.2 
" style="fill:none;stroke:#000000;stroke-linecap:square;stroke-linejoin:miter;"/>
   </g>
   <g id="patch_5">
    <path d="M 72.1125 388.8 
L 519.21 388.8 
" style="fill:none;stroke:#000000;stroke-linecap:square;stroke-linejoin:miter;"/>
   </g>
   <g id="patch_6">
    <path d="M 72.1125 388.8 
L 72.1125 43.2 
" style="fill:none;stroke:#000000;stroke-linecap:square;stroke-linejoin:miter;"/>
   </g>
   <g id="matplotlib.axis_1">
    <g id="xtick_1">
     <g id="line2d_7">
      <defs>
       <path d="M 0 0 
L 0 -4 
" id="m76a213c066" style="stroke:#000000;stroke-width:0.5;"/>
      </defs>
      <g>
       <use style="stroke:#000000;stroke-width:0.5;" x="123.652382861" xlink:href="#m76a213c066" y="388.8"/>
      </g>
     </g>
     <g id="line2d_8">
      <defs>
       <path d="M 0 0 
L 0 4 
" id="m8fe5969c5d" style="stroke:#000000;stroke-width:0.5;"/>
      </defs>
      <g>
       <use style="stroke:#000000;stroke-width:0.5;" x="123.652382861" xlink:href="#m8fe5969c5d" y="43.2"/>
      </g>
     </g>
     <g id="text_1">
      <!-- 266 -->
      <defs>
       <path d="M 19.1875 8.296875 
L 53.609375 8.296875 
L 53.609375 0 
L 7.328125 0 
L 7.328125 8.296875 
Q 12.9375 14.109375 22.625 23.890625 
Q 32.328125 33.6875 34.8125 36.53125 
Q 39.546875 41.84375 41.421875 45.53125 
Q 43.3125 49.21875 43.3125 52.78125 
Q 43.3125 58.59375 39.234375 62.25 
Q 35.15625 65.921875 28.609375 65.921875 
Q 23.96875 65.921875 18.8125 64.3125 
Q 13.671875 62.703125 7.8125 59.421875 
L 7.8125 69.390625 
Q 13.765625 71.78125 18.9375 73 
Q 24.125 74.21875 28.421875 74.21875 
Q 39.75 74.21875 46.484375 68.546875 
Q 53.21875 62.890625 53.21875 53.421875 
Q 53.21875 48.921875 51.53125 44.890625 
Q 49.859375 40.875 45.40625 35.40625 
Q 44.1875 33.984375 37.640625 27.21875 
Q 31.109375 20.453125 19.1875 8.296875 
" id="BitstreamVeraSans-Roman-32"/>
       <path d="M 33.015625 40.375 
Q 26.375 40.375 22.484375 35.828125 
Q 18.609375 31.296875 18.609375 23.390625 
Q 18.609375 15.53125 22.484375 10.953125 
Q 26.375 6.390625 33.015625 6.390625 
Q 39.65625 6.390625 43.53125 10.953125 
Q 47.40625 15.53125 47.40625 23.390625 
Q 47.40625 31.296875 43.53125 35.828125 
Q 39.65625 40.375 33.015625 40.375 
M 52.59375 71.296875 
L 52.59375 62.3125 
Q 48.875 64.0625 45.09375 64.984375 
Q 41.3125 65.921875 37.59375 65.921875 
Q 27.828125 65.921875 22.671875 59.328125 
Q 17.53125 52.734375 16.796875 39.40625 
Q 19.671875 43.65625 24.015625 45.921875 
Q 28.375 48.1875 33.59375 48.1875 
Q 44.578125 48.1875 50.953125 41.515625 
Q 57.328125 34.859375 57.328125 23.390625 
Q 57.328125 12.15625 50.6875 5.359375 
Q 44.046875 -1.421875 33.015625 -1.421875 
Q 20.359375 -1.421875 13.671875 8.265625 
Q 6.984375 17.96875 6.984375 36.375 
Q 6.984375 53.65625 15.1875 63.9375 
Q 23.390625 74.21875 37.203125 74.21875 
Q 40.921875 74.21875 44.703125 73.484375 
Q 48.484375 72.75 52.59375 71.296875 
" id="BitstreamVeraSans-Roman-36"/>
      </defs>
      <g transform="translate(112.199882861 401.918125)scale(0.12 -0.12)">
       <use xlink:href="#BitstreamVeraSans-Roman-32"/>
       <use x="63.623046875" xlink:href="#BitstreamVeraSans-Roman-36"/>
       <use x="127.24609375" xlink:href="#BitstreamVeraSans-Roman-36"/>
      </g>
     </g>
    </g>
    <g id="xtick_2">
     <g id="line2d_9">
      <g>
       <use style="stroke:#000000;stroke-width:0.5;" x="218.554378663" xlink:href="#m76a213c066" y="388.8"/>
      </g>
     </g>
     <g id="line2d_10">
      <g>
       <use style="stroke:#000000;stroke-width:0.5;" x="218.554378663" xlink:href="#m8fe5969c5d" y="43.2"/>
      </g>
     </g>
     <g id="text_2">
      <!-- 268 -->
      <defs>
       <path d="M 31.78125 34.625 
Q 24.75 34.625 20.71875 30.859375 
Q 16.703125 27.09375 16.703125 20.515625 
Q 16.703125 13.921875 20.71875 10.15625 
Q 24.75 6.390625 31.78125 6.390625 
Q 38.8125 6.390625 42.859375 10.171875 
Q 46.921875 13.96875 46.921875 20.515625 
Q 46.921875 27.09375 42.890625 30.859375 
Q 38.875 34.625 31.78125 34.625 
M 21.921875 38.8125 
Q 15.578125 40.375 12.03125 44.71875 
Q 8.5 49.078125 8.5 55.328125 
Q 8.5 64.0625 14.71875 69.140625 
Q 20.953125 74.21875 31.78125 74.21875 
Q 42.671875 74.21875 48.875 69.140625 
Q 55.078125 64.0625 55.078125 55.328125 
Q 55.078125 49.078125 51.53125 44.71875 
Q 48 40.375 41.703125 38.8125 
Q 48.828125 37.15625 52.796875 32.3125 
Q 56.78125 27.484375 56.78125 20.515625 
Q 56.78125 9.90625 50.3125 4.234375 
Q 43.84375 -1.421875 31.78125 -1.421875 
Q 19.734375 -1.421875 13.25 4.234375 
Q 6.78125 9.90625 6.78125 20.515625 
Q 6.78125 27.484375 10.78125 32.3125 
Q 14.796875 37.15625 21.921875 38.8125 
M 18.3125 54.390625 
Q 18.3125 48.734375 21.84375 45.5625 
Q 25.390625 42.390625 31.78125 42.390625 
Q 38.140625 42.390625 41.71875 45.5625 
Q 45.3125 48.734375 45.3125 54.390625 
Q 45.3125 60.0625 41.71875 63.234375 
Q 38.140625 66.40625 31.78125 66.40625 
Q 25.390625 66.40625 21.84375 63.234375 
Q 18.3125 60.0625 18.3125 54.390625 
" id="BitstreamVeraSans-Roman-38"/>
      </defs>
      <g transform="translate(207.101878663 401.918125)scale(0.12 -0.12)">
       <use xlink:href="#BitstreamVeraSans-Roman-32"/>
       <use x="63.623046875" xlink:href="#BitstreamVeraSans-Roman-36"/>
       <use x="127.24609375" xlink:href="#BitstreamVeraSans-Roman-38"/>
      </g>
     </g>
    </g>
    <g id="xtick_3">
     <g id="line2d_11">
      <g>
       <use style="stroke:#000000;stroke-width:0.5;" x="313.456374465" xlink:href="#m76a213c066" y="388.8"/>
      </g>
     </g>
     <g id="line2d_12">
      <g>
       <use style="stroke:#000000;stroke-width:0.5;" x="313.456374465" xlink:href="#m8fe5969c5d" y="43.2"/>
      </g>
     </g>
     <g id="text_3">
      <!-- 270 -->
      <defs>
       <path d="M 31.78125 66.40625 
Q 24.171875 66.40625 20.328125 58.90625 
Q 16.5 51.421875 16.5 36.375 
Q 16.5 21.390625 20.328125 13.890625 
Q 24.171875 6.390625 31.78125 6.390625 
Q 39.453125 6.390625 43.28125 13.890625 
Q 47.125 21.390625 47.125 36.375 
Q 47.125 51.421875 43.28125 58.90625 
Q 39.453125 66.40625 31.78125 66.40625 
M 31.78125 74.21875 
Q 44.046875 74.21875 50.515625 64.515625 
Q 56.984375 54.828125 56.984375 36.375 
Q 56.984375 17.96875 50.515625 8.265625 
Q 44.046875 -1.421875 31.78125 -1.421875 
Q 19.53125 -1.421875 13.0625 8.265625 
Q 6.59375 17.96875 6.59375 36.375 
Q 6.59375 54.828125 13.0625 64.515625 
Q 19.53125 74.21875 31.78125 74.21875 
" id="BitstreamVeraSans-Roman-30"/>
       <path d="M 8.203125 72.90625 
L 55.078125 72.90625 
L 55.078125 68.703125 
L 28.609375 0 
L 18.3125 0 
L 43.21875 64.59375 
L 8.203125 64.59375 
z
" id="BitstreamVeraSans-Roman-37"/>
      </defs>
      <g transform="translate(302.003874465 401.918125)scale(0.12 -0.12)">
       <use xlink:href="#BitstreamVeraSans-Roman-32"/>
       <use x="63.623046875" xlink:href="#BitstreamVeraSans-Roman-37"/>
       <use x="127.24609375" xlink:href="#BitstreamVeraSans-Roman-30"/>
      </g>
     </g>
    </g>
    <g id="xtick_4">
     <g id="line2d_13">
      <g>
       <use style="stroke:#000000;stroke-width:0.5;" x="408.358370267" xlink:href="#m76a213c066" y="388.8"/>
      </g>
     </g>
     <g id="line2d_14">
      <g>
       <use style="stroke:#000000;stroke-width:0.5;" x="408.358370267" xlink:href="#m8fe5969c5d" y="43.2"/>
      </g>
     </g>
     <g id="text_4">
      <!-- 272 -->
      <g transform="translate(396.905870267 401.918125)scale(0.12 -0.12)">
       <use xlink:href="#BitstreamVeraSans-Roman-32"/>
       <use x="63.623046875" xlink:href="#BitstreamVeraSans-Roman-37"/>
       <use x="127.24609375" xlink:href="#BitstreamVeraSans-Roman-32"/>
      </g>
     </g>
    </g>
    <g id="xtick_5">
     <g id="line2d_15">
      <g>
       <use style="stroke:#000000;stroke-width:0.5;" x="503.260366069" xlink:href="#m76a213c066" y="388.8"/>
      </g>
     </g>
     <g id="line2d_16">
      <g>
       <use style="stroke:#000000;stroke-width:0.5;" x="503.260366069" xlink:href="#m8fe5969c5d" y="43.2"/>
      </g>
     </g>
     <g id="text_5">
      <!-- 274 -->
      <defs>
       <path d="M 37.796875 64.3125 
L 12.890625 25.390625 
L 37.796875 25.390625 
z
M 35.203125 72.90625 
L 47.609375 72.90625 
L 47.609375 25.390625 
L 58.015625 25.390625 
L 58.015625 17.1875 
L 47.609375 17.1875 
L 47.609375 0 
L 37.796875 0 
L 37.796875 17.1875 
L 4.890625 17.1875 
L 4.890625 26.703125 
z
" id="BitstreamVeraSans-Roman-34"/>
      </defs>
      <g transform="translate(491.807866069 401.918125)scale(0.12 -0.12)">
       <use xlink:href="#BitstreamVeraSans-Roman-32"/>
       <use x="63.623046875" xlink:href="#BitstreamVeraSans-Roman-37"/>
       <use x="127.24609375" xlink:href="#BitstreamVeraSans-Roman-34"/>
      </g>
     </g>
    </g>
    <g id="text_6">
     <!-- Time (s) -->
     <defs>
      <path id="BitstreamVeraSans-Roman-20"/>
      <path d="M 8.015625 75.875 
L 15.828125 75.875 
Q 23.140625 64.359375 26.78125 53.3125 
Q 30.421875 42.28125 30.421875 31.390625 
Q 30.421875 20.453125 26.78125 9.375 
Q 23.140625 -1.703125 15.828125 -13.1875 
L 8.015625 -13.1875 
Q 14.5 -2 17.703125 9.0625 
Q 20.90625 20.125 20.90625 31.390625 
Q 20.90625 42.671875 17.703125 53.65625 
Q 14.5 64.65625 8.015625 75.875 
" id="BitstreamVeraSans-Roman-29"/>
      <path d="M 31 75.875 
Q 24.46875 64.65625 21.28125 53.65625 
Q 18.109375 42.671875 18.109375 31.390625 
Q 18.109375 20.125 21.3125 9.0625 
Q 24.515625 -2 31 -13.1875 
L 23.1875 -13.1875 
Q 15.875 -1.703125 12.234375 9.375 
Q 8.59375 20.453125 8.59375 31.390625 
Q 8.59375 42.28125 12.203125 53.3125 
Q 15.828125 64.359375 23.1875 75.875 
z
" id="BitstreamVeraSans-Roman-28"/>
      <path d="M 9.421875 54.6875 
L 18.40625 54.6875 
L 18.40625 0 
L 9.421875 0 
z
M 9.421875 75.984375 
L 18.40625 75.984375 
L 18.40625 64.59375 
L 9.421875 64.59375 
z
" id="BitstreamVeraSans-Roman-69"/>
      <path d="M 52 44.1875 
Q 55.375 50.25 60.0625 53.125 
Q 64.75 56 71.09375 56 
Q 79.640625 56 84.28125 50.015625 
Q 88.921875 44.046875 88.921875 33.015625 
L 88.921875 0 
L 79.890625 0 
L 79.890625 32.71875 
Q 79.890625 40.578125 77.09375 44.375 
Q 74.3125 48.1875 68.609375 48.1875 
Q 61.625 48.1875 57.5625 43.546875 
Q 53.515625 38.921875 53.515625 30.90625 
L 53.515625 0 
L 44.484375 0 
L 44.484375 32.71875 
Q 44.484375 40.625 41.703125 44.40625 
Q 38.921875 48.1875 33.109375 48.1875 
Q 26.21875 48.1875 22.15625 43.53125 
Q 18.109375 38.875 18.109375 30.90625 
L 18.109375 0 
L 9.078125 0 
L 9.078125 54.6875 
L 18.109375 54.6875 
L 18.109375 46.1875 
Q 21.1875 51.21875 25.484375 53.609375 
Q 29.78125 56 35.6875 56 
Q 41.65625 56 45.828125 52.96875 
Q 50 49.953125 52 44.1875 
" id="BitstreamVeraSans-Roman-6d"/>
      <path d="M 56.203125 29.59375 
L 56.203125 25.203125 
L 14.890625 25.203125 
Q 15.484375 15.921875 20.484375 11.0625 
Q 25.484375 6.203125 34.421875 6.203125 
Q 39.59375 6.203125 44.453125 7.46875 
Q 49.3125 8.734375 54.109375 11.28125 
L 54.109375 2.78125 
Q 49.265625 0.734375 44.1875 -0.34375 
Q 39.109375 -1.421875 33.890625 -1.421875 
Q 20.796875 -1.421875 13.15625 6.1875 
Q 5.515625 13.8125 5.515625 26.8125 
Q 5.515625 40.234375 12.765625 48.109375 
Q 20.015625 56 32.328125 56 
Q 43.359375 56 49.78125 48.890625 
Q 56.203125 41.796875 56.203125 29.59375 
M 47.21875 32.234375 
Q 47.125 39.59375 43.09375 43.984375 
Q 39.0625 48.390625 32.421875 48.390625 
Q 24.90625 48.390625 20.390625 44.140625 
Q 15.875 39.890625 15.1875 32.171875 
z
" id="BitstreamVeraSans-Roman-65"/>
      <path d="M -0.296875 72.90625 
L 61.375 72.90625 
L 61.375 64.59375 
L 35.5 64.59375 
L 35.5 0 
L 25.59375 0 
L 25.59375 64.59375 
L -0.296875 64.59375 
z
" id="BitstreamVeraSans-Roman-54"/>
      <path d="M 44.28125 53.078125 
L 44.28125 44.578125 
Q 40.484375 46.53125 36.375 47.5 
Q 32.28125 48.484375 27.875 48.484375 
Q 21.1875 48.484375 17.84375 46.4375 
Q 14.5 44.390625 14.5 40.28125 
Q 14.5 37.15625 16.890625 35.375 
Q 19.28125 33.59375 26.515625 31.984375 
L 29.59375 31.296875 
Q 39.15625 29.25 43.1875 25.515625 
Q 47.21875 21.78125 47.21875 15.09375 
Q 47.21875 7.46875 41.1875 3.015625 
Q 35.15625 -1.421875 24.609375 -1.421875 
Q 20.21875 -1.421875 15.453125 -0.5625 
Q 10.6875 0.296875 5.421875 2 
L 5.421875 11.28125 
Q 10.40625 8.6875 15.234375 7.390625 
Q 20.0625 6.109375 24.8125 6.109375 
Q 31.15625 6.109375 34.5625 8.28125 
Q 37.984375 10.453125 37.984375 14.40625 
Q 37.984375 18.0625 35.515625 20.015625 
Q 33.0625 21.96875 24.703125 23.78125 
L 21.578125 24.515625 
Q 13.234375 26.265625 9.515625 29.90625 
Q 5.8125 33.546875 5.8125 39.890625 
Q 5.8125 47.609375 11.28125 51.796875 
Q 16.75 56 26.8125 56 
Q 31.78125 56 36.171875 55.265625 
Q 40.578125 54.546875 44.28125 53.078125 
" id="BitstreamVeraSans-Roman-73"/>
     </defs>
     <g transform="translate(271.081875 418.531875)scale(0.12 -0.12)">
      <use xlink:href="#BitstreamVeraSans-Roman-54"/>
      <use x="61.037109375" xlink:href="#BitstreamVeraSans-Roman-69"/>
      <use x="88.8203125" xlink:href="#BitstreamVeraSans-Roman-6d"/>
      <use x="186.232421875" xlink:href="#BitstreamVeraSans-Roman-65"/>
      <use x="247.755859375" xlink:href="#BitstreamVeraSans-Roman-20"/>
      <use x="279.54296875" xlink:href="#BitstreamVeraSans-Roman-28"/>
      <use x="318.556640625" xlink:href="#BitstreamVeraSans-Roman-73"/>
      <use x="370.65625" xlink:href="#BitstreamVeraSans-Roman-29"/>
     </g>
    </g>
   </g>
   <g id="matplotlib.axis_2">
    <g id="ytick_1">
     <g id="line2d_17">
      <defs>
       <path d="M 0 0 
L 4 0 
" id="mb0a5a250d0" style="stroke:#000000;stroke-width:0.5;"/>
      </defs>
      <g>
       <use style="stroke:#000000;stroke-width:0.5;" x="72.1125" xlink:href="#mb0a5a250d0" y="379.663442204"/>
      </g>
     </g>
     <g id="line2d_18">
      <defs>
       <path d="M 0 0 
L -4 0 
" id="mc6563e6e0f" style="stroke:#000000;stroke-width:0.5;"/>
      </defs>
      <g>
       <use style="stroke:#000000;stroke-width:0.5;" x="519.21" xlink:href="#mc6563e6e0f" y="379.663442204"/>
      </g>
     </g>
     <g id="text_7">
      <!-- −6 -->
      <defs>
       <path d="M 10.59375 35.5 
L 73.1875 35.5 
L 73.1875 27.203125 
L 10.59375 27.203125 
z
" id="BitstreamVeraSans-Roman-2212"/>
      </defs>
      <g transform="translate(50.421875 382.974692204)scale(0.12 -0.12)">
       <use xlink:href="#BitstreamVeraSans-Roman-2212"/>
       <use x="83.7890625" xlink:href="#BitstreamVeraSans-Roman-36"/>
      </g>
     </g>
    </g>
    <g id="ytick_2">
     <g id="line2d_19">
      <g>
       <use style="stroke:#000000;stroke-width:0.5;" x="72.1125" xlink:href="#mb0a5a250d0" y="324.993762796"/>
      </g>
     </g>
     <g id="line2d_20">
      <g>
       <use style="stroke:#000000;stroke-width:0.5;" x="519.21" xlink:href="#mc6563e6e0f" y="324.993762796"/>
      </g>
     </g>
     <g id="text_8">
      <!-- −4 -->
      <g transform="translate(50.421875 328.305012796)scale(0.12 -0.12)">
       <use xlink:href="#BitstreamVeraSans-Roman-2212"/>
       <use x="83.7890625" xlink:href="#BitstreamVeraSans-Roman-34"/>
      </g>
     </g>
    </g>
    <g id="ytick_3">
     <g id="line2d_21">
      <g>
       <use style="stroke:#000000;stroke-width:0.5;" x="72.1125" xlink:href="#mb0a5a250d0" y="270.324083387"/>
      </g>
     </g>
     <g id="line2d_22">
      <g>
       <use style="stroke:#000000;stroke-width:0.5;" x="519.21" xlink:href="#mc6563e6e0f" y="270.324083387"/>
      </g>
     </g>
     <g id="text_9">
      <!-- −2 -->
      <g transform="translate(50.421875 273.635333387)scale(0.12 -0.12)">
       <use xlink:href="#BitstreamVeraSans-Roman-2212"/>
       <use x="83.7890625" xlink:href="#BitstreamVeraSans-Roman-32"/>
      </g>
     </g>
    </g>
    <g id="ytick_4">
     <g id="line2d_23">
      <g>
       <use style="stroke:#000000;stroke-width:0.5;" x="72.1125" xlink:href="#mb0a5a250d0" y="215.654403979"/>
      </g>
     </g>
     <g id="line2d_24">
      <g>
       <use style="stroke:#000000;stroke-width:0.5;" x="519.21" xlink:href="#mc6563e6e0f" y="215.654403979"/>
      </g>
     </g>
     <g id="text_10">
      <!-- 0 -->
      <g transform="translate(60.4775 218.965653979)scale(0.12 -0.12)">
       <use xlink:href="#BitstreamVeraSans-Roman-30"/>
      </g>
     </g>
    </g>
    <g id="ytick_5">
     <g id="line2d_25">
      <g>
       <use style="stroke:#000000;stroke-width:0.5;" x="72.1125" xlink:href="#mb0a5a250d0" y="160.984724571"/>
      </g>
     </g>
     <g id="line2d_26">
      <g>
       <use style="stroke:#000000;stroke-width:0.5;" x="519.21" xlink:href="#mc6563e6e0f" y="160.984724571"/>
      </g>
     </g>
     <g id="text_11">
      <!-- 2 -->
      <g transform="translate(60.4775 164.295974571)scale(0.12 -0.12)">
       <use xlink:href="#BitstreamVeraSans-Roman-32"/>
      </g>
     </g>
    </g>
    <g id="ytick_6">
     <g id="line2d_27">
      <g>
       <use style="stroke:#000000;stroke-width:0.5;" x="72.1125" xlink:href="#mb0a5a250d0" y="106.315045163"/>
      </g>
     </g>
     <g id="line2d_28">
      <g>
       <use style="stroke:#000000;stroke-width:0.5;" x="519.21" xlink:href="#mc6563e6e0f" y="106.315045163"/>
      </g>
     </g>
     <g id="text_12">
      <!-- 4 -->
      <g transform="translate(60.4775 109.626295163)scale(0.12 -0.12)">
       <use xlink:href="#BitstreamVeraSans-Roman-34"/>
      </g>
     </g>
    </g>
    <g id="ytick_7">
     <g id="line2d_29">
      <g>
       <use style="stroke:#000000;stroke-width:0.5;" x="72.1125" xlink:href="#mb0a5a250d0" y="51.6453657547"/>
      </g>
     </g>
     <g id="line2d_30">
      <g>
       <use style="stroke:#000000;stroke-width:0.5;" x="519.21" xlink:href="#mc6563e6e0f" y="51.6453657547"/>
      </g>
     </g>
     <g id="text_13">
      <!-- 6 -->
      <g transform="translate(60.4775 54.9566157547)scale(0.12 -0.12)">
       <use xlink:href="#BitstreamVeraSans-Roman-36"/>
      </g>
     </g>
    </g>
    <g id="text_14">
     <!-- Motor position (rad) -->
     <defs>
      <path d="M 9.8125 72.90625 
L 24.515625 72.90625 
L 43.109375 23.296875 
L 61.8125 72.90625 
L 76.515625 72.90625 
L 76.515625 0 
L 66.890625 0 
L 66.890625 64.015625 
L 48.09375 14.015625 
L 38.1875 14.015625 
L 19.390625 64.015625 
L 19.390625 0 
L 9.8125 0 
z
" id="BitstreamVeraSans-Roman-4d"/>
      <path d="M 54.890625 33.015625 
L 54.890625 0 
L 45.90625 0 
L 45.90625 32.71875 
Q 45.90625 40.484375 42.875 44.328125 
Q 39.84375 48.1875 33.796875 48.1875 
Q 26.515625 48.1875 22.3125 43.546875 
Q 18.109375 38.921875 18.109375 30.90625 
L 18.109375 0 
L 9.078125 0 
L 9.078125 54.6875 
L 18.109375 54.6875 
L 18.109375 46.1875 
Q 21.34375 51.125 25.703125 53.5625 
Q 30.078125 56 35.796875 56 
Q 45.21875 56 50.046875 50.171875 
Q 54.890625 44.34375 54.890625 33.015625 
" id="BitstreamVeraSans-Roman-6e"/>
      <path d="M 34.28125 27.484375 
Q 23.390625 27.484375 19.1875 25 
Q 14.984375 22.515625 14.984375 16.5 
Q 14.984375 11.71875 18.140625 8.90625 
Q 21.296875 6.109375 26.703125 6.109375 
Q 34.1875 6.109375 38.703125 11.40625 
Q 43.21875 16.703125 43.21875 25.484375 
L 43.21875 27.484375 
z
M 52.203125 31.203125 
L 52.203125 0 
L 43.21875 0 
L 43.21875 8.296875 
Q 40.140625 3.328125 35.546875 0.953125 
Q 30.953125 -1.421875 24.3125 -1.421875 
Q 15.921875 -1.421875 10.953125 3.296875 
Q 6 8.015625 6 15.921875 
Q 6 25.140625 12.171875 29.828125 
Q 18.359375 34.515625 30.609375 34.515625 
L 43.21875 34.515625 
L 43.21875 35.40625 
Q 43.21875 41.609375 39.140625 45 
Q 35.0625 48.390625 27.6875 48.390625 
Q 23 48.390625 18.546875 47.265625 
Q 14.109375 46.140625 10.015625 43.890625 
L 10.015625 52.203125 
Q 14.9375 54.109375 19.578125 55.046875 
Q 24.21875 56 28.609375 56 
Q 40.484375 56 46.34375 49.84375 
Q 52.203125 43.703125 52.203125 31.203125 
" id="BitstreamVeraSans-Roman-61"/>
      <path d="M 30.609375 48.390625 
Q 23.390625 48.390625 19.1875 42.75 
Q 14.984375 37.109375 14.984375 27.296875 
Q 14.984375 17.484375 19.15625 11.84375 
Q 23.34375 6.203125 30.609375 6.203125 
Q 37.796875 6.203125 41.984375 11.859375 
Q 46.1875 17.53125 46.1875 27.296875 
Q 46.1875 37.015625 41.984375 42.703125 
Q 37.796875 48.390625 30.609375 48.390625 
M 30.609375 56 
Q 42.328125 56 49.015625 48.375 
Q 55.71875 40.765625 55.71875 27.296875 
Q 55.71875 13.875 49.015625 6.21875 
Q 42.328125 -1.421875 30.609375 -1.421875 
Q 18.84375 -1.421875 12.171875 6.21875 
Q 5.515625 13.875 5.515625 27.296875 
Q 5.515625 40.765625 12.171875 48.375 
Q 18.84375 56 30.609375 56 
" id="BitstreamVeraSans-Roman-6f"/>
      <path d="M 45.40625 46.390625 
L 45.40625 75.984375 
L 54.390625 75.984375 
L 54.390625 0 
L 45.40625 0 
L 45.40625 8.203125 
Q 42.578125 3.328125 38.25 0.953125 
Q 33.9375 -1.421875 27.875 -1.421875 
Q 17.96875 -1.421875 11.734375 6.484375 
Q 5.515625 14.40625 5.515625 27.296875 
Q 5.515625 40.1875 11.734375 48.09375 
Q 17.96875 56 27.875 56 
Q 33.9375 56 38.25 53.625 
Q 42.578125 51.265625 45.40625 46.390625 
M 14.796875 27.296875 
Q 14.796875 17.390625 18.875 11.75 
Q 22.953125 6.109375 30.078125 6.109375 
Q 37.203125 6.109375 41.296875 11.75 
Q 45.40625 17.390625 45.40625 27.296875 
Q 45.40625 37.203125 41.296875 42.84375 
Q 37.203125 48.484375 30.078125 48.484375 
Q 22.953125 48.484375 18.875 42.84375 
Q 14.796875 37.203125 14.796875 27.296875 
" id="BitstreamVeraSans-Roman-64"/>
      <path d="M 18.3125 70.21875 
L 18.3125 54.6875 
L 36.8125 54.6875 
L 36.8125 47.703125 
L 18.3125 47.703125 
L 18.3125 18.015625 
Q 18.3125 11.328125 20.140625 9.421875 
Q 21.96875 7.515625 27.59375 7.515625 
L 36.8125 7.515625 
L 36.8125 0 
L 27.59375 0 
Q 17.1875 0 13.234375 3.875 
Q 9.28125 7.765625 9.28125 18.015625 
L 9.28125 47.703125 
L 2.6875 47.703125 
L 2.6875 54.6875 
L 9.28125 54.6875 
L 9.28125 70.21875 
z
" id="BitstreamVeraSans-Roman-74"/>
      <path d="M 41.109375 46.296875 
Q 39.59375 47.171875 37.8125 47.578125 
Q 36.03125 48 33.890625 48 
Q 26.265625 48 22.1875 43.046875 
Q 18.109375 38.09375 18.109375 28.8125 
L 18.109375 0 
L 9.078125 0 
L 9.078125 54.6875 
L 18.109375 54.6875 
L 18.109375 46.1875 
Q 20.953125 51.171875 25.484375 53.578125 
Q 30.03125 56 36.53125 56 
Q 37.453125 56 38.578125 55.875 
Q 39.703125 55.765625 41.0625 55.515625 
z
" id="BitstreamVeraSans-Roman-72"/>
      <path d="M 18.109375 8.203125 
L 18.109375 -20.796875 
L 9.078125 -20.796875 
L 9.078125 54.6875 
L 18.109375 54.6875 
L 18.109375 46.390625 
Q 20.953125 51.265625 25.265625 53.625 
Q 29.59375 56 35.59375 56 
Q 45.5625 56 51.78125 48.09375 
Q 58.015625 40.1875 58.015625 27.296875 
Q 58.015625 14.40625 51.78125 6.484375 
Q 45.5625 -1.421875 35.59375 -1.421875 
Q 29.59375 -1.421875 25.265625 0.953125 
Q 20.953125 3.328125 18.109375 8.203125 
M 48.6875 27.296875 
Q 48.6875 37.203125 44.609375 42.84375 
Q 40.53125 48.484375 33.40625 48.484375 
Q 26.265625 48.484375 22.1875 42.84375 
Q 18.109375 37.203125 18.109375 27.296875 
Q 18.109375 17.390625 22.1875 11.75 
Q 26.265625 6.109375 33.40625 6.109375 
Q 40.53125 6.109375 44.609375 11.75 
Q 48.6875 17.390625 48.6875 27.296875 
" id="BitstreamVeraSans-Roman-70"/>
     </defs>
     <g transform="translate(42.92625 275.551875)rotate(-90.0)scale(0.12 -0.12)">
      <use xlink:href="#BitstreamVeraSans-Roman-4d"/>
      <use x="86.279296875" xlink:href="#BitstreamVeraSans-Roman-6f"/>
      <use x="147.4609375" xlink:href="#BitstreamVeraSans-Roman-74"/>
      <use x="186.669921875" xlink:href="#BitstreamVeraSans-Roman-6f"/>
      <use x="247.8515625" xlink:href="#BitstreamVeraSans-Roman-72"/>
      <use x="288.96484375" xlink:href="#BitstreamVeraSans-Roman-20"/>
      <use x="320.751953125" xlink:href="#BitstreamVeraSans-Roman-70"/>
      <use x="384.228515625" xlink:href="#BitstreamVeraSans-Roman-6f"/>
      <use x="445.41015625" xlink:href="#BitstreamVeraSans-Roman-73"/>
      <use x="497.509765625" xlink:href="#BitstreamVeraSans-Roman-69"/>
      <use x="525.29296875" xlink:href="#BitstreamVeraSans-Roman-74"/>
      <use x="564.501953125" xlink:href="#BitstreamVeraSans-Roman-69"/>
      <use x="592.28515625" xlink:href="#BitstreamVeraSans-Roman-6f"/>
      <use x="653.466796875" xlink:href="#BitstreamVeraSans-Roman-6e"/>
      <use x="716.845703125" xlink:href="#BitstreamVeraSans-Roman-20"/>
      <use x="748.6328125" xlink:href="#BitstreamVeraSans-Roman-28"/>
      <use x="787.646484375" xlink:href="#BitstreamVeraSans-Roman-72"/>
      <use x="828.759765625" xlink:href="#BitstreamVeraSans-Roman-61"/>
      <use x="890.0390625" xlink:href="#BitstreamVeraSans-Roman-64"/>
      <use x="953.515625" xlink:href="#BitstreamVeraSans-Roman-29"/>
     </g>
    </g>
   </g>
   <g id="legend_1">
    <g id="patch_7">
     <path d="M 77.1105 383.802 
L 514.212 383.802 
L 514.212 366.131677 
L 77.1105 366.131677 
z
" style="fill:#ffffff;stroke:#000000;stroke-linejoin:miter;"/>
    </g>
    <g id="line2d_31">
     <path d="M 84.1077 374.226875 
L 98.1021 374.226875 
" style="fill:none;stroke:#b4656f;stroke-linecap:square;"/>
    </g>
    <g id="line2d_32"/>
    <g id="text_15">
     <!-- Muscle 1 -->
     <defs>
      <path d="M 12.40625 8.296875 
L 28.515625 8.296875 
L 28.515625 63.921875 
L 10.984375 60.40625 
L 10.984375 69.390625 
L 28.421875 72.90625 
L 38.28125 72.90625 
L 38.28125 8.296875 
L 54.390625 8.296875 
L 54.390625 0 
L 12.40625 0 
z
" id="BitstreamVeraSans-Roman-31"/>
      <path d="M 8.5 21.578125 
L 8.5 54.6875 
L 17.484375 54.6875 
L 17.484375 21.921875 
Q 17.484375 14.15625 20.5 10.265625 
Q 23.53125 6.390625 29.59375 6.390625 
Q 36.859375 6.390625 41.078125 11.03125 
Q 45.3125 15.671875 45.3125 23.6875 
L 45.3125 54.6875 
L 54.296875 54.6875 
L 54.296875 0 
L 45.3125 0 
L 45.3125 8.40625 
Q 42.046875 3.421875 37.71875 1 
Q 33.40625 -1.421875 27.6875 -1.421875 
Q 18.265625 -1.421875 13.375 4.4375 
Q 8.5 10.296875 8.5 21.578125 
" id="BitstreamVeraSans-Roman-75"/>
      <path d="M 9.421875 75.984375 
L 18.40625 75.984375 
L 18.40625 0 
L 9.421875 0 
z
" id="BitstreamVeraSans-Roman-6c"/>
      <path d="M 48.78125 52.59375 
L 48.78125 44.1875 
Q 44.96875 46.296875 41.140625 47.34375 
Q 37.3125 48.390625 33.40625 48.390625 
Q 24.65625 48.390625 19.8125 42.84375 
Q 14.984375 37.3125 14.984375 27.296875 
Q 14.984375 17.28125 19.8125 11.734375 
Q 24.65625 6.203125 33.40625 6.203125 
Q 37.3125 6.203125 41.140625 7.25 
Q 44.96875 8.296875 48.78125 10.40625 
L 48.78125 2.09375 
Q 45.015625 0.34375 40.984375 -0.53125 
Q 36.96875 -1.421875 32.421875 -1.421875 
Q 20.0625 -1.421875 12.78125 6.34375 
Q 5.515625 14.109375 5.515625 27.296875 
Q 5.515625 40.671875 12.859375 48.328125 
Q 20.21875 56 33.015625 56 
Q 37.15625 56 41.109375 55.140625 
Q 45.0625 54.296875 48.78125 52.59375 
" id="BitstreamVeraSans-Roman-63"/>
     </defs>
     <g transform="translate(109.0977 377.725475)scale(0.09996 -0.09996)">
      <use xlink:href="#BitstreamVeraSans-Roman-4d"/>
      <use x="86.279296875" xlink:href="#BitstreamVeraSans-Roman-75"/>
      <use x="149.658203125" xlink:href="#BitstreamVeraSans-Roman-73"/>
      <use x="201.7578125" xlink:href="#BitstreamVeraSans-Roman-63"/>
      <use x="256.73828125" xlink:href="#BitstreamVeraSans-Roman-6c"/>
      <use x="284.521484375" xlink:href="#BitstreamVeraSans-Roman-65"/>
      <use x="346.044921875" xlink:href="#BitstreamVeraSans-Roman-20"/>
      <use x="377.83203125" xlink:href="#BitstreamVeraSans-Roman-31"/>
     </g>
    </g>
    <g id="line2d_33">
     <path d="M 155.496505 374.226875 
L 169.490905 374.226875 
" style="fill:none;stroke:#f3d34a;stroke-linecap:square;"/>
    </g>
    <g id="line2d_34"/>
    <g id="text_16">
     <!-- Muscle 2 -->
     <g transform="translate(180.486505 377.725475)scale(0.09996 -0.09996)">
      <use xlink:href="#BitstreamVeraSans-Roman-4d"/>
      <use x="86.279296875" xlink:href="#BitstreamVeraSans-Roman-75"/>
      <use x="149.658203125" xlink:href="#BitstreamVeraSans-Roman-73"/>
      <use x="201.7578125" xlink:href="#BitstreamVeraSans-Roman-63"/>
      <use x="256.73828125" xlink:href="#BitstreamVeraSans-Roman-6c"/>
      <use x="284.521484375" xlink:href="#BitstreamVeraSans-Roman-65"/>
      <use x="346.044921875" xlink:href="#BitstreamVeraSans-Roman-20"/>
      <use x="377.83203125" xlink:href="#BitstreamVeraSans-Roman-32"/>
     </g>
    </g>
    <g id="line2d_35">
     <path d="M 226.88531 374.226875 
L 240.87971 374.226875 
" style="fill:none;stroke:#a11692;stroke-linecap:square;"/>
    </g>
    <g id="line2d_36"/>
    <g id="text_17">
     <!-- Muscle 6 -->
     <g transform="translate(251.87531 377.725475)scale(0.09996 -0.09996)">
      <use xlink:href="#BitstreamVeraSans-Roman-4d"/>
      <use x="86.279296875" xlink:href="#BitstreamVeraSans-Roman-75"/>
      <use x="149.658203125" xlink:href="#BitstreamVeraSans-Roman-73"/>
      <use x="201.7578125" xlink:href="#BitstreamVeraSans-Roman-63"/>
      <use x="256.73828125" xlink:href="#BitstreamVeraSans-Roman-6c"/>
      <use x="284.521484375" xlink:href="#BitstreamVeraSans-Roman-65"/>
      <use x="346.044921875" xlink:href="#BitstreamVeraSans-Roman-20"/>
      <use x="377.83203125" xlink:href="#BitstreamVeraSans-Roman-36"/>
     </g>
    </g>
    <g id="line2d_37">
     <path d="M 298.274115 374.226875 
L 312.268515 374.226875 
" style="fill:none;stroke:#f75c03;stroke-linecap:square;"/>
    </g>
    <g id="line2d_38"/>
    <g id="text_18">
     <!-- Muscle 5 -->
     <defs>
      <path d="M 10.796875 72.90625 
L 49.515625 72.90625 
L 49.515625 64.59375 
L 19.828125 64.59375 
L 19.828125 46.734375 
Q 21.96875 47.46875 24.109375 47.828125 
Q 26.265625 48.1875 28.421875 48.1875 
Q 40.625 48.1875 47.75 41.5 
Q 54.890625 34.8125 54.890625 23.390625 
Q 54.890625 11.625 47.5625 5.09375 
Q 40.234375 -1.421875 26.90625 -1.421875 
Q 22.3125 -1.421875 17.546875 -0.640625 
Q 12.796875 0.140625 7.71875 1.703125 
L 7.71875 11.625 
Q 12.109375 9.234375 16.796875 8.0625 
Q 21.484375 6.890625 26.703125 6.890625 
Q 35.15625 6.890625 40.078125 11.328125 
Q 45.015625 15.765625 45.015625 23.390625 
Q 45.015625 31 40.078125 35.4375 
Q 35.15625 39.890625 26.703125 39.890625 
Q 22.75 39.890625 18.8125 39.015625 
Q 14.890625 38.140625 10.796875 36.28125 
z
" id="BitstreamVeraSans-Roman-35"/>
     </defs>
     <g transform="translate(323.264115 377.725475)scale(0.09996 -0.09996)">
      <use xlink:href="#BitstreamVeraSans-Roman-4d"/>
      <use x="86.279296875" xlink:href="#BitstreamVeraSans-Roman-75"/>
      <use x="149.658203125" xlink:href="#BitstreamVeraSans-Roman-73"/>
      <use x="201.7578125" xlink:href="#BitstreamVeraSans-Roman-63"/>
      <use x="256.73828125" xlink:href="#BitstreamVeraSans-Roman-6c"/>
      <use x="284.521484375" xlink:href="#BitstreamVeraSans-Roman-65"/>
      <use x="346.044921875" xlink:href="#BitstreamVeraSans-Roman-20"/>
      <use x="377.83203125" xlink:href="#BitstreamVeraSans-Roman-35"/>
     </g>
    </g>
    <g id="line2d_39">
     <path d="M 369.66292 374.226875 
L 383.65732 374.226875 
" style="fill:none;stroke:#2274a5;stroke-linecap:square;"/>
    </g>
    <g id="line2d_40"/>
    <g id="text_19">
     <!-- Muscle 4 -->
     <g transform="translate(394.65292 377.725475)scale(0.09996 -0.09996)">
      <use xlink:href="#BitstreamVeraSans-Roman-4d"/>
      <use x="86.279296875" xlink:href="#BitstreamVeraSans-Roman-75"/>
      <use x="149.658203125" xlink:href="#BitstreamVeraSans-Roman-73"/>
      <use x="201.7578125" xlink:href="#BitstreamVeraSans-Roman-63"/>
      <use x="256.73828125" xlink:href="#BitstreamVeraSans-Roman-6c"/>
      <use x="284.521484375" xlink:href="#BitstreamVeraSans-Roman-65"/>
      <use x="346.044921875" xlink:href="#BitstreamVeraSans-Roman-20"/>
      <use x="377.83203125" xlink:href="#BitstreamVeraSans-Roman-34"/>
     </g>
    </g>
    <g id="line2d_41">
     <path d="M 441.051725 374.226875 
L 455.046125 374.226875 
" style="fill:none;stroke:#4e937a;stroke-linecap:square;"/>
    </g>
    <g id="line2d_42"/>
    <g id="text_20">
     <!-- Muscle 3 -->
     <defs>
      <path d="M 40.578125 39.3125 
Q 47.65625 37.796875 51.625 33 
Q 55.609375 28.21875 55.609375 21.1875 
Q 55.609375 10.40625 48.1875 4.484375 
Q 40.765625 -1.421875 27.09375 -1.421875 
Q 22.515625 -1.421875 17.65625 -0.515625 
Q 12.796875 0.390625 7.625 2.203125 
L 7.625 11.71875 
Q 11.71875 9.328125 16.59375 8.109375 
Q 21.484375 6.890625 26.8125 6.890625 
Q 36.078125 6.890625 40.9375 10.546875 
Q 45.796875 14.203125 45.796875 21.1875 
Q 45.796875 27.640625 41.28125 31.265625 
Q 36.765625 34.90625 28.71875 34.90625 
L 20.21875 34.90625 
L 20.21875 43.015625 
L 29.109375 43.015625 
Q 36.375 43.015625 40.234375 45.921875 
Q 44.09375 48.828125 44.09375 54.296875 
Q 44.09375 59.90625 40.109375 62.90625 
Q 36.140625 65.921875 28.71875 65.921875 
Q 24.65625 65.921875 20.015625 65.03125 
Q 15.375 64.15625 9.8125 62.3125 
L 9.8125 71.09375 
Q 15.4375 72.65625 20.34375 73.4375 
Q 25.25 74.21875 29.59375 74.21875 
Q 40.828125 74.21875 47.359375 69.109375 
Q 53.90625 64.015625 53.90625 55.328125 
Q 53.90625 49.265625 50.4375 45.09375 
Q 46.96875 40.921875 40.578125 39.3125 
" id="BitstreamVeraSans-Roman-33"/>
     </defs>
     <g transform="translate(466.041725 377.725475)scale(0.09996 -0.09996)">
      <use xlink:href="#BitstreamVeraSans-Roman-4d"/>
      <use x="86.279296875" xlink:href="#BitstreamVeraSans-Roman-75"/>
      <use x="149.658203125" xlink:href="#BitstreamVeraSans-Roman-73"/>
      <use x="201.7578125" xlink:href="#BitstreamVeraSans-Roman-63"/>
      <use x="256.73828125" xlink:href="#BitstreamVeraSans-Roman-6c"/>
      <use x="284.521484375" xlink:href="#BitstreamVeraSans-Roman-65"/>
      <use x="346.044921875" xlink:href="#BitstreamVeraSans-Roman-20"/>
      <use x="377.83203125" xlink:href="#BitstreamVeraSans-Roman-33"/>
     </g>
    </g>
   </g>
  </g>
 </g>
 <defs>
  <clipPath id="pee6d500bc6">
   <rect height="345.6" width="447.0975" x="72.1125" y="43.2"/>
  </clipPath>
 </defs>
</svg>
