<?xml version="1.0" encoding="utf-8" standalone="no"?>
<!DOCTYPE svg PUBLIC "-//W3C//DTD SVG 1.1//EN"
  "http://www.w3.org/Graphics/SVG/1.1/DTD/svg11.dtd">
<!-- Created with matplotlib (http://matplotlib.org/) -->
<svg height="432pt" version="1.1" viewBox="0 0 576 432" width="576pt" xmlns="http://www.w3.org/2000/svg" xmlns:xlink="http://www.w3.org/1999/xlink">
 <defs>
  <style type="text/css">
*{stroke-linecap:butt;stroke-linejoin:round;stroke-miterlimit:100000;}
  </style>
 </defs>
 <g id="figure_1">
  <g id="patch_1">
   <path d="M 0 432 
L 576 432 
L 576 0 
L 0 0 
z
" style="fill:#ffffff;"/>
  </g>
  <g id="axes_1">
   <g id="patch_2">
    <path d="M 72 388.8 
L 518.4 388.8 
L 518.4 43.2 
L 72 43.2 
z
" style="fill:#ffffff;"/>
   </g>
   <g id="line2d_1">
    <path clip-path="url(#p0979dc5550)" d="M 71.226196 337.398984 
L 72.916059 337.219472 
L 76.306369 336.569732 
L 77.997666 335.954942 
L 79.695568 335.058968 
L 81.393329 333.967596 
L 83.082302 332.715775 
L 84.778225 331.287618 
L 88.185786 327.862584 
L 89.866377 325.89589 
L 93.254647 321.477978 
L 96.64332 316.162503 
L 98.33387 313.206108 
L 100.034196 309.962175 
L 101.725957 306.394166 
L 105.114288 298.366942 
L 108.499669 289.29918 
L 115.284167 270.807809 
L 133.918671 219.939065 
L 140.705937 201.50965 
L 150.864565 174.061721 
L 159.33727 151.635373 
L 167.81058 130.511683 
L 174.592594 112.212534 
L 177.995873 103.149538 
L 179.676261 99.065233 
L 181.370124 98.436145 
L 184.759323 98.79517 
L 186.461164 99.187555 
L 188.175833 99.762631 
L 189.840949 100.461617 
L 191.557214 101.303578 
L 193.231118 102.382242 
L 194.929041 103.934309 
L 196.617671 105.629352 
L 198.317674 107.592868 
L 201.705924 112.341211 
L 205.09286 118.26671 
L 206.821083 121.763231 
L 208.483776 125.393195 
L 210.171558 129.358355 
L 213.563545 138.162408 
L 254.235589 248.854867 
L 264.404943 276.302797 
L 281.346151 322.2278 
L 283.04169 323.146014 
L 286.428424 323.873595 
L 288.124488 323.995918 
L 289.762536 323.757627 
L 291.519666 323.133305 
L 293.211549 322.348534 
L 294.903512 321.401725 
L 296.596041 320.262694 
L 298.296691 318.960038 
L 301.68391 315.976636 
L 305.077068 312.416571 
L 308.458955 308.49748 
L 310.160756 306.348097 
L 311.846821 303.99696 
L 313.552056 301.29633 
L 315.23905 298.397125 
L 316.933053 295.251686 
L 318.628511 291.840949 
L 322.023952 284.18387 
L 323.714744 279.975653 
L 332.183348 257.106085 
L 367.772695 160.647534 
L 372.850019 147.373144 
L 379.630942 130.557753 
L 389.798923 105.735788 
L 391.492987 102.5554 
L 394.885559 102.466438 
L 396.576513 102.482324 
L 398.197228 102.790513 
L 399.966479 103.30681 
L 401.671048 104.005797 
L 403.362102 104.877941 
L 405.049359 105.945484 
L 406.745483 107.19254 
L 410.138056 110.283966 
L 413.522285 114.023544 
L 415.218067 116.266656 
L 418.623608 121.626611 
L 420.30335 124.69262 
L 421.999171 128.039813 
L 423.687014 131.650713 
L 425.386472 135.719133 
L 428.778337 144.662983 
L 447.414093 195.547613 
L 460.966021 232.422329 
L 466.058071 246.279737 
L 468.049913 250.908934 
L 469.440321 255.434872 
L 498.251997 333.614925 
L 499.943173 338.048724 
L 501.643883 338.622211 
L 505.030092 338.955818 
L 506.648606 338.951052 
L 508.421534 338.769951 
L 510.115416 338.188521 
L 513.504655 336.353682 
L 515.198295 335.165405 
L 516.890804 333.697533 
L 518.588504 332.024731 
L 518.588504 332.024731 
" style="fill:none;stroke:#b4656f;stroke-linecap:square;"/>
   </g>
   <g id="line2d_2">
    <path clip-path="url(#p0979dc5550)" d="M 71.226196 167.057558 
L 76.306369 159.532333 
L 81.393329 152.232689 
L 91.55329 138.624693 
L 98.33387 130.046222 
L 100.034196 128.030281 
L 101.725957 126.475036 
L 103.41584 127.418668 
L 105.114288 131.105822 
L 106.813745 135.105931 
L 108.499669 139.638223 
L 118.671831 169.928168 
L 127.147222 194.608747 
L 135.618048 218.89694 
L 145.714882 247.574451 
L 149.173289 257.110851 
L 155.946919 276.131227 
L 167.81058 309.333087 
L 177.995873 337.738946 
L 179.676261 339.608735 
L 184.759323 339.551545 
L 186.461164 339.268773 
L 189.840949 338.250477 
L 191.557214 337.575319 
L 193.231118 336.647574 
L 194.929041 335.427525 
L 198.317674 332.23125 
L 201.705924 327.988084 
L 203.401038 325.703669 
L 205.09286 322.983976 
L 206.821083 319.975157 
L 208.483776 316.767762 
L 210.171558 313.268063 
L 211.883197 309.455409 
L 218.648303 293.145194 
L 223.735727 281.680227 
L 228.817213 271.011151 
L 235.521818 257.423806 
L 238.98384 250.910523 
L 245.762238 238.114303 
L 252.544696 225.783546 
L 264.404943 205.709924 
L 266.097775 204.353255 
L 276.271291 234.422384 
L 283.04169 253.970177 
L 289.762536 273.352756 
L 293.211549 282.928871 
L 303.371409 311.441167 
L 305.077068 314.789948 
L 308.458955 311.341084 
L 310.160756 309.482416 
L 311.846821 307.269488 
L 313.552056 304.781731 
L 315.23905 302.074747 
L 316.933053 299.118352 
L 318.628511 295.904603 
L 322.023952 288.619257 
L 330.487789 269.250976 
L 335.571799 258.286419 
L 340.658618 247.80321 
L 345.742588 237.486804 
L 352.52238 224.431642 
L 359.297384 211.981739 
L 364.379435 203.049009 
L 372.850019 188.443368 
L 383.018525 170.954408 
L 389.798923 159.954902 
L 399.966479 143.859148 
L 406.745483 133.364819 
L 411.830625 125.914258 
L 415.218067 121.151618 
L 416.909303 118.878323 
L 418.623608 119.035595 
L 420.30335 121.43439 
L 421.999171 124.414614 
L 423.687014 127.663313 
L 425.386472 131.366353 
L 427.087121 135.652411 
L 430.465412 145.184046 
L 455.885222 218.553801 
L 462.665923 237.494747 
L 466.058071 247.024793 
L 468.049913 251.714357 
L 469.440321 256.507181 
L 491.47063 318.704272 
L 498.251997 337.438699 
L 499.943173 338.971704 
L 505.030092 339.77395 
L 506.648606 339.821608 
L 508.421534 339.754887 
L 510.115416 339.332317 
L 513.504655 337.662693 
L 515.198295 336.60627 
L 518.588504 333.827799 
L 518.588504 333.827799 
" style="fill:none;stroke:#f3d34a;stroke-linecap:square;"/>
   </g>
   <g id="line2d_3">
    <path clip-path="url(#p0979dc5550)" d="M 71.226196 101.681666 
L 72.916059 99.648251 
L 76.306369 100.396484 
L 77.997666 101.025572 
L 79.695568 101.935843 
L 81.393329 103.054222 
L 83.082302 104.337815 
L 84.778225 105.821573 
L 88.185786 109.308562 
L 91.55329 113.510425 
L 93.254647 115.832966 
L 96.64332 121.2517 
L 98.33387 124.277994 
L 100.034196 127.572763 
L 101.725957 131.218613 
L 103.41584 135.12976 
L 105.114288 139.347508 
L 110.199126 153.182675 
L 111.895514 157.875417 
L 113.737951 162.566569 
L 116.974151 171.877388 
L 161.035192 294.031636 
L 176.281709 336.728593 
L 177.995873 338.417281 
L 179.676261 338.445875 
L 183.069662 338.167869 
L 184.759323 337.889863 
L 186.461164 337.459351 
L 188.175833 336.849327 
L 191.557214 335.248012 
L 193.231118 334.091507 
L 194.929041 332.688768 
L 198.317674 328.925361 
L 199.935642 326.494795 
L 201.705924 324.041987 
L 203.401038 321.230155 
L 206.821083 314.610435 
L 210.171558 306.996248 
L 215.262659 294.514573 
L 230.513721 256.284776 
L 237.293412 238.595651 
L 281.346151 120.479638 
L 283.04169 115.818669 
L 284.736259 113.593032 
L 288.124488 113.31026 
L 289.762536 113.621627 
L 291.519666 114.255481 
L 293.211549 115.086322 
L 294.903512 116.041074 
L 296.596041 117.208699 
L 298.296691 118.532007 
L 299.98524 120.014176 
L 303.371409 123.355014 
L 306.765254 127.178788 
L 308.458955 129.251919 
L 311.846821 133.822337 
L 313.552056 136.540442 
L 315.23905 139.450768 
L 316.933053 142.648631 
L 320.323707 149.803711 
L 323.714744 158.034277 
L 328.796936 171.782071 
L 386.413461 330.930182 
L 388.100333 333.321033 
L 393.197798 334.245602 
L 394.885559 334.315501 
L 396.576513 334.128045 
L 398.197228 333.70071 
L 399.966479 333.117692 
L 401.671048 332.43618 
L 403.362102 331.497314 
L 406.745483 329.128703 
L 410.138056 326.108763 
L 411.830625 324.264392 
L 413.522285 322.2278 
L 415.218067 319.957682 
L 416.909303 317.425444 
L 420.30335 311.32361 
L 423.687014 304.33851 
L 427.087121 296.255685 
L 440.6382 262.570889 
L 447.414093 245.107346 
L 450.801616 236.203211 
L 452.42623 231.664564 
L 455.885222 222.507841 
L 460.966021 208.772756 
L 466.058071 195.042436 
L 468.049913 190.467252 
L 469.440321 185.915896 
L 501.643883 99.490979 
L 503.333907 97.954797 
L 506.648606 98.01993 
L 508.421534 98.228038 
L 510.115416 98.763398 
L 513.504655 100.679256 
L 515.198295 101.902483 
L 516.890804 103.398949 
L 518.588504 105.082871 
L 518.588504 105.082871 
" style="fill:none;stroke:#a11692;stroke-linecap:square;"/>
   </g>
   <g id="line2d_4">
    <path clip-path="url(#p0979dc5550)" d="M 71.226196 337.378332 
L 72.916059 337.232181 
L 76.306369 336.584029 
L 77.997666 335.978771 
L 79.695568 335.058968 
L 81.393329 334.002545 
L 83.082302 332.731661 
L 84.778225 331.311447 
L 86.4734 329.676772 
L 89.866377 325.908599 
L 93.254647 321.497041 
L 94.944832 318.907614 
L 98.33387 313.182279 
L 100.034196 309.966941 
L 101.725957 306.37828 
L 103.41584 302.522734 
L 106.813745 293.988744 
L 111.895514 280.207589 
L 113.737951 275.635582 
L 116.974151 266.570998 
L 139.004742 207.53682 
L 147.47876 186.351174 
L 167.81058 137.611162 
L 181.370124 105.978845 
L 183.069662 102.274216 
L 184.759323 99.135131 
L 186.461164 99.220916 
L 188.175833 99.805523 
L 191.557214 101.336939 
L 193.231118 102.421957 
L 194.929041 103.916835 
L 196.617671 105.716725 
L 198.317674 107.731077 
L 201.705924 112.412698 
L 203.401038 115.191169 
L 205.09286 118.314368 
L 206.821083 121.790238 
L 208.483776 125.437676 
L 211.883197 133.69366 
L 233.905304 193.968539 
L 235.521818 198.559609 
L 238.98384 207.717921 
L 249.152184 234.98475 
L 255.932865 253.10121 
L 281.346151 321.443028 
L 283.04169 323.069761 
L 286.428424 323.827526 
L 288.124488 323.984797 
L 289.762536 323.752861 
L 291.519666 323.180963 
L 294.903512 321.4748 
L 296.596041 320.356422 
L 299.98524 317.631963 
L 301.68391 316.094193 
L 305.077068 312.583374 
L 308.458955 308.692879 
L 311.846821 304.24796 
L 315.23905 298.711669 
L 318.628511 292.163436 
L 322.023952 284.511122 
L 325.404445 275.846867 
L 349.136676 212.253391 
L 354.211515 199.202995 
L 362.682139 178.385905 
L 374.554062 149.88473 
L 383.018525 129.908013 
L 391.492987 110.349099 
L 394.885559 103.057399 
L 396.576513 102.487089 
L 398.197228 102.777804 
L 399.966479 103.340171 
L 401.671048 104.001031 
L 403.362102 104.892239 
L 405.049359 105.915301 
L 406.745483 107.12423 
L 408.43781 108.526968 
L 410.138056 110.153701 
L 413.522285 113.901222 
L 415.218067 116.096675 
L 416.909303 118.536773 
L 418.623608 121.416915 
L 421.999171 127.703028 
L 423.687014 131.30122 
L 425.386472 135.302918 
L 428.778337 144.380211 
L 457.58464 223.136929 
L 466.058071 245.976313 
L 468.049913 250.549909 
L 469.440321 255.134625 
L 499.943173 337.448231 
L 501.643883 338.671457 
L 505.030092 338.979647 
L 506.648606 338.968527 
L 508.421534 338.838261 
L 510.115416 338.298135 
L 511.806895 337.462528 
L 513.504655 336.490302 
L 515.198295 335.308379 
L 516.890804 333.846862 
L 518.588504 332.170883 
L 518.588504 332.170883 
" style="fill:none;stroke:#f75c03;stroke-linecap:square;"/>
   </g>
   <g id="line2d_5">
    <path clip-path="url(#p0979dc5550)" d="M 71.226196 101.9279 
L 72.916059 100.841294 
L 76.306369 101.64354 
L 77.997666 102.364767 
L 79.695568 103.329051 
L 83.082302 105.924832 
L 84.778225 107.557919 
L 86.4734 109.364164 
L 88.185786 111.372161 
L 91.55329 115.871093 
L 93.254647 118.436691 
L 96.64332 124.249399 
L 100.034196 131.000974 
L 101.725957 134.858108 
L 105.114288 143.438168 
L 110.199126 157.797575 
L 111.895514 162.626937 
L 113.737951 167.427703 
L 115.284167 172.222115 
L 122.061394 191.31239 
L 142.394062 248.926354 
L 161.035192 300.854698 
L 172.927821 333.980305 
L 174.592594 337.616623 
L 177.995873 337.696054 
L 179.676261 337.683345 
L 181.370124 337.530839 
L 184.759323 336.858858 
L 186.461164 336.347327 
L 188.175833 335.656284 
L 191.557214 333.869102 
L 193.231118 332.56168 
L 194.929041 330.984194 
L 196.617671 329.007969 
L 198.317674 326.815693 
L 201.705924 321.519281 
L 203.401038 318.519994 
L 205.09286 315.180745 
L 208.483776 307.571323 
L 211.883197 298.93884 
L 237.293412 228.295131 
L 244.083748 209.705267 
L 250.849864 192.070155 
L 257.622162 175.005352 
L 266.097775 154.143782 
L 274.56852 133.631705 
L 281.346151 117.686869 
L 283.04169 114.74636 
L 286.428424 114.201468 
L 288.124488 114.177639 
L 289.762536 114.382569 
L 291.519666 115.070435 
L 293.211549 115.893333 
L 296.596041 118.066546 
L 298.296691 119.423215 
L 301.68391 122.560711 
L 306.765254 128.233623 
L 310.160756 132.545098 
L 313.552056 137.752548 
L 315.23905 140.66764 
L 318.628511 147.282594 
L 322.023952 155.041344 
L 325.404445 163.792973 
L 342.350601 210.925316 
L 343.973701 215.656184 
L 347.453419 225.140161 
L 384.718871 328.845931 
L 386.413461 332.671294 
L 391.492987 333.591096 
L 393.197798 333.734071 
L 396.576513 333.68959 
L 398.197228 333.340097 
L 401.671048 331.946889 
L 403.362102 330.97784 
L 405.049359 329.818158 
L 406.745483 328.507558 
L 408.43781 326.998383 
L 410.138056 325.287454 
L 411.830625 323.414488 
L 413.522285 321.31594 
L 415.218067 318.93462 
L 416.909303 316.351547 
L 418.623608 313.379266 
L 420.30335 310.187757 
L 423.687014 303.000904 
L 425.386472 298.862586 
L 430.465412 285.343552 
L 440.6382 257.951223 
L 455.885222 215.907184 
L 466.058071 188.68007 
L 468.049913 184.316171 
L 469.440321 179.91891 
L 477.915915 158.379005 
L 484.693404 141.574733 
L 491.47063 125.289936 
L 498.251997 109.971011 
L 503.333907 99.173258 
L 505.030092 98.401196 
L 508.421534 98.671259 
L 510.115416 99.270163 
L 511.806895 100.12801 
L 513.504655 101.171724 
L 515.198295 102.407659 
L 518.588504 105.729434 
L 518.588504 105.729434 
" style="fill:none;stroke:#2274a5;stroke-linecap:square;"/>
   </g>
   <g id="line2d_6">
    <path clip-path="url(#p0979dc5550)" d="M 71.226196 102.015274 
L 72.916059 102.325052 
L 76.306369 103.475202 
L 77.997666 104.328284 
L 79.695568 105.4832 
L 81.393329 106.835103 
L 83.082302 108.434829 
L 86.4734 112.207768 
L 89.866377 116.900509 
L 93.254647 122.365313 
L 96.64332 128.865888 
L 98.33387 132.330637 
L 100.034196 136.144879 
L 103.41584 144.777363 
L 106.813745 154.461503 
L 111.895514 169.878922 
L 113.737951 175.018061 
L 116.974151 185.223264 
L 144.088086 267.945142 
L 145.714882 273.069984 
L 150.864565 288.287238 
L 166.119385 333.978716 
L 167.81058 335.659461 
L 169.521714 335.885043 
L 171.202123 336.237713 
L 177.995873 336.547492 
L 179.676261 336.406106 
L 183.069662 335.727771 
L 184.759323 335.275018 
L 186.461164 334.647519 
L 188.175833 333.791261 
L 191.557214 331.722896 
L 193.231118 330.245493 
L 194.929041 328.518678 
L 196.617671 326.323225 
L 198.317674 323.819582 
L 201.705924 318.059298 
L 203.401038 314.750232 
L 205.09286 311.109148 
L 206.821083 307.102684 
L 210.171558 298.570283 
L 213.563545 288.989402 
L 227.121088 250.17341 
L 235.521818 226.31414 
L 238.98384 216.865113 
L 245.762238 198.37692 
L 252.544696 180.27158 
L 261.015522 158.188372 
L 272.877648 127.328117 
L 276.271291 118.751235 
L 279.651925 116.994237 
L 281.346151 116.199934 
L 283.04169 115.643922 
L 284.736259 115.365916 
L 286.428424 115.248359 
L 288.124488 115.269011 
L 289.762536 115.694758 
L 291.519666 116.473174 
L 294.903512 118.477995 
L 296.596041 119.783829 
L 298.296691 121.24058 
L 299.98524 122.860958 
L 303.371409 126.540169 
L 305.077068 128.52116 
L 308.458955 132.894592 
L 311.846821 137.882814 
L 315.23905 143.757478 
L 316.933053 147.098316 
L 320.323707 154.477389 
L 323.714744 162.924006 
L 327.103074 172.563665 
L 332.183348 187.863527 
L 372.850019 311.344262 
L 377.940958 326.626649 
L 379.630942 329.430538 
L 384.718871 331.436947 
L 386.413461 331.873814 
L 391.492987 332.693534 
L 393.197798 332.838097 
L 394.885559 332.838097 
L 396.576513 332.655408 
L 399.966479 331.416295 
L 401.671048 330.594986 
L 403.362102 329.54174 
L 405.049359 328.307394 
L 406.745483 326.884003 
L 410.138056 323.443083 
L 413.522285 319.168145 
L 415.218067 316.639085 
L 416.909303 313.789126 
L 418.623608 310.588085 
L 421.999171 303.496549 
L 423.687014 299.559984 
L 425.386472 295.2358 
L 430.465412 281.063848 
L 450.801616 223.492776 
L 452.42623 218.685655 
L 457.58464 204.475577 
L 466.058071 180.891137 
L 468.049913 176.206338 
L 469.440321 171.53266 
L 479.610201 144.043427 
L 489.776041 117.602673 
L 496.559751 101.114534 
L 498.251997 100.107358 
L 501.643883 99.543403 
L 503.333907 99.368656 
L 505.030092 99.322587 
L 506.648606 99.411549 
L 508.421534 99.676846 
L 510.115416 100.375832 
L 511.806895 101.330585 
L 513.504655 102.471203 
L 515.198295 103.893006 
L 516.890804 105.519738 
L 518.588504 107.424476 
L 518.588504 107.424476 
" style="fill:none;stroke:#4e937a;stroke-linecap:square;"/>
   </g>
   <g id="patch_3">
    <path d="M 72 43.2 
L 518.4 43.2 
" style="fill:none;stroke:#000000;stroke-linecap:square;stroke-linejoin:miter;"/>
   </g>
   <g id="patch_4">
    <path d="M 518.4 388.8 
L 518.4 43.2 
" style="fill:none;stroke:#000000;stroke-linecap:square;stroke-linejoin:miter;"/>
   </g>
   <g id="patch_5">
    <path d="M 72 388.8 
L 518.4 388.8 
" style="fill:none;stroke:#000000;stroke-linecap:square;stroke-linejoin:miter;"/>
   </g>
   <g id="patch_6">
    <path d="M 72 388.8 
L 72 43.2 
" style="fill:none;stroke:#000000;stroke-linecap:square;stroke-linejoin:miter;"/>
   </g>
   <g id="matplotlib.axis_1">
    <g id="xtick_1">
     <g id="line2d_7">
      <defs>
       <path d="M 0 0 
L 0 -4 
" id="m4a1ff0e24c" style="stroke:#000000;stroke-width:0.5;"/>
      </defs>
      <g>
       <use style="stroke:#000000;stroke-width:0.5;" x="149.332853356" xlink:href="#m4a1ff0e24c" y="388.8"/>
      </g>
     </g>
     <g id="line2d_8">
      <defs>
       <path d="M 0 0 
L 0 4 
" id="m547e6862a2" style="stroke:#000000;stroke-width:0.5;"/>
      </defs>
      <g>
       <use style="stroke:#000000;stroke-width:0.5;" x="149.332853356" xlink:href="#m547e6862a2" y="43.2"/>
      </g>
     </g>
     <g id="text_1">
      <!-- 26 -->
      <defs>
       <path d="M 19.1875 8.296875 
L 53.609375 8.296875 
L 53.609375 0 
L 7.328125 0 
L 7.328125 8.296875 
Q 12.9375 14.109375 22.625 23.890625 
Q 32.328125 33.6875 34.8125 36.53125 
Q 39.546875 41.84375 41.421875 45.53125 
Q 43.3125 49.21875 43.3125 52.78125 
Q 43.3125 58.59375 39.234375 62.25 
Q 35.15625 65.921875 28.609375 65.921875 
Q 23.96875 65.921875 18.8125 64.3125 
Q 13.671875 62.703125 7.8125 59.421875 
L 7.8125 69.390625 
Q 13.765625 71.78125 18.9375 73 
Q 24.125 74.21875 28.421875 74.21875 
Q 39.75 74.21875 46.484375 68.546875 
Q 53.21875 62.890625 53.21875 53.421875 
Q 53.21875 48.921875 51.53125 44.890625 
Q 49.859375 40.875 45.40625 35.40625 
Q 44.1875 33.984375 37.640625 27.21875 
Q 31.109375 20.453125 19.1875 8.296875 
" id="BitstreamVeraSans-Roman-32"/>
       <path d="M 33.015625 40.375 
Q 26.375 40.375 22.484375 35.828125 
Q 18.609375 31.296875 18.609375 23.390625 
Q 18.609375 15.53125 22.484375 10.953125 
Q 26.375 6.390625 33.015625 6.390625 
Q 39.65625 6.390625 43.53125 10.953125 
Q 47.40625 15.53125 47.40625 23.390625 
Q 47.40625 31.296875 43.53125 35.828125 
Q 39.65625 40.375 33.015625 40.375 
M 52.59375 71.296875 
L 52.59375 62.3125 
Q 48.875 64.0625 45.09375 64.984375 
Q 41.3125 65.921875 37.59375 65.921875 
Q 27.828125 65.921875 22.671875 59.328125 
Q 17.53125 52.734375 16.796875 39.40625 
Q 19.671875 43.65625 24.015625 45.921875 
Q 28.375 48.1875 33.59375 48.1875 
Q 44.578125 48.1875 50.953125 41.515625 
Q 57.328125 34.859375 57.328125 23.390625 
Q 57.328125 12.15625 50.6875 5.359375 
Q 44.046875 -1.421875 33.015625 -1.421875 
Q 20.359375 -1.421875 13.671875 8.265625 
Q 6.984375 17.96875 6.984375 36.375 
Q 6.984375 53.65625 15.1875 63.9375 
Q 23.390625 74.21875 37.203125 74.21875 
Q 40.921875 74.21875 44.703125 73.484375 
Q 48.484375 72.75 52.59375 71.296875 
" id="BitstreamVeraSans-Roman-36"/>
      </defs>
      <g transform="translate(141.697853356 401.918125)scale(0.12 -0.12)">
       <use xlink:href="#BitstreamVeraSans-Roman-32"/>
       <use x="63.623046875" xlink:href="#BitstreamVeraSans-Roman-36"/>
      </g>
     </g>
    </g>
    <g id="xtick_2">
     <g id="line2d_9">
      <g>
       <use style="stroke:#000000;stroke-width:0.5;" x="234.06038385" xlink:href="#m4a1ff0e24c" y="388.8"/>
      </g>
     </g>
     <g id="line2d_10">
      <g>
       <use style="stroke:#000000;stroke-width:0.5;" x="234.06038385" xlink:href="#m547e6862a2" y="43.2"/>
      </g>
     </g>
     <g id="text_2">
      <!-- 27 -->
      <defs>
       <path d="M 8.203125 72.90625 
L 55.078125 72.90625 
L 55.078125 68.703125 
L 28.609375 0 
L 18.3125 0 
L 43.21875 64.59375 
L 8.203125 64.59375 
z
" id="BitstreamVeraSans-Roman-37"/>
      </defs>
      <g transform="translate(226.42538385 401.918125)scale(0.12 -0.12)">
       <use xlink:href="#BitstreamVeraSans-Roman-32"/>
       <use x="63.623046875" xlink:href="#BitstreamVeraSans-Roman-37"/>
      </g>
     </g>
    </g>
    <g id="xtick_3">
     <g id="line2d_11">
      <g>
       <use style="stroke:#000000;stroke-width:0.5;" x="318.787914343" xlink:href="#m4a1ff0e24c" y="388.8"/>
      </g>
     </g>
     <g id="line2d_12">
      <g>
       <use style="stroke:#000000;stroke-width:0.5;" x="318.787914343" xlink:href="#m547e6862a2" y="43.2"/>
      </g>
     </g>
     <g id="text_3">
      <!-- 28 -->
      <defs>
       <path d="M 31.78125 34.625 
Q 24.75 34.625 20.71875 30.859375 
Q 16.703125 27.09375 16.703125 20.515625 
Q 16.703125 13.921875 20.71875 10.15625 
Q 24.75 6.390625 31.78125 6.390625 
Q 38.8125 6.390625 42.859375 10.171875 
Q 46.921875 13.96875 46.921875 20.515625 
Q 46.921875 27.09375 42.890625 30.859375 
Q 38.875 34.625 31.78125 34.625 
M 21.921875 38.8125 
Q 15.578125 40.375 12.03125 44.71875 
Q 8.5 49.078125 8.5 55.328125 
Q 8.5 64.0625 14.71875 69.140625 
Q 20.953125 74.21875 31.78125 74.21875 
Q 42.671875 74.21875 48.875 69.140625 
Q 55.078125 64.0625 55.078125 55.328125 
Q 55.078125 49.078125 51.53125 44.71875 
Q 48 40.375 41.703125 38.8125 
Q 48.828125 37.15625 52.796875 32.3125 
Q 56.78125 27.484375 56.78125 20.515625 
Q 56.78125 9.90625 50.3125 4.234375 
Q 43.84375 -1.421875 31.78125 -1.421875 
Q 19.734375 -1.421875 13.25 4.234375 
Q 6.78125 9.90625 6.78125 20.515625 
Q 6.78125 27.484375 10.78125 32.3125 
Q 14.796875 37.15625 21.921875 38.8125 
M 18.3125 54.390625 
Q 18.3125 48.734375 21.84375 45.5625 
Q 25.390625 42.390625 31.78125 42.390625 
Q 38.140625 42.390625 41.71875 45.5625 
Q 45.3125 48.734375 45.3125 54.390625 
Q 45.3125 60.0625 41.71875 63.234375 
Q 38.140625 66.40625 31.78125 66.40625 
Q 25.390625 66.40625 21.84375 63.234375 
Q 18.3125 60.0625 18.3125 54.390625 
" id="BitstreamVeraSans-Roman-38"/>
      </defs>
      <g transform="translate(311.152914343 401.918125)scale(0.12 -0.12)">
       <use xlink:href="#BitstreamVeraSans-Roman-32"/>
       <use x="63.623046875" xlink:href="#BitstreamVeraSans-Roman-38"/>
      </g>
     </g>
    </g>
    <g id="xtick_4">
     <g id="line2d_13">
      <g>
       <use style="stroke:#000000;stroke-width:0.5;" x="403.515444836" xlink:href="#m4a1ff0e24c" y="388.8"/>
      </g>
     </g>
     <g id="line2d_14">
      <g>
       <use style="stroke:#000000;stroke-width:0.5;" x="403.515444836" xlink:href="#m547e6862a2" y="43.2"/>
      </g>
     </g>
     <g id="text_4">
      <!-- 29 -->
      <defs>
       <path d="M 10.984375 1.515625 
L 10.984375 10.5 
Q 14.703125 8.734375 18.5 7.8125 
Q 22.3125 6.890625 25.984375 6.890625 
Q 35.75 6.890625 40.890625 13.453125 
Q 46.046875 20.015625 46.78125 33.40625 
Q 43.953125 29.203125 39.59375 26.953125 
Q 35.25 24.703125 29.984375 24.703125 
Q 19.046875 24.703125 12.671875 31.3125 
Q 6.296875 37.9375 6.296875 49.421875 
Q 6.296875 60.640625 12.9375 67.421875 
Q 19.578125 74.21875 30.609375 74.21875 
Q 43.265625 74.21875 49.921875 64.515625 
Q 56.59375 54.828125 56.59375 36.375 
Q 56.59375 19.140625 48.40625 8.859375 
Q 40.234375 -1.421875 26.421875 -1.421875 
Q 22.703125 -1.421875 18.890625 -0.6875 
Q 15.09375 0.046875 10.984375 1.515625 
M 30.609375 32.421875 
Q 37.25 32.421875 41.125 36.953125 
Q 45.015625 41.5 45.015625 49.421875 
Q 45.015625 57.28125 41.125 61.84375 
Q 37.25 66.40625 30.609375 66.40625 
Q 23.96875 66.40625 20.09375 61.84375 
Q 16.21875 57.28125 16.21875 49.421875 
Q 16.21875 41.5 20.09375 36.953125 
Q 23.96875 32.421875 30.609375 32.421875 
" id="BitstreamVeraSans-Roman-39"/>
      </defs>
      <g transform="translate(395.880444836 401.918125)scale(0.12 -0.12)">
       <use xlink:href="#BitstreamVeraSans-Roman-32"/>
       <use x="63.623046875" xlink:href="#BitstreamVeraSans-Roman-39"/>
      </g>
     </g>
    </g>
    <g id="xtick_5">
     <g id="line2d_15">
      <g>
       <use style="stroke:#000000;stroke-width:0.5;" x="488.24297533" xlink:href="#m4a1ff0e24c" y="388.8"/>
      </g>
     </g>
     <g id="line2d_16">
      <g>
       <use style="stroke:#000000;stroke-width:0.5;" x="488.24297533" xlink:href="#m547e6862a2" y="43.2"/>
      </g>
     </g>
     <g id="text_5">
      <!-- 30 -->
      <defs>
       <path d="M 40.578125 39.3125 
Q 47.65625 37.796875 51.625 33 
Q 55.609375 28.21875 55.609375 21.1875 
Q 55.609375 10.40625 48.1875 4.484375 
Q 40.765625 -1.421875 27.09375 -1.421875 
Q 22.515625 -1.421875 17.65625 -0.515625 
Q 12.796875 0.390625 7.625 2.203125 
L 7.625 11.71875 
Q 11.71875 9.328125 16.59375 8.109375 
Q 21.484375 6.890625 26.8125 6.890625 
Q 36.078125 6.890625 40.9375 10.546875 
Q 45.796875 14.203125 45.796875 21.1875 
Q 45.796875 27.640625 41.28125 31.265625 
Q 36.765625 34.90625 28.71875 34.90625 
L 20.21875 34.90625 
L 20.21875 43.015625 
L 29.109375 43.015625 
Q 36.375 43.015625 40.234375 45.921875 
Q 44.09375 48.828125 44.09375 54.296875 
Q 44.09375 59.90625 40.109375 62.90625 
Q 36.140625 65.921875 28.71875 65.921875 
Q 24.65625 65.921875 20.015625 65.03125 
Q 15.375 64.15625 9.8125 62.3125 
L 9.8125 71.09375 
Q 15.4375 72.65625 20.34375 73.4375 
Q 25.25 74.21875 29.59375 74.21875 
Q 40.828125 74.21875 47.359375 69.109375 
Q 53.90625 64.015625 53.90625 55.328125 
Q 53.90625 49.265625 50.4375 45.09375 
Q 46.96875 40.921875 40.578125 39.3125 
" id="BitstreamVeraSans-Roman-33"/>
       <path d="M 31.78125 66.40625 
Q 24.171875 66.40625 20.328125 58.90625 
Q 16.5 51.421875 16.5 36.375 
Q 16.5 21.390625 20.328125 13.890625 
Q 24.171875 6.390625 31.78125 6.390625 
Q 39.453125 6.390625 43.28125 13.890625 
Q 47.125 21.390625 47.125 36.375 
Q 47.125 51.421875 43.28125 58.90625 
Q 39.453125 66.40625 31.78125 66.40625 
M 31.78125 74.21875 
Q 44.046875 74.21875 50.515625 64.515625 
Q 56.984375 54.828125 56.984375 36.375 
Q 56.984375 17.96875 50.515625 8.265625 
Q 44.046875 -1.421875 31.78125 -1.421875 
Q 19.53125 -1.421875 13.0625 8.265625 
Q 6.59375 17.96875 6.59375 36.375 
Q 6.59375 54.828125 13.0625 64.515625 
Q 19.53125 74.21875 31.78125 74.21875 
" id="BitstreamVeraSans-Roman-30"/>
      </defs>
      <g transform="translate(480.60797533 401.918125)scale(0.12 -0.12)">
       <use xlink:href="#BitstreamVeraSans-Roman-33"/>
       <use x="63.623046875" xlink:href="#BitstreamVeraSans-Roman-30"/>
      </g>
     </g>
    </g>
    <g id="text_6">
     <!-- Time (s) -->
     <defs>
      <path id="BitstreamVeraSans-Roman-20"/>
      <path d="M 8.015625 75.875 
L 15.828125 75.875 
Q 23.140625 64.359375 26.78125 53.3125 
Q 30.421875 42.28125 30.421875 31.390625 
Q 30.421875 20.453125 26.78125 9.375 
Q 23.140625 -1.703125 15.828125 -13.1875 
L 8.015625 -13.1875 
Q 14.5 -2 17.703125 9.0625 
Q 20.90625 20.125 20.90625 31.390625 
Q 20.90625 42.671875 17.703125 53.65625 
Q 14.5 64.65625 8.015625 75.875 
" id="BitstreamVeraSans-Roman-29"/>
      <path d="M 31 75.875 
Q 24.46875 64.65625 21.28125 53.65625 
Q 18.109375 42.671875 18.109375 31.390625 
Q 18.109375 20.125 21.3125 9.0625 
Q 24.515625 -2 31 -13.1875 
L 23.1875 -13.1875 
Q 15.875 -1.703125 12.234375 9.375 
Q 8.59375 20.453125 8.59375 31.390625 
Q 8.59375 42.28125 12.203125 53.3125 
Q 15.828125 64.359375 23.1875 75.875 
z
" id="BitstreamVeraSans-Roman-28"/>
      <path d="M 9.421875 54.6875 
L 18.40625 54.6875 
L 18.40625 0 
L 9.421875 0 
z
M 9.421875 75.984375 
L 18.40625 75.984375 
L 18.40625 64.59375 
L 9.421875 64.59375 
z
" id="BitstreamVeraSans-Roman-69"/>
      <path d="M 52 44.1875 
Q 55.375 50.25 60.0625 53.125 
Q 64.75 56 71.09375 56 
Q 79.640625 56 84.28125 50.015625 
Q 88.921875 44.046875 88.921875 33.015625 
L 88.921875 0 
L 79.890625 0 
L 79.890625 32.71875 
Q 79.890625 40.578125 77.09375 44.375 
Q 74.3125 48.1875 68.609375 48.1875 
Q 61.625 48.1875 57.5625 43.546875 
Q 53.515625 38.921875 53.515625 30.90625 
L 53.515625 0 
L 44.484375 0 
L 44.484375 32.71875 
Q 44.484375 40.625 41.703125 44.40625 
Q 38.921875 48.1875 33.109375 48.1875 
Q 26.21875 48.1875 22.15625 43.53125 
Q 18.109375 38.875 18.109375 30.90625 
L 18.109375 0 
L 9.078125 0 
L 9.078125 54.6875 
L 18.109375 54.6875 
L 18.109375 46.1875 
Q 21.1875 51.21875 25.484375 53.609375 
Q 29.78125 56 35.6875 56 
Q 41.65625 56 45.828125 52.96875 
Q 50 49.953125 52 44.1875 
" id="BitstreamVeraSans-Roman-6d"/>
      <path d="M 56.203125 29.59375 
L 56.203125 25.203125 
L 14.890625 25.203125 
Q 15.484375 15.921875 20.484375 11.0625 
Q 25.484375 6.203125 34.421875 6.203125 
Q 39.59375 6.203125 44.453125 7.46875 
Q 49.3125 8.734375 54.109375 11.28125 
L 54.109375 2.78125 
Q 49.265625 0.734375 44.1875 -0.34375 
Q 39.109375 -1.421875 33.890625 -1.421875 
Q 20.796875 -1.421875 13.15625 6.1875 
Q 5.515625 13.8125 5.515625 26.8125 
Q 5.515625 40.234375 12.765625 48.109375 
Q 20.015625 56 32.328125 56 
Q 43.359375 56 49.78125 48.890625 
Q 56.203125 41.796875 56.203125 29.59375 
M 47.21875 32.234375 
Q 47.125 39.59375 43.09375 43.984375 
Q 39.0625 48.390625 32.421875 48.390625 
Q 24.90625 48.390625 20.390625 44.140625 
Q 15.875 39.890625 15.1875 32.171875 
z
" id="BitstreamVeraSans-Roman-65"/>
      <path d="M -0.296875 72.90625 
L 61.375 72.90625 
L 61.375 64.59375 
L 35.5 64.59375 
L 35.5 0 
L 25.59375 0 
L 25.59375 64.59375 
L -0.296875 64.59375 
z
" id="BitstreamVeraSans-Roman-54"/>
      <path d="M 44.28125 53.078125 
L 44.28125 44.578125 
Q 40.484375 46.53125 36.375 47.5 
Q 32.28125 48.484375 27.875 48.484375 
Q 21.1875 48.484375 17.84375 46.4375 
Q 14.5 44.390625 14.5 40.28125 
Q 14.5 37.15625 16.890625 35.375 
Q 19.28125 33.59375 26.515625 31.984375 
L 29.59375 31.296875 
Q 39.15625 29.25 43.1875 25.515625 
Q 47.21875 21.78125 47.21875 15.09375 
Q 47.21875 7.46875 41.1875 3.015625 
Q 35.15625 -1.421875 24.609375 -1.421875 
Q 20.21875 -1.421875 15.453125 -0.5625 
Q 10.6875 0.296875 5.421875 2 
L 5.421875 11.28125 
Q 10.40625 8.6875 15.234375 7.390625 
Q 20.0625 6.109375 24.8125 6.109375 
Q 31.15625 6.109375 34.5625 8.28125 
Q 37.984375 10.453125 37.984375 14.40625 
Q 37.984375 18.0625 35.515625 20.015625 
Q 33.0625 21.96875 24.703125 23.78125 
L 21.578125 24.515625 
Q 13.234375 26.265625 9.515625 29.90625 
Q 5.8125 33.546875 5.8125 39.890625 
Q 5.8125 47.609375 11.28125 51.796875 
Q 16.75 56 26.8125 56 
Q 31.78125 56 36.171875 55.265625 
Q 40.578125 54.546875 44.28125 53.078125 
" id="BitstreamVeraSans-Roman-73"/>
     </defs>
     <g transform="translate(270.620625 418.531875)scale(0.12 -0.12)">
      <use xlink:href="#BitstreamVeraSans-Roman-54"/>
      <use x="61.037109375" xlink:href="#BitstreamVeraSans-Roman-69"/>
      <use x="88.8203125" xlink:href="#BitstreamVeraSans-Roman-6d"/>
      <use x="186.232421875" xlink:href="#BitstreamVeraSans-Roman-65"/>
      <use x="247.755859375" xlink:href="#BitstreamVeraSans-Roman-20"/>
      <use x="279.54296875" xlink:href="#BitstreamVeraSans-Roman-28"/>
      <use x="318.556640625" xlink:href="#BitstreamVeraSans-Roman-73"/>
      <use x="370.65625" xlink:href="#BitstreamVeraSans-Roman-29"/>
     </g>
    </g>
   </g>
   <g id="matplotlib.axis_2">
    <g id="ytick_1">
     <g id="line2d_17">
      <defs>
       <path d="M 0 0 
L 4 0 
" id="m077868e7fc" style="stroke:#000000;stroke-width:0.5;"/>
      </defs>
      <g>
       <use style="stroke:#000000;stroke-width:0.5;" x="72.0" xlink:href="#m077868e7fc" y="379.123124785"/>
      </g>
     </g>
     <g id="line2d_18">
      <defs>
       <path d="M 0 0 
L -4 0 
" id="ma0429b0a40" style="stroke:#000000;stroke-width:0.5;"/>
      </defs>
      <g>
       <use style="stroke:#000000;stroke-width:0.5;" x="518.4" xlink:href="#ma0429b0a40" y="379.123124785"/>
      </g>
     </g>
     <g id="text_7">
      <!-- −6 -->
      <defs>
       <path d="M 10.59375 35.5 
L 73.1875 35.5 
L 73.1875 27.203125 
L 10.59375 27.203125 
z
" id="BitstreamVeraSans-Roman-2212"/>
      </defs>
      <g transform="translate(50.309375 382.434374785)scale(0.12 -0.12)">
       <use xlink:href="#BitstreamVeraSans-Roman-2212"/>
       <use x="83.7890625" xlink:href="#BitstreamVeraSans-Roman-36"/>
      </g>
     </g>
    </g>
    <g id="ytick_2">
     <g id="line2d_19">
      <g>
       <use style="stroke:#000000;stroke-width:0.5;" x="72.0" xlink:href="#m077868e7fc" y="325.522175227"/>
      </g>
     </g>
     <g id="line2d_20">
      <g>
       <use style="stroke:#000000;stroke-width:0.5;" x="518.4" xlink:href="#ma0429b0a40" y="325.522175227"/>
      </g>
     </g>
     <g id="text_8">
      <!-- −4 -->
      <defs>
       <path d="M 37.796875 64.3125 
L 12.890625 25.390625 
L 37.796875 25.390625 
z
M 35.203125 72.90625 
L 47.609375 72.90625 
L 47.609375 25.390625 
L 58.015625 25.390625 
L 58.015625 17.1875 
L 47.609375 17.1875 
L 47.609375 0 
L 37.796875 0 
L 37.796875 17.1875 
L 4.890625 17.1875 
L 4.890625 26.703125 
z
" id="BitstreamVeraSans-Roman-34"/>
      </defs>
      <g transform="translate(50.309375 328.833425227)scale(0.12 -0.12)">
       <use xlink:href="#BitstreamVeraSans-Roman-2212"/>
       <use x="83.7890625" xlink:href="#BitstreamVeraSans-Roman-34"/>
      </g>
     </g>
    </g>
    <g id="ytick_3">
     <g id="line2d_21">
      <g>
       <use style="stroke:#000000;stroke-width:0.5;" x="72.0" xlink:href="#m077868e7fc" y="271.92122567"/>
      </g>
     </g>
     <g id="line2d_22">
      <g>
       <use style="stroke:#000000;stroke-width:0.5;" x="518.4" xlink:href="#ma0429b0a40" y="271.92122567"/>
      </g>
     </g>
     <g id="text_9">
      <!-- −2 -->
      <g transform="translate(50.309375 275.23247567)scale(0.12 -0.12)">
       <use xlink:href="#BitstreamVeraSans-Roman-2212"/>
       <use x="83.7890625" xlink:href="#BitstreamVeraSans-Roman-32"/>
      </g>
     </g>
    </g>
    <g id="ytick_4">
     <g id="line2d_23">
      <g>
       <use style="stroke:#000000;stroke-width:0.5;" x="72.0" xlink:href="#m077868e7fc" y="218.320276112"/>
      </g>
     </g>
     <g id="line2d_24">
      <g>
       <use style="stroke:#000000;stroke-width:0.5;" x="518.4" xlink:href="#ma0429b0a40" y="218.320276112"/>
      </g>
     </g>
     <g id="text_10">
      <!-- 0 -->
      <g transform="translate(60.365 221.631526112)scale(0.12 -0.12)">
       <use xlink:href="#BitstreamVeraSans-Roman-30"/>
      </g>
     </g>
    </g>
    <g id="ytick_5">
     <g id="line2d_25">
      <g>
       <use style="stroke:#000000;stroke-width:0.5;" x="72.0" xlink:href="#m077868e7fc" y="164.719326555"/>
      </g>
     </g>
     <g id="line2d_26">
      <g>
       <use style="stroke:#000000;stroke-width:0.5;" x="518.4" xlink:href="#ma0429b0a40" y="164.719326555"/>
      </g>
     </g>
     <g id="text_11">
      <!-- 2 -->
      <g transform="translate(60.365 168.030576555)scale(0.12 -0.12)">
       <use xlink:href="#BitstreamVeraSans-Roman-32"/>
      </g>
     </g>
    </g>
    <g id="ytick_6">
     <g id="line2d_27">
      <g>
       <use style="stroke:#000000;stroke-width:0.5;" x="72.0" xlink:href="#m077868e7fc" y="111.118376997"/>
      </g>
     </g>
     <g id="line2d_28">
      <g>
       <use style="stroke:#000000;stroke-width:0.5;" x="518.4" xlink:href="#ma0429b0a40" y="111.118376997"/>
      </g>
     </g>
     <g id="text_12">
      <!-- 4 -->
      <g transform="translate(60.365 114.429626997)scale(0.12 -0.12)">
       <use xlink:href="#BitstreamVeraSans-Roman-34"/>
      </g>
     </g>
    </g>
    <g id="ytick_7">
     <g id="line2d_29">
      <g>
       <use style="stroke:#000000;stroke-width:0.5;" x="72.0" xlink:href="#m077868e7fc" y="57.5174274395"/>
      </g>
     </g>
     <g id="line2d_30">
      <g>
       <use style="stroke:#000000;stroke-width:0.5;" x="518.4" xlink:href="#ma0429b0a40" y="57.5174274395"/>
      </g>
     </g>
     <g id="text_13">
      <!-- 6 -->
      <g transform="translate(60.365 60.8286774395)scale(0.12 -0.12)">
       <use xlink:href="#BitstreamVeraSans-Roman-36"/>
      </g>
     </g>
    </g>
    <g id="text_14">
     <!-- Motor position (rad) -->
     <defs>
      <path d="M 9.8125 72.90625 
L 24.515625 72.90625 
L 43.109375 23.296875 
L 61.8125 72.90625 
L 76.515625 72.90625 
L 76.515625 0 
L 66.890625 0 
L 66.890625 64.015625 
L 48.09375 14.015625 
L 38.1875 14.015625 
L 19.390625 64.015625 
L 19.390625 0 
L 9.8125 0 
z
" id="BitstreamVeraSans-Roman-4d"/>
      <path d="M 54.890625 33.015625 
L 54.890625 0 
L 45.90625 0 
L 45.90625 32.71875 
Q 45.90625 40.484375 42.875 44.328125 
Q 39.84375 48.1875 33.796875 48.1875 
Q 26.515625 48.1875 22.3125 43.546875 
Q 18.109375 38.921875 18.109375 30.90625 
L 18.109375 0 
L 9.078125 0 
L 9.078125 54.6875 
L 18.109375 54.6875 
L 18.109375 46.1875 
Q 21.34375 51.125 25.703125 53.5625 
Q 30.078125 56 35.796875 56 
Q 45.21875 56 50.046875 50.171875 
Q 54.890625 44.34375 54.890625 33.015625 
" id="BitstreamVeraSans-Roman-6e"/>
      <path d="M 34.28125 27.484375 
Q 23.390625 27.484375 19.1875 25 
Q 14.984375 22.515625 14.984375 16.5 
Q 14.984375 11.71875 18.140625 8.90625 
Q 21.296875 6.109375 26.703125 6.109375 
Q 34.1875 6.109375 38.703125 11.40625 
Q 43.21875 16.703125 43.21875 25.484375 
L 43.21875 27.484375 
z
M 52.203125 31.203125 
L 52.203125 0 
L 43.21875 0 
L 43.21875 8.296875 
Q 40.140625 3.328125 35.546875 0.953125 
Q 30.953125 -1.421875 24.3125 -1.421875 
Q 15.921875 -1.421875 10.953125 3.296875 
Q 6 8.015625 6 15.921875 
Q 6 25.140625 12.171875 29.828125 
Q 18.359375 34.515625 30.609375 34.515625 
L 43.21875 34.515625 
L 43.21875 35.40625 
Q 43.21875 41.609375 39.140625 45 
Q 35.0625 48.390625 27.6875 48.390625 
Q 23 48.390625 18.546875 47.265625 
Q 14.109375 46.140625 10.015625 43.890625 
L 10.015625 52.203125 
Q 14.9375 54.109375 19.578125 55.046875 
Q 24.21875 56 28.609375 56 
Q 40.484375 56 46.34375 49.84375 
Q 52.203125 43.703125 52.203125 31.203125 
" id="BitstreamVeraSans-Roman-61"/>
      <path d="M 30.609375 48.390625 
Q 23.390625 48.390625 19.1875 42.75 
Q 14.984375 37.109375 14.984375 27.296875 
Q 14.984375 17.484375 19.15625 11.84375 
Q 23.34375 6.203125 30.609375 6.203125 
Q 37.796875 6.203125 41.984375 11.859375 
Q 46.1875 17.53125 46.1875 27.296875 
Q 46.1875 37.015625 41.984375 42.703125 
Q 37.796875 48.390625 30.609375 48.390625 
M 30.609375 56 
Q 42.328125 56 49.015625 48.375 
Q 55.71875 40.765625 55.71875 27.296875 
Q 55.71875 13.875 49.015625 6.21875 
Q 42.328125 -1.421875 30.609375 -1.421875 
Q 18.84375 -1.421875 12.171875 6.21875 
Q 5.515625 13.875 5.515625 27.296875 
Q 5.515625 40.765625 12.171875 48.375 
Q 18.84375 56 30.609375 56 
" id="BitstreamVeraSans-Roman-6f"/>
      <path d="M 45.40625 46.390625 
L 45.40625 75.984375 
L 54.390625 75.984375 
L 54.390625 0 
L 45.40625 0 
L 45.40625 8.203125 
Q 42.578125 3.328125 38.25 0.953125 
Q 33.9375 -1.421875 27.875 -1.421875 
Q 17.96875 -1.421875 11.734375 6.484375 
Q 5.515625 14.40625 5.515625 27.296875 
Q 5.515625 40.1875 11.734375 48.09375 
Q 17.96875 56 27.875 56 
Q 33.9375 56 38.25 53.625 
Q 42.578125 51.265625 45.40625 46.390625 
M 14.796875 27.296875 
Q 14.796875 17.390625 18.875 11.75 
Q 22.953125 6.109375 30.078125 6.109375 
Q 37.203125 6.109375 41.296875 11.75 
Q 45.40625 17.390625 45.40625 27.296875 
Q 45.40625 37.203125 41.296875 42.84375 
Q 37.203125 48.484375 30.078125 48.484375 
Q 22.953125 48.484375 18.875 42.84375 
Q 14.796875 37.203125 14.796875 27.296875 
" id="BitstreamVeraSans-Roman-64"/>
      <path d="M 18.3125 70.21875 
L 18.3125 54.6875 
L 36.8125 54.6875 
L 36.8125 47.703125 
L 18.3125 47.703125 
L 18.3125 18.015625 
Q 18.3125 11.328125 20.140625 9.421875 
Q 21.96875 7.515625 27.59375 7.515625 
L 36.8125 7.515625 
L 36.8125 0 
L 27.59375 0 
Q 17.1875 0 13.234375 3.875 
Q 9.28125 7.765625 9.28125 18.015625 
L 9.28125 47.703125 
L 2.6875 47.703125 
L 2.6875 54.6875 
L 9.28125 54.6875 
L 9.28125 70.21875 
z
" id="BitstreamVeraSans-Roman-74"/>
      <path d="M 41.109375 46.296875 
Q 39.59375 47.171875 37.8125 47.578125 
Q 36.03125 48 33.890625 48 
Q 26.265625 48 22.1875 43.046875 
Q 18.109375 38.09375 18.109375 28.8125 
L 18.109375 0 
L 9.078125 0 
L 9.078125 54.6875 
L 18.109375 54.6875 
L 18.109375 46.1875 
Q 20.953125 51.171875 25.484375 53.578125 
Q 30.03125 56 36.53125 56 
Q 37.453125 56 38.578125 55.875 
Q 39.703125 55.765625 41.0625 55.515625 
z
" id="BitstreamVeraSans-Roman-72"/>
      <path d="M 18.109375 8.203125 
L 18.109375 -20.796875 
L 9.078125 -20.796875 
L 9.078125 54.6875 
L 18.109375 54.6875 
L 18.109375 46.390625 
Q 20.953125 51.265625 25.265625 53.625 
Q 29.59375 56 35.59375 56 
Q 45.5625 56 51.78125 48.09375 
Q 58.015625 40.1875 58.015625 27.296875 
Q 58.015625 14.40625 51.78125 6.484375 
Q 45.5625 -1.421875 35.59375 -1.421875 
Q 29.59375 -1.421875 25.265625 0.953125 
Q 20.953125 3.328125 18.109375 8.203125 
M 48.6875 27.296875 
Q 48.6875 37.203125 44.609375 42.84375 
Q 40.53125 48.484375 33.40625 48.484375 
Q 26.265625 48.484375 22.1875 42.84375 
Q 18.109375 37.203125 18.109375 27.296875 
Q 18.109375 17.390625 22.1875 11.75 
Q 26.265625 6.109375 33.40625 6.109375 
Q 40.53125 6.109375 44.609375 11.75 
Q 48.6875 17.390625 48.6875 27.296875 
" id="BitstreamVeraSans-Roman-70"/>
     </defs>
     <g transform="translate(42.81375 275.551875)rotate(-90.0)scale(0.12 -0.12)">
      <use xlink:href="#BitstreamVeraSans-Roman-4d"/>
      <use x="86.279296875" xlink:href="#BitstreamVeraSans-Roman-6f"/>
      <use x="147.4609375" xlink:href="#BitstreamVeraSans-Roman-74"/>
      <use x="186.669921875" xlink:href="#BitstreamVeraSans-Roman-6f"/>
      <use x="247.8515625" xlink:href="#BitstreamVeraSans-Roman-72"/>
      <use x="288.96484375" xlink:href="#BitstreamVeraSans-Roman-20"/>
      <use x="320.751953125" xlink:href="#BitstreamVeraSans-Roman-70"/>
      <use x="384.228515625" xlink:href="#BitstreamVeraSans-Roman-6f"/>
      <use x="445.41015625" xlink:href="#BitstreamVeraSans-Roman-73"/>
      <use x="497.509765625" xlink:href="#BitstreamVeraSans-Roman-69"/>
      <use x="525.29296875" xlink:href="#BitstreamVeraSans-Roman-74"/>
      <use x="564.501953125" xlink:href="#BitstreamVeraSans-Roman-69"/>
      <use x="592.28515625" xlink:href="#BitstreamVeraSans-Roman-6f"/>
      <use x="653.466796875" xlink:href="#BitstreamVeraSans-Roman-6e"/>
      <use x="716.845703125" xlink:href="#BitstreamVeraSans-Roman-20"/>
      <use x="748.6328125" xlink:href="#BitstreamVeraSans-Roman-28"/>
      <use x="787.646484375" xlink:href="#BitstreamVeraSans-Roman-72"/>
      <use x="828.759765625" xlink:href="#BitstreamVeraSans-Roman-61"/>
      <use x="890.0390625" xlink:href="#BitstreamVeraSans-Roman-64"/>
      <use x="953.515625" xlink:href="#BitstreamVeraSans-Roman-29"/>
     </g>
    </g>
   </g>
   <g id="legend_1">
    <g id="patch_7">
     <path d="M 76.998 383.802 
L 513.402 383.802 
L 513.402 366.130946 
L 76.998 366.130946 
z
" style="fill:#ffffff;stroke:#000000;stroke-linejoin:miter;"/>
    </g>
    <g id="line2d_31">
     <path d="M 83.9952 374.226144 
L 97.9896 374.226144 
" style="fill:none;stroke:#b4656f;stroke-linecap:square;"/>
    </g>
    <g id="line2d_32"/>
    <g id="text_15">
     <!-- Muscle 1 -->
     <defs>
      <path d="M 12.40625 8.296875 
L 28.515625 8.296875 
L 28.515625 63.921875 
L 10.984375 60.40625 
L 10.984375 69.390625 
L 28.421875 72.90625 
L 38.28125 72.90625 
L 38.28125 8.296875 
L 54.390625 8.296875 
L 54.390625 0 
L 12.40625 0 
z
" id="BitstreamVeraSans-Roman-31"/>
      <path d="M 8.5 21.578125 
L 8.5 54.6875 
L 17.484375 54.6875 
L 17.484375 21.921875 
Q 17.484375 14.15625 20.5 10.265625 
Q 23.53125 6.390625 29.59375 6.390625 
Q 36.859375 6.390625 41.078125 11.03125 
Q 45.3125 15.671875 45.3125 23.6875 
L 45.3125 54.6875 
L 54.296875 54.6875 
L 54.296875 0 
L 45.3125 0 
L 45.3125 8.40625 
Q 42.046875 3.421875 37.71875 1 
Q 33.40625 -1.421875 27.6875 -1.421875 
Q 18.265625 -1.421875 13.375 4.4375 
Q 8.5 10.296875 8.5 21.578125 
" id="BitstreamVeraSans-Roman-75"/>
      <path d="M 9.421875 75.984375 
L 18.40625 75.984375 
L 18.40625 0 
L 9.421875 0 
z
" id="BitstreamVeraSans-Roman-6c"/>
      <path d="M 48.78125 52.59375 
L 48.78125 44.1875 
Q 44.96875 46.296875 41.140625 47.34375 
Q 37.3125 48.390625 33.40625 48.390625 
Q 24.65625 48.390625 19.8125 42.84375 
Q 14.984375 37.3125 14.984375 27.296875 
Q 14.984375 17.28125 19.8125 11.734375 
Q 24.65625 6.203125 33.40625 6.203125 
Q 37.3125 6.203125 41.140625 7.25 
Q 44.96875 8.296875 48.78125 10.40625 
L 48.78125 2.09375 
Q 45.015625 0.34375 40.984375 -0.53125 
Q 36.96875 -1.421875 32.421875 -1.421875 
Q 20.0625 -1.421875 12.78125 6.34375 
Q 5.515625 14.109375 5.515625 27.296875 
Q 5.515625 40.671875 12.859375 48.328125 
Q 20.21875 56 33.015625 56 
Q 37.15625 56 41.109375 55.140625 
Q 45.0625 54.296875 48.78125 52.59375 
" id="BitstreamVeraSans-Roman-63"/>
     </defs>
     <g transform="translate(108.9852 377.724744375)scale(0.09996 -0.09996)">
      <use xlink:href="#BitstreamVeraSans-Roman-4d"/>
      <use x="86.279296875" xlink:href="#BitstreamVeraSans-Roman-75"/>
      <use x="149.658203125" xlink:href="#BitstreamVeraSans-Roman-73"/>
      <use x="201.7578125" xlink:href="#BitstreamVeraSans-Roman-63"/>
      <use x="256.73828125" xlink:href="#BitstreamVeraSans-Roman-6c"/>
      <use x="284.521484375" xlink:href="#BitstreamVeraSans-Roman-65"/>
      <use x="346.044921875" xlink:href="#BitstreamVeraSans-Roman-20"/>
      <use x="377.83203125" xlink:href="#BitstreamVeraSans-Roman-31"/>
     </g>
    </g>
    <g id="line2d_33">
     <path d="M 155.253349 374.226144 
L 169.247749 374.226144 
" style="fill:none;stroke:#f3d34a;stroke-linecap:square;"/>
    </g>
    <g id="line2d_34"/>
    <g id="text_16">
     <!-- Muscle 2 -->
     <g transform="translate(180.243349125 377.724744375)scale(0.09996 -0.09996)">
      <use xlink:href="#BitstreamVeraSans-Roman-4d"/>
      <use x="86.279296875" xlink:href="#BitstreamVeraSans-Roman-75"/>
      <use x="149.658203125" xlink:href="#BitstreamVeraSans-Roman-73"/>
      <use x="201.7578125" xlink:href="#BitstreamVeraSans-Roman-63"/>
      <use x="256.73828125" xlink:href="#BitstreamVeraSans-Roman-6c"/>
      <use x="284.521484375" xlink:href="#BitstreamVeraSans-Roman-65"/>
      <use x="346.044921875" xlink:href="#BitstreamVeraSans-Roman-20"/>
      <use x="377.83203125" xlink:href="#BitstreamVeraSans-Roman-32"/>
     </g>
    </g>
    <g id="line2d_35">
     <path d="M 226.511498 374.226144 
L 240.505898 374.226144 
" style="fill:none;stroke:#a11692;stroke-linecap:square;"/>
    </g>
    <g id="line2d_36"/>
    <g id="text_17">
     <!-- Muscle 6 -->
     <g transform="translate(251.50149825 377.724744375)scale(0.09996 -0.09996)">
      <use xlink:href="#BitstreamVeraSans-Roman-4d"/>
      <use x="86.279296875" xlink:href="#BitstreamVeraSans-Roman-75"/>
      <use x="149.658203125" xlink:href="#BitstreamVeraSans-Roman-73"/>
      <use x="201.7578125" xlink:href="#BitstreamVeraSans-Roman-63"/>
      <use x="256.73828125" xlink:href="#BitstreamVeraSans-Roman-6c"/>
      <use x="284.521484375" xlink:href="#BitstreamVeraSans-Roman-65"/>
      <use x="346.044921875" xlink:href="#BitstreamVeraSans-Roman-20"/>
      <use x="377.83203125" xlink:href="#BitstreamVeraSans-Roman-36"/>
     </g>
    </g>
    <g id="line2d_37">
     <path d="M 297.769647 374.226144 
L 311.764047 374.226144 
" style="fill:none;stroke:#f75c03;stroke-linecap:square;"/>
    </g>
    <g id="line2d_38"/>
    <g id="text_18">
     <!-- Muscle 5 -->
     <defs>
      <path d="M 10.796875 72.90625 
L 49.515625 72.90625 
L 49.515625 64.59375 
L 19.828125 64.59375 
L 19.828125 46.734375 
Q 21.96875 47.46875 24.109375 47.828125 
Q 26.265625 48.1875 28.421875 48.1875 
Q 40.625 48.1875 47.75 41.5 
Q 54.890625 34.8125 54.890625 23.390625 
Q 54.890625 11.625 47.5625 5.09375 
Q 40.234375 -1.421875 26.90625 -1.421875 
Q 22.3125 -1.421875 17.546875 -0.640625 
Q 12.796875 0.140625 7.71875 1.703125 
L 7.71875 11.625 
Q 12.109375 9.234375 16.796875 8.0625 
Q 21.484375 6.890625 26.703125 6.890625 
Q 35.15625 6.890625 40.078125 11.328125 
Q 45.015625 15.765625 45.015625 23.390625 
Q 45.015625 31 40.078125 35.4375 
Q 35.15625 39.890625 26.703125 39.890625 
Q 22.75 39.890625 18.8125 39.015625 
Q 14.890625 38.140625 10.796875 36.28125 
z
" id="BitstreamVeraSans-Roman-35"/>
     </defs>
     <g transform="translate(322.759647375 377.724744375)scale(0.09996 -0.09996)">
      <use xlink:href="#BitstreamVeraSans-Roman-4d"/>
      <use x="86.279296875" xlink:href="#BitstreamVeraSans-Roman-75"/>
      <use x="149.658203125" xlink:href="#BitstreamVeraSans-Roman-73"/>
      <use x="201.7578125" xlink:href="#BitstreamVeraSans-Roman-63"/>
      <use x="256.73828125" xlink:href="#BitstreamVeraSans-Roman-6c"/>
      <use x="284.521484375" xlink:href="#BitstreamVeraSans-Roman-65"/>
      <use x="346.044921875" xlink:href="#BitstreamVeraSans-Roman-20"/>
      <use x="377.83203125" xlink:href="#BitstreamVeraSans-Roman-35"/>
     </g>
    </g>
    <g id="line2d_39">
     <path d="M 369.027797 374.226144 
L 383.022197 374.226144 
" style="fill:none;stroke:#2274a5;stroke-linecap:square;"/>
    </g>
    <g id="line2d_40"/>
    <g id="text_19">
     <!-- Muscle 4 -->
     <g transform="translate(394.0177965 377.724744375)scale(0.09996 -0.09996)">
      <use xlink:href="#BitstreamVeraSans-Roman-4d"/>
      <use x="86.279296875" xlink:href="#BitstreamVeraSans-Roman-75"/>
      <use x="149.658203125" xlink:href="#BitstreamVeraSans-Roman-73"/>
      <use x="201.7578125" xlink:href="#BitstreamVeraSans-Roman-63"/>
      <use x="256.73828125" xlink:href="#BitstreamVeraSans-Roman-6c"/>
      <use x="284.521484375" xlink:href="#BitstreamVeraSans-Roman-65"/>
      <use x="346.044921875" xlink:href="#BitstreamVeraSans-Roman-20"/>
      <use x="377.83203125" xlink:href="#BitstreamVeraSans-Roman-34"/>
     </g>
    </g>
    <g id="line2d_41">
     <path d="M 440.285946 374.226144 
L 454.280346 374.226144 
" style="fill:none;stroke:#4e937a;stroke-linecap:square;"/>
    </g>
    <g id="line2d_42"/>
    <g id="text_20">
     <!-- Muscle 3 -->
     <g transform="translate(465.275945625 377.724744375)scale(0.09996 -0.09996)">
      <use xlink:href="#BitstreamVeraSans-Roman-4d"/>
      <use x="86.279296875" xlink:href="#BitstreamVeraSans-Roman-75"/>
      <use x="149.658203125" xlink:href="#BitstreamVeraSans-Roman-73"/>
      <use x="201.7578125" xlink:href="#BitstreamVeraSans-Roman-63"/>
      <use x="256.73828125" xlink:href="#BitstreamVeraSans-Roman-6c"/>
      <use x="284.521484375" xlink:href="#BitstreamVeraSans-Roman-65"/>
      <use x="346.044921875" xlink:href="#BitstreamVeraSans-Roman-20"/>
      <use x="377.83203125" xlink:href="#BitstreamVeraSans-Roman-33"/>
     </g>
    </g>
   </g>
  </g>
 </g>
 <defs>
  <clipPath id="p0979dc5550">
   <rect height="345.6" width="446.4" x="72.0" y="43.2"/>
  </clipPath>
 </defs>
</svg>
