<?xml version="1.0" encoding="utf-8" standalone="no"?>
<!DOCTYPE svg PUBLIC "-//W3C//DTD SVG 1.1//EN"
  "http://www.w3.org/Graphics/SVG/1.1/DTD/svg11.dtd">
<!-- Created with matplotlib (http://matplotlib.org/) -->
<svg height="432pt" version="1.1" viewBox="0 0 576 432" width="576pt" xmlns="http://www.w3.org/2000/svg" xmlns:xlink="http://www.w3.org/1999/xlink">
 <defs>
  <style type="text/css">
*{stroke-linecap:butt;stroke-linejoin:round;stroke-miterlimit:100000;}
  </style>
 </defs>
 <g id="figure_1">
  <g id="patch_1">
   <path d="M 0 432 
L 576 432 
L 576 0 
L 0 0 
z
" style="fill:#ffffff;"/>
  </g>
  <g id="axes_1">
   <g id="patch_2">
    <path d="M 72 388.8 
L 518.4 388.8 
L 518.4 43.2 
L 72 43.2 
z
" style="fill:#ffffff;"/>
   </g>
   <g id="line2d_1">
    <path clip-path="url(#p138023a0e9)" d="M 70.534216 209.114562 
L 100.29155 291.14136 
L 107.292732 310.369083 
L 117.795726 339.30013 
L 119.551442 343.324267 
L 121.307283 343.383909 
L 124.804462 342.948195 
L 126.547866 342.472721 
L 128.300201 341.664248 
L 130.055229 340.716613 
L 131.814617 339.629814 
L 133.553409 338.340897 
L 135.305014 336.864773 
L 137.05712 335.184874 
L 138.799877 333.329364 
L 140.563105 331.261795 
L 142.311392 329.016959 
L 145.805879 323.960694 
L 147.556378 321.041579 
L 149.314619 317.867332 
L 151.060465 314.457832 
L 152.806164 310.720305 
L 156.309478 302.295958 
L 161.560767 287.85777 
L 193.068266 200.413545 
L 205.341708 166.794022 
L 208.825574 157.549606 
L 214.106056 144.428499 
L 217.578882 135.621453 
L 228.078412 107.233806 
L 231.584877 98.261089 
L 233.333728 94.528532 
L 236.833766 94.699173 
L 238.582053 94.924485 
L 240.33274 95.2989 
L 242.171551 95.893657 
L 243.835219 96.645802 
L 245.582692 97.590124 
L 247.333629 98.821056 
L 249.083481 100.401553 
L 250.836798 102.144407 
L 252.612296 104.167244 
L 254.33646 106.478348 
L 256.086708 109.139017 
L 257.836081 112.116117 
L 259.590315 115.359946 
L 261.349328 118.986474 
L 263.089163 122.841628 
L 264.839829 127.052973 
L 268.342037 136.34709 
L 277.150437 160.581377 
L 285.845608 184.785843 
L 289.350404 194.401361 
L 292.848793 204.104685 
L 320.86239 281.520872 
L 327.872608 300.847997 
L 338.373807 330.020923 
L 340.126622 331.765434 
L 345.363658 332.022223 
L 347.119749 331.594793 
L 350.611857 329.754193 
L 352.366238 328.674021 
L 354.122455 327.375164 
L 357.617568 324.220797 
L 361.119317 320.547881 
L 364.628766 316.22388 
L 366.371586 313.834911 
L 369.872479 308.554991 
L 373.376566 302.358913 
L 376.87026 295.072722 
L 380.373887 286.802449 
L 382.13434 282.201778 
L 383.810466 277.418869 
L 387.377406 267.811635 
L 404.884024 219.364598 
L 410.135374 204.769024 
L 411.962354 200.001025 
L 415.380173 190.276165 
L 429.391552 151.946628 
L 432.889628 142.869539 
L 439.824784 125.679564 
L 450.395932 101.052638 
L 452.189377 97.484095 
L 453.900686 97.464214 
L 457.40302 97.966196 
L 459.146632 98.453267 
L 460.902953 99.180561 
L 464.401051 101.143757 
L 466.155348 102.321674 
L 467.908685 103.695083 
L 469.65958 105.278894 
L 473.150645 108.943526 
L 474.90081 111.11878 
L 476.655378 113.569047 
L 478.407734 116.330775 
L 480.158358 119.311188 
L 481.905727 122.586495 
L 483.656706 126.111964 
L 485.403783 129.963804 
L 487.171122 134.259641 
L 492.406175 148.648128 
L 513.425956 207.302126 
L 518.665287 221.899358 
L 518.665287 221.899358 
" style="fill:none;stroke:#b4656f;stroke-linecap:square;"/>
   </g>
   <g id="line2d_2">
    <path clip-path="url(#p138023a0e9)" d="M 70.534216 252.016605 
L 81.035248 231.9655 
L 89.786157 216.173784 
L 100.29155 198.152142 
L 103.795303 192.352017 
L 117.795726 168.97259 
L 124.804462 157.928992 
L 130.055229 150.152416 
L 135.305014 142.634287 
L 145.805879 128.434665 
L 151.060465 121.676964 
L 152.806164 121.564308 
L 154.558666 124.793227 
L 156.309478 128.66329 
L 158.075858 132.969068 
L 159.812292 137.818245 
L 168.587219 164.413337 
L 178.996308 195.567682 
L 184.318881 211.003206 
L 193.068266 236.314351 
L 221.075749 316.747399 
L 226.328018 331.714076 
L 229.840242 341.780218 
L 231.584877 345.211255 
L 236.833766 345.423313 
L 238.582053 345.317284 
L 240.33274 345.01742 
L 242.171551 344.513782 
L 243.835219 343.942218 
L 245.582692 343.148657 
L 247.333629 342.075111 
L 249.083481 340.749747 
L 250.836798 339.17919 
L 252.612296 337.437993 
L 254.33646 335.479767 
L 257.836081 330.614023 
L 259.590315 327.800938 
L 261.349328 324.691302 
L 263.089163 321.268548 
L 264.839829 317.550901 
L 268.342037 309.303822 
L 273.591635 296.426251 
L 277.150437 288.281887 
L 280.595238 280.57655 
L 285.845608 269.640637 
L 292.848793 255.555328 
L 298.100728 245.431201 
L 299.863665 243.429901 
L 310.362422 274.696902 
L 322.609717 309.754446 
L 327.872608 324.683018 
L 329.611254 327.269135 
L 333.10956 329.818805 
L 336.617277 331.745553 
L 338.373807 332.411549 
L 341.862868 333.118962 
L 345.363658 333.539765 
L 347.119749 333.213394 
L 350.611857 331.566629 
L 352.366238 330.638874 
L 354.122455 329.394688 
L 357.617568 326.478887 
L 359.3679 324.875196 
L 361.119317 323.114118 
L 364.628766 319.20098 
L 368.121021 314.615219 
L 369.872479 312.035729 
L 373.376566 306.273707 
L 376.87026 299.3785 
L 380.373887 291.625118 
L 387.377406 276.073625 
L 396.129776 257.838268 
L 408.384542 233.102 
L 420.639558 209.310053 
L 425.893663 199.474193 
L 443.400113 167.806269 
L 450.395932 156.230869 
L 457.40302 145.241942 
L 460.902953 139.865932 
L 473.150645 121.731635 
L 476.655378 116.789683 
L 478.407734 114.96565 
L 480.158358 116.110434 
L 483.656706 122.23196 
L 485.403783 125.701101 
L 487.171122 129.692105 
L 488.908683 134.279522 
L 492.406175 144.46826 
L 504.6667 181.265344 
L 518.665287 222.234012 
L 518.665287 222.234012 
" style="fill:none;stroke:#f3d34a;stroke-linecap:square;"/>
   </g>
   <g id="line2d_3">
    <path clip-path="url(#p138023a0e9)" d="M 70.534216 233.739831 
L 88.039143 185.981984 
L 95.040846 166.934842 
L 119.551442 99.851527 
L 121.307283 95.446347 
L 122.98656 95.345288 
L 124.804462 95.660062 
L 126.547866 96.155417 
L 128.300201 96.980456 
L 131.814617 99.056308 
L 133.553409 100.371732 
L 135.305014 101.887618 
L 137.05712 103.615561 
L 140.563105 107.586684 
L 142.311392 109.889505 
L 145.805879 115.08162 
L 149.314619 121.23628 
L 151.060465 124.735242 
L 152.806164 128.534067 
L 156.309478 137.148936 
L 159.812292 146.857229 
L 168.587219 171.436111 
L 178.996308 201.096108 
L 182.564542 211.014803 
L 215.846726 305.281341 
L 228.078412 340.355451 
L 229.840242 343.803055 
L 233.333728 343.998546 
L 236.833766 343.731817 
L 238.582053 343.435267 
L 240.33274 343.002866 
L 242.171551 342.361721 
L 243.835219 341.616204 
L 245.582692 340.643718 
L 247.333629 339.351488 
L 250.836798 336.02648 
L 252.612296 333.962225 
L 254.33646 331.568286 
L 256.086708 328.823125 
L 257.836081 325.836085 
L 259.590315 322.530958 
L 261.349328 318.93922 
L 264.839829 310.877692 
L 268.342037 302.176675 
L 284.095923 261.902166 
L 289.350404 247.79532 
L 291.044142 243.007441 
L 294.595974 233.461505 
L 340.126622 108.072099 
L 341.862868 106.998554 
L 345.363658 107.054882 
L 347.119749 107.505506 
L 350.611857 109.405747 
L 352.366238 110.495859 
L 354.122455 111.841104 
L 357.617568 115.076649 
L 361.119317 118.777729 
L 364.628766 123.194506 
L 366.371586 125.609982 
L 369.872479 131.025752 
L 373.376566 137.261592 
L 376.87026 144.600797 
L 378.629565 148.633218 
L 382.13434 157.542979 
L 385.626615 167.320855 
L 410.135374 236.201695 
L 411.962354 241.150274 
L 415.380173 250.972881 
L 438.15014 315.476706 
L 439.824784 320.471673 
L 443.400113 330.393682 
L 446.909083 340.257706 
L 448.644223 340.925358 
L 452.189377 341.079431 
L 453.900686 340.943582 
L 457.40302 340.297466 
L 459.146632 339.777261 
L 460.902953 338.995296 
L 462.650886 338.039377 
L 464.401051 336.952578 
L 466.155348 335.696796 
L 467.908685 334.296879 
L 469.65958 332.713069 
L 471.404027 330.958618 
L 473.150645 328.992109 
L 474.90081 326.801944 
L 476.655378 324.239021 
L 480.158358 318.347777 
L 481.905727 315.017799 
L 483.656706 311.432688 
L 487.171122 303.422517 
L 501.158753 267.969022 
L 506.418973 254.263098 
L 515.166731 230.404883 
L 518.665287 220.686649 
L 518.665287 220.686649 
" style="fill:none;stroke:#a11692;stroke-linecap:square;"/>
   </g>
   <g id="line2d_4">
    <path clip-path="url(#p138023a0e9)" d="M 70.534216 209.429336 
L 75.796835 223.736644 
L 88.039143 257.160676 
L 95.040846 276.207818 
L 117.795726 338.359121 
L 119.551442 342.931628 
L 121.307283 343.387222 
L 124.804462 342.966419 
L 126.547866 342.487631 
L 128.300201 341.689099 
L 131.814617 339.682829 
L 133.553409 338.393912 
L 135.305014 336.86643 
L 137.05712 335.174933 
L 138.799877 333.324393 
L 140.563105 331.256825 
L 142.311392 329.013646 
L 145.805879 323.975605 
L 149.314619 317.910406 
L 151.060465 314.484339 
L 152.806164 310.723618 
L 156.309478 302.286018 
L 159.812292 292.859364 
L 178.996308 239.954133 
L 182.564542 230.300511 
L 191.316953 206.48537 
L 196.572519 192.718148 
L 205.341708 170.554743 
L 221.075749 132.04794 
L 224.584113 123.540757 
L 231.584877 106.716914 
L 235.017533 98.555983 
L 236.833766 94.972529 
L 238.582053 94.962589 
L 240.33274 95.323751 
L 242.171551 95.938388 
L 243.835219 96.659055 
L 245.582692 97.588467 
L 247.333629 98.837623 
L 249.083481 100.41315 
L 250.836798 102.207362 
L 252.612296 104.211975 
L 254.33646 106.53302 
L 256.086708 109.221852 
L 257.836081 112.144281 
L 259.590315 115.426214 
L 261.349328 118.991444 
L 264.839829 127.114271 
L 268.342037 136.474656 
L 280.595238 170.925846 
L 289.350404 195.198236 
L 294.595974 209.581753 
L 331.360689 310.612619 
L 338.373807 329.964595 
L 340.126622 331.800224 
L 345.363658 332.121625 
L 347.119749 331.745553 
L 352.366238 328.821468 
L 354.122455 327.511014 
L 355.87047 326.021636 
L 359.3679 322.628703 
L 361.119317 320.76988 
L 364.628766 316.440909 
L 366.371586 314.080103 
L 369.872479 308.823377 
L 373.376566 302.65712 
L 376.87026 295.384183 
L 380.373887 287.183491 
L 382.13434 282.569566 
L 383.810466 277.796598 
L 389.142033 263.33356 
L 401.388827 229.773678 
L 408.384542 210.658611 
L 413.634515 196.63957 
L 422.386843 174.520896 
L 445.145082 119.25486 
L 452.189377 102.785552 
L 453.900686 98.879041 
L 455.653731 97.634855 
L 457.40302 97.899928 
L 459.146632 98.343925 
L 460.902953 99.084472 
L 462.650886 99.98075 
L 464.401051 101.01122 
L 466.155348 102.210675 
L 467.908685 103.574144 
L 469.65958 105.13973 
L 473.150645 108.784482 
L 474.90081 110.946483 
L 476.655378 113.368586 
L 478.407734 116.09221 
L 480.158358 119.029549 
L 483.656706 125.762399 
L 485.403783 129.587732 
L 487.171122 133.876942 
L 490.656386 143.513998 
L 501.158753 173.048085 
L 513.425956 206.974099 
L 518.665287 221.463644 
L 518.665287 221.463644 
" style="fill:none;stroke:#f75c03;stroke-linecap:square;"/>
   </g>
   <g id="line2d_5">
    <path clip-path="url(#p138023a0e9)" d="M 70.534216 222.941425 
L 77.536524 203.364137 
L 82.786623 189.298709 
L 91.53605 166.494159 
L 100.29155 144.204844 
L 117.795726 100.896908 
L 119.551442 96.859517 
L 121.307283 96.316117 
L 124.804462 96.849576 
L 126.547866 97.434393 
L 128.300201 98.29091 
L 130.055229 99.337948 
L 131.814617 100.529119 
L 133.553409 101.958856 
L 137.05712 105.499235 
L 138.799877 107.54361 
L 140.563105 109.813296 
L 144.053002 115.005411 
L 145.805879 117.879795 
L 147.556378 121.042446 
L 149.314619 124.463542 
L 151.060465 128.191129 
L 152.806164 132.236804 
L 156.309478 141.226088 
L 161.560767 156.245779 
L 168.587219 176.344929 
L 177.317886 201.816775 
L 178.996308 206.954218 
L 182.564542 217.073375 
L 196.572519 257.110974 
L 200.070283 267.02967 
L 226.328018 341.755367 
L 228.078412 342.989613 
L 235.017533 342.953165 
L 236.833766 342.717913 
L 240.33274 341.778561 
L 242.171551 341.047954 
L 243.835219 340.208004 
L 245.582692 339.117892 
L 247.333629 337.696439 
L 249.083481 335.960212 
L 250.836798 334.058314 
L 252.612296 331.825075 
L 254.33646 329.220734 
L 256.086708 326.290022 
L 259.590315 319.542261 
L 261.349328 315.706988 
L 264.839829 307.148448 
L 268.342037 297.571034 
L 298.100728 213.16852 
L 305.102912 193.91926 
L 310.362422 179.95986 
L 336.617277 112.346399 
L 338.373807 108.305694 
L 340.126622 108.050562 
L 343.613555 107.841817 
L 345.363658 107.853414 
L 347.119749 108.411724 
L 348.865636 109.231793 
L 352.366238 111.352376 
L 354.122455 112.714187 
L 357.617568 115.969614 
L 361.119317 119.791633 
L 362.884027 121.978484 
L 366.371586 126.708378 
L 369.872479 132.183789 
L 371.622811 135.189053 
L 375.124811 141.966635 
L 378.629565 149.832672 
L 380.373887 154.102002 
L 382.13434 158.808702 
L 390.884018 183.607925 
L 401.388827 213.47004 
L 410.135374 238.448188 
L 411.962354 243.458065 
L 415.380173 253.454626 
L 445.145082 337.75608 
L 446.909083 340.610584 
L 452.189377 340.633778 
L 453.900686 340.545972 
L 457.40302 339.860096 
L 459.146632 339.3051 
L 460.902953 338.458523 
L 462.650886 337.471127 
L 464.401051 336.352851 
L 466.155348 335.065591 
L 467.908685 333.614317 
L 471.404027 330.117012 
L 473.150645 328.067667 
L 474.90081 325.791354 
L 476.655378 323.211864 
L 480.158358 317.166546 
L 481.905727 313.758703 
L 483.656706 310.0891 
L 485.403783 306.137858 
L 487.171122 301.744275 
L 492.406175 287.383952 
L 502.917975 258.260728 
L 518.665287 213.754994 
L 518.665287 213.754994 
" style="fill:none;stroke:#2274a5;stroke-linecap:square;"/>
   </g>
   <g id="line2d_6">
    <path clip-path="url(#p138023a0e9)" d="M 70.534216 214.633048 
L 86.286953 170.650832 
L 96.79218 142.196917 
L 103.795303 123.37343 
L 112.551157 99.848213 
L 114.295542 97.303514 
L 116.046855 97.43108 
L 119.551442 97.462557 
L 121.307283 97.636512 
L 124.804462 98.529476 
L 126.547866 99.248486 
L 128.300201 100.265703 
L 130.055229 101.463501 
L 131.814617 102.82697 
L 133.553409 104.468765 
L 135.305014 106.322618 
L 137.05712 108.380246 
L 138.799877 110.654903 
L 140.563105 113.211199 
L 144.053002 118.966594 
L 145.805879 122.180602 
L 149.314619 129.433658 
L 152.806164 137.801678 
L 156.309478 147.495061 
L 161.560767 163.505462 
L 177.317886 212.507495 
L 178.996308 218.00113 
L 182.564542 228.97349 
L 194.818911 266.9137 
L 201.822722 288.412766 
L 217.578882 336.72561 
L 219.326084 340.552599 
L 222.870007 340.99991 
L 224.584113 341.410773 
L 228.078412 341.566503 
L 233.333728 341.57313 
L 235.017533 341.412429 
L 238.582053 340.491301 
L 240.33274 339.845186 
L 242.171551 338.970445 
L 243.835219 337.994646 
L 245.582692 336.762057 
L 247.333629 335.138486 
L 249.083481 333.224991 
L 250.836798 331.071274 
L 252.612296 328.621007 
L 254.33646 325.776444 
L 257.836081 319.056846 
L 259.590315 315.209976 
L 261.349328 311.073183 
L 264.839829 301.971244 
L 268.342037 291.769252 
L 284.095923 244.844728 
L 292.848793 219.215495 
L 299.863665 199.064987 
L 313.854823 160.084365 
L 331.360689 111.907372 
L 334.863585 110.429591 
L 336.617277 109.81164 
L 338.373807 109.39912 
L 341.862868 109.201972 
L 345.363658 109.311315 
L 347.119749 109.98228 
L 348.865636 110.924946 
L 350.611857 112.008431 
L 352.366238 113.267527 
L 354.122455 114.690637 
L 357.617568 118.178002 
L 359.3679 120.096467 
L 362.884027 124.468512 
L 364.628766 126.887302 
L 366.371586 129.504897 
L 369.872479 135.179113 
L 373.376566 141.686652 
L 376.87026 149.30584 
L 380.373887 157.822962 
L 382.13434 162.630722 
L 392.630301 194.527271 
L 418.886179 275.949372 
L 438.15014 334.795548 
L 439.824784 338.602657 
L 443.400113 339.146056 
L 445.145082 339.528755 
L 448.644223 339.626501 
L 452.189377 339.629814 
L 453.900686 339.518815 
L 457.40302 338.650701 
L 459.146632 338.024467 
L 460.902953 337.104995 
L 462.650886 336.018196 
L 464.401051 334.788921 
L 466.155348 333.398945 
L 467.908685 331.782001 
L 471.404027 328.05607 
L 473.150645 325.857622 
L 474.90081 323.413982 
L 476.655378 320.589299 
L 480.158358 314.124834 
L 481.905727 310.53144 
L 483.656706 306.619959 
L 485.403783 302.441748 
L 487.171122 297.804629 
L 495.915478 272.443783 
L 518.665287 206.054627 
L 518.665287 206.054627 
" style="fill:none;stroke:#4e937a;stroke-linecap:square;"/>
   </g>
   <g id="patch_3">
    <path d="M 72 43.2 
L 518.4 43.2 
" style="fill:none;stroke:#000000;stroke-linecap:square;stroke-linejoin:miter;"/>
   </g>
   <g id="patch_4">
    <path d="M 518.4 388.8 
L 518.4 43.2 
" style="fill:none;stroke:#000000;stroke-linecap:square;stroke-linejoin:miter;"/>
   </g>
   <g id="patch_5">
    <path d="M 72 388.8 
L 518.4 388.8 
" style="fill:none;stroke:#000000;stroke-linecap:square;stroke-linejoin:miter;"/>
   </g>
   <g id="patch_6">
    <path d="M 72 388.8 
L 72 43.2 
" style="fill:none;stroke:#000000;stroke-linecap:square;stroke-linejoin:miter;"/>
   </g>
   <g id="matplotlib.axis_1">
    <g id="xtick_1">
     <g id="line2d_7">
      <defs>
       <path d="M 0 0 
L 0 -4 
" id="me9ba96a573" style="stroke:#000000;stroke-width:0.5;"/>
      </defs>
      <g>
       <use style="stroke:#000000;stroke-width:0.5;" x="135.742132898" xlink:href="#me9ba96a573" y="388.8"/>
      </g>
     </g>
     <g id="line2d_8">
      <defs>
       <path d="M 0 0 
L 0 4 
" id="m4ec5158173" style="stroke:#000000;stroke-width:0.5;"/>
      </defs>
      <g>
       <use style="stroke:#000000;stroke-width:0.5;" x="135.742132898" xlink:href="#m4ec5158173" y="43.2"/>
      </g>
     </g>
     <g id="text_1">
      <!-- 12 -->
      <defs>
       <path d="M 19.1875 8.296875 
L 53.609375 8.296875 
L 53.609375 0 
L 7.328125 0 
L 7.328125 8.296875 
Q 12.9375 14.109375 22.625 23.890625 
Q 32.328125 33.6875 34.8125 36.53125 
Q 39.546875 41.84375 41.421875 45.53125 
Q 43.3125 49.21875 43.3125 52.78125 
Q 43.3125 58.59375 39.234375 62.25 
Q 35.15625 65.921875 28.609375 65.921875 
Q 23.96875 65.921875 18.8125 64.3125 
Q 13.671875 62.703125 7.8125 59.421875 
L 7.8125 69.390625 
Q 13.765625 71.78125 18.9375 73 
Q 24.125 74.21875 28.421875 74.21875 
Q 39.75 74.21875 46.484375 68.546875 
Q 53.21875 62.890625 53.21875 53.421875 
Q 53.21875 48.921875 51.53125 44.890625 
Q 49.859375 40.875 45.40625 35.40625 
Q 44.1875 33.984375 37.640625 27.21875 
Q 31.109375 20.453125 19.1875 8.296875 
" id="BitstreamVeraSans-Roman-32"/>
       <path d="M 12.40625 8.296875 
L 28.515625 8.296875 
L 28.515625 63.921875 
L 10.984375 60.40625 
L 10.984375 69.390625 
L 28.421875 72.90625 
L 38.28125 72.90625 
L 38.28125 8.296875 
L 54.390625 8.296875 
L 54.390625 0 
L 12.40625 0 
z
" id="BitstreamVeraSans-Roman-31"/>
      </defs>
      <g transform="translate(128.107132898 401.918125)scale(0.12 -0.12)">
       <use xlink:href="#BitstreamVeraSans-Roman-31"/>
       <use x="63.623046875" xlink:href="#BitstreamVeraSans-Roman-32"/>
      </g>
     </g>
    </g>
    <g id="xtick_2">
     <g id="line2d_9">
      <g>
       <use style="stroke:#000000;stroke-width:0.5;" x="223.26820753" xlink:href="#me9ba96a573" y="388.8"/>
      </g>
     </g>
     <g id="line2d_10">
      <g>
       <use style="stroke:#000000;stroke-width:0.5;" x="223.26820753" xlink:href="#m4ec5158173" y="43.2"/>
      </g>
     </g>
     <g id="text_2">
      <!-- 13 -->
      <defs>
       <path d="M 40.578125 39.3125 
Q 47.65625 37.796875 51.625 33 
Q 55.609375 28.21875 55.609375 21.1875 
Q 55.609375 10.40625 48.1875 4.484375 
Q 40.765625 -1.421875 27.09375 -1.421875 
Q 22.515625 -1.421875 17.65625 -0.515625 
Q 12.796875 0.390625 7.625 2.203125 
L 7.625 11.71875 
Q 11.71875 9.328125 16.59375 8.109375 
Q 21.484375 6.890625 26.8125 6.890625 
Q 36.078125 6.890625 40.9375 10.546875 
Q 45.796875 14.203125 45.796875 21.1875 
Q 45.796875 27.640625 41.28125 31.265625 
Q 36.765625 34.90625 28.71875 34.90625 
L 20.21875 34.90625 
L 20.21875 43.015625 
L 29.109375 43.015625 
Q 36.375 43.015625 40.234375 45.921875 
Q 44.09375 48.828125 44.09375 54.296875 
Q 44.09375 59.90625 40.109375 62.90625 
Q 36.140625 65.921875 28.71875 65.921875 
Q 24.65625 65.921875 20.015625 65.03125 
Q 15.375 64.15625 9.8125 62.3125 
L 9.8125 71.09375 
Q 15.4375 72.65625 20.34375 73.4375 
Q 25.25 74.21875 29.59375 74.21875 
Q 40.828125 74.21875 47.359375 69.109375 
Q 53.90625 64.015625 53.90625 55.328125 
Q 53.90625 49.265625 50.4375 45.09375 
Q 46.96875 40.921875 40.578125 39.3125 
" id="BitstreamVeraSans-Roman-33"/>
      </defs>
      <g transform="translate(215.63320753 401.918125)scale(0.12 -0.12)">
       <use xlink:href="#BitstreamVeraSans-Roman-31"/>
       <use x="63.623046875" xlink:href="#BitstreamVeraSans-Roman-33"/>
      </g>
     </g>
    </g>
    <g id="xtick_3">
     <g id="line2d_11">
      <g>
       <use style="stroke:#000000;stroke-width:0.5;" x="310.794282163" xlink:href="#me9ba96a573" y="388.8"/>
      </g>
     </g>
     <g id="line2d_12">
      <g>
       <use style="stroke:#000000;stroke-width:0.5;" x="310.794282163" xlink:href="#m4ec5158173" y="43.2"/>
      </g>
     </g>
     <g id="text_3">
      <!-- 14 -->
      <defs>
       <path d="M 37.796875 64.3125 
L 12.890625 25.390625 
L 37.796875 25.390625 
z
M 35.203125 72.90625 
L 47.609375 72.90625 
L 47.609375 25.390625 
L 58.015625 25.390625 
L 58.015625 17.1875 
L 47.609375 17.1875 
L 47.609375 0 
L 37.796875 0 
L 37.796875 17.1875 
L 4.890625 17.1875 
L 4.890625 26.703125 
z
" id="BitstreamVeraSans-Roman-34"/>
      </defs>
      <g transform="translate(303.159282163 401.918125)scale(0.12 -0.12)">
       <use xlink:href="#BitstreamVeraSans-Roman-31"/>
       <use x="63.623046875" xlink:href="#BitstreamVeraSans-Roman-34"/>
      </g>
     </g>
    </g>
    <g id="xtick_4">
     <g id="line2d_13">
      <g>
       <use style="stroke:#000000;stroke-width:0.5;" x="398.320356795" xlink:href="#me9ba96a573" y="388.8"/>
      </g>
     </g>
     <g id="line2d_14">
      <g>
       <use style="stroke:#000000;stroke-width:0.5;" x="398.320356795" xlink:href="#m4ec5158173" y="43.2"/>
      </g>
     </g>
     <g id="text_4">
      <!-- 15 -->
      <defs>
       <path d="M 10.796875 72.90625 
L 49.515625 72.90625 
L 49.515625 64.59375 
L 19.828125 64.59375 
L 19.828125 46.734375 
Q 21.96875 47.46875 24.109375 47.828125 
Q 26.265625 48.1875 28.421875 48.1875 
Q 40.625 48.1875 47.75 41.5 
Q 54.890625 34.8125 54.890625 23.390625 
Q 54.890625 11.625 47.5625 5.09375 
Q 40.234375 -1.421875 26.90625 -1.421875 
Q 22.3125 -1.421875 17.546875 -0.640625 
Q 12.796875 0.140625 7.71875 1.703125 
L 7.71875 11.625 
Q 12.109375 9.234375 16.796875 8.0625 
Q 21.484375 6.890625 26.703125 6.890625 
Q 35.15625 6.890625 40.078125 11.328125 
Q 45.015625 15.765625 45.015625 23.390625 
Q 45.015625 31 40.078125 35.4375 
Q 35.15625 39.890625 26.703125 39.890625 
Q 22.75 39.890625 18.8125 39.015625 
Q 14.890625 38.140625 10.796875 36.28125 
z
" id="BitstreamVeraSans-Roman-35"/>
      </defs>
      <g transform="translate(390.685356795 401.918125)scale(0.12 -0.12)">
       <use xlink:href="#BitstreamVeraSans-Roman-31"/>
       <use x="63.623046875" xlink:href="#BitstreamVeraSans-Roman-35"/>
      </g>
     </g>
    </g>
    <g id="xtick_5">
     <g id="line2d_15">
      <g>
       <use style="stroke:#000000;stroke-width:0.5;" x="485.846431428" xlink:href="#me9ba96a573" y="388.8"/>
      </g>
     </g>
     <g id="line2d_16">
      <g>
       <use style="stroke:#000000;stroke-width:0.5;" x="485.846431428" xlink:href="#m4ec5158173" y="43.2"/>
      </g>
     </g>
     <g id="text_5">
      <!-- 16 -->
      <defs>
       <path d="M 33.015625 40.375 
Q 26.375 40.375 22.484375 35.828125 
Q 18.609375 31.296875 18.609375 23.390625 
Q 18.609375 15.53125 22.484375 10.953125 
Q 26.375 6.390625 33.015625 6.390625 
Q 39.65625 6.390625 43.53125 10.953125 
Q 47.40625 15.53125 47.40625 23.390625 
Q 47.40625 31.296875 43.53125 35.828125 
Q 39.65625 40.375 33.015625 40.375 
M 52.59375 71.296875 
L 52.59375 62.3125 
Q 48.875 64.0625 45.09375 64.984375 
Q 41.3125 65.921875 37.59375 65.921875 
Q 27.828125 65.921875 22.671875 59.328125 
Q 17.53125 52.734375 16.796875 39.40625 
Q 19.671875 43.65625 24.015625 45.921875 
Q 28.375 48.1875 33.59375 48.1875 
Q 44.578125 48.1875 50.953125 41.515625 
Q 57.328125 34.859375 57.328125 23.390625 
Q 57.328125 12.15625 50.6875 5.359375 
Q 44.046875 -1.421875 33.015625 -1.421875 
Q 20.359375 -1.421875 13.671875 8.265625 
Q 6.984375 17.96875 6.984375 36.375 
Q 6.984375 53.65625 15.1875 63.9375 
Q 23.390625 74.21875 37.203125 74.21875 
Q 40.921875 74.21875 44.703125 73.484375 
Q 48.484375 72.75 52.59375 71.296875 
" id="BitstreamVeraSans-Roman-36"/>
      </defs>
      <g transform="translate(478.211431428 401.918125)scale(0.12 -0.12)">
       <use xlink:href="#BitstreamVeraSans-Roman-31"/>
       <use x="63.623046875" xlink:href="#BitstreamVeraSans-Roman-36"/>
      </g>
     </g>
    </g>
    <g id="text_6">
     <!-- Time (s) -->
     <defs>
      <path id="BitstreamVeraSans-Roman-20"/>
      <path d="M 8.015625 75.875 
L 15.828125 75.875 
Q 23.140625 64.359375 26.78125 53.3125 
Q 30.421875 42.28125 30.421875 31.390625 
Q 30.421875 20.453125 26.78125 9.375 
Q 23.140625 -1.703125 15.828125 -13.1875 
L 8.015625 -13.1875 
Q 14.5 -2 17.703125 9.0625 
Q 20.90625 20.125 20.90625 31.390625 
Q 20.90625 42.671875 17.703125 53.65625 
Q 14.5 64.65625 8.015625 75.875 
" id="BitstreamVeraSans-Roman-29"/>
      <path d="M 31 75.875 
Q 24.46875 64.65625 21.28125 53.65625 
Q 18.109375 42.671875 18.109375 31.390625 
Q 18.109375 20.125 21.3125 9.0625 
Q 24.515625 -2 31 -13.1875 
L 23.1875 -13.1875 
Q 15.875 -1.703125 12.234375 9.375 
Q 8.59375 20.453125 8.59375 31.390625 
Q 8.59375 42.28125 12.203125 53.3125 
Q 15.828125 64.359375 23.1875 75.875 
z
" id="BitstreamVeraSans-Roman-28"/>
      <path d="M 9.421875 54.6875 
L 18.40625 54.6875 
L 18.40625 0 
L 9.421875 0 
z
M 9.421875 75.984375 
L 18.40625 75.984375 
L 18.40625 64.59375 
L 9.421875 64.59375 
z
" id="BitstreamVeraSans-Roman-69"/>
      <path d="M 52 44.1875 
Q 55.375 50.25 60.0625 53.125 
Q 64.75 56 71.09375 56 
Q 79.640625 56 84.28125 50.015625 
Q 88.921875 44.046875 88.921875 33.015625 
L 88.921875 0 
L 79.890625 0 
L 79.890625 32.71875 
Q 79.890625 40.578125 77.09375 44.375 
Q 74.3125 48.1875 68.609375 48.1875 
Q 61.625 48.1875 57.5625 43.546875 
Q 53.515625 38.921875 53.515625 30.90625 
L 53.515625 0 
L 44.484375 0 
L 44.484375 32.71875 
Q 44.484375 40.625 41.703125 44.40625 
Q 38.921875 48.1875 33.109375 48.1875 
Q 26.21875 48.1875 22.15625 43.53125 
Q 18.109375 38.875 18.109375 30.90625 
L 18.109375 0 
L 9.078125 0 
L 9.078125 54.6875 
L 18.109375 54.6875 
L 18.109375 46.1875 
Q 21.1875 51.21875 25.484375 53.609375 
Q 29.78125 56 35.6875 56 
Q 41.65625 56 45.828125 52.96875 
Q 50 49.953125 52 44.1875 
" id="BitstreamVeraSans-Roman-6d"/>
      <path d="M 56.203125 29.59375 
L 56.203125 25.203125 
L 14.890625 25.203125 
Q 15.484375 15.921875 20.484375 11.0625 
Q 25.484375 6.203125 34.421875 6.203125 
Q 39.59375 6.203125 44.453125 7.46875 
Q 49.3125 8.734375 54.109375 11.28125 
L 54.109375 2.78125 
Q 49.265625 0.734375 44.1875 -0.34375 
Q 39.109375 -1.421875 33.890625 -1.421875 
Q 20.796875 -1.421875 13.15625 6.1875 
Q 5.515625 13.8125 5.515625 26.8125 
Q 5.515625 40.234375 12.765625 48.109375 
Q 20.015625 56 32.328125 56 
Q 43.359375 56 49.78125 48.890625 
Q 56.203125 41.796875 56.203125 29.59375 
M 47.21875 32.234375 
Q 47.125 39.59375 43.09375 43.984375 
Q 39.0625 48.390625 32.421875 48.390625 
Q 24.90625 48.390625 20.390625 44.140625 
Q 15.875 39.890625 15.1875 32.171875 
z
" id="BitstreamVeraSans-Roman-65"/>
      <path d="M -0.296875 72.90625 
L 61.375 72.90625 
L 61.375 64.59375 
L 35.5 64.59375 
L 35.5 0 
L 25.59375 0 
L 25.59375 64.59375 
L -0.296875 64.59375 
z
" id="BitstreamVeraSans-Roman-54"/>
      <path d="M 44.28125 53.078125 
L 44.28125 44.578125 
Q 40.484375 46.53125 36.375 47.5 
Q 32.28125 48.484375 27.875 48.484375 
Q 21.1875 48.484375 17.84375 46.4375 
Q 14.5 44.390625 14.5 40.28125 
Q 14.5 37.15625 16.890625 35.375 
Q 19.28125 33.59375 26.515625 31.984375 
L 29.59375 31.296875 
Q 39.15625 29.25 43.1875 25.515625 
Q 47.21875 21.78125 47.21875 15.09375 
Q 47.21875 7.46875 41.1875 3.015625 
Q 35.15625 -1.421875 24.609375 -1.421875 
Q 20.21875 -1.421875 15.453125 -0.5625 
Q 10.6875 0.296875 5.421875 2 
L 5.421875 11.28125 
Q 10.40625 8.6875 15.234375 7.390625 
Q 20.0625 6.109375 24.8125 6.109375 
Q 31.15625 6.109375 34.5625 8.28125 
Q 37.984375 10.453125 37.984375 14.40625 
Q 37.984375 18.0625 35.515625 20.015625 
Q 33.0625 21.96875 24.703125 23.78125 
L 21.578125 24.515625 
Q 13.234375 26.265625 9.515625 29.90625 
Q 5.8125 33.546875 5.8125 39.890625 
Q 5.8125 47.609375 11.28125 51.796875 
Q 16.75 56 26.8125 56 
Q 31.78125 56 36.171875 55.265625 
Q 40.578125 54.546875 44.28125 53.078125 
" id="BitstreamVeraSans-Roman-73"/>
     </defs>
     <g transform="translate(270.620625 418.531875)scale(0.12 -0.12)">
      <use xlink:href="#BitstreamVeraSans-Roman-54"/>
      <use x="61.037109375" xlink:href="#BitstreamVeraSans-Roman-69"/>
      <use x="88.8203125" xlink:href="#BitstreamVeraSans-Roman-6d"/>
      <use x="186.232421875" xlink:href="#BitstreamVeraSans-Roman-65"/>
      <use x="247.755859375" xlink:href="#BitstreamVeraSans-Roman-20"/>
      <use x="279.54296875" xlink:href="#BitstreamVeraSans-Roman-28"/>
      <use x="318.556640625" xlink:href="#BitstreamVeraSans-Roman-73"/>
      <use x="370.65625" xlink:href="#BitstreamVeraSans-Roman-29"/>
     </g>
    </g>
   </g>
   <g id="matplotlib.axis_2">
    <g id="ytick_1">
     <g id="line2d_17">
      <defs>
       <path d="M 0 0 
L 4 0 
" id="m3b3982f6b9" style="stroke:#000000;stroke-width:0.5;"/>
      </defs>
      <g>
       <use style="stroke:#000000;stroke-width:0.5;" x="72.0" xlink:href="#m3b3982f6b9" y="386.848617701"/>
      </g>
     </g>
     <g id="line2d_18">
      <defs>
       <path d="M 0 0 
L -4 0 
" id="mb61abe6ddf" style="stroke:#000000;stroke-width:0.5;"/>
      </defs>
      <g>
       <use style="stroke:#000000;stroke-width:0.5;" x="518.4" xlink:href="#mb61abe6ddf" y="386.848617701"/>
      </g>
     </g>
     <g id="text_7">
      <!-- −6 -->
      <defs>
       <path d="M 10.59375 35.5 
L 73.1875 35.5 
L 73.1875 27.203125 
L 10.59375 27.203125 
z
" id="BitstreamVeraSans-Roman-2212"/>
      </defs>
      <g transform="translate(50.309375 390.159867701)scale(0.12 -0.12)">
       <use xlink:href="#BitstreamVeraSans-Roman-2212"/>
       <use x="83.7890625" xlink:href="#BitstreamVeraSans-Roman-36"/>
      </g>
     </g>
    </g>
    <g id="ytick_2">
     <g id="line2d_19">
      <g>
       <use style="stroke:#000000;stroke-width:0.5;" x="72.0" xlink:href="#m3b3982f6b9" y="330.949925141"/>
      </g>
     </g>
     <g id="line2d_20">
      <g>
       <use style="stroke:#000000;stroke-width:0.5;" x="518.4" xlink:href="#mb61abe6ddf" y="330.949925141"/>
      </g>
     </g>
     <g id="text_8">
      <!-- −4 -->
      <g transform="translate(50.309375 334.261175141)scale(0.12 -0.12)">
       <use xlink:href="#BitstreamVeraSans-Roman-2212"/>
       <use x="83.7890625" xlink:href="#BitstreamVeraSans-Roman-34"/>
      </g>
     </g>
    </g>
    <g id="ytick_3">
     <g id="line2d_21">
      <g>
       <use style="stroke:#000000;stroke-width:0.5;" x="72.0" xlink:href="#m3b3982f6b9" y="275.051232582"/>
      </g>
     </g>
     <g id="line2d_22">
      <g>
       <use style="stroke:#000000;stroke-width:0.5;" x="518.4" xlink:href="#mb61abe6ddf" y="275.051232582"/>
      </g>
     </g>
     <g id="text_9">
      <!-- −2 -->
      <g transform="translate(50.309375 278.362482582)scale(0.12 -0.12)">
       <use xlink:href="#BitstreamVeraSans-Roman-2212"/>
       <use x="83.7890625" xlink:href="#BitstreamVeraSans-Roman-32"/>
      </g>
     </g>
    </g>
    <g id="ytick_4">
     <g id="line2d_23">
      <g>
       <use style="stroke:#000000;stroke-width:0.5;" x="72.0" xlink:href="#m3b3982f6b9" y="219.152540022"/>
      </g>
     </g>
     <g id="line2d_24">
      <g>
       <use style="stroke:#000000;stroke-width:0.5;" x="518.4" xlink:href="#mb61abe6ddf" y="219.152540022"/>
      </g>
     </g>
     <g id="text_10">
      <!-- 0 -->
      <defs>
       <path d="M 31.78125 66.40625 
Q 24.171875 66.40625 20.328125 58.90625 
Q 16.5 51.421875 16.5 36.375 
Q 16.5 21.390625 20.328125 13.890625 
Q 24.171875 6.390625 31.78125 6.390625 
Q 39.453125 6.390625 43.28125 13.890625 
Q 47.125 21.390625 47.125 36.375 
Q 47.125 51.421875 43.28125 58.90625 
Q 39.453125 66.40625 31.78125 66.40625 
M 31.78125 74.21875 
Q 44.046875 74.21875 50.515625 64.515625 
Q 56.984375 54.828125 56.984375 36.375 
Q 56.984375 17.96875 50.515625 8.265625 
Q 44.046875 -1.421875 31.78125 -1.421875 
Q 19.53125 -1.421875 13.0625 8.265625 
Q 6.59375 17.96875 6.59375 36.375 
Q 6.59375 54.828125 13.0625 64.515625 
Q 19.53125 74.21875 31.78125 74.21875 
" id="BitstreamVeraSans-Roman-30"/>
      </defs>
      <g transform="translate(60.365 222.463790022)scale(0.12 -0.12)">
       <use xlink:href="#BitstreamVeraSans-Roman-30"/>
      </g>
     </g>
    </g>
    <g id="ytick_5">
     <g id="line2d_25">
      <g>
       <use style="stroke:#000000;stroke-width:0.5;" x="72.0" xlink:href="#m3b3982f6b9" y="163.253847463"/>
      </g>
     </g>
     <g id="line2d_26">
      <g>
       <use style="stroke:#000000;stroke-width:0.5;" x="518.4" xlink:href="#mb61abe6ddf" y="163.253847463"/>
      </g>
     </g>
     <g id="text_11">
      <!-- 2 -->
      <g transform="translate(60.365 166.565097463)scale(0.12 -0.12)">
       <use xlink:href="#BitstreamVeraSans-Roman-32"/>
      </g>
     </g>
    </g>
    <g id="ytick_6">
     <g id="line2d_27">
      <g>
       <use style="stroke:#000000;stroke-width:0.5;" x="72.0" xlink:href="#m3b3982f6b9" y="107.355154903"/>
      </g>
     </g>
     <g id="line2d_28">
      <g>
       <use style="stroke:#000000;stroke-width:0.5;" x="518.4" xlink:href="#mb61abe6ddf" y="107.355154903"/>
      </g>
     </g>
     <g id="text_12">
      <!-- 4 -->
      <g transform="translate(60.365 110.666404903)scale(0.12 -0.12)">
       <use xlink:href="#BitstreamVeraSans-Roman-34"/>
      </g>
     </g>
    </g>
    <g id="ytick_7">
     <g id="line2d_29">
      <g>
       <use style="stroke:#000000;stroke-width:0.5;" x="72.0" xlink:href="#m3b3982f6b9" y="51.4564623438"/>
      </g>
     </g>
     <g id="line2d_30">
      <g>
       <use style="stroke:#000000;stroke-width:0.5;" x="518.4" xlink:href="#mb61abe6ddf" y="51.4564623438"/>
      </g>
     </g>
     <g id="text_13">
      <!-- 6 -->
      <g transform="translate(60.365 54.7677123438)scale(0.12 -0.12)">
       <use xlink:href="#BitstreamVeraSans-Roman-36"/>
      </g>
     </g>
    </g>
    <g id="text_14">
     <!-- Motor position (rad) -->
     <defs>
      <path d="M 9.8125 72.90625 
L 24.515625 72.90625 
L 43.109375 23.296875 
L 61.8125 72.90625 
L 76.515625 72.90625 
L 76.515625 0 
L 66.890625 0 
L 66.890625 64.015625 
L 48.09375 14.015625 
L 38.1875 14.015625 
L 19.390625 64.015625 
L 19.390625 0 
L 9.8125 0 
z
" id="BitstreamVeraSans-Roman-4d"/>
      <path d="M 54.890625 33.015625 
L 54.890625 0 
L 45.90625 0 
L 45.90625 32.71875 
Q 45.90625 40.484375 42.875 44.328125 
Q 39.84375 48.1875 33.796875 48.1875 
Q 26.515625 48.1875 22.3125 43.546875 
Q 18.109375 38.921875 18.109375 30.90625 
L 18.109375 0 
L 9.078125 0 
L 9.078125 54.6875 
L 18.109375 54.6875 
L 18.109375 46.1875 
Q 21.34375 51.125 25.703125 53.5625 
Q 30.078125 56 35.796875 56 
Q 45.21875 56 50.046875 50.171875 
Q 54.890625 44.34375 54.890625 33.015625 
" id="BitstreamVeraSans-Roman-6e"/>
      <path d="M 34.28125 27.484375 
Q 23.390625 27.484375 19.1875 25 
Q 14.984375 22.515625 14.984375 16.5 
Q 14.984375 11.71875 18.140625 8.90625 
Q 21.296875 6.109375 26.703125 6.109375 
Q 34.1875 6.109375 38.703125 11.40625 
Q 43.21875 16.703125 43.21875 25.484375 
L 43.21875 27.484375 
z
M 52.203125 31.203125 
L 52.203125 0 
L 43.21875 0 
L 43.21875 8.296875 
Q 40.140625 3.328125 35.546875 0.953125 
Q 30.953125 -1.421875 24.3125 -1.421875 
Q 15.921875 -1.421875 10.953125 3.296875 
Q 6 8.015625 6 15.921875 
Q 6 25.140625 12.171875 29.828125 
Q 18.359375 34.515625 30.609375 34.515625 
L 43.21875 34.515625 
L 43.21875 35.40625 
Q 43.21875 41.609375 39.140625 45 
Q 35.0625 48.390625 27.6875 48.390625 
Q 23 48.390625 18.546875 47.265625 
Q 14.109375 46.140625 10.015625 43.890625 
L 10.015625 52.203125 
Q 14.9375 54.109375 19.578125 55.046875 
Q 24.21875 56 28.609375 56 
Q 40.484375 56 46.34375 49.84375 
Q 52.203125 43.703125 52.203125 31.203125 
" id="BitstreamVeraSans-Roman-61"/>
      <path d="M 30.609375 48.390625 
Q 23.390625 48.390625 19.1875 42.75 
Q 14.984375 37.109375 14.984375 27.296875 
Q 14.984375 17.484375 19.15625 11.84375 
Q 23.34375 6.203125 30.609375 6.203125 
Q 37.796875 6.203125 41.984375 11.859375 
Q 46.1875 17.53125 46.1875 27.296875 
Q 46.1875 37.015625 41.984375 42.703125 
Q 37.796875 48.390625 30.609375 48.390625 
M 30.609375 56 
Q 42.328125 56 49.015625 48.375 
Q 55.71875 40.765625 55.71875 27.296875 
Q 55.71875 13.875 49.015625 6.21875 
Q 42.328125 -1.421875 30.609375 -1.421875 
Q 18.84375 -1.421875 12.171875 6.21875 
Q 5.515625 13.875 5.515625 27.296875 
Q 5.515625 40.765625 12.171875 48.375 
Q 18.84375 56 30.609375 56 
" id="BitstreamVeraSans-Roman-6f"/>
      <path d="M 45.40625 46.390625 
L 45.40625 75.984375 
L 54.390625 75.984375 
L 54.390625 0 
L 45.40625 0 
L 45.40625 8.203125 
Q 42.578125 3.328125 38.25 0.953125 
Q 33.9375 -1.421875 27.875 -1.421875 
Q 17.96875 -1.421875 11.734375 6.484375 
Q 5.515625 14.40625 5.515625 27.296875 
Q 5.515625 40.1875 11.734375 48.09375 
Q 17.96875 56 27.875 56 
Q 33.9375 56 38.25 53.625 
Q 42.578125 51.265625 45.40625 46.390625 
M 14.796875 27.296875 
Q 14.796875 17.390625 18.875 11.75 
Q 22.953125 6.109375 30.078125 6.109375 
Q 37.203125 6.109375 41.296875 11.75 
Q 45.40625 17.390625 45.40625 27.296875 
Q 45.40625 37.203125 41.296875 42.84375 
Q 37.203125 48.484375 30.078125 48.484375 
Q 22.953125 48.484375 18.875 42.84375 
Q 14.796875 37.203125 14.796875 27.296875 
" id="BitstreamVeraSans-Roman-64"/>
      <path d="M 18.3125 70.21875 
L 18.3125 54.6875 
L 36.8125 54.6875 
L 36.8125 47.703125 
L 18.3125 47.703125 
L 18.3125 18.015625 
Q 18.3125 11.328125 20.140625 9.421875 
Q 21.96875 7.515625 27.59375 7.515625 
L 36.8125 7.515625 
L 36.8125 0 
L 27.59375 0 
Q 17.1875 0 13.234375 3.875 
Q 9.28125 7.765625 9.28125 18.015625 
L 9.28125 47.703125 
L 2.6875 47.703125 
L 2.6875 54.6875 
L 9.28125 54.6875 
L 9.28125 70.21875 
z
" id="BitstreamVeraSans-Roman-74"/>
      <path d="M 41.109375 46.296875 
Q 39.59375 47.171875 37.8125 47.578125 
Q 36.03125 48 33.890625 48 
Q 26.265625 48 22.1875 43.046875 
Q 18.109375 38.09375 18.109375 28.8125 
L 18.109375 0 
L 9.078125 0 
L 9.078125 54.6875 
L 18.109375 54.6875 
L 18.109375 46.1875 
Q 20.953125 51.171875 25.484375 53.578125 
Q 30.03125 56 36.53125 56 
Q 37.453125 56 38.578125 55.875 
Q 39.703125 55.765625 41.0625 55.515625 
z
" id="BitstreamVeraSans-Roman-72"/>
      <path d="M 18.109375 8.203125 
L 18.109375 -20.796875 
L 9.078125 -20.796875 
L 9.078125 54.6875 
L 18.109375 54.6875 
L 18.109375 46.390625 
Q 20.953125 51.265625 25.265625 53.625 
Q 29.59375 56 35.59375 56 
Q 45.5625 56 51.78125 48.09375 
Q 58.015625 40.1875 58.015625 27.296875 
Q 58.015625 14.40625 51.78125 6.484375 
Q 45.5625 -1.421875 35.59375 -1.421875 
Q 29.59375 -1.421875 25.265625 0.953125 
Q 20.953125 3.328125 18.109375 8.203125 
M 48.6875 27.296875 
Q 48.6875 37.203125 44.609375 42.84375 
Q 40.53125 48.484375 33.40625 48.484375 
Q 26.265625 48.484375 22.1875 42.84375 
Q 18.109375 37.203125 18.109375 27.296875 
Q 18.109375 17.390625 22.1875 11.75 
Q 26.265625 6.109375 33.40625 6.109375 
Q 40.53125 6.109375 44.609375 11.75 
Q 48.6875 17.390625 48.6875 27.296875 
" id="BitstreamVeraSans-Roman-70"/>
     </defs>
     <g transform="translate(42.81375 275.551875)rotate(-90.0)scale(0.12 -0.12)">
      <use xlink:href="#BitstreamVeraSans-Roman-4d"/>
      <use x="86.279296875" xlink:href="#BitstreamVeraSans-Roman-6f"/>
      <use x="147.4609375" xlink:href="#BitstreamVeraSans-Roman-74"/>
      <use x="186.669921875" xlink:href="#BitstreamVeraSans-Roman-6f"/>
      <use x="247.8515625" xlink:href="#BitstreamVeraSans-Roman-72"/>
      <use x="288.96484375" xlink:href="#BitstreamVeraSans-Roman-20"/>
      <use x="320.751953125" xlink:href="#BitstreamVeraSans-Roman-70"/>
      <use x="384.228515625" xlink:href="#BitstreamVeraSans-Roman-6f"/>
      <use x="445.41015625" xlink:href="#BitstreamVeraSans-Roman-73"/>
      <use x="497.509765625" xlink:href="#BitstreamVeraSans-Roman-69"/>
      <use x="525.29296875" xlink:href="#BitstreamVeraSans-Roman-74"/>
      <use x="564.501953125" xlink:href="#BitstreamVeraSans-Roman-69"/>
      <use x="592.28515625" xlink:href="#BitstreamVeraSans-Roman-6f"/>
      <use x="653.466796875" xlink:href="#BitstreamVeraSans-Roman-6e"/>
      <use x="716.845703125" xlink:href="#BitstreamVeraSans-Roman-20"/>
      <use x="748.6328125" xlink:href="#BitstreamVeraSans-Roman-28"/>
      <use x="787.646484375" xlink:href="#BitstreamVeraSans-Roman-72"/>
      <use x="828.759765625" xlink:href="#BitstreamVeraSans-Roman-61"/>
      <use x="890.0390625" xlink:href="#BitstreamVeraSans-Roman-64"/>
      <use x="953.515625" xlink:href="#BitstreamVeraSans-Roman-29"/>
     </g>
    </g>
   </g>
   <g id="legend_1">
    <g id="patch_7">
     <path d="M 76.998 383.802 
L 513.402 383.802 
L 513.402 366.130946 
L 76.998 366.130946 
z
" style="fill:#ffffff;stroke:#000000;stroke-linejoin:miter;"/>
    </g>
    <g id="line2d_31">
     <path d="M 83.9952 374.226144 
L 97.9896 374.226144 
" style="fill:none;stroke:#b4656f;stroke-linecap:square;"/>
    </g>
    <g id="line2d_32"/>
    <g id="text_15">
     <!-- Muscle 1 -->
     <defs>
      <path d="M 8.5 21.578125 
L 8.5 54.6875 
L 17.484375 54.6875 
L 17.484375 21.921875 
Q 17.484375 14.15625 20.5 10.265625 
Q 23.53125 6.390625 29.59375 6.390625 
Q 36.859375 6.390625 41.078125 11.03125 
Q 45.3125 15.671875 45.3125 23.6875 
L 45.3125 54.6875 
L 54.296875 54.6875 
L 54.296875 0 
L 45.3125 0 
L 45.3125 8.40625 
Q 42.046875 3.421875 37.71875 1 
Q 33.40625 -1.421875 27.6875 -1.421875 
Q 18.265625 -1.421875 13.375 4.4375 
Q 8.5 10.296875 8.5 21.578125 
" id="BitstreamVeraSans-Roman-75"/>
      <path d="M 9.421875 75.984375 
L 18.40625 75.984375 
L 18.40625 0 
L 9.421875 0 
z
" id="BitstreamVeraSans-Roman-6c"/>
      <path d="M 48.78125 52.59375 
L 48.78125 44.1875 
Q 44.96875 46.296875 41.140625 47.34375 
Q 37.3125 48.390625 33.40625 48.390625 
Q 24.65625 48.390625 19.8125 42.84375 
Q 14.984375 37.3125 14.984375 27.296875 
Q 14.984375 17.28125 19.8125 11.734375 
Q 24.65625 6.203125 33.40625 6.203125 
Q 37.3125 6.203125 41.140625 7.25 
Q 44.96875 8.296875 48.78125 10.40625 
L 48.78125 2.09375 
Q 45.015625 0.34375 40.984375 -0.53125 
Q 36.96875 -1.421875 32.421875 -1.421875 
Q 20.0625 -1.421875 12.78125 6.34375 
Q 5.515625 14.109375 5.515625 27.296875 
Q 5.515625 40.671875 12.859375 48.328125 
Q 20.21875 56 33.015625 56 
Q 37.15625 56 41.109375 55.140625 
Q 45.0625 54.296875 48.78125 52.59375 
" id="BitstreamVeraSans-Roman-63"/>
     </defs>
     <g transform="translate(108.9852 377.724744375)scale(0.09996 -0.09996)">
      <use xlink:href="#BitstreamVeraSans-Roman-4d"/>
      <use x="86.279296875" xlink:href="#BitstreamVeraSans-Roman-75"/>
      <use x="149.658203125" xlink:href="#BitstreamVeraSans-Roman-73"/>
      <use x="201.7578125" xlink:href="#BitstreamVeraSans-Roman-63"/>
      <use x="256.73828125" xlink:href="#BitstreamVeraSans-Roman-6c"/>
      <use x="284.521484375" xlink:href="#BitstreamVeraSans-Roman-65"/>
      <use x="346.044921875" xlink:href="#BitstreamVeraSans-Roman-20"/>
      <use x="377.83203125" xlink:href="#BitstreamVeraSans-Roman-31"/>
     </g>
    </g>
    <g id="line2d_33">
     <path d="M 155.253349 374.226144 
L 169.247749 374.226144 
" style="fill:none;stroke:#f3d34a;stroke-linecap:square;"/>
    </g>
    <g id="line2d_34"/>
    <g id="text_16">
     <!-- Muscle 2 -->
     <g transform="translate(180.243349125 377.724744375)scale(0.09996 -0.09996)">
      <use xlink:href="#BitstreamVeraSans-Roman-4d"/>
      <use x="86.279296875" xlink:href="#BitstreamVeraSans-Roman-75"/>
      <use x="149.658203125" xlink:href="#BitstreamVeraSans-Roman-73"/>
      <use x="201.7578125" xlink:href="#BitstreamVeraSans-Roman-63"/>
      <use x="256.73828125" xlink:href="#BitstreamVeraSans-Roman-6c"/>
      <use x="284.521484375" xlink:href="#BitstreamVeraSans-Roman-65"/>
      <use x="346.044921875" xlink:href="#BitstreamVeraSans-Roman-20"/>
      <use x="377.83203125" xlink:href="#BitstreamVeraSans-Roman-32"/>
     </g>
    </g>
    <g id="line2d_35">
     <path d="M 226.511498 374.226144 
L 240.505898 374.226144 
" style="fill:none;stroke:#a11692;stroke-linecap:square;"/>
    </g>
    <g id="line2d_36"/>
    <g id="text_17">
     <!-- Muscle 6 -->
     <g transform="translate(251.50149825 377.724744375)scale(0.09996 -0.09996)">
      <use xlink:href="#BitstreamVeraSans-Roman-4d"/>
      <use x="86.279296875" xlink:href="#BitstreamVeraSans-Roman-75"/>
      <use x="149.658203125" xlink:href="#BitstreamVeraSans-Roman-73"/>
      <use x="201.7578125" xlink:href="#BitstreamVeraSans-Roman-63"/>
      <use x="256.73828125" xlink:href="#BitstreamVeraSans-Roman-6c"/>
      <use x="284.521484375" xlink:href="#BitstreamVeraSans-Roman-65"/>
      <use x="346.044921875" xlink:href="#BitstreamVeraSans-Roman-20"/>
      <use x="377.83203125" xlink:href="#BitstreamVeraSans-Roman-36"/>
     </g>
    </g>
    <g id="line2d_37">
     <path d="M 297.769647 374.226144 
L 311.764047 374.226144 
" style="fill:none;stroke:#f75c03;stroke-linecap:square;"/>
    </g>
    <g id="line2d_38"/>
    <g id="text_18">
     <!-- Muscle 5 -->
     <g transform="translate(322.759647375 377.724744375)scale(0.09996 -0.09996)">
      <use xlink:href="#BitstreamVeraSans-Roman-4d"/>
      <use x="86.279296875" xlink:href="#BitstreamVeraSans-Roman-75"/>
      <use x="149.658203125" xlink:href="#BitstreamVeraSans-Roman-73"/>
      <use x="201.7578125" xlink:href="#BitstreamVeraSans-Roman-63"/>
      <use x="256.73828125" xlink:href="#BitstreamVeraSans-Roman-6c"/>
      <use x="284.521484375" xlink:href="#BitstreamVeraSans-Roman-65"/>
      <use x="346.044921875" xlink:href="#BitstreamVeraSans-Roman-20"/>
      <use x="377.83203125" xlink:href="#BitstreamVeraSans-Roman-35"/>
     </g>
    </g>
    <g id="line2d_39">
     <path d="M 369.027797 374.226144 
L 383.022197 374.226144 
" style="fill:none;stroke:#2274a5;stroke-linecap:square;"/>
    </g>
    <g id="line2d_40"/>
    <g id="text_19">
     <!-- Muscle 4 -->
     <g transform="translate(394.0177965 377.724744375)scale(0.09996 -0.09996)">
      <use xlink:href="#BitstreamVeraSans-Roman-4d"/>
      <use x="86.279296875" xlink:href="#BitstreamVeraSans-Roman-75"/>
      <use x="149.658203125" xlink:href="#BitstreamVeraSans-Roman-73"/>
      <use x="201.7578125" xlink:href="#BitstreamVeraSans-Roman-63"/>
      <use x="256.73828125" xlink:href="#BitstreamVeraSans-Roman-6c"/>
      <use x="284.521484375" xlink:href="#BitstreamVeraSans-Roman-65"/>
      <use x="346.044921875" xlink:href="#BitstreamVeraSans-Roman-20"/>
      <use x="377.83203125" xlink:href="#BitstreamVeraSans-Roman-34"/>
     </g>
    </g>
    <g id="line2d_41">
     <path d="M 440.285946 374.226144 
L 454.280346 374.226144 
" style="fill:none;stroke:#4e937a;stroke-linecap:square;"/>
    </g>
    <g id="line2d_42"/>
    <g id="text_20">
     <!-- Muscle 3 -->
     <g transform="translate(465.275945625 377.724744375)scale(0.09996 -0.09996)">
      <use xlink:href="#BitstreamVeraSans-Roman-4d"/>
      <use x="86.279296875" xlink:href="#BitstreamVeraSans-Roman-75"/>
      <use x="149.658203125" xlink:href="#BitstreamVeraSans-Roman-73"/>
      <use x="201.7578125" xlink:href="#BitstreamVeraSans-Roman-63"/>
      <use x="256.73828125" xlink:href="#BitstreamVeraSans-Roman-6c"/>
      <use x="284.521484375" xlink:href="#BitstreamVeraSans-Roman-65"/>
      <use x="346.044921875" xlink:href="#BitstreamVeraSans-Roman-20"/>
      <use x="377.83203125" xlink:href="#BitstreamVeraSans-Roman-33"/>
     </g>
    </g>
   </g>
  </g>
 </g>
 <defs>
  <clipPath id="p138023a0e9">
   <rect height="345.6" width="446.4" x="72.0" y="43.2"/>
  </clipPath>
 </defs>
</svg>
